%TF.GenerationSoftware,KiCad,Pcbnew,9.0.0*%
%TF.CreationDate,2025-03-06T16:27:16-06:00*%
%TF.ProjectId,445 Design Document Schematic,34343520-4465-4736-9967-6e20446f6375,rev?*%
%TF.SameCoordinates,Original*%
%TF.FileFunction,Legend,Top*%
%TF.FilePolarity,Positive*%
%FSLAX46Y46*%
G04 Gerber Fmt 4.6, Leading zero omitted, Abs format (unit mm)*
G04 Created by KiCad (PCBNEW 9.0.0) date 2025-03-06 16:27:16*
%MOMM*%
%LPD*%
G01*
G04 APERTURE LIST*
%ADD10C,0.300000*%
%ADD11C,0.150000*%
%ADD12C,0.120000*%
G04 APERTURE END LIST*
D10*
X106697368Y-48470996D02*
X106697368Y-49470996D01*
X106340225Y-47899568D02*
X105983082Y-48970996D01*
X105983082Y-48970996D02*
X106911653Y-48970996D01*
X108125939Y-48470996D02*
X108125939Y-49470996D01*
X107768796Y-47899568D02*
X107411653Y-48970996D01*
X107411653Y-48970996D02*
X108340224Y-48970996D01*
X109625938Y-47970996D02*
X108911652Y-47970996D01*
X108911652Y-47970996D02*
X108840224Y-48685282D01*
X108840224Y-48685282D02*
X108911652Y-48613853D01*
X108911652Y-48613853D02*
X109054510Y-48542425D01*
X109054510Y-48542425D02*
X109411652Y-48542425D01*
X109411652Y-48542425D02*
X109554510Y-48613853D01*
X109554510Y-48613853D02*
X109625938Y-48685282D01*
X109625938Y-48685282D02*
X109697367Y-48828139D01*
X109697367Y-48828139D02*
X109697367Y-49185282D01*
X109697367Y-49185282D02*
X109625938Y-49328139D01*
X109625938Y-49328139D02*
X109554510Y-49399568D01*
X109554510Y-49399568D02*
X109411652Y-49470996D01*
X109411652Y-49470996D02*
X109054510Y-49470996D01*
X109054510Y-49470996D02*
X108911652Y-49399568D01*
X108911652Y-49399568D02*
X108840224Y-49328139D01*
X111483080Y-49470996D02*
X111483080Y-47970996D01*
X111483080Y-47970996D02*
X112054509Y-47970996D01*
X112054509Y-47970996D02*
X112197366Y-48042425D01*
X112197366Y-48042425D02*
X112268795Y-48113853D01*
X112268795Y-48113853D02*
X112340223Y-48256710D01*
X112340223Y-48256710D02*
X112340223Y-48470996D01*
X112340223Y-48470996D02*
X112268795Y-48613853D01*
X112268795Y-48613853D02*
X112197366Y-48685282D01*
X112197366Y-48685282D02*
X112054509Y-48756710D01*
X112054509Y-48756710D02*
X111483080Y-48756710D01*
X113840223Y-49328139D02*
X113768795Y-49399568D01*
X113768795Y-49399568D02*
X113554509Y-49470996D01*
X113554509Y-49470996D02*
X113411652Y-49470996D01*
X113411652Y-49470996D02*
X113197366Y-49399568D01*
X113197366Y-49399568D02*
X113054509Y-49256710D01*
X113054509Y-49256710D02*
X112983080Y-49113853D01*
X112983080Y-49113853D02*
X112911652Y-48828139D01*
X112911652Y-48828139D02*
X112911652Y-48613853D01*
X112911652Y-48613853D02*
X112983080Y-48328139D01*
X112983080Y-48328139D02*
X113054509Y-48185282D01*
X113054509Y-48185282D02*
X113197366Y-48042425D01*
X113197366Y-48042425D02*
X113411652Y-47970996D01*
X113411652Y-47970996D02*
X113554509Y-47970996D01*
X113554509Y-47970996D02*
X113768795Y-48042425D01*
X113768795Y-48042425D02*
X113840223Y-48113853D01*
X114983080Y-48685282D02*
X115197366Y-48756710D01*
X115197366Y-48756710D02*
X115268795Y-48828139D01*
X115268795Y-48828139D02*
X115340223Y-48970996D01*
X115340223Y-48970996D02*
X115340223Y-49185282D01*
X115340223Y-49185282D02*
X115268795Y-49328139D01*
X115268795Y-49328139D02*
X115197366Y-49399568D01*
X115197366Y-49399568D02*
X115054509Y-49470996D01*
X115054509Y-49470996D02*
X114483080Y-49470996D01*
X114483080Y-49470996D02*
X114483080Y-47970996D01*
X114483080Y-47970996D02*
X114983080Y-47970996D01*
X114983080Y-47970996D02*
X115125938Y-48042425D01*
X115125938Y-48042425D02*
X115197366Y-48113853D01*
X115197366Y-48113853D02*
X115268795Y-48256710D01*
X115268795Y-48256710D02*
X115268795Y-48399568D01*
X115268795Y-48399568D02*
X115197366Y-48542425D01*
X115197366Y-48542425D02*
X115125938Y-48613853D01*
X115125938Y-48613853D02*
X114983080Y-48685282D01*
X114983080Y-48685282D02*
X114483080Y-48685282D01*
X105983082Y-50528769D02*
X106054510Y-50457341D01*
X106054510Y-50457341D02*
X106197368Y-50385912D01*
X106197368Y-50385912D02*
X106554510Y-50385912D01*
X106554510Y-50385912D02*
X106697368Y-50457341D01*
X106697368Y-50457341D02*
X106768796Y-50528769D01*
X106768796Y-50528769D02*
X106840225Y-50671626D01*
X106840225Y-50671626D02*
X106840225Y-50814484D01*
X106840225Y-50814484D02*
X106768796Y-51028769D01*
X106768796Y-51028769D02*
X105911653Y-51885912D01*
X105911653Y-51885912D02*
X106840225Y-51885912D01*
X107768796Y-50385912D02*
X107911653Y-50385912D01*
X107911653Y-50385912D02*
X108054510Y-50457341D01*
X108054510Y-50457341D02*
X108125939Y-50528769D01*
X108125939Y-50528769D02*
X108197367Y-50671626D01*
X108197367Y-50671626D02*
X108268796Y-50957341D01*
X108268796Y-50957341D02*
X108268796Y-51314484D01*
X108268796Y-51314484D02*
X108197367Y-51600198D01*
X108197367Y-51600198D02*
X108125939Y-51743055D01*
X108125939Y-51743055D02*
X108054510Y-51814484D01*
X108054510Y-51814484D02*
X107911653Y-51885912D01*
X107911653Y-51885912D02*
X107768796Y-51885912D01*
X107768796Y-51885912D02*
X107625939Y-51814484D01*
X107625939Y-51814484D02*
X107554510Y-51743055D01*
X107554510Y-51743055D02*
X107483081Y-51600198D01*
X107483081Y-51600198D02*
X107411653Y-51314484D01*
X107411653Y-51314484D02*
X107411653Y-50957341D01*
X107411653Y-50957341D02*
X107483081Y-50671626D01*
X107483081Y-50671626D02*
X107554510Y-50528769D01*
X107554510Y-50528769D02*
X107625939Y-50457341D01*
X107625939Y-50457341D02*
X107768796Y-50385912D01*
X108840224Y-50528769D02*
X108911652Y-50457341D01*
X108911652Y-50457341D02*
X109054510Y-50385912D01*
X109054510Y-50385912D02*
X109411652Y-50385912D01*
X109411652Y-50385912D02*
X109554510Y-50457341D01*
X109554510Y-50457341D02*
X109625938Y-50528769D01*
X109625938Y-50528769D02*
X109697367Y-50671626D01*
X109697367Y-50671626D02*
X109697367Y-50814484D01*
X109697367Y-50814484D02*
X109625938Y-51028769D01*
X109625938Y-51028769D02*
X108768795Y-51885912D01*
X108768795Y-51885912D02*
X109697367Y-51885912D01*
X111054509Y-50385912D02*
X110340223Y-50385912D01*
X110340223Y-50385912D02*
X110268795Y-51100198D01*
X110268795Y-51100198D02*
X110340223Y-51028769D01*
X110340223Y-51028769D02*
X110483081Y-50957341D01*
X110483081Y-50957341D02*
X110840223Y-50957341D01*
X110840223Y-50957341D02*
X110983081Y-51028769D01*
X110983081Y-51028769D02*
X111054509Y-51100198D01*
X111054509Y-51100198D02*
X111125938Y-51243055D01*
X111125938Y-51243055D02*
X111125938Y-51600198D01*
X111125938Y-51600198D02*
X111054509Y-51743055D01*
X111054509Y-51743055D02*
X110983081Y-51814484D01*
X110983081Y-51814484D02*
X110840223Y-51885912D01*
X110840223Y-51885912D02*
X110483081Y-51885912D01*
X110483081Y-51885912D02*
X110340223Y-51814484D01*
X110340223Y-51814484D02*
X110268795Y-51743055D01*
X111768794Y-51314484D02*
X112911652Y-51314484D01*
X113911652Y-50385912D02*
X114054509Y-50385912D01*
X114054509Y-50385912D02*
X114197366Y-50457341D01*
X114197366Y-50457341D02*
X114268795Y-50528769D01*
X114268795Y-50528769D02*
X114340223Y-50671626D01*
X114340223Y-50671626D02*
X114411652Y-50957341D01*
X114411652Y-50957341D02*
X114411652Y-51314484D01*
X114411652Y-51314484D02*
X114340223Y-51600198D01*
X114340223Y-51600198D02*
X114268795Y-51743055D01*
X114268795Y-51743055D02*
X114197366Y-51814484D01*
X114197366Y-51814484D02*
X114054509Y-51885912D01*
X114054509Y-51885912D02*
X113911652Y-51885912D01*
X113911652Y-51885912D02*
X113768795Y-51814484D01*
X113768795Y-51814484D02*
X113697366Y-51743055D01*
X113697366Y-51743055D02*
X113625937Y-51600198D01*
X113625937Y-51600198D02*
X113554509Y-51314484D01*
X113554509Y-51314484D02*
X113554509Y-50957341D01*
X113554509Y-50957341D02*
X113625937Y-50671626D01*
X113625937Y-50671626D02*
X113697366Y-50528769D01*
X113697366Y-50528769D02*
X113768795Y-50457341D01*
X113768795Y-50457341D02*
X113911652Y-50385912D01*
X114983080Y-50528769D02*
X115054508Y-50457341D01*
X115054508Y-50457341D02*
X115197366Y-50385912D01*
X115197366Y-50385912D02*
X115554508Y-50385912D01*
X115554508Y-50385912D02*
X115697366Y-50457341D01*
X115697366Y-50457341D02*
X115768794Y-50528769D01*
X115768794Y-50528769D02*
X115840223Y-50671626D01*
X115840223Y-50671626D02*
X115840223Y-50814484D01*
X115840223Y-50814484D02*
X115768794Y-51028769D01*
X115768794Y-51028769D02*
X114911651Y-51885912D01*
X114911651Y-51885912D02*
X115840223Y-51885912D01*
X116483079Y-51314484D02*
X117625937Y-51314484D01*
X118268794Y-50528769D02*
X118340222Y-50457341D01*
X118340222Y-50457341D02*
X118483080Y-50385912D01*
X118483080Y-50385912D02*
X118840222Y-50385912D01*
X118840222Y-50385912D02*
X118983080Y-50457341D01*
X118983080Y-50457341D02*
X119054508Y-50528769D01*
X119054508Y-50528769D02*
X119125937Y-50671626D01*
X119125937Y-50671626D02*
X119125937Y-50814484D01*
X119125937Y-50814484D02*
X119054508Y-51028769D01*
X119054508Y-51028769D02*
X118197365Y-51885912D01*
X118197365Y-51885912D02*
X119125937Y-51885912D01*
X120411651Y-50385912D02*
X120125936Y-50385912D01*
X120125936Y-50385912D02*
X119983079Y-50457341D01*
X119983079Y-50457341D02*
X119911651Y-50528769D01*
X119911651Y-50528769D02*
X119768793Y-50743055D01*
X119768793Y-50743055D02*
X119697365Y-51028769D01*
X119697365Y-51028769D02*
X119697365Y-51600198D01*
X119697365Y-51600198D02*
X119768793Y-51743055D01*
X119768793Y-51743055D02*
X119840222Y-51814484D01*
X119840222Y-51814484D02*
X119983079Y-51885912D01*
X119983079Y-51885912D02*
X120268793Y-51885912D01*
X120268793Y-51885912D02*
X120411651Y-51814484D01*
X120411651Y-51814484D02*
X120483079Y-51743055D01*
X120483079Y-51743055D02*
X120554508Y-51600198D01*
X120554508Y-51600198D02*
X120554508Y-51243055D01*
X120554508Y-51243055D02*
X120483079Y-51100198D01*
X120483079Y-51100198D02*
X120411651Y-51028769D01*
X120411651Y-51028769D02*
X120268793Y-50957341D01*
X120268793Y-50957341D02*
X119983079Y-50957341D01*
X119983079Y-50957341D02*
X119840222Y-51028769D01*
X119840222Y-51028769D02*
X119768793Y-51100198D01*
X119768793Y-51100198D02*
X119697365Y-51243055D01*
X105840225Y-52800828D02*
X106697368Y-52800828D01*
X106268796Y-54300828D02*
X106268796Y-52800828D01*
X107768796Y-54229400D02*
X107625939Y-54300828D01*
X107625939Y-54300828D02*
X107340225Y-54300828D01*
X107340225Y-54300828D02*
X107197367Y-54229400D01*
X107197367Y-54229400D02*
X107125939Y-54086542D01*
X107125939Y-54086542D02*
X107125939Y-53515114D01*
X107125939Y-53515114D02*
X107197367Y-53372257D01*
X107197367Y-53372257D02*
X107340225Y-53300828D01*
X107340225Y-53300828D02*
X107625939Y-53300828D01*
X107625939Y-53300828D02*
X107768796Y-53372257D01*
X107768796Y-53372257D02*
X107840225Y-53515114D01*
X107840225Y-53515114D02*
X107840225Y-53657971D01*
X107840225Y-53657971D02*
X107125939Y-53800828D01*
X109125939Y-54300828D02*
X109125939Y-53515114D01*
X109125939Y-53515114D02*
X109054510Y-53372257D01*
X109054510Y-53372257D02*
X108911653Y-53300828D01*
X108911653Y-53300828D02*
X108625939Y-53300828D01*
X108625939Y-53300828D02*
X108483081Y-53372257D01*
X109125939Y-54229400D02*
X108983081Y-54300828D01*
X108983081Y-54300828D02*
X108625939Y-54300828D01*
X108625939Y-54300828D02*
X108483081Y-54229400D01*
X108483081Y-54229400D02*
X108411653Y-54086542D01*
X108411653Y-54086542D02*
X108411653Y-53943685D01*
X108411653Y-53943685D02*
X108483081Y-53800828D01*
X108483081Y-53800828D02*
X108625939Y-53729400D01*
X108625939Y-53729400D02*
X108983081Y-53729400D01*
X108983081Y-53729400D02*
X109125939Y-53657971D01*
X109840224Y-54300828D02*
X109840224Y-53300828D01*
X109840224Y-53443685D02*
X109911653Y-53372257D01*
X109911653Y-53372257D02*
X110054510Y-53300828D01*
X110054510Y-53300828D02*
X110268796Y-53300828D01*
X110268796Y-53300828D02*
X110411653Y-53372257D01*
X110411653Y-53372257D02*
X110483082Y-53515114D01*
X110483082Y-53515114D02*
X110483082Y-54300828D01*
X110483082Y-53515114D02*
X110554510Y-53372257D01*
X110554510Y-53372257D02*
X110697367Y-53300828D01*
X110697367Y-53300828D02*
X110911653Y-53300828D01*
X110911653Y-53300828D02*
X111054510Y-53372257D01*
X111054510Y-53372257D02*
X111125939Y-53515114D01*
X111125939Y-53515114D02*
X111125939Y-54300828D01*
X112911653Y-52943685D02*
X112983081Y-52872257D01*
X112983081Y-52872257D02*
X113125939Y-52800828D01*
X113125939Y-52800828D02*
X113483081Y-52800828D01*
X113483081Y-52800828D02*
X113625939Y-52872257D01*
X113625939Y-52872257D02*
X113697367Y-52943685D01*
X113697367Y-52943685D02*
X113768796Y-53086542D01*
X113768796Y-53086542D02*
X113768796Y-53229400D01*
X113768796Y-53229400D02*
X113697367Y-53443685D01*
X113697367Y-53443685D02*
X112840224Y-54300828D01*
X112840224Y-54300828D02*
X113768796Y-54300828D01*
X114268795Y-52800828D02*
X115268795Y-52800828D01*
X115268795Y-52800828D02*
X114625938Y-54300828D01*
D11*
X117454819Y-77421904D02*
X118264342Y-77421904D01*
X118264342Y-77421904D02*
X118359580Y-77374285D01*
X118359580Y-77374285D02*
X118407200Y-77326666D01*
X118407200Y-77326666D02*
X118454819Y-77231428D01*
X118454819Y-77231428D02*
X118454819Y-77040952D01*
X118454819Y-77040952D02*
X118407200Y-76945714D01*
X118407200Y-76945714D02*
X118359580Y-76898095D01*
X118359580Y-76898095D02*
X118264342Y-76850476D01*
X118264342Y-76850476D02*
X117454819Y-76850476D01*
X117454819Y-75898095D02*
X117454819Y-76374285D01*
X117454819Y-76374285D02*
X117931009Y-76421904D01*
X117931009Y-76421904D02*
X117883390Y-76374285D01*
X117883390Y-76374285D02*
X117835771Y-76279047D01*
X117835771Y-76279047D02*
X117835771Y-76040952D01*
X117835771Y-76040952D02*
X117883390Y-75945714D01*
X117883390Y-75945714D02*
X117931009Y-75898095D01*
X117931009Y-75898095D02*
X118026247Y-75850476D01*
X118026247Y-75850476D02*
X118264342Y-75850476D01*
X118264342Y-75850476D02*
X118359580Y-75898095D01*
X118359580Y-75898095D02*
X118407200Y-75945714D01*
X118407200Y-75945714D02*
X118454819Y-76040952D01*
X118454819Y-76040952D02*
X118454819Y-76279047D01*
X118454819Y-76279047D02*
X118407200Y-76374285D01*
X118407200Y-76374285D02*
X118359580Y-76421904D01*
X158466666Y-97654819D02*
X158466666Y-98369104D01*
X158466666Y-98369104D02*
X158419047Y-98511961D01*
X158419047Y-98511961D02*
X158323809Y-98607200D01*
X158323809Y-98607200D02*
X158180952Y-98654819D01*
X158180952Y-98654819D02*
X158085714Y-98654819D01*
X158942857Y-98654819D02*
X158942857Y-97654819D01*
X158942857Y-97654819D02*
X159323809Y-97654819D01*
X159323809Y-97654819D02*
X159419047Y-97702438D01*
X159419047Y-97702438D02*
X159466666Y-97750057D01*
X159466666Y-97750057D02*
X159514285Y-97845295D01*
X159514285Y-97845295D02*
X159514285Y-97988152D01*
X159514285Y-97988152D02*
X159466666Y-98083390D01*
X159466666Y-98083390D02*
X159419047Y-98131009D01*
X159419047Y-98131009D02*
X159323809Y-98178628D01*
X159323809Y-98178628D02*
X158942857Y-98178628D01*
X160466666Y-98654819D02*
X159895238Y-98654819D01*
X160180952Y-98654819D02*
X160180952Y-97654819D01*
X160180952Y-97654819D02*
X160085714Y-97797676D01*
X160085714Y-97797676D02*
X159990476Y-97892914D01*
X159990476Y-97892914D02*
X159895238Y-97940533D01*
X158657142Y-102304819D02*
X158323809Y-101828628D01*
X158085714Y-102304819D02*
X158085714Y-101304819D01*
X158085714Y-101304819D02*
X158466666Y-101304819D01*
X158466666Y-101304819D02*
X158561904Y-101352438D01*
X158561904Y-101352438D02*
X158609523Y-101400057D01*
X158609523Y-101400057D02*
X158657142Y-101495295D01*
X158657142Y-101495295D02*
X158657142Y-101638152D01*
X158657142Y-101638152D02*
X158609523Y-101733390D01*
X158609523Y-101733390D02*
X158561904Y-101781009D01*
X158561904Y-101781009D02*
X158466666Y-101828628D01*
X158466666Y-101828628D02*
X158085714Y-101828628D01*
X159609523Y-102304819D02*
X159038095Y-102304819D01*
X159323809Y-102304819D02*
X159323809Y-101304819D01*
X159323809Y-101304819D02*
X159228571Y-101447676D01*
X159228571Y-101447676D02*
X159133333Y-101542914D01*
X159133333Y-101542914D02*
X159038095Y-101590533D01*
X159942857Y-101304819D02*
X160609523Y-101304819D01*
X160609523Y-101304819D02*
X160180952Y-102304819D01*
X106607142Y-85804819D02*
X106273809Y-85328628D01*
X106035714Y-85804819D02*
X106035714Y-84804819D01*
X106035714Y-84804819D02*
X106416666Y-84804819D01*
X106416666Y-84804819D02*
X106511904Y-84852438D01*
X106511904Y-84852438D02*
X106559523Y-84900057D01*
X106559523Y-84900057D02*
X106607142Y-84995295D01*
X106607142Y-84995295D02*
X106607142Y-85138152D01*
X106607142Y-85138152D02*
X106559523Y-85233390D01*
X106559523Y-85233390D02*
X106511904Y-85281009D01*
X106511904Y-85281009D02*
X106416666Y-85328628D01*
X106416666Y-85328628D02*
X106035714Y-85328628D01*
X107559523Y-85804819D02*
X106988095Y-85804819D01*
X107273809Y-85804819D02*
X107273809Y-84804819D01*
X107273809Y-84804819D02*
X107178571Y-84947676D01*
X107178571Y-84947676D02*
X107083333Y-85042914D01*
X107083333Y-85042914D02*
X106988095Y-85090533D01*
X107940476Y-84900057D02*
X107988095Y-84852438D01*
X107988095Y-84852438D02*
X108083333Y-84804819D01*
X108083333Y-84804819D02*
X108321428Y-84804819D01*
X108321428Y-84804819D02*
X108416666Y-84852438D01*
X108416666Y-84852438D02*
X108464285Y-84900057D01*
X108464285Y-84900057D02*
X108511904Y-84995295D01*
X108511904Y-84995295D02*
X108511904Y-85090533D01*
X108511904Y-85090533D02*
X108464285Y-85233390D01*
X108464285Y-85233390D02*
X107892857Y-85804819D01*
X107892857Y-85804819D02*
X108511904Y-85804819D01*
X105746667Y-69997200D02*
X105889524Y-70044819D01*
X105889524Y-70044819D02*
X106127619Y-70044819D01*
X106127619Y-70044819D02*
X106222857Y-69997200D01*
X106222857Y-69997200D02*
X106270476Y-69949580D01*
X106270476Y-69949580D02*
X106318095Y-69854342D01*
X106318095Y-69854342D02*
X106318095Y-69759104D01*
X106318095Y-69759104D02*
X106270476Y-69663866D01*
X106270476Y-69663866D02*
X106222857Y-69616247D01*
X106222857Y-69616247D02*
X106127619Y-69568628D01*
X106127619Y-69568628D02*
X105937143Y-69521009D01*
X105937143Y-69521009D02*
X105841905Y-69473390D01*
X105841905Y-69473390D02*
X105794286Y-69425771D01*
X105794286Y-69425771D02*
X105746667Y-69330533D01*
X105746667Y-69330533D02*
X105746667Y-69235295D01*
X105746667Y-69235295D02*
X105794286Y-69140057D01*
X105794286Y-69140057D02*
X105841905Y-69092438D01*
X105841905Y-69092438D02*
X105937143Y-69044819D01*
X105937143Y-69044819D02*
X106175238Y-69044819D01*
X106175238Y-69044819D02*
X106318095Y-69092438D01*
X106651429Y-69044819D02*
X106889524Y-70044819D01*
X106889524Y-70044819D02*
X107080000Y-69330533D01*
X107080000Y-69330533D02*
X107270476Y-70044819D01*
X107270476Y-70044819D02*
X107508572Y-69044819D01*
X108413333Y-70044819D02*
X107841905Y-70044819D01*
X108127619Y-70044819D02*
X108127619Y-69044819D01*
X108127619Y-69044819D02*
X108032381Y-69187676D01*
X108032381Y-69187676D02*
X107937143Y-69282914D01*
X107937143Y-69282914D02*
X107841905Y-69330533D01*
X111144642Y-85679580D02*
X111097023Y-85727200D01*
X111097023Y-85727200D02*
X110954166Y-85774819D01*
X110954166Y-85774819D02*
X110858928Y-85774819D01*
X110858928Y-85774819D02*
X110716071Y-85727200D01*
X110716071Y-85727200D02*
X110620833Y-85631961D01*
X110620833Y-85631961D02*
X110573214Y-85536723D01*
X110573214Y-85536723D02*
X110525595Y-85346247D01*
X110525595Y-85346247D02*
X110525595Y-85203390D01*
X110525595Y-85203390D02*
X110573214Y-85012914D01*
X110573214Y-85012914D02*
X110620833Y-84917676D01*
X110620833Y-84917676D02*
X110716071Y-84822438D01*
X110716071Y-84822438D02*
X110858928Y-84774819D01*
X110858928Y-84774819D02*
X110954166Y-84774819D01*
X110954166Y-84774819D02*
X111097023Y-84822438D01*
X111097023Y-84822438D02*
X111144642Y-84870057D01*
X112097023Y-85774819D02*
X111525595Y-85774819D01*
X111811309Y-85774819D02*
X111811309Y-84774819D01*
X111811309Y-84774819D02*
X111716071Y-84917676D01*
X111716071Y-84917676D02*
X111620833Y-85012914D01*
X111620833Y-85012914D02*
X111525595Y-85060533D01*
X112477976Y-84870057D02*
X112525595Y-84822438D01*
X112525595Y-84822438D02*
X112620833Y-84774819D01*
X112620833Y-84774819D02*
X112858928Y-84774819D01*
X112858928Y-84774819D02*
X112954166Y-84822438D01*
X112954166Y-84822438D02*
X113001785Y-84870057D01*
X113001785Y-84870057D02*
X113049404Y-84965295D01*
X113049404Y-84965295D02*
X113049404Y-85060533D01*
X113049404Y-85060533D02*
X113001785Y-85203390D01*
X113001785Y-85203390D02*
X112430357Y-85774819D01*
X112430357Y-85774819D02*
X113049404Y-85774819D01*
X109833333Y-89679580D02*
X109785714Y-89727200D01*
X109785714Y-89727200D02*
X109642857Y-89774819D01*
X109642857Y-89774819D02*
X109547619Y-89774819D01*
X109547619Y-89774819D02*
X109404762Y-89727200D01*
X109404762Y-89727200D02*
X109309524Y-89631961D01*
X109309524Y-89631961D02*
X109261905Y-89536723D01*
X109261905Y-89536723D02*
X109214286Y-89346247D01*
X109214286Y-89346247D02*
X109214286Y-89203390D01*
X109214286Y-89203390D02*
X109261905Y-89012914D01*
X109261905Y-89012914D02*
X109309524Y-88917676D01*
X109309524Y-88917676D02*
X109404762Y-88822438D01*
X109404762Y-88822438D02*
X109547619Y-88774819D01*
X109547619Y-88774819D02*
X109642857Y-88774819D01*
X109642857Y-88774819D02*
X109785714Y-88822438D01*
X109785714Y-88822438D02*
X109833333Y-88870057D01*
X110690476Y-88774819D02*
X110500000Y-88774819D01*
X110500000Y-88774819D02*
X110404762Y-88822438D01*
X110404762Y-88822438D02*
X110357143Y-88870057D01*
X110357143Y-88870057D02*
X110261905Y-89012914D01*
X110261905Y-89012914D02*
X110214286Y-89203390D01*
X110214286Y-89203390D02*
X110214286Y-89584342D01*
X110214286Y-89584342D02*
X110261905Y-89679580D01*
X110261905Y-89679580D02*
X110309524Y-89727200D01*
X110309524Y-89727200D02*
X110404762Y-89774819D01*
X110404762Y-89774819D02*
X110595238Y-89774819D01*
X110595238Y-89774819D02*
X110690476Y-89727200D01*
X110690476Y-89727200D02*
X110738095Y-89679580D01*
X110738095Y-89679580D02*
X110785714Y-89584342D01*
X110785714Y-89584342D02*
X110785714Y-89346247D01*
X110785714Y-89346247D02*
X110738095Y-89251009D01*
X110738095Y-89251009D02*
X110690476Y-89203390D01*
X110690476Y-89203390D02*
X110595238Y-89155771D01*
X110595238Y-89155771D02*
X110404762Y-89155771D01*
X110404762Y-89155771D02*
X110309524Y-89203390D01*
X110309524Y-89203390D02*
X110261905Y-89251009D01*
X110261905Y-89251009D02*
X110214286Y-89346247D01*
X132988095Y-88204819D02*
X132988095Y-89014342D01*
X132988095Y-89014342D02*
X133035714Y-89109580D01*
X133035714Y-89109580D02*
X133083333Y-89157200D01*
X133083333Y-89157200D02*
X133178571Y-89204819D01*
X133178571Y-89204819D02*
X133369047Y-89204819D01*
X133369047Y-89204819D02*
X133464285Y-89157200D01*
X133464285Y-89157200D02*
X133511904Y-89109580D01*
X133511904Y-89109580D02*
X133559523Y-89014342D01*
X133559523Y-89014342D02*
X133559523Y-88204819D01*
X134178571Y-88633390D02*
X134083333Y-88585771D01*
X134083333Y-88585771D02*
X134035714Y-88538152D01*
X134035714Y-88538152D02*
X133988095Y-88442914D01*
X133988095Y-88442914D02*
X133988095Y-88395295D01*
X133988095Y-88395295D02*
X134035714Y-88300057D01*
X134035714Y-88300057D02*
X134083333Y-88252438D01*
X134083333Y-88252438D02*
X134178571Y-88204819D01*
X134178571Y-88204819D02*
X134369047Y-88204819D01*
X134369047Y-88204819D02*
X134464285Y-88252438D01*
X134464285Y-88252438D02*
X134511904Y-88300057D01*
X134511904Y-88300057D02*
X134559523Y-88395295D01*
X134559523Y-88395295D02*
X134559523Y-88442914D01*
X134559523Y-88442914D02*
X134511904Y-88538152D01*
X134511904Y-88538152D02*
X134464285Y-88585771D01*
X134464285Y-88585771D02*
X134369047Y-88633390D01*
X134369047Y-88633390D02*
X134178571Y-88633390D01*
X134178571Y-88633390D02*
X134083333Y-88681009D01*
X134083333Y-88681009D02*
X134035714Y-88728628D01*
X134035714Y-88728628D02*
X133988095Y-88823866D01*
X133988095Y-88823866D02*
X133988095Y-89014342D01*
X133988095Y-89014342D02*
X134035714Y-89109580D01*
X134035714Y-89109580D02*
X134083333Y-89157200D01*
X134083333Y-89157200D02*
X134178571Y-89204819D01*
X134178571Y-89204819D02*
X134369047Y-89204819D01*
X134369047Y-89204819D02*
X134464285Y-89157200D01*
X134464285Y-89157200D02*
X134511904Y-89109580D01*
X134511904Y-89109580D02*
X134559523Y-89014342D01*
X134559523Y-89014342D02*
X134559523Y-88823866D01*
X134559523Y-88823866D02*
X134511904Y-88728628D01*
X134511904Y-88728628D02*
X134464285Y-88681009D01*
X134464285Y-88681009D02*
X134369047Y-88633390D01*
X135357142Y-88179580D02*
X135309523Y-88227200D01*
X135309523Y-88227200D02*
X135166666Y-88274819D01*
X135166666Y-88274819D02*
X135071428Y-88274819D01*
X135071428Y-88274819D02*
X134928571Y-88227200D01*
X134928571Y-88227200D02*
X134833333Y-88131961D01*
X134833333Y-88131961D02*
X134785714Y-88036723D01*
X134785714Y-88036723D02*
X134738095Y-87846247D01*
X134738095Y-87846247D02*
X134738095Y-87703390D01*
X134738095Y-87703390D02*
X134785714Y-87512914D01*
X134785714Y-87512914D02*
X134833333Y-87417676D01*
X134833333Y-87417676D02*
X134928571Y-87322438D01*
X134928571Y-87322438D02*
X135071428Y-87274819D01*
X135071428Y-87274819D02*
X135166666Y-87274819D01*
X135166666Y-87274819D02*
X135309523Y-87322438D01*
X135309523Y-87322438D02*
X135357142Y-87370057D01*
X136309523Y-88274819D02*
X135738095Y-88274819D01*
X136023809Y-88274819D02*
X136023809Y-87274819D01*
X136023809Y-87274819D02*
X135928571Y-87417676D01*
X135928571Y-87417676D02*
X135833333Y-87512914D01*
X135833333Y-87512914D02*
X135738095Y-87560533D01*
X136642857Y-87274819D02*
X137309523Y-87274819D01*
X137309523Y-87274819D02*
X136880952Y-88274819D01*
X130857142Y-88179580D02*
X130809523Y-88227200D01*
X130809523Y-88227200D02*
X130666666Y-88274819D01*
X130666666Y-88274819D02*
X130571428Y-88274819D01*
X130571428Y-88274819D02*
X130428571Y-88227200D01*
X130428571Y-88227200D02*
X130333333Y-88131961D01*
X130333333Y-88131961D02*
X130285714Y-88036723D01*
X130285714Y-88036723D02*
X130238095Y-87846247D01*
X130238095Y-87846247D02*
X130238095Y-87703390D01*
X130238095Y-87703390D02*
X130285714Y-87512914D01*
X130285714Y-87512914D02*
X130333333Y-87417676D01*
X130333333Y-87417676D02*
X130428571Y-87322438D01*
X130428571Y-87322438D02*
X130571428Y-87274819D01*
X130571428Y-87274819D02*
X130666666Y-87274819D01*
X130666666Y-87274819D02*
X130809523Y-87322438D01*
X130809523Y-87322438D02*
X130857142Y-87370057D01*
X131809523Y-88274819D02*
X131238095Y-88274819D01*
X131523809Y-88274819D02*
X131523809Y-87274819D01*
X131523809Y-87274819D02*
X131428571Y-87417676D01*
X131428571Y-87417676D02*
X131333333Y-87512914D01*
X131333333Y-87512914D02*
X131238095Y-87560533D01*
X132666666Y-87274819D02*
X132476190Y-87274819D01*
X132476190Y-87274819D02*
X132380952Y-87322438D01*
X132380952Y-87322438D02*
X132333333Y-87370057D01*
X132333333Y-87370057D02*
X132238095Y-87512914D01*
X132238095Y-87512914D02*
X132190476Y-87703390D01*
X132190476Y-87703390D02*
X132190476Y-88084342D01*
X132190476Y-88084342D02*
X132238095Y-88179580D01*
X132238095Y-88179580D02*
X132285714Y-88227200D01*
X132285714Y-88227200D02*
X132380952Y-88274819D01*
X132380952Y-88274819D02*
X132571428Y-88274819D01*
X132571428Y-88274819D02*
X132666666Y-88227200D01*
X132666666Y-88227200D02*
X132714285Y-88179580D01*
X132714285Y-88179580D02*
X132761904Y-88084342D01*
X132761904Y-88084342D02*
X132761904Y-87846247D01*
X132761904Y-87846247D02*
X132714285Y-87751009D01*
X132714285Y-87751009D02*
X132666666Y-87703390D01*
X132666666Y-87703390D02*
X132571428Y-87655771D01*
X132571428Y-87655771D02*
X132380952Y-87655771D01*
X132380952Y-87655771D02*
X132285714Y-87703390D01*
X132285714Y-87703390D02*
X132238095Y-87751009D01*
X132238095Y-87751009D02*
X132190476Y-87846247D01*
X96834333Y-52507580D02*
X96786714Y-52555200D01*
X96786714Y-52555200D02*
X96643857Y-52602819D01*
X96643857Y-52602819D02*
X96548619Y-52602819D01*
X96548619Y-52602819D02*
X96405762Y-52555200D01*
X96405762Y-52555200D02*
X96310524Y-52459961D01*
X96310524Y-52459961D02*
X96262905Y-52364723D01*
X96262905Y-52364723D02*
X96215286Y-52174247D01*
X96215286Y-52174247D02*
X96215286Y-52031390D01*
X96215286Y-52031390D02*
X96262905Y-51840914D01*
X96262905Y-51840914D02*
X96310524Y-51745676D01*
X96310524Y-51745676D02*
X96405762Y-51650438D01*
X96405762Y-51650438D02*
X96548619Y-51602819D01*
X96548619Y-51602819D02*
X96643857Y-51602819D01*
X96643857Y-51602819D02*
X96786714Y-51650438D01*
X96786714Y-51650438D02*
X96834333Y-51698057D01*
X97215286Y-51698057D02*
X97262905Y-51650438D01*
X97262905Y-51650438D02*
X97358143Y-51602819D01*
X97358143Y-51602819D02*
X97596238Y-51602819D01*
X97596238Y-51602819D02*
X97691476Y-51650438D01*
X97691476Y-51650438D02*
X97739095Y-51698057D01*
X97739095Y-51698057D02*
X97786714Y-51793295D01*
X97786714Y-51793295D02*
X97786714Y-51888533D01*
X97786714Y-51888533D02*
X97739095Y-52031390D01*
X97739095Y-52031390D02*
X97167667Y-52602819D01*
X97167667Y-52602819D02*
X97786714Y-52602819D01*
X91273048Y-72951866D02*
X92034953Y-72951866D01*
X91654000Y-73332819D02*
X91654000Y-72570914D01*
X88492048Y-73078866D02*
X89253953Y-73078866D01*
X96834333Y-77014819D02*
X96501000Y-76538628D01*
X96262905Y-77014819D02*
X96262905Y-76014819D01*
X96262905Y-76014819D02*
X96643857Y-76014819D01*
X96643857Y-76014819D02*
X96739095Y-76062438D01*
X96739095Y-76062438D02*
X96786714Y-76110057D01*
X96786714Y-76110057D02*
X96834333Y-76205295D01*
X96834333Y-76205295D02*
X96834333Y-76348152D01*
X96834333Y-76348152D02*
X96786714Y-76443390D01*
X96786714Y-76443390D02*
X96739095Y-76491009D01*
X96739095Y-76491009D02*
X96643857Y-76538628D01*
X96643857Y-76538628D02*
X96262905Y-76538628D01*
X97739095Y-76014819D02*
X97262905Y-76014819D01*
X97262905Y-76014819D02*
X97215286Y-76491009D01*
X97215286Y-76491009D02*
X97262905Y-76443390D01*
X97262905Y-76443390D02*
X97358143Y-76395771D01*
X97358143Y-76395771D02*
X97596238Y-76395771D01*
X97596238Y-76395771D02*
X97691476Y-76443390D01*
X97691476Y-76443390D02*
X97739095Y-76491009D01*
X97739095Y-76491009D02*
X97786714Y-76586247D01*
X97786714Y-76586247D02*
X97786714Y-76824342D01*
X97786714Y-76824342D02*
X97739095Y-76919580D01*
X97739095Y-76919580D02*
X97691476Y-76967200D01*
X97691476Y-76967200D02*
X97596238Y-77014819D01*
X97596238Y-77014819D02*
X97358143Y-77014819D01*
X97358143Y-77014819D02*
X97262905Y-76967200D01*
X97262905Y-76967200D02*
X97215286Y-76919580D01*
X96834333Y-43613819D02*
X96501000Y-43137628D01*
X96262905Y-43613819D02*
X96262905Y-42613819D01*
X96262905Y-42613819D02*
X96643857Y-42613819D01*
X96643857Y-42613819D02*
X96739095Y-42661438D01*
X96739095Y-42661438D02*
X96786714Y-42709057D01*
X96786714Y-42709057D02*
X96834333Y-42804295D01*
X96834333Y-42804295D02*
X96834333Y-42947152D01*
X96834333Y-42947152D02*
X96786714Y-43042390D01*
X96786714Y-43042390D02*
X96739095Y-43090009D01*
X96739095Y-43090009D02*
X96643857Y-43137628D01*
X96643857Y-43137628D02*
X96262905Y-43137628D01*
X97786714Y-43613819D02*
X97215286Y-43613819D01*
X97501000Y-43613819D02*
X97501000Y-42613819D01*
X97501000Y-42613819D02*
X97405762Y-42756676D01*
X97405762Y-42756676D02*
X97310524Y-42851914D01*
X97310524Y-42851914D02*
X97215286Y-42899533D01*
X91400048Y-56045866D02*
X92161953Y-56045866D01*
X91781000Y-56426819D02*
X91781000Y-55664914D01*
X88479048Y-56172866D02*
X89240953Y-56172866D01*
X96855833Y-44379580D02*
X96808214Y-44427200D01*
X96808214Y-44427200D02*
X96665357Y-44474819D01*
X96665357Y-44474819D02*
X96570119Y-44474819D01*
X96570119Y-44474819D02*
X96427262Y-44427200D01*
X96427262Y-44427200D02*
X96332024Y-44331961D01*
X96332024Y-44331961D02*
X96284405Y-44236723D01*
X96284405Y-44236723D02*
X96236786Y-44046247D01*
X96236786Y-44046247D02*
X96236786Y-43903390D01*
X96236786Y-43903390D02*
X96284405Y-43712914D01*
X96284405Y-43712914D02*
X96332024Y-43617676D01*
X96332024Y-43617676D02*
X96427262Y-43522438D01*
X96427262Y-43522438D02*
X96570119Y-43474819D01*
X96570119Y-43474819D02*
X96665357Y-43474819D01*
X96665357Y-43474819D02*
X96808214Y-43522438D01*
X96808214Y-43522438D02*
X96855833Y-43570057D01*
X97808214Y-44474819D02*
X97236786Y-44474819D01*
X97522500Y-44474819D02*
X97522500Y-43474819D01*
X97522500Y-43474819D02*
X97427262Y-43617676D01*
X97427262Y-43617676D02*
X97332024Y-43712914D01*
X97332024Y-43712914D02*
X97236786Y-43760533D01*
X96834333Y-60123819D02*
X96501000Y-59647628D01*
X96262905Y-60123819D02*
X96262905Y-59123819D01*
X96262905Y-59123819D02*
X96643857Y-59123819D01*
X96643857Y-59123819D02*
X96739095Y-59171438D01*
X96739095Y-59171438D02*
X96786714Y-59219057D01*
X96786714Y-59219057D02*
X96834333Y-59314295D01*
X96834333Y-59314295D02*
X96834333Y-59457152D01*
X96834333Y-59457152D02*
X96786714Y-59552390D01*
X96786714Y-59552390D02*
X96739095Y-59600009D01*
X96739095Y-59600009D02*
X96643857Y-59647628D01*
X96643857Y-59647628D02*
X96262905Y-59647628D01*
X97167667Y-59123819D02*
X97786714Y-59123819D01*
X97786714Y-59123819D02*
X97453381Y-59504771D01*
X97453381Y-59504771D02*
X97596238Y-59504771D01*
X97596238Y-59504771D02*
X97691476Y-59552390D01*
X97691476Y-59552390D02*
X97739095Y-59600009D01*
X97739095Y-59600009D02*
X97786714Y-59695247D01*
X97786714Y-59695247D02*
X97786714Y-59933342D01*
X97786714Y-59933342D02*
X97739095Y-60028580D01*
X97739095Y-60028580D02*
X97691476Y-60076200D01*
X97691476Y-60076200D02*
X97596238Y-60123819D01*
X97596238Y-60123819D02*
X97310524Y-60123819D01*
X97310524Y-60123819D02*
X97215286Y-60076200D01*
X97215286Y-60076200D02*
X97167667Y-60028580D01*
X91159048Y-39550866D02*
X91920953Y-39550866D01*
X91540000Y-39931819D02*
X91540000Y-39169914D01*
X88365048Y-39550866D02*
X89126953Y-39550866D01*
X96818333Y-51868819D02*
X96485000Y-51392628D01*
X96246905Y-51868819D02*
X96246905Y-50868819D01*
X96246905Y-50868819D02*
X96627857Y-50868819D01*
X96627857Y-50868819D02*
X96723095Y-50916438D01*
X96723095Y-50916438D02*
X96770714Y-50964057D01*
X96770714Y-50964057D02*
X96818333Y-51059295D01*
X96818333Y-51059295D02*
X96818333Y-51202152D01*
X96818333Y-51202152D02*
X96770714Y-51297390D01*
X96770714Y-51297390D02*
X96723095Y-51345009D01*
X96723095Y-51345009D02*
X96627857Y-51392628D01*
X96627857Y-51392628D02*
X96246905Y-51392628D01*
X97199286Y-50964057D02*
X97246905Y-50916438D01*
X97246905Y-50916438D02*
X97342143Y-50868819D01*
X97342143Y-50868819D02*
X97580238Y-50868819D01*
X97580238Y-50868819D02*
X97675476Y-50916438D01*
X97675476Y-50916438D02*
X97723095Y-50964057D01*
X97723095Y-50964057D02*
X97770714Y-51059295D01*
X97770714Y-51059295D02*
X97770714Y-51154533D01*
X97770714Y-51154533D02*
X97723095Y-51297390D01*
X97723095Y-51297390D02*
X97151667Y-51868819D01*
X97151667Y-51868819D02*
X97770714Y-51868819D01*
X96834333Y-69525580D02*
X96786714Y-69573200D01*
X96786714Y-69573200D02*
X96643857Y-69620819D01*
X96643857Y-69620819D02*
X96548619Y-69620819D01*
X96548619Y-69620819D02*
X96405762Y-69573200D01*
X96405762Y-69573200D02*
X96310524Y-69477961D01*
X96310524Y-69477961D02*
X96262905Y-69382723D01*
X96262905Y-69382723D02*
X96215286Y-69192247D01*
X96215286Y-69192247D02*
X96215286Y-69049390D01*
X96215286Y-69049390D02*
X96262905Y-68858914D01*
X96262905Y-68858914D02*
X96310524Y-68763676D01*
X96310524Y-68763676D02*
X96405762Y-68668438D01*
X96405762Y-68668438D02*
X96548619Y-68620819D01*
X96548619Y-68620819D02*
X96643857Y-68620819D01*
X96643857Y-68620819D02*
X96786714Y-68668438D01*
X96786714Y-68668438D02*
X96834333Y-68716057D01*
X97691476Y-68954152D02*
X97691476Y-69620819D01*
X97453381Y-68573200D02*
X97215286Y-69287485D01*
X97215286Y-69287485D02*
X97834333Y-69287485D01*
X91273048Y-47897866D02*
X92034953Y-47897866D01*
X91654000Y-48278819D02*
X91654000Y-47516914D01*
X88479048Y-48024866D02*
X89240953Y-48024866D01*
X96834333Y-78034580D02*
X96786714Y-78082200D01*
X96786714Y-78082200D02*
X96643857Y-78129819D01*
X96643857Y-78129819D02*
X96548619Y-78129819D01*
X96548619Y-78129819D02*
X96405762Y-78082200D01*
X96405762Y-78082200D02*
X96310524Y-77986961D01*
X96310524Y-77986961D02*
X96262905Y-77891723D01*
X96262905Y-77891723D02*
X96215286Y-77701247D01*
X96215286Y-77701247D02*
X96215286Y-77558390D01*
X96215286Y-77558390D02*
X96262905Y-77367914D01*
X96262905Y-77367914D02*
X96310524Y-77272676D01*
X96310524Y-77272676D02*
X96405762Y-77177438D01*
X96405762Y-77177438D02*
X96548619Y-77129819D01*
X96548619Y-77129819D02*
X96643857Y-77129819D01*
X96643857Y-77129819D02*
X96786714Y-77177438D01*
X96786714Y-77177438D02*
X96834333Y-77225057D01*
X97739095Y-77129819D02*
X97262905Y-77129819D01*
X97262905Y-77129819D02*
X97215286Y-77606009D01*
X97215286Y-77606009D02*
X97262905Y-77558390D01*
X97262905Y-77558390D02*
X97358143Y-77510771D01*
X97358143Y-77510771D02*
X97596238Y-77510771D01*
X97596238Y-77510771D02*
X97691476Y-77558390D01*
X97691476Y-77558390D02*
X97739095Y-77606009D01*
X97739095Y-77606009D02*
X97786714Y-77701247D01*
X97786714Y-77701247D02*
X97786714Y-77939342D01*
X97786714Y-77939342D02*
X97739095Y-78034580D01*
X97739095Y-78034580D02*
X97691476Y-78082200D01*
X97691476Y-78082200D02*
X97596238Y-78129819D01*
X97596238Y-78129819D02*
X97358143Y-78129819D01*
X97358143Y-78129819D02*
X97262905Y-78082200D01*
X97262905Y-78082200D02*
X97215286Y-78034580D01*
X91273048Y-64569866D02*
X92034953Y-64569866D01*
X91654000Y-64950819D02*
X91654000Y-64188914D01*
X88606048Y-64823866D02*
X89367953Y-64823866D01*
X96834333Y-61016580D02*
X96786714Y-61064200D01*
X96786714Y-61064200D02*
X96643857Y-61111819D01*
X96643857Y-61111819D02*
X96548619Y-61111819D01*
X96548619Y-61111819D02*
X96405762Y-61064200D01*
X96405762Y-61064200D02*
X96310524Y-60968961D01*
X96310524Y-60968961D02*
X96262905Y-60873723D01*
X96262905Y-60873723D02*
X96215286Y-60683247D01*
X96215286Y-60683247D02*
X96215286Y-60540390D01*
X96215286Y-60540390D02*
X96262905Y-60349914D01*
X96262905Y-60349914D02*
X96310524Y-60254676D01*
X96310524Y-60254676D02*
X96405762Y-60159438D01*
X96405762Y-60159438D02*
X96548619Y-60111819D01*
X96548619Y-60111819D02*
X96643857Y-60111819D01*
X96643857Y-60111819D02*
X96786714Y-60159438D01*
X96786714Y-60159438D02*
X96834333Y-60207057D01*
X97167667Y-60111819D02*
X97786714Y-60111819D01*
X97786714Y-60111819D02*
X97453381Y-60492771D01*
X97453381Y-60492771D02*
X97596238Y-60492771D01*
X97596238Y-60492771D02*
X97691476Y-60540390D01*
X97691476Y-60540390D02*
X97739095Y-60588009D01*
X97739095Y-60588009D02*
X97786714Y-60683247D01*
X97786714Y-60683247D02*
X97786714Y-60921342D01*
X97786714Y-60921342D02*
X97739095Y-61016580D01*
X97739095Y-61016580D02*
X97691476Y-61064200D01*
X97691476Y-61064200D02*
X97596238Y-61111819D01*
X97596238Y-61111819D02*
X97310524Y-61111819D01*
X97310524Y-61111819D02*
X97215286Y-61064200D01*
X97215286Y-61064200D02*
X97167667Y-61016580D01*
X96818333Y-68632819D02*
X96485000Y-68156628D01*
X96246905Y-68632819D02*
X96246905Y-67632819D01*
X96246905Y-67632819D02*
X96627857Y-67632819D01*
X96627857Y-67632819D02*
X96723095Y-67680438D01*
X96723095Y-67680438D02*
X96770714Y-67728057D01*
X96770714Y-67728057D02*
X96818333Y-67823295D01*
X96818333Y-67823295D02*
X96818333Y-67966152D01*
X96818333Y-67966152D02*
X96770714Y-68061390D01*
X96770714Y-68061390D02*
X96723095Y-68109009D01*
X96723095Y-68109009D02*
X96627857Y-68156628D01*
X96627857Y-68156628D02*
X96246905Y-68156628D01*
X97675476Y-67966152D02*
X97675476Y-68632819D01*
X97437381Y-67585200D02*
X97199286Y-68299485D01*
X97199286Y-68299485D02*
X97818333Y-68299485D01*
X92357142Y-108179580D02*
X92309523Y-108227200D01*
X92309523Y-108227200D02*
X92166666Y-108274819D01*
X92166666Y-108274819D02*
X92071428Y-108274819D01*
X92071428Y-108274819D02*
X91928571Y-108227200D01*
X91928571Y-108227200D02*
X91833333Y-108131961D01*
X91833333Y-108131961D02*
X91785714Y-108036723D01*
X91785714Y-108036723D02*
X91738095Y-107846247D01*
X91738095Y-107846247D02*
X91738095Y-107703390D01*
X91738095Y-107703390D02*
X91785714Y-107512914D01*
X91785714Y-107512914D02*
X91833333Y-107417676D01*
X91833333Y-107417676D02*
X91928571Y-107322438D01*
X91928571Y-107322438D02*
X92071428Y-107274819D01*
X92071428Y-107274819D02*
X92166666Y-107274819D01*
X92166666Y-107274819D02*
X92309523Y-107322438D01*
X92309523Y-107322438D02*
X92357142Y-107370057D01*
X93309523Y-108274819D02*
X92738095Y-108274819D01*
X93023809Y-108274819D02*
X93023809Y-107274819D01*
X93023809Y-107274819D02*
X92928571Y-107417676D01*
X92928571Y-107417676D02*
X92833333Y-107512914D01*
X92833333Y-107512914D02*
X92738095Y-107560533D01*
X93880952Y-107703390D02*
X93785714Y-107655771D01*
X93785714Y-107655771D02*
X93738095Y-107608152D01*
X93738095Y-107608152D02*
X93690476Y-107512914D01*
X93690476Y-107512914D02*
X93690476Y-107465295D01*
X93690476Y-107465295D02*
X93738095Y-107370057D01*
X93738095Y-107370057D02*
X93785714Y-107322438D01*
X93785714Y-107322438D02*
X93880952Y-107274819D01*
X93880952Y-107274819D02*
X94071428Y-107274819D01*
X94071428Y-107274819D02*
X94166666Y-107322438D01*
X94166666Y-107322438D02*
X94214285Y-107370057D01*
X94214285Y-107370057D02*
X94261904Y-107465295D01*
X94261904Y-107465295D02*
X94261904Y-107512914D01*
X94261904Y-107512914D02*
X94214285Y-107608152D01*
X94214285Y-107608152D02*
X94166666Y-107655771D01*
X94166666Y-107655771D02*
X94071428Y-107703390D01*
X94071428Y-107703390D02*
X93880952Y-107703390D01*
X93880952Y-107703390D02*
X93785714Y-107751009D01*
X93785714Y-107751009D02*
X93738095Y-107798628D01*
X93738095Y-107798628D02*
X93690476Y-107893866D01*
X93690476Y-107893866D02*
X93690476Y-108084342D01*
X93690476Y-108084342D02*
X93738095Y-108179580D01*
X93738095Y-108179580D02*
X93785714Y-108227200D01*
X93785714Y-108227200D02*
X93880952Y-108274819D01*
X93880952Y-108274819D02*
X94071428Y-108274819D01*
X94071428Y-108274819D02*
X94166666Y-108227200D01*
X94166666Y-108227200D02*
X94214285Y-108179580D01*
X94214285Y-108179580D02*
X94261904Y-108084342D01*
X94261904Y-108084342D02*
X94261904Y-107893866D01*
X94261904Y-107893866D02*
X94214285Y-107798628D01*
X94214285Y-107798628D02*
X94166666Y-107751009D01*
X94166666Y-107751009D02*
X94071428Y-107703390D01*
X118092048Y-89346866D02*
X118853953Y-89346866D01*
X118473000Y-89727819D02*
X118473000Y-88965914D01*
X115298048Y-89473866D02*
X116059953Y-89473866D01*
X89833333Y-87434819D02*
X89500000Y-86958628D01*
X89261905Y-87434819D02*
X89261905Y-86434819D01*
X89261905Y-86434819D02*
X89642857Y-86434819D01*
X89642857Y-86434819D02*
X89738095Y-86482438D01*
X89738095Y-86482438D02*
X89785714Y-86530057D01*
X89785714Y-86530057D02*
X89833333Y-86625295D01*
X89833333Y-86625295D02*
X89833333Y-86768152D01*
X89833333Y-86768152D02*
X89785714Y-86863390D01*
X89785714Y-86863390D02*
X89738095Y-86911009D01*
X89738095Y-86911009D02*
X89642857Y-86958628D01*
X89642857Y-86958628D02*
X89261905Y-86958628D01*
X90690476Y-86434819D02*
X90500000Y-86434819D01*
X90500000Y-86434819D02*
X90404762Y-86482438D01*
X90404762Y-86482438D02*
X90357143Y-86530057D01*
X90357143Y-86530057D02*
X90261905Y-86672914D01*
X90261905Y-86672914D02*
X90214286Y-86863390D01*
X90214286Y-86863390D02*
X90214286Y-87244342D01*
X90214286Y-87244342D02*
X90261905Y-87339580D01*
X90261905Y-87339580D02*
X90309524Y-87387200D01*
X90309524Y-87387200D02*
X90404762Y-87434819D01*
X90404762Y-87434819D02*
X90595238Y-87434819D01*
X90595238Y-87434819D02*
X90690476Y-87387200D01*
X90690476Y-87387200D02*
X90738095Y-87339580D01*
X90738095Y-87339580D02*
X90785714Y-87244342D01*
X90785714Y-87244342D02*
X90785714Y-87006247D01*
X90785714Y-87006247D02*
X90738095Y-86911009D01*
X90738095Y-86911009D02*
X90690476Y-86863390D01*
X90690476Y-86863390D02*
X90595238Y-86815771D01*
X90595238Y-86815771D02*
X90404762Y-86815771D01*
X90404762Y-86815771D02*
X90309524Y-86863390D01*
X90309524Y-86863390D02*
X90261905Y-86911009D01*
X90261905Y-86911009D02*
X90214286Y-87006247D01*
X89833333Y-92006819D02*
X89500000Y-91530628D01*
X89261905Y-92006819D02*
X89261905Y-91006819D01*
X89261905Y-91006819D02*
X89642857Y-91006819D01*
X89642857Y-91006819D02*
X89738095Y-91054438D01*
X89738095Y-91054438D02*
X89785714Y-91102057D01*
X89785714Y-91102057D02*
X89833333Y-91197295D01*
X89833333Y-91197295D02*
X89833333Y-91340152D01*
X89833333Y-91340152D02*
X89785714Y-91435390D01*
X89785714Y-91435390D02*
X89738095Y-91483009D01*
X89738095Y-91483009D02*
X89642857Y-91530628D01*
X89642857Y-91530628D02*
X89261905Y-91530628D01*
X90404762Y-91435390D02*
X90309524Y-91387771D01*
X90309524Y-91387771D02*
X90261905Y-91340152D01*
X90261905Y-91340152D02*
X90214286Y-91244914D01*
X90214286Y-91244914D02*
X90214286Y-91197295D01*
X90214286Y-91197295D02*
X90261905Y-91102057D01*
X90261905Y-91102057D02*
X90309524Y-91054438D01*
X90309524Y-91054438D02*
X90404762Y-91006819D01*
X90404762Y-91006819D02*
X90595238Y-91006819D01*
X90595238Y-91006819D02*
X90690476Y-91054438D01*
X90690476Y-91054438D02*
X90738095Y-91102057D01*
X90738095Y-91102057D02*
X90785714Y-91197295D01*
X90785714Y-91197295D02*
X90785714Y-91244914D01*
X90785714Y-91244914D02*
X90738095Y-91340152D01*
X90738095Y-91340152D02*
X90690476Y-91387771D01*
X90690476Y-91387771D02*
X90595238Y-91435390D01*
X90595238Y-91435390D02*
X90404762Y-91435390D01*
X90404762Y-91435390D02*
X90309524Y-91483009D01*
X90309524Y-91483009D02*
X90261905Y-91530628D01*
X90261905Y-91530628D02*
X90214286Y-91625866D01*
X90214286Y-91625866D02*
X90214286Y-91816342D01*
X90214286Y-91816342D02*
X90261905Y-91911580D01*
X90261905Y-91911580D02*
X90309524Y-91959200D01*
X90309524Y-91959200D02*
X90404762Y-92006819D01*
X90404762Y-92006819D02*
X90595238Y-92006819D01*
X90595238Y-92006819D02*
X90690476Y-91959200D01*
X90690476Y-91959200D02*
X90738095Y-91911580D01*
X90738095Y-91911580D02*
X90785714Y-91816342D01*
X90785714Y-91816342D02*
X90785714Y-91625866D01*
X90785714Y-91625866D02*
X90738095Y-91530628D01*
X90738095Y-91530628D02*
X90690476Y-91483009D01*
X90690476Y-91483009D02*
X90595238Y-91435390D01*
X96413048Y-83882866D02*
X97174953Y-83882866D01*
X96794000Y-84263819D02*
X96794000Y-83501914D01*
X93365048Y-84136866D02*
X94126953Y-84136866D01*
X101263095Y-97949819D02*
X101263095Y-98759342D01*
X101263095Y-98759342D02*
X101310714Y-98854580D01*
X101310714Y-98854580D02*
X101358333Y-98902200D01*
X101358333Y-98902200D02*
X101453571Y-98949819D01*
X101453571Y-98949819D02*
X101644047Y-98949819D01*
X101644047Y-98949819D02*
X101739285Y-98902200D01*
X101739285Y-98902200D02*
X101786904Y-98854580D01*
X101786904Y-98854580D02*
X101834523Y-98759342D01*
X101834523Y-98759342D02*
X101834523Y-97949819D01*
X102215476Y-97949819D02*
X102882142Y-97949819D01*
X102882142Y-97949819D02*
X102453571Y-98949819D01*
X133727415Y-91452819D02*
X133727415Y-92262342D01*
X133727415Y-92262342D02*
X133775034Y-92357580D01*
X133775034Y-92357580D02*
X133822653Y-92405200D01*
X133822653Y-92405200D02*
X133917891Y-92452819D01*
X133917891Y-92452819D02*
X134108367Y-92452819D01*
X134108367Y-92452819D02*
X134203605Y-92405200D01*
X134203605Y-92405200D02*
X134251224Y-92357580D01*
X134251224Y-92357580D02*
X134298843Y-92262342D01*
X134298843Y-92262342D02*
X134298843Y-91452819D01*
X134679796Y-91452819D02*
X135298843Y-91452819D01*
X135298843Y-91452819D02*
X134965510Y-91833771D01*
X134965510Y-91833771D02*
X135108367Y-91833771D01*
X135108367Y-91833771D02*
X135203605Y-91881390D01*
X135203605Y-91881390D02*
X135251224Y-91929009D01*
X135251224Y-91929009D02*
X135298843Y-92024247D01*
X135298843Y-92024247D02*
X135298843Y-92262342D01*
X135298843Y-92262342D02*
X135251224Y-92357580D01*
X135251224Y-92357580D02*
X135203605Y-92405200D01*
X135203605Y-92405200D02*
X135108367Y-92452819D01*
X135108367Y-92452819D02*
X134822653Y-92452819D01*
X134822653Y-92452819D02*
X134727415Y-92405200D01*
X134727415Y-92405200D02*
X134679796Y-92357580D01*
X128711333Y-92629819D02*
X128235143Y-92629819D01*
X128235143Y-92629819D02*
X128235143Y-91629819D01*
X129568476Y-92629819D02*
X128997048Y-92629819D01*
X129282762Y-92629819D02*
X129282762Y-91629819D01*
X129282762Y-91629819D02*
X129187524Y-91772676D01*
X129187524Y-91772676D02*
X129092286Y-91867914D01*
X129092286Y-91867914D02*
X128997048Y-91915533D01*
X108908333Y-97602819D02*
X108575000Y-97126628D01*
X108336905Y-97602819D02*
X108336905Y-96602819D01*
X108336905Y-96602819D02*
X108717857Y-96602819D01*
X108717857Y-96602819D02*
X108813095Y-96650438D01*
X108813095Y-96650438D02*
X108860714Y-96698057D01*
X108860714Y-96698057D02*
X108908333Y-96793295D01*
X108908333Y-96793295D02*
X108908333Y-96936152D01*
X108908333Y-96936152D02*
X108860714Y-97031390D01*
X108860714Y-97031390D02*
X108813095Y-97079009D01*
X108813095Y-97079009D02*
X108717857Y-97126628D01*
X108717857Y-97126628D02*
X108336905Y-97126628D01*
X109384524Y-97602819D02*
X109575000Y-97602819D01*
X109575000Y-97602819D02*
X109670238Y-97555200D01*
X109670238Y-97555200D02*
X109717857Y-97507580D01*
X109717857Y-97507580D02*
X109813095Y-97364723D01*
X109813095Y-97364723D02*
X109860714Y-97174247D01*
X109860714Y-97174247D02*
X109860714Y-96793295D01*
X109860714Y-96793295D02*
X109813095Y-96698057D01*
X109813095Y-96698057D02*
X109765476Y-96650438D01*
X109765476Y-96650438D02*
X109670238Y-96602819D01*
X109670238Y-96602819D02*
X109479762Y-96602819D01*
X109479762Y-96602819D02*
X109384524Y-96650438D01*
X109384524Y-96650438D02*
X109336905Y-96698057D01*
X109336905Y-96698057D02*
X109289286Y-96793295D01*
X109289286Y-96793295D02*
X109289286Y-97031390D01*
X109289286Y-97031390D02*
X109336905Y-97126628D01*
X109336905Y-97126628D02*
X109384524Y-97174247D01*
X109384524Y-97174247D02*
X109479762Y-97221866D01*
X109479762Y-97221866D02*
X109670238Y-97221866D01*
X109670238Y-97221866D02*
X109765476Y-97174247D01*
X109765476Y-97174247D02*
X109813095Y-97126628D01*
X109813095Y-97126628D02*
X109860714Y-97031390D01*
X92357142Y-102679580D02*
X92309523Y-102727200D01*
X92309523Y-102727200D02*
X92166666Y-102774819D01*
X92166666Y-102774819D02*
X92071428Y-102774819D01*
X92071428Y-102774819D02*
X91928571Y-102727200D01*
X91928571Y-102727200D02*
X91833333Y-102631961D01*
X91833333Y-102631961D02*
X91785714Y-102536723D01*
X91785714Y-102536723D02*
X91738095Y-102346247D01*
X91738095Y-102346247D02*
X91738095Y-102203390D01*
X91738095Y-102203390D02*
X91785714Y-102012914D01*
X91785714Y-102012914D02*
X91833333Y-101917676D01*
X91833333Y-101917676D02*
X91928571Y-101822438D01*
X91928571Y-101822438D02*
X92071428Y-101774819D01*
X92071428Y-101774819D02*
X92166666Y-101774819D01*
X92166666Y-101774819D02*
X92309523Y-101822438D01*
X92309523Y-101822438D02*
X92357142Y-101870057D01*
X93309523Y-102774819D02*
X92738095Y-102774819D01*
X93023809Y-102774819D02*
X93023809Y-101774819D01*
X93023809Y-101774819D02*
X92928571Y-101917676D01*
X92928571Y-101917676D02*
X92833333Y-102012914D01*
X92833333Y-102012914D02*
X92738095Y-102060533D01*
X94166666Y-102108152D02*
X94166666Y-102774819D01*
X93928571Y-101727200D02*
X93690476Y-102441485D01*
X93690476Y-102441485D02*
X94309523Y-102441485D01*
X109450595Y-96395819D02*
X109450595Y-97205342D01*
X109450595Y-97205342D02*
X109498214Y-97300580D01*
X109498214Y-97300580D02*
X109545833Y-97348200D01*
X109545833Y-97348200D02*
X109641071Y-97395819D01*
X109641071Y-97395819D02*
X109831547Y-97395819D01*
X109831547Y-97395819D02*
X109926785Y-97348200D01*
X109926785Y-97348200D02*
X109974404Y-97300580D01*
X109974404Y-97300580D02*
X110022023Y-97205342D01*
X110022023Y-97205342D02*
X110022023Y-96395819D01*
X110450595Y-96491057D02*
X110498214Y-96443438D01*
X110498214Y-96443438D02*
X110593452Y-96395819D01*
X110593452Y-96395819D02*
X110831547Y-96395819D01*
X110831547Y-96395819D02*
X110926785Y-96443438D01*
X110926785Y-96443438D02*
X110974404Y-96491057D01*
X110974404Y-96491057D02*
X111022023Y-96586295D01*
X111022023Y-96586295D02*
X111022023Y-96681533D01*
X111022023Y-96681533D02*
X110974404Y-96824390D01*
X110974404Y-96824390D02*
X110402976Y-97395819D01*
X110402976Y-97395819D02*
X111022023Y-97395819D01*
X123915833Y-92504580D02*
X123868214Y-92552200D01*
X123868214Y-92552200D02*
X123725357Y-92599819D01*
X123725357Y-92599819D02*
X123630119Y-92599819D01*
X123630119Y-92599819D02*
X123487262Y-92552200D01*
X123487262Y-92552200D02*
X123392024Y-92456961D01*
X123392024Y-92456961D02*
X123344405Y-92361723D01*
X123344405Y-92361723D02*
X123296786Y-92171247D01*
X123296786Y-92171247D02*
X123296786Y-92028390D01*
X123296786Y-92028390D02*
X123344405Y-91837914D01*
X123344405Y-91837914D02*
X123392024Y-91742676D01*
X123392024Y-91742676D02*
X123487262Y-91647438D01*
X123487262Y-91647438D02*
X123630119Y-91599819D01*
X123630119Y-91599819D02*
X123725357Y-91599819D01*
X123725357Y-91599819D02*
X123868214Y-91647438D01*
X123868214Y-91647438D02*
X123915833Y-91695057D01*
X124487262Y-92028390D02*
X124392024Y-91980771D01*
X124392024Y-91980771D02*
X124344405Y-91933152D01*
X124344405Y-91933152D02*
X124296786Y-91837914D01*
X124296786Y-91837914D02*
X124296786Y-91790295D01*
X124296786Y-91790295D02*
X124344405Y-91695057D01*
X124344405Y-91695057D02*
X124392024Y-91647438D01*
X124392024Y-91647438D02*
X124487262Y-91599819D01*
X124487262Y-91599819D02*
X124677738Y-91599819D01*
X124677738Y-91599819D02*
X124772976Y-91647438D01*
X124772976Y-91647438D02*
X124820595Y-91695057D01*
X124820595Y-91695057D02*
X124868214Y-91790295D01*
X124868214Y-91790295D02*
X124868214Y-91837914D01*
X124868214Y-91837914D02*
X124820595Y-91933152D01*
X124820595Y-91933152D02*
X124772976Y-91980771D01*
X124772976Y-91980771D02*
X124677738Y-92028390D01*
X124677738Y-92028390D02*
X124487262Y-92028390D01*
X124487262Y-92028390D02*
X124392024Y-92076009D01*
X124392024Y-92076009D02*
X124344405Y-92123628D01*
X124344405Y-92123628D02*
X124296786Y-92218866D01*
X124296786Y-92218866D02*
X124296786Y-92409342D01*
X124296786Y-92409342D02*
X124344405Y-92504580D01*
X124344405Y-92504580D02*
X124392024Y-92552200D01*
X124392024Y-92552200D02*
X124487262Y-92599819D01*
X124487262Y-92599819D02*
X124677738Y-92599819D01*
X124677738Y-92599819D02*
X124772976Y-92552200D01*
X124772976Y-92552200D02*
X124820595Y-92504580D01*
X124820595Y-92504580D02*
X124868214Y-92409342D01*
X124868214Y-92409342D02*
X124868214Y-92218866D01*
X124868214Y-92218866D02*
X124820595Y-92123628D01*
X124820595Y-92123628D02*
X124772976Y-92076009D01*
X124772976Y-92076009D02*
X124677738Y-92028390D01*
X117597642Y-98092580D02*
X117550023Y-98140200D01*
X117550023Y-98140200D02*
X117407166Y-98187819D01*
X117407166Y-98187819D02*
X117311928Y-98187819D01*
X117311928Y-98187819D02*
X117169071Y-98140200D01*
X117169071Y-98140200D02*
X117073833Y-98044961D01*
X117073833Y-98044961D02*
X117026214Y-97949723D01*
X117026214Y-97949723D02*
X116978595Y-97759247D01*
X116978595Y-97759247D02*
X116978595Y-97616390D01*
X116978595Y-97616390D02*
X117026214Y-97425914D01*
X117026214Y-97425914D02*
X117073833Y-97330676D01*
X117073833Y-97330676D02*
X117169071Y-97235438D01*
X117169071Y-97235438D02*
X117311928Y-97187819D01*
X117311928Y-97187819D02*
X117407166Y-97187819D01*
X117407166Y-97187819D02*
X117550023Y-97235438D01*
X117550023Y-97235438D02*
X117597642Y-97283057D01*
X118550023Y-98187819D02*
X117978595Y-98187819D01*
X118264309Y-98187819D02*
X118264309Y-97187819D01*
X118264309Y-97187819D02*
X118169071Y-97330676D01*
X118169071Y-97330676D02*
X118073833Y-97425914D01*
X118073833Y-97425914D02*
X117978595Y-97473533D01*
X119454785Y-97187819D02*
X118978595Y-97187819D01*
X118978595Y-97187819D02*
X118930976Y-97664009D01*
X118930976Y-97664009D02*
X118978595Y-97616390D01*
X118978595Y-97616390D02*
X119073833Y-97568771D01*
X119073833Y-97568771D02*
X119311928Y-97568771D01*
X119311928Y-97568771D02*
X119407166Y-97616390D01*
X119407166Y-97616390D02*
X119454785Y-97664009D01*
X119454785Y-97664009D02*
X119502404Y-97759247D01*
X119502404Y-97759247D02*
X119502404Y-97997342D01*
X119502404Y-97997342D02*
X119454785Y-98092580D01*
X119454785Y-98092580D02*
X119407166Y-98140200D01*
X119407166Y-98140200D02*
X119311928Y-98187819D01*
X119311928Y-98187819D02*
X119073833Y-98187819D01*
X119073833Y-98187819D02*
X118978595Y-98140200D01*
X118978595Y-98140200D02*
X118930976Y-98092580D01*
X123624333Y-98090819D02*
X123291000Y-97614628D01*
X123052905Y-98090819D02*
X123052905Y-97090819D01*
X123052905Y-97090819D02*
X123433857Y-97090819D01*
X123433857Y-97090819D02*
X123529095Y-97138438D01*
X123529095Y-97138438D02*
X123576714Y-97186057D01*
X123576714Y-97186057D02*
X123624333Y-97281295D01*
X123624333Y-97281295D02*
X123624333Y-97424152D01*
X123624333Y-97424152D02*
X123576714Y-97519390D01*
X123576714Y-97519390D02*
X123529095Y-97567009D01*
X123529095Y-97567009D02*
X123433857Y-97614628D01*
X123433857Y-97614628D02*
X123052905Y-97614628D01*
X123957667Y-97090819D02*
X124624333Y-97090819D01*
X124624333Y-97090819D02*
X124195762Y-98090819D01*
X93069951Y-102633133D02*
X92308047Y-102633133D01*
X92688999Y-102252180D02*
X92688999Y-103014085D01*
X95863951Y-102379133D02*
X95102047Y-102379133D01*
X120039048Y-79735866D02*
X120800953Y-79735866D01*
X120420000Y-80116819D02*
X120420000Y-79354914D01*
X125246048Y-79862866D02*
X126007953Y-79862866D01*
X148870833Y-96039580D02*
X148823214Y-96087200D01*
X148823214Y-96087200D02*
X148680357Y-96134819D01*
X148680357Y-96134819D02*
X148585119Y-96134819D01*
X148585119Y-96134819D02*
X148442262Y-96087200D01*
X148442262Y-96087200D02*
X148347024Y-95991961D01*
X148347024Y-95991961D02*
X148299405Y-95896723D01*
X148299405Y-95896723D02*
X148251786Y-95706247D01*
X148251786Y-95706247D02*
X148251786Y-95563390D01*
X148251786Y-95563390D02*
X148299405Y-95372914D01*
X148299405Y-95372914D02*
X148347024Y-95277676D01*
X148347024Y-95277676D02*
X148442262Y-95182438D01*
X148442262Y-95182438D02*
X148585119Y-95134819D01*
X148585119Y-95134819D02*
X148680357Y-95134819D01*
X148680357Y-95134819D02*
X148823214Y-95182438D01*
X148823214Y-95182438D02*
X148870833Y-95230057D01*
X149204167Y-95134819D02*
X149870833Y-95134819D01*
X149870833Y-95134819D02*
X149442262Y-96134819D01*
X144298833Y-96039580D02*
X144251214Y-96087200D01*
X144251214Y-96087200D02*
X144108357Y-96134819D01*
X144108357Y-96134819D02*
X144013119Y-96134819D01*
X144013119Y-96134819D02*
X143870262Y-96087200D01*
X143870262Y-96087200D02*
X143775024Y-95991961D01*
X143775024Y-95991961D02*
X143727405Y-95896723D01*
X143727405Y-95896723D02*
X143679786Y-95706247D01*
X143679786Y-95706247D02*
X143679786Y-95563390D01*
X143679786Y-95563390D02*
X143727405Y-95372914D01*
X143727405Y-95372914D02*
X143775024Y-95277676D01*
X143775024Y-95277676D02*
X143870262Y-95182438D01*
X143870262Y-95182438D02*
X144013119Y-95134819D01*
X144013119Y-95134819D02*
X144108357Y-95134819D01*
X144108357Y-95134819D02*
X144251214Y-95182438D01*
X144251214Y-95182438D02*
X144298833Y-95230057D01*
X144775024Y-96134819D02*
X144965500Y-96134819D01*
X144965500Y-96134819D02*
X145060738Y-96087200D01*
X145060738Y-96087200D02*
X145108357Y-96039580D01*
X145108357Y-96039580D02*
X145203595Y-95896723D01*
X145203595Y-95896723D02*
X145251214Y-95706247D01*
X145251214Y-95706247D02*
X145251214Y-95325295D01*
X145251214Y-95325295D02*
X145203595Y-95230057D01*
X145203595Y-95230057D02*
X145155976Y-95182438D01*
X145155976Y-95182438D02*
X145060738Y-95134819D01*
X145060738Y-95134819D02*
X144870262Y-95134819D01*
X144870262Y-95134819D02*
X144775024Y-95182438D01*
X144775024Y-95182438D02*
X144727405Y-95230057D01*
X144727405Y-95230057D02*
X144679786Y-95325295D01*
X144679786Y-95325295D02*
X144679786Y-95563390D01*
X144679786Y-95563390D02*
X144727405Y-95658628D01*
X144727405Y-95658628D02*
X144775024Y-95706247D01*
X144775024Y-95706247D02*
X144870262Y-95753866D01*
X144870262Y-95753866D02*
X145060738Y-95753866D01*
X145060738Y-95753866D02*
X145155976Y-95706247D01*
X145155976Y-95706247D02*
X145203595Y-95658628D01*
X145203595Y-95658628D02*
X145251214Y-95563390D01*
X151330819Y-84885904D02*
X152140342Y-84885904D01*
X152140342Y-84885904D02*
X152235580Y-84838285D01*
X152235580Y-84838285D02*
X152283200Y-84790666D01*
X152283200Y-84790666D02*
X152330819Y-84695428D01*
X152330819Y-84695428D02*
X152330819Y-84504952D01*
X152330819Y-84504952D02*
X152283200Y-84409714D01*
X152283200Y-84409714D02*
X152235580Y-84362095D01*
X152235580Y-84362095D02*
X152140342Y-84314476D01*
X152140342Y-84314476D02*
X151330819Y-84314476D01*
X151664152Y-83409714D02*
X152330819Y-83409714D01*
X151283200Y-83647809D02*
X151997485Y-83885904D01*
X151997485Y-83885904D02*
X151997485Y-83266857D01*
X153963095Y-67563819D02*
X153963095Y-68373342D01*
X153963095Y-68373342D02*
X154010714Y-68468580D01*
X154010714Y-68468580D02*
X154058333Y-68516200D01*
X154058333Y-68516200D02*
X154153571Y-68563819D01*
X154153571Y-68563819D02*
X154344047Y-68563819D01*
X154344047Y-68563819D02*
X154439285Y-68516200D01*
X154439285Y-68516200D02*
X154486904Y-68468580D01*
X154486904Y-68468580D02*
X154534523Y-68373342D01*
X154534523Y-68373342D02*
X154534523Y-67563819D01*
X155058333Y-68563819D02*
X155248809Y-68563819D01*
X155248809Y-68563819D02*
X155344047Y-68516200D01*
X155344047Y-68516200D02*
X155391666Y-68468580D01*
X155391666Y-68468580D02*
X155486904Y-68325723D01*
X155486904Y-68325723D02*
X155534523Y-68135247D01*
X155534523Y-68135247D02*
X155534523Y-67754295D01*
X155534523Y-67754295D02*
X155486904Y-67659057D01*
X155486904Y-67659057D02*
X155439285Y-67611438D01*
X155439285Y-67611438D02*
X155344047Y-67563819D01*
X155344047Y-67563819D02*
X155153571Y-67563819D01*
X155153571Y-67563819D02*
X155058333Y-67611438D01*
X155058333Y-67611438D02*
X155010714Y-67659057D01*
X155010714Y-67659057D02*
X154963095Y-67754295D01*
X154963095Y-67754295D02*
X154963095Y-67992390D01*
X154963095Y-67992390D02*
X155010714Y-68087628D01*
X155010714Y-68087628D02*
X155058333Y-68135247D01*
X155058333Y-68135247D02*
X155153571Y-68182866D01*
X155153571Y-68182866D02*
X155344047Y-68182866D01*
X155344047Y-68182866D02*
X155439285Y-68135247D01*
X155439285Y-68135247D02*
X155486904Y-68087628D01*
X155486904Y-68087628D02*
X155534523Y-67992390D01*
X167738095Y-31754819D02*
X167738095Y-30754819D01*
X167738095Y-31231009D02*
X168309523Y-31231009D01*
X168309523Y-31754819D02*
X168309523Y-30754819D01*
X169309523Y-31754819D02*
X168738095Y-31754819D01*
X169023809Y-31754819D02*
X169023809Y-30754819D01*
X169023809Y-30754819D02*
X168928571Y-30897676D01*
X168928571Y-30897676D02*
X168833333Y-30992914D01*
X168833333Y-30992914D02*
X168738095Y-31040533D01*
X86238095Y-31754819D02*
X86238095Y-30754819D01*
X86238095Y-31231009D02*
X86809523Y-31231009D01*
X86809523Y-31754819D02*
X86809523Y-30754819D01*
X87238095Y-30850057D02*
X87285714Y-30802438D01*
X87285714Y-30802438D02*
X87380952Y-30754819D01*
X87380952Y-30754819D02*
X87619047Y-30754819D01*
X87619047Y-30754819D02*
X87714285Y-30802438D01*
X87714285Y-30802438D02*
X87761904Y-30850057D01*
X87761904Y-30850057D02*
X87809523Y-30945295D01*
X87809523Y-30945295D02*
X87809523Y-31040533D01*
X87809523Y-31040533D02*
X87761904Y-31183390D01*
X87761904Y-31183390D02*
X87190476Y-31754819D01*
X87190476Y-31754819D02*
X87809523Y-31754819D01*
X168238095Y-115754819D02*
X168238095Y-114754819D01*
X168238095Y-115231009D02*
X168809523Y-115231009D01*
X168809523Y-115754819D02*
X168809523Y-114754819D01*
X169190476Y-114754819D02*
X169809523Y-114754819D01*
X169809523Y-114754819D02*
X169476190Y-115135771D01*
X169476190Y-115135771D02*
X169619047Y-115135771D01*
X169619047Y-115135771D02*
X169714285Y-115183390D01*
X169714285Y-115183390D02*
X169761904Y-115231009D01*
X169761904Y-115231009D02*
X169809523Y-115326247D01*
X169809523Y-115326247D02*
X169809523Y-115564342D01*
X169809523Y-115564342D02*
X169761904Y-115659580D01*
X169761904Y-115659580D02*
X169714285Y-115707200D01*
X169714285Y-115707200D02*
X169619047Y-115754819D01*
X169619047Y-115754819D02*
X169333333Y-115754819D01*
X169333333Y-115754819D02*
X169238095Y-115707200D01*
X169238095Y-115707200D02*
X169190476Y-115659580D01*
X86738095Y-115754819D02*
X86738095Y-114754819D01*
X86738095Y-115231009D02*
X87309523Y-115231009D01*
X87309523Y-115754819D02*
X87309523Y-114754819D01*
X88214285Y-115088152D02*
X88214285Y-115754819D01*
X87976190Y-114707200D02*
X87738095Y-115421485D01*
X87738095Y-115421485D02*
X88357142Y-115421485D01*
X153857142Y-56179580D02*
X153809523Y-56227200D01*
X153809523Y-56227200D02*
X153666666Y-56274819D01*
X153666666Y-56274819D02*
X153571428Y-56274819D01*
X153571428Y-56274819D02*
X153428571Y-56227200D01*
X153428571Y-56227200D02*
X153333333Y-56131961D01*
X153333333Y-56131961D02*
X153285714Y-56036723D01*
X153285714Y-56036723D02*
X153238095Y-55846247D01*
X153238095Y-55846247D02*
X153238095Y-55703390D01*
X153238095Y-55703390D02*
X153285714Y-55512914D01*
X153285714Y-55512914D02*
X153333333Y-55417676D01*
X153333333Y-55417676D02*
X153428571Y-55322438D01*
X153428571Y-55322438D02*
X153571428Y-55274819D01*
X153571428Y-55274819D02*
X153666666Y-55274819D01*
X153666666Y-55274819D02*
X153809523Y-55322438D01*
X153809523Y-55322438D02*
X153857142Y-55370057D01*
X154809523Y-56274819D02*
X154238095Y-56274819D01*
X154523809Y-56274819D02*
X154523809Y-55274819D01*
X154523809Y-55274819D02*
X154428571Y-55417676D01*
X154428571Y-55417676D02*
X154333333Y-55512914D01*
X154333333Y-55512914D02*
X154238095Y-55560533D01*
X155285714Y-56274819D02*
X155476190Y-56274819D01*
X155476190Y-56274819D02*
X155571428Y-56227200D01*
X155571428Y-56227200D02*
X155619047Y-56179580D01*
X155619047Y-56179580D02*
X155714285Y-56036723D01*
X155714285Y-56036723D02*
X155761904Y-55846247D01*
X155761904Y-55846247D02*
X155761904Y-55465295D01*
X155761904Y-55465295D02*
X155714285Y-55370057D01*
X155714285Y-55370057D02*
X155666666Y-55322438D01*
X155666666Y-55322438D02*
X155571428Y-55274819D01*
X155571428Y-55274819D02*
X155380952Y-55274819D01*
X155380952Y-55274819D02*
X155285714Y-55322438D01*
X155285714Y-55322438D02*
X155238095Y-55370057D01*
X155238095Y-55370057D02*
X155190476Y-55465295D01*
X155190476Y-55465295D02*
X155190476Y-55703390D01*
X155190476Y-55703390D02*
X155238095Y-55798628D01*
X155238095Y-55798628D02*
X155285714Y-55846247D01*
X155285714Y-55846247D02*
X155380952Y-55893866D01*
X155380952Y-55893866D02*
X155571428Y-55893866D01*
X155571428Y-55893866D02*
X155666666Y-55846247D01*
X155666666Y-55846247D02*
X155714285Y-55798628D01*
X155714285Y-55798628D02*
X155761904Y-55703390D01*
X157857142Y-56304819D02*
X157523809Y-55828628D01*
X157285714Y-56304819D02*
X157285714Y-55304819D01*
X157285714Y-55304819D02*
X157666666Y-55304819D01*
X157666666Y-55304819D02*
X157761904Y-55352438D01*
X157761904Y-55352438D02*
X157809523Y-55400057D01*
X157809523Y-55400057D02*
X157857142Y-55495295D01*
X157857142Y-55495295D02*
X157857142Y-55638152D01*
X157857142Y-55638152D02*
X157809523Y-55733390D01*
X157809523Y-55733390D02*
X157761904Y-55781009D01*
X157761904Y-55781009D02*
X157666666Y-55828628D01*
X157666666Y-55828628D02*
X157285714Y-55828628D01*
X158809523Y-56304819D02*
X158238095Y-56304819D01*
X158523809Y-56304819D02*
X158523809Y-55304819D01*
X158523809Y-55304819D02*
X158428571Y-55447676D01*
X158428571Y-55447676D02*
X158333333Y-55542914D01*
X158333333Y-55542914D02*
X158238095Y-55590533D01*
X159380952Y-55733390D02*
X159285714Y-55685771D01*
X159285714Y-55685771D02*
X159238095Y-55638152D01*
X159238095Y-55638152D02*
X159190476Y-55542914D01*
X159190476Y-55542914D02*
X159190476Y-55495295D01*
X159190476Y-55495295D02*
X159238095Y-55400057D01*
X159238095Y-55400057D02*
X159285714Y-55352438D01*
X159285714Y-55352438D02*
X159380952Y-55304819D01*
X159380952Y-55304819D02*
X159571428Y-55304819D01*
X159571428Y-55304819D02*
X159666666Y-55352438D01*
X159666666Y-55352438D02*
X159714285Y-55400057D01*
X159714285Y-55400057D02*
X159761904Y-55495295D01*
X159761904Y-55495295D02*
X159761904Y-55542914D01*
X159761904Y-55542914D02*
X159714285Y-55638152D01*
X159714285Y-55638152D02*
X159666666Y-55685771D01*
X159666666Y-55685771D02*
X159571428Y-55733390D01*
X159571428Y-55733390D02*
X159380952Y-55733390D01*
X159380952Y-55733390D02*
X159285714Y-55781009D01*
X159285714Y-55781009D02*
X159238095Y-55828628D01*
X159238095Y-55828628D02*
X159190476Y-55923866D01*
X159190476Y-55923866D02*
X159190476Y-56114342D01*
X159190476Y-56114342D02*
X159238095Y-56209580D01*
X159238095Y-56209580D02*
X159285714Y-56257200D01*
X159285714Y-56257200D02*
X159380952Y-56304819D01*
X159380952Y-56304819D02*
X159571428Y-56304819D01*
X159571428Y-56304819D02*
X159666666Y-56257200D01*
X159666666Y-56257200D02*
X159714285Y-56209580D01*
X159714285Y-56209580D02*
X159761904Y-56114342D01*
X159761904Y-56114342D02*
X159761904Y-55923866D01*
X159761904Y-55923866D02*
X159714285Y-55828628D01*
X159714285Y-55828628D02*
X159666666Y-55781009D01*
X159666666Y-55781009D02*
X159571428Y-55733390D01*
X158673809Y-85678628D02*
X158673809Y-86154819D01*
X158340476Y-85154819D02*
X158673809Y-85678628D01*
X158673809Y-85678628D02*
X159007142Y-85154819D01*
X159864285Y-86154819D02*
X159292857Y-86154819D01*
X159578571Y-86154819D02*
X159578571Y-85154819D01*
X159578571Y-85154819D02*
X159483333Y-85297676D01*
X159483333Y-85297676D02*
X159388095Y-85392914D01*
X159388095Y-85392914D02*
X159292857Y-85440533D01*
X145246667Y-95997200D02*
X145389524Y-96044819D01*
X145389524Y-96044819D02*
X145627619Y-96044819D01*
X145627619Y-96044819D02*
X145722857Y-95997200D01*
X145722857Y-95997200D02*
X145770476Y-95949580D01*
X145770476Y-95949580D02*
X145818095Y-95854342D01*
X145818095Y-95854342D02*
X145818095Y-95759104D01*
X145818095Y-95759104D02*
X145770476Y-95663866D01*
X145770476Y-95663866D02*
X145722857Y-95616247D01*
X145722857Y-95616247D02*
X145627619Y-95568628D01*
X145627619Y-95568628D02*
X145437143Y-95521009D01*
X145437143Y-95521009D02*
X145341905Y-95473390D01*
X145341905Y-95473390D02*
X145294286Y-95425771D01*
X145294286Y-95425771D02*
X145246667Y-95330533D01*
X145246667Y-95330533D02*
X145246667Y-95235295D01*
X145246667Y-95235295D02*
X145294286Y-95140057D01*
X145294286Y-95140057D02*
X145341905Y-95092438D01*
X145341905Y-95092438D02*
X145437143Y-95044819D01*
X145437143Y-95044819D02*
X145675238Y-95044819D01*
X145675238Y-95044819D02*
X145818095Y-95092438D01*
X146151429Y-95044819D02*
X146389524Y-96044819D01*
X146389524Y-96044819D02*
X146580000Y-95330533D01*
X146580000Y-95330533D02*
X146770476Y-96044819D01*
X146770476Y-96044819D02*
X147008572Y-95044819D01*
X147341905Y-95140057D02*
X147389524Y-95092438D01*
X147389524Y-95092438D02*
X147484762Y-95044819D01*
X147484762Y-95044819D02*
X147722857Y-95044819D01*
X147722857Y-95044819D02*
X147818095Y-95092438D01*
X147818095Y-95092438D02*
X147865714Y-95140057D01*
X147865714Y-95140057D02*
X147913333Y-95235295D01*
X147913333Y-95235295D02*
X147913333Y-95330533D01*
X147913333Y-95330533D02*
X147865714Y-95473390D01*
X147865714Y-95473390D02*
X147294286Y-96044819D01*
X147294286Y-96044819D02*
X147913333Y-96044819D01*
X162233142Y-83428819D02*
X161899809Y-82952628D01*
X161661714Y-83428819D02*
X161661714Y-82428819D01*
X161661714Y-82428819D02*
X162042666Y-82428819D01*
X162042666Y-82428819D02*
X162137904Y-82476438D01*
X162137904Y-82476438D02*
X162185523Y-82524057D01*
X162185523Y-82524057D02*
X162233142Y-82619295D01*
X162233142Y-82619295D02*
X162233142Y-82762152D01*
X162233142Y-82762152D02*
X162185523Y-82857390D01*
X162185523Y-82857390D02*
X162137904Y-82905009D01*
X162137904Y-82905009D02*
X162042666Y-82952628D01*
X162042666Y-82952628D02*
X161661714Y-82952628D01*
X162614095Y-82524057D02*
X162661714Y-82476438D01*
X162661714Y-82476438D02*
X162756952Y-82428819D01*
X162756952Y-82428819D02*
X162995047Y-82428819D01*
X162995047Y-82428819D02*
X163090285Y-82476438D01*
X163090285Y-82476438D02*
X163137904Y-82524057D01*
X163137904Y-82524057D02*
X163185523Y-82619295D01*
X163185523Y-82619295D02*
X163185523Y-82714533D01*
X163185523Y-82714533D02*
X163137904Y-82857390D01*
X163137904Y-82857390D02*
X162566476Y-83428819D01*
X162566476Y-83428819D02*
X163185523Y-83428819D01*
X163566476Y-82524057D02*
X163614095Y-82476438D01*
X163614095Y-82476438D02*
X163709333Y-82428819D01*
X163709333Y-82428819D02*
X163947428Y-82428819D01*
X163947428Y-82428819D02*
X164042666Y-82476438D01*
X164042666Y-82476438D02*
X164090285Y-82524057D01*
X164090285Y-82524057D02*
X164137904Y-82619295D01*
X164137904Y-82619295D02*
X164137904Y-82714533D01*
X164137904Y-82714533D02*
X164090285Y-82857390D01*
X164090285Y-82857390D02*
X163518857Y-83428819D01*
X163518857Y-83428819D02*
X164137904Y-83428819D01*
X162233142Y-74928819D02*
X161899809Y-74452628D01*
X161661714Y-74928819D02*
X161661714Y-73928819D01*
X161661714Y-73928819D02*
X162042666Y-73928819D01*
X162042666Y-73928819D02*
X162137904Y-73976438D01*
X162137904Y-73976438D02*
X162185523Y-74024057D01*
X162185523Y-74024057D02*
X162233142Y-74119295D01*
X162233142Y-74119295D02*
X162233142Y-74262152D01*
X162233142Y-74262152D02*
X162185523Y-74357390D01*
X162185523Y-74357390D02*
X162137904Y-74405009D01*
X162137904Y-74405009D02*
X162042666Y-74452628D01*
X162042666Y-74452628D02*
X161661714Y-74452628D01*
X162614095Y-74024057D02*
X162661714Y-73976438D01*
X162661714Y-73976438D02*
X162756952Y-73928819D01*
X162756952Y-73928819D02*
X162995047Y-73928819D01*
X162995047Y-73928819D02*
X163090285Y-73976438D01*
X163090285Y-73976438D02*
X163137904Y-74024057D01*
X163137904Y-74024057D02*
X163185523Y-74119295D01*
X163185523Y-74119295D02*
X163185523Y-74214533D01*
X163185523Y-74214533D02*
X163137904Y-74357390D01*
X163137904Y-74357390D02*
X162566476Y-74928819D01*
X162566476Y-74928819D02*
X163185523Y-74928819D01*
X164137904Y-74928819D02*
X163566476Y-74928819D01*
X163852190Y-74928819D02*
X163852190Y-73928819D01*
X163852190Y-73928819D02*
X163756952Y-74071676D01*
X163756952Y-74071676D02*
X163661714Y-74166914D01*
X163661714Y-74166914D02*
X163566476Y-74214533D01*
X152733142Y-73928819D02*
X152399809Y-73452628D01*
X152161714Y-73928819D02*
X152161714Y-72928819D01*
X152161714Y-72928819D02*
X152542666Y-72928819D01*
X152542666Y-72928819D02*
X152637904Y-72976438D01*
X152637904Y-72976438D02*
X152685523Y-73024057D01*
X152685523Y-73024057D02*
X152733142Y-73119295D01*
X152733142Y-73119295D02*
X152733142Y-73262152D01*
X152733142Y-73262152D02*
X152685523Y-73357390D01*
X152685523Y-73357390D02*
X152637904Y-73405009D01*
X152637904Y-73405009D02*
X152542666Y-73452628D01*
X152542666Y-73452628D02*
X152161714Y-73452628D01*
X153114095Y-73024057D02*
X153161714Y-72976438D01*
X153161714Y-72976438D02*
X153256952Y-72928819D01*
X153256952Y-72928819D02*
X153495047Y-72928819D01*
X153495047Y-72928819D02*
X153590285Y-72976438D01*
X153590285Y-72976438D02*
X153637904Y-73024057D01*
X153637904Y-73024057D02*
X153685523Y-73119295D01*
X153685523Y-73119295D02*
X153685523Y-73214533D01*
X153685523Y-73214533D02*
X153637904Y-73357390D01*
X153637904Y-73357390D02*
X153066476Y-73928819D01*
X153066476Y-73928819D02*
X153685523Y-73928819D01*
X154304571Y-72928819D02*
X154399809Y-72928819D01*
X154399809Y-72928819D02*
X154495047Y-72976438D01*
X154495047Y-72976438D02*
X154542666Y-73024057D01*
X154542666Y-73024057D02*
X154590285Y-73119295D01*
X154590285Y-73119295D02*
X154637904Y-73309771D01*
X154637904Y-73309771D02*
X154637904Y-73547866D01*
X154637904Y-73547866D02*
X154590285Y-73738342D01*
X154590285Y-73738342D02*
X154542666Y-73833580D01*
X154542666Y-73833580D02*
X154495047Y-73881200D01*
X154495047Y-73881200D02*
X154399809Y-73928819D01*
X154399809Y-73928819D02*
X154304571Y-73928819D01*
X154304571Y-73928819D02*
X154209333Y-73881200D01*
X154209333Y-73881200D02*
X154161714Y-73833580D01*
X154161714Y-73833580D02*
X154114095Y-73738342D01*
X154114095Y-73738342D02*
X154066476Y-73547866D01*
X154066476Y-73547866D02*
X154066476Y-73309771D01*
X154066476Y-73309771D02*
X154114095Y-73119295D01*
X154114095Y-73119295D02*
X154161714Y-73024057D01*
X154161714Y-73024057D02*
X154209333Y-72976438D01*
X154209333Y-72976438D02*
X154304571Y-72928819D01*
X146733142Y-70428819D02*
X146399809Y-69952628D01*
X146161714Y-70428819D02*
X146161714Y-69428819D01*
X146161714Y-69428819D02*
X146542666Y-69428819D01*
X146542666Y-69428819D02*
X146637904Y-69476438D01*
X146637904Y-69476438D02*
X146685523Y-69524057D01*
X146685523Y-69524057D02*
X146733142Y-69619295D01*
X146733142Y-69619295D02*
X146733142Y-69762152D01*
X146733142Y-69762152D02*
X146685523Y-69857390D01*
X146685523Y-69857390D02*
X146637904Y-69905009D01*
X146637904Y-69905009D02*
X146542666Y-69952628D01*
X146542666Y-69952628D02*
X146161714Y-69952628D01*
X147685523Y-70428819D02*
X147114095Y-70428819D01*
X147399809Y-70428819D02*
X147399809Y-69428819D01*
X147399809Y-69428819D02*
X147304571Y-69571676D01*
X147304571Y-69571676D02*
X147209333Y-69666914D01*
X147209333Y-69666914D02*
X147114095Y-69714533D01*
X148161714Y-70428819D02*
X148352190Y-70428819D01*
X148352190Y-70428819D02*
X148447428Y-70381200D01*
X148447428Y-70381200D02*
X148495047Y-70333580D01*
X148495047Y-70333580D02*
X148590285Y-70190723D01*
X148590285Y-70190723D02*
X148637904Y-70000247D01*
X148637904Y-70000247D02*
X148637904Y-69619295D01*
X148637904Y-69619295D02*
X148590285Y-69524057D01*
X148590285Y-69524057D02*
X148542666Y-69476438D01*
X148542666Y-69476438D02*
X148447428Y-69428819D01*
X148447428Y-69428819D02*
X148256952Y-69428819D01*
X148256952Y-69428819D02*
X148161714Y-69476438D01*
X148161714Y-69476438D02*
X148114095Y-69524057D01*
X148114095Y-69524057D02*
X148066476Y-69619295D01*
X148066476Y-69619295D02*
X148066476Y-69857390D01*
X148066476Y-69857390D02*
X148114095Y-69952628D01*
X148114095Y-69952628D02*
X148161714Y-70000247D01*
X148161714Y-70000247D02*
X148256952Y-70047866D01*
X148256952Y-70047866D02*
X148447428Y-70047866D01*
X148447428Y-70047866D02*
X148542666Y-70000247D01*
X148542666Y-70000247D02*
X148590285Y-69952628D01*
X148590285Y-69952628D02*
X148637904Y-69857390D01*
X144107142Y-111304819D02*
X143773809Y-110828628D01*
X143535714Y-111304819D02*
X143535714Y-110304819D01*
X143535714Y-110304819D02*
X143916666Y-110304819D01*
X143916666Y-110304819D02*
X144011904Y-110352438D01*
X144011904Y-110352438D02*
X144059523Y-110400057D01*
X144059523Y-110400057D02*
X144107142Y-110495295D01*
X144107142Y-110495295D02*
X144107142Y-110638152D01*
X144107142Y-110638152D02*
X144059523Y-110733390D01*
X144059523Y-110733390D02*
X144011904Y-110781009D01*
X144011904Y-110781009D02*
X143916666Y-110828628D01*
X143916666Y-110828628D02*
X143535714Y-110828628D01*
X145059523Y-111304819D02*
X144488095Y-111304819D01*
X144773809Y-111304819D02*
X144773809Y-110304819D01*
X144773809Y-110304819D02*
X144678571Y-110447676D01*
X144678571Y-110447676D02*
X144583333Y-110542914D01*
X144583333Y-110542914D02*
X144488095Y-110590533D01*
X145916666Y-110304819D02*
X145726190Y-110304819D01*
X145726190Y-110304819D02*
X145630952Y-110352438D01*
X145630952Y-110352438D02*
X145583333Y-110400057D01*
X145583333Y-110400057D02*
X145488095Y-110542914D01*
X145488095Y-110542914D02*
X145440476Y-110733390D01*
X145440476Y-110733390D02*
X145440476Y-111114342D01*
X145440476Y-111114342D02*
X145488095Y-111209580D01*
X145488095Y-111209580D02*
X145535714Y-111257200D01*
X145535714Y-111257200D02*
X145630952Y-111304819D01*
X145630952Y-111304819D02*
X145821428Y-111304819D01*
X145821428Y-111304819D02*
X145916666Y-111257200D01*
X145916666Y-111257200D02*
X145964285Y-111209580D01*
X145964285Y-111209580D02*
X146011904Y-111114342D01*
X146011904Y-111114342D02*
X146011904Y-110876247D01*
X146011904Y-110876247D02*
X145964285Y-110781009D01*
X145964285Y-110781009D02*
X145916666Y-110733390D01*
X145916666Y-110733390D02*
X145821428Y-110685771D01*
X145821428Y-110685771D02*
X145630952Y-110685771D01*
X145630952Y-110685771D02*
X145535714Y-110733390D01*
X145535714Y-110733390D02*
X145488095Y-110781009D01*
X145488095Y-110781009D02*
X145440476Y-110876247D01*
X122008612Y-111804819D02*
X121675279Y-111328628D01*
X121437184Y-111804819D02*
X121437184Y-110804819D01*
X121437184Y-110804819D02*
X121818136Y-110804819D01*
X121818136Y-110804819D02*
X121913374Y-110852438D01*
X121913374Y-110852438D02*
X121960993Y-110900057D01*
X121960993Y-110900057D02*
X122008612Y-110995295D01*
X122008612Y-110995295D02*
X122008612Y-111138152D01*
X122008612Y-111138152D02*
X121960993Y-111233390D01*
X121960993Y-111233390D02*
X121913374Y-111281009D01*
X121913374Y-111281009D02*
X121818136Y-111328628D01*
X121818136Y-111328628D02*
X121437184Y-111328628D01*
X122960993Y-111804819D02*
X122389565Y-111804819D01*
X122675279Y-111804819D02*
X122675279Y-110804819D01*
X122675279Y-110804819D02*
X122580041Y-110947676D01*
X122580041Y-110947676D02*
X122484803Y-111042914D01*
X122484803Y-111042914D02*
X122389565Y-111090533D01*
X123865755Y-110804819D02*
X123389565Y-110804819D01*
X123389565Y-110804819D02*
X123341946Y-111281009D01*
X123341946Y-111281009D02*
X123389565Y-111233390D01*
X123389565Y-111233390D02*
X123484803Y-111185771D01*
X123484803Y-111185771D02*
X123722898Y-111185771D01*
X123722898Y-111185771D02*
X123818136Y-111233390D01*
X123818136Y-111233390D02*
X123865755Y-111281009D01*
X123865755Y-111281009D02*
X123913374Y-111376247D01*
X123913374Y-111376247D02*
X123913374Y-111614342D01*
X123913374Y-111614342D02*
X123865755Y-111709580D01*
X123865755Y-111709580D02*
X123818136Y-111757200D01*
X123818136Y-111757200D02*
X123722898Y-111804819D01*
X123722898Y-111804819D02*
X123484803Y-111804819D01*
X123484803Y-111804819D02*
X123389565Y-111757200D01*
X123389565Y-111757200D02*
X123341946Y-111709580D01*
X126008612Y-106104819D02*
X125675279Y-105628628D01*
X125437184Y-106104819D02*
X125437184Y-105104819D01*
X125437184Y-105104819D02*
X125818136Y-105104819D01*
X125818136Y-105104819D02*
X125913374Y-105152438D01*
X125913374Y-105152438D02*
X125960993Y-105200057D01*
X125960993Y-105200057D02*
X126008612Y-105295295D01*
X126008612Y-105295295D02*
X126008612Y-105438152D01*
X126008612Y-105438152D02*
X125960993Y-105533390D01*
X125960993Y-105533390D02*
X125913374Y-105581009D01*
X125913374Y-105581009D02*
X125818136Y-105628628D01*
X125818136Y-105628628D02*
X125437184Y-105628628D01*
X126960993Y-106104819D02*
X126389565Y-106104819D01*
X126675279Y-106104819D02*
X126675279Y-105104819D01*
X126675279Y-105104819D02*
X126580041Y-105247676D01*
X126580041Y-105247676D02*
X126484803Y-105342914D01*
X126484803Y-105342914D02*
X126389565Y-105390533D01*
X127818136Y-105438152D02*
X127818136Y-106104819D01*
X127580041Y-105057200D02*
X127341946Y-105771485D01*
X127341946Y-105771485D02*
X127960993Y-105771485D01*
X115857142Y-84804819D02*
X115523809Y-84328628D01*
X115285714Y-84804819D02*
X115285714Y-83804819D01*
X115285714Y-83804819D02*
X115666666Y-83804819D01*
X115666666Y-83804819D02*
X115761904Y-83852438D01*
X115761904Y-83852438D02*
X115809523Y-83900057D01*
X115809523Y-83900057D02*
X115857142Y-83995295D01*
X115857142Y-83995295D02*
X115857142Y-84138152D01*
X115857142Y-84138152D02*
X115809523Y-84233390D01*
X115809523Y-84233390D02*
X115761904Y-84281009D01*
X115761904Y-84281009D02*
X115666666Y-84328628D01*
X115666666Y-84328628D02*
X115285714Y-84328628D01*
X116809523Y-84804819D02*
X116238095Y-84804819D01*
X116523809Y-84804819D02*
X116523809Y-83804819D01*
X116523809Y-83804819D02*
X116428571Y-83947676D01*
X116428571Y-83947676D02*
X116333333Y-84042914D01*
X116333333Y-84042914D02*
X116238095Y-84090533D01*
X117142857Y-83804819D02*
X117761904Y-83804819D01*
X117761904Y-83804819D02*
X117428571Y-84185771D01*
X117428571Y-84185771D02*
X117571428Y-84185771D01*
X117571428Y-84185771D02*
X117666666Y-84233390D01*
X117666666Y-84233390D02*
X117714285Y-84281009D01*
X117714285Y-84281009D02*
X117761904Y-84376247D01*
X117761904Y-84376247D02*
X117761904Y-84614342D01*
X117761904Y-84614342D02*
X117714285Y-84709580D01*
X117714285Y-84709580D02*
X117666666Y-84757200D01*
X117666666Y-84757200D02*
X117571428Y-84804819D01*
X117571428Y-84804819D02*
X117285714Y-84804819D01*
X117285714Y-84804819D02*
X117190476Y-84757200D01*
X117190476Y-84757200D02*
X117142857Y-84709580D01*
X117508612Y-111104819D02*
X117175279Y-110628628D01*
X116937184Y-111104819D02*
X116937184Y-110104819D01*
X116937184Y-110104819D02*
X117318136Y-110104819D01*
X117318136Y-110104819D02*
X117413374Y-110152438D01*
X117413374Y-110152438D02*
X117460993Y-110200057D01*
X117460993Y-110200057D02*
X117508612Y-110295295D01*
X117508612Y-110295295D02*
X117508612Y-110438152D01*
X117508612Y-110438152D02*
X117460993Y-110533390D01*
X117460993Y-110533390D02*
X117413374Y-110581009D01*
X117413374Y-110581009D02*
X117318136Y-110628628D01*
X117318136Y-110628628D02*
X116937184Y-110628628D01*
X118460993Y-111104819D02*
X117889565Y-111104819D01*
X118175279Y-111104819D02*
X118175279Y-110104819D01*
X118175279Y-110104819D02*
X118080041Y-110247676D01*
X118080041Y-110247676D02*
X117984803Y-110342914D01*
X117984803Y-110342914D02*
X117889565Y-110390533D01*
X119413374Y-111104819D02*
X118841946Y-111104819D01*
X119127660Y-111104819D02*
X119127660Y-110104819D01*
X119127660Y-110104819D02*
X119032422Y-110247676D01*
X119032422Y-110247676D02*
X118937184Y-110342914D01*
X118937184Y-110342914D02*
X118841946Y-110390533D01*
X117508612Y-106104819D02*
X117175279Y-105628628D01*
X116937184Y-106104819D02*
X116937184Y-105104819D01*
X116937184Y-105104819D02*
X117318136Y-105104819D01*
X117318136Y-105104819D02*
X117413374Y-105152438D01*
X117413374Y-105152438D02*
X117460993Y-105200057D01*
X117460993Y-105200057D02*
X117508612Y-105295295D01*
X117508612Y-105295295D02*
X117508612Y-105438152D01*
X117508612Y-105438152D02*
X117460993Y-105533390D01*
X117460993Y-105533390D02*
X117413374Y-105581009D01*
X117413374Y-105581009D02*
X117318136Y-105628628D01*
X117318136Y-105628628D02*
X116937184Y-105628628D01*
X118460993Y-106104819D02*
X117889565Y-106104819D01*
X118175279Y-106104819D02*
X118175279Y-105104819D01*
X118175279Y-105104819D02*
X118080041Y-105247676D01*
X118080041Y-105247676D02*
X117984803Y-105342914D01*
X117984803Y-105342914D02*
X117889565Y-105390533D01*
X119080041Y-105104819D02*
X119175279Y-105104819D01*
X119175279Y-105104819D02*
X119270517Y-105152438D01*
X119270517Y-105152438D02*
X119318136Y-105200057D01*
X119318136Y-105200057D02*
X119365755Y-105295295D01*
X119365755Y-105295295D02*
X119413374Y-105485771D01*
X119413374Y-105485771D02*
X119413374Y-105723866D01*
X119413374Y-105723866D02*
X119365755Y-105914342D01*
X119365755Y-105914342D02*
X119318136Y-106009580D01*
X119318136Y-106009580D02*
X119270517Y-106057200D01*
X119270517Y-106057200D02*
X119175279Y-106104819D01*
X119175279Y-106104819D02*
X119080041Y-106104819D01*
X119080041Y-106104819D02*
X118984803Y-106057200D01*
X118984803Y-106057200D02*
X118937184Y-106009580D01*
X118937184Y-106009580D02*
X118889565Y-105914342D01*
X118889565Y-105914342D02*
X118841946Y-105723866D01*
X118841946Y-105723866D02*
X118841946Y-105485771D01*
X118841946Y-105485771D02*
X118889565Y-105295295D01*
X118889565Y-105295295D02*
X118937184Y-105200057D01*
X118937184Y-105200057D02*
X118984803Y-105152438D01*
X118984803Y-105152438D02*
X119080041Y-105104819D01*
X122493731Y-107700057D02*
X122398493Y-107652438D01*
X122398493Y-107652438D02*
X122303255Y-107557200D01*
X122303255Y-107557200D02*
X122160398Y-107414342D01*
X122160398Y-107414342D02*
X122065160Y-107366723D01*
X122065160Y-107366723D02*
X121969922Y-107366723D01*
X122017541Y-107604819D02*
X121922303Y-107557200D01*
X121922303Y-107557200D02*
X121827065Y-107461961D01*
X121827065Y-107461961D02*
X121779446Y-107271485D01*
X121779446Y-107271485D02*
X121779446Y-106938152D01*
X121779446Y-106938152D02*
X121827065Y-106747676D01*
X121827065Y-106747676D02*
X121922303Y-106652438D01*
X121922303Y-106652438D02*
X122017541Y-106604819D01*
X122017541Y-106604819D02*
X122208017Y-106604819D01*
X122208017Y-106604819D02*
X122303255Y-106652438D01*
X122303255Y-106652438D02*
X122398493Y-106747676D01*
X122398493Y-106747676D02*
X122446112Y-106938152D01*
X122446112Y-106938152D02*
X122446112Y-107271485D01*
X122446112Y-107271485D02*
X122398493Y-107461961D01*
X122398493Y-107461961D02*
X122303255Y-107557200D01*
X122303255Y-107557200D02*
X122208017Y-107604819D01*
X122208017Y-107604819D02*
X122017541Y-107604819D01*
X122827065Y-106700057D02*
X122874684Y-106652438D01*
X122874684Y-106652438D02*
X122969922Y-106604819D01*
X122969922Y-106604819D02*
X123208017Y-106604819D01*
X123208017Y-106604819D02*
X123303255Y-106652438D01*
X123303255Y-106652438D02*
X123350874Y-106700057D01*
X123350874Y-106700057D02*
X123398493Y-106795295D01*
X123398493Y-106795295D02*
X123398493Y-106890533D01*
X123398493Y-106890533D02*
X123350874Y-107033390D01*
X123350874Y-107033390D02*
X122779446Y-107604819D01*
X122779446Y-107604819D02*
X123398493Y-107604819D01*
X122493731Y-102150057D02*
X122398493Y-102102438D01*
X122398493Y-102102438D02*
X122303255Y-102007200D01*
X122303255Y-102007200D02*
X122160398Y-101864342D01*
X122160398Y-101864342D02*
X122065160Y-101816723D01*
X122065160Y-101816723D02*
X121969922Y-101816723D01*
X122017541Y-102054819D02*
X121922303Y-102007200D01*
X121922303Y-102007200D02*
X121827065Y-101911961D01*
X121827065Y-101911961D02*
X121779446Y-101721485D01*
X121779446Y-101721485D02*
X121779446Y-101388152D01*
X121779446Y-101388152D02*
X121827065Y-101197676D01*
X121827065Y-101197676D02*
X121922303Y-101102438D01*
X121922303Y-101102438D02*
X122017541Y-101054819D01*
X122017541Y-101054819D02*
X122208017Y-101054819D01*
X122208017Y-101054819D02*
X122303255Y-101102438D01*
X122303255Y-101102438D02*
X122398493Y-101197676D01*
X122398493Y-101197676D02*
X122446112Y-101388152D01*
X122446112Y-101388152D02*
X122446112Y-101721485D01*
X122446112Y-101721485D02*
X122398493Y-101911961D01*
X122398493Y-101911961D02*
X122303255Y-102007200D01*
X122303255Y-102007200D02*
X122208017Y-102054819D01*
X122208017Y-102054819D02*
X122017541Y-102054819D01*
X123398493Y-102054819D02*
X122827065Y-102054819D01*
X123112779Y-102054819D02*
X123112779Y-101054819D01*
X123112779Y-101054819D02*
X123017541Y-101197676D01*
X123017541Y-101197676D02*
X122922303Y-101292914D01*
X122922303Y-101292914D02*
X122827065Y-101340533D01*
X167209333Y-79428819D02*
X166733143Y-79428819D01*
X166733143Y-79428819D02*
X166733143Y-78428819D01*
X167971238Y-78762152D02*
X167971238Y-79428819D01*
X167733143Y-78381200D02*
X167495048Y-79095485D01*
X167495048Y-79095485D02*
X168114095Y-79095485D01*
X153234333Y-80928819D02*
X152758143Y-80928819D01*
X152758143Y-80928819D02*
X152758143Y-79928819D01*
X153472429Y-79928819D02*
X154091476Y-79928819D01*
X154091476Y-79928819D02*
X153758143Y-80309771D01*
X153758143Y-80309771D02*
X153901000Y-80309771D01*
X153901000Y-80309771D02*
X153996238Y-80357390D01*
X153996238Y-80357390D02*
X154043857Y-80405009D01*
X154043857Y-80405009D02*
X154091476Y-80500247D01*
X154091476Y-80500247D02*
X154091476Y-80738342D01*
X154091476Y-80738342D02*
X154043857Y-80833580D01*
X154043857Y-80833580D02*
X153996238Y-80881200D01*
X153996238Y-80881200D02*
X153901000Y-80928819D01*
X153901000Y-80928819D02*
X153615286Y-80928819D01*
X153615286Y-80928819D02*
X153520048Y-80881200D01*
X153520048Y-80881200D02*
X153472429Y-80833580D01*
X153234333Y-77928819D02*
X152758143Y-77928819D01*
X152758143Y-77928819D02*
X152758143Y-76928819D01*
X153520048Y-77024057D02*
X153567667Y-76976438D01*
X153567667Y-76976438D02*
X153662905Y-76928819D01*
X153662905Y-76928819D02*
X153901000Y-76928819D01*
X153901000Y-76928819D02*
X153996238Y-76976438D01*
X153996238Y-76976438D02*
X154043857Y-77024057D01*
X154043857Y-77024057D02*
X154091476Y-77119295D01*
X154091476Y-77119295D02*
X154091476Y-77214533D01*
X154091476Y-77214533D02*
X154043857Y-77357390D01*
X154043857Y-77357390D02*
X153472429Y-77928819D01*
X153472429Y-77928819D02*
X154091476Y-77928819D01*
X162233142Y-84163580D02*
X162185523Y-84211200D01*
X162185523Y-84211200D02*
X162042666Y-84258819D01*
X162042666Y-84258819D02*
X161947428Y-84258819D01*
X161947428Y-84258819D02*
X161804571Y-84211200D01*
X161804571Y-84211200D02*
X161709333Y-84115961D01*
X161709333Y-84115961D02*
X161661714Y-84020723D01*
X161661714Y-84020723D02*
X161614095Y-83830247D01*
X161614095Y-83830247D02*
X161614095Y-83687390D01*
X161614095Y-83687390D02*
X161661714Y-83496914D01*
X161661714Y-83496914D02*
X161709333Y-83401676D01*
X161709333Y-83401676D02*
X161804571Y-83306438D01*
X161804571Y-83306438D02*
X161947428Y-83258819D01*
X161947428Y-83258819D02*
X162042666Y-83258819D01*
X162042666Y-83258819D02*
X162185523Y-83306438D01*
X162185523Y-83306438D02*
X162233142Y-83354057D01*
X162614095Y-83354057D02*
X162661714Y-83306438D01*
X162661714Y-83306438D02*
X162756952Y-83258819D01*
X162756952Y-83258819D02*
X162995047Y-83258819D01*
X162995047Y-83258819D02*
X163090285Y-83306438D01*
X163090285Y-83306438D02*
X163137904Y-83354057D01*
X163137904Y-83354057D02*
X163185523Y-83449295D01*
X163185523Y-83449295D02*
X163185523Y-83544533D01*
X163185523Y-83544533D02*
X163137904Y-83687390D01*
X163137904Y-83687390D02*
X162566476Y-84258819D01*
X162566476Y-84258819D02*
X163185523Y-84258819D01*
X163661714Y-84258819D02*
X163852190Y-84258819D01*
X163852190Y-84258819D02*
X163947428Y-84211200D01*
X163947428Y-84211200D02*
X163995047Y-84163580D01*
X163995047Y-84163580D02*
X164090285Y-84020723D01*
X164090285Y-84020723D02*
X164137904Y-83830247D01*
X164137904Y-83830247D02*
X164137904Y-83449295D01*
X164137904Y-83449295D02*
X164090285Y-83354057D01*
X164090285Y-83354057D02*
X164042666Y-83306438D01*
X164042666Y-83306438D02*
X163947428Y-83258819D01*
X163947428Y-83258819D02*
X163756952Y-83258819D01*
X163756952Y-83258819D02*
X163661714Y-83306438D01*
X163661714Y-83306438D02*
X163614095Y-83354057D01*
X163614095Y-83354057D02*
X163566476Y-83449295D01*
X163566476Y-83449295D02*
X163566476Y-83687390D01*
X163566476Y-83687390D02*
X163614095Y-83782628D01*
X163614095Y-83782628D02*
X163661714Y-83830247D01*
X163661714Y-83830247D02*
X163756952Y-83877866D01*
X163756952Y-83877866D02*
X163947428Y-83877866D01*
X163947428Y-83877866D02*
X164042666Y-83830247D01*
X164042666Y-83830247D02*
X164090285Y-83782628D01*
X164090285Y-83782628D02*
X164137904Y-83687390D01*
X162233142Y-77803580D02*
X162185523Y-77851200D01*
X162185523Y-77851200D02*
X162042666Y-77898819D01*
X162042666Y-77898819D02*
X161947428Y-77898819D01*
X161947428Y-77898819D02*
X161804571Y-77851200D01*
X161804571Y-77851200D02*
X161709333Y-77755961D01*
X161709333Y-77755961D02*
X161661714Y-77660723D01*
X161661714Y-77660723D02*
X161614095Y-77470247D01*
X161614095Y-77470247D02*
X161614095Y-77327390D01*
X161614095Y-77327390D02*
X161661714Y-77136914D01*
X161661714Y-77136914D02*
X161709333Y-77041676D01*
X161709333Y-77041676D02*
X161804571Y-76946438D01*
X161804571Y-76946438D02*
X161947428Y-76898819D01*
X161947428Y-76898819D02*
X162042666Y-76898819D01*
X162042666Y-76898819D02*
X162185523Y-76946438D01*
X162185523Y-76946438D02*
X162233142Y-76994057D01*
X162614095Y-76994057D02*
X162661714Y-76946438D01*
X162661714Y-76946438D02*
X162756952Y-76898819D01*
X162756952Y-76898819D02*
X162995047Y-76898819D01*
X162995047Y-76898819D02*
X163090285Y-76946438D01*
X163090285Y-76946438D02*
X163137904Y-76994057D01*
X163137904Y-76994057D02*
X163185523Y-77089295D01*
X163185523Y-77089295D02*
X163185523Y-77184533D01*
X163185523Y-77184533D02*
X163137904Y-77327390D01*
X163137904Y-77327390D02*
X162566476Y-77898819D01*
X162566476Y-77898819D02*
X163185523Y-77898819D01*
X163756952Y-77327390D02*
X163661714Y-77279771D01*
X163661714Y-77279771D02*
X163614095Y-77232152D01*
X163614095Y-77232152D02*
X163566476Y-77136914D01*
X163566476Y-77136914D02*
X163566476Y-77089295D01*
X163566476Y-77089295D02*
X163614095Y-76994057D01*
X163614095Y-76994057D02*
X163661714Y-76946438D01*
X163661714Y-76946438D02*
X163756952Y-76898819D01*
X163756952Y-76898819D02*
X163947428Y-76898819D01*
X163947428Y-76898819D02*
X164042666Y-76946438D01*
X164042666Y-76946438D02*
X164090285Y-76994057D01*
X164090285Y-76994057D02*
X164137904Y-77089295D01*
X164137904Y-77089295D02*
X164137904Y-77136914D01*
X164137904Y-77136914D02*
X164090285Y-77232152D01*
X164090285Y-77232152D02*
X164042666Y-77279771D01*
X164042666Y-77279771D02*
X163947428Y-77327390D01*
X163947428Y-77327390D02*
X163756952Y-77327390D01*
X163756952Y-77327390D02*
X163661714Y-77375009D01*
X163661714Y-77375009D02*
X163614095Y-77422628D01*
X163614095Y-77422628D02*
X163566476Y-77517866D01*
X163566476Y-77517866D02*
X163566476Y-77708342D01*
X163566476Y-77708342D02*
X163614095Y-77803580D01*
X163614095Y-77803580D02*
X163661714Y-77851200D01*
X163661714Y-77851200D02*
X163756952Y-77898819D01*
X163756952Y-77898819D02*
X163947428Y-77898819D01*
X163947428Y-77898819D02*
X164042666Y-77851200D01*
X164042666Y-77851200D02*
X164090285Y-77803580D01*
X164090285Y-77803580D02*
X164137904Y-77708342D01*
X164137904Y-77708342D02*
X164137904Y-77517866D01*
X164137904Y-77517866D02*
X164090285Y-77422628D01*
X164090285Y-77422628D02*
X164042666Y-77375009D01*
X164042666Y-77375009D02*
X163947428Y-77327390D01*
X157770642Y-83303580D02*
X157723023Y-83351200D01*
X157723023Y-83351200D02*
X157580166Y-83398819D01*
X157580166Y-83398819D02*
X157484928Y-83398819D01*
X157484928Y-83398819D02*
X157342071Y-83351200D01*
X157342071Y-83351200D02*
X157246833Y-83255961D01*
X157246833Y-83255961D02*
X157199214Y-83160723D01*
X157199214Y-83160723D02*
X157151595Y-82970247D01*
X157151595Y-82970247D02*
X157151595Y-82827390D01*
X157151595Y-82827390D02*
X157199214Y-82636914D01*
X157199214Y-82636914D02*
X157246833Y-82541676D01*
X157246833Y-82541676D02*
X157342071Y-82446438D01*
X157342071Y-82446438D02*
X157484928Y-82398819D01*
X157484928Y-82398819D02*
X157580166Y-82398819D01*
X157580166Y-82398819D02*
X157723023Y-82446438D01*
X157723023Y-82446438D02*
X157770642Y-82494057D01*
X158151595Y-82494057D02*
X158199214Y-82446438D01*
X158199214Y-82446438D02*
X158294452Y-82398819D01*
X158294452Y-82398819D02*
X158532547Y-82398819D01*
X158532547Y-82398819D02*
X158627785Y-82446438D01*
X158627785Y-82446438D02*
X158675404Y-82494057D01*
X158675404Y-82494057D02*
X158723023Y-82589295D01*
X158723023Y-82589295D02*
X158723023Y-82684533D01*
X158723023Y-82684533D02*
X158675404Y-82827390D01*
X158675404Y-82827390D02*
X158103976Y-83398819D01*
X158103976Y-83398819D02*
X158723023Y-83398819D01*
X159056357Y-82398819D02*
X159723023Y-82398819D01*
X159723023Y-82398819D02*
X159294452Y-83398819D01*
X157733142Y-74803580D02*
X157685523Y-74851200D01*
X157685523Y-74851200D02*
X157542666Y-74898819D01*
X157542666Y-74898819D02*
X157447428Y-74898819D01*
X157447428Y-74898819D02*
X157304571Y-74851200D01*
X157304571Y-74851200D02*
X157209333Y-74755961D01*
X157209333Y-74755961D02*
X157161714Y-74660723D01*
X157161714Y-74660723D02*
X157114095Y-74470247D01*
X157114095Y-74470247D02*
X157114095Y-74327390D01*
X157114095Y-74327390D02*
X157161714Y-74136914D01*
X157161714Y-74136914D02*
X157209333Y-74041676D01*
X157209333Y-74041676D02*
X157304571Y-73946438D01*
X157304571Y-73946438D02*
X157447428Y-73898819D01*
X157447428Y-73898819D02*
X157542666Y-73898819D01*
X157542666Y-73898819D02*
X157685523Y-73946438D01*
X157685523Y-73946438D02*
X157733142Y-73994057D01*
X158114095Y-73994057D02*
X158161714Y-73946438D01*
X158161714Y-73946438D02*
X158256952Y-73898819D01*
X158256952Y-73898819D02*
X158495047Y-73898819D01*
X158495047Y-73898819D02*
X158590285Y-73946438D01*
X158590285Y-73946438D02*
X158637904Y-73994057D01*
X158637904Y-73994057D02*
X158685523Y-74089295D01*
X158685523Y-74089295D02*
X158685523Y-74184533D01*
X158685523Y-74184533D02*
X158637904Y-74327390D01*
X158637904Y-74327390D02*
X158066476Y-74898819D01*
X158066476Y-74898819D02*
X158685523Y-74898819D01*
X159542666Y-73898819D02*
X159352190Y-73898819D01*
X159352190Y-73898819D02*
X159256952Y-73946438D01*
X159256952Y-73946438D02*
X159209333Y-73994057D01*
X159209333Y-73994057D02*
X159114095Y-74136914D01*
X159114095Y-74136914D02*
X159066476Y-74327390D01*
X159066476Y-74327390D02*
X159066476Y-74708342D01*
X159066476Y-74708342D02*
X159114095Y-74803580D01*
X159114095Y-74803580D02*
X159161714Y-74851200D01*
X159161714Y-74851200D02*
X159256952Y-74898819D01*
X159256952Y-74898819D02*
X159447428Y-74898819D01*
X159447428Y-74898819D02*
X159542666Y-74851200D01*
X159542666Y-74851200D02*
X159590285Y-74803580D01*
X159590285Y-74803580D02*
X159637904Y-74708342D01*
X159637904Y-74708342D02*
X159637904Y-74470247D01*
X159637904Y-74470247D02*
X159590285Y-74375009D01*
X159590285Y-74375009D02*
X159542666Y-74327390D01*
X159542666Y-74327390D02*
X159447428Y-74279771D01*
X159447428Y-74279771D02*
X159256952Y-74279771D01*
X159256952Y-74279771D02*
X159161714Y-74327390D01*
X159161714Y-74327390D02*
X159114095Y-74375009D01*
X159114095Y-74375009D02*
X159066476Y-74470247D01*
X157733142Y-77803580D02*
X157685523Y-77851200D01*
X157685523Y-77851200D02*
X157542666Y-77898819D01*
X157542666Y-77898819D02*
X157447428Y-77898819D01*
X157447428Y-77898819D02*
X157304571Y-77851200D01*
X157304571Y-77851200D02*
X157209333Y-77755961D01*
X157209333Y-77755961D02*
X157161714Y-77660723D01*
X157161714Y-77660723D02*
X157114095Y-77470247D01*
X157114095Y-77470247D02*
X157114095Y-77327390D01*
X157114095Y-77327390D02*
X157161714Y-77136914D01*
X157161714Y-77136914D02*
X157209333Y-77041676D01*
X157209333Y-77041676D02*
X157304571Y-76946438D01*
X157304571Y-76946438D02*
X157447428Y-76898819D01*
X157447428Y-76898819D02*
X157542666Y-76898819D01*
X157542666Y-76898819D02*
X157685523Y-76946438D01*
X157685523Y-76946438D02*
X157733142Y-76994057D01*
X158114095Y-76994057D02*
X158161714Y-76946438D01*
X158161714Y-76946438D02*
X158256952Y-76898819D01*
X158256952Y-76898819D02*
X158495047Y-76898819D01*
X158495047Y-76898819D02*
X158590285Y-76946438D01*
X158590285Y-76946438D02*
X158637904Y-76994057D01*
X158637904Y-76994057D02*
X158685523Y-77089295D01*
X158685523Y-77089295D02*
X158685523Y-77184533D01*
X158685523Y-77184533D02*
X158637904Y-77327390D01*
X158637904Y-77327390D02*
X158066476Y-77898819D01*
X158066476Y-77898819D02*
X158685523Y-77898819D01*
X159590285Y-76898819D02*
X159114095Y-76898819D01*
X159114095Y-76898819D02*
X159066476Y-77375009D01*
X159066476Y-77375009D02*
X159114095Y-77327390D01*
X159114095Y-77327390D02*
X159209333Y-77279771D01*
X159209333Y-77279771D02*
X159447428Y-77279771D01*
X159447428Y-77279771D02*
X159542666Y-77327390D01*
X159542666Y-77327390D02*
X159590285Y-77375009D01*
X159590285Y-77375009D02*
X159637904Y-77470247D01*
X159637904Y-77470247D02*
X159637904Y-77708342D01*
X159637904Y-77708342D02*
X159590285Y-77803580D01*
X159590285Y-77803580D02*
X159542666Y-77851200D01*
X159542666Y-77851200D02*
X159447428Y-77898819D01*
X159447428Y-77898819D02*
X159209333Y-77898819D01*
X159209333Y-77898819D02*
X159114095Y-77851200D01*
X159114095Y-77851200D02*
X159066476Y-77803580D01*
X157733142Y-84163580D02*
X157685523Y-84211200D01*
X157685523Y-84211200D02*
X157542666Y-84258819D01*
X157542666Y-84258819D02*
X157447428Y-84258819D01*
X157447428Y-84258819D02*
X157304571Y-84211200D01*
X157304571Y-84211200D02*
X157209333Y-84115961D01*
X157209333Y-84115961D02*
X157161714Y-84020723D01*
X157161714Y-84020723D02*
X157114095Y-83830247D01*
X157114095Y-83830247D02*
X157114095Y-83687390D01*
X157114095Y-83687390D02*
X157161714Y-83496914D01*
X157161714Y-83496914D02*
X157209333Y-83401676D01*
X157209333Y-83401676D02*
X157304571Y-83306438D01*
X157304571Y-83306438D02*
X157447428Y-83258819D01*
X157447428Y-83258819D02*
X157542666Y-83258819D01*
X157542666Y-83258819D02*
X157685523Y-83306438D01*
X157685523Y-83306438D02*
X157733142Y-83354057D01*
X158114095Y-83354057D02*
X158161714Y-83306438D01*
X158161714Y-83306438D02*
X158256952Y-83258819D01*
X158256952Y-83258819D02*
X158495047Y-83258819D01*
X158495047Y-83258819D02*
X158590285Y-83306438D01*
X158590285Y-83306438D02*
X158637904Y-83354057D01*
X158637904Y-83354057D02*
X158685523Y-83449295D01*
X158685523Y-83449295D02*
X158685523Y-83544533D01*
X158685523Y-83544533D02*
X158637904Y-83687390D01*
X158637904Y-83687390D02*
X158066476Y-84258819D01*
X158066476Y-84258819D02*
X158685523Y-84258819D01*
X159542666Y-83592152D02*
X159542666Y-84258819D01*
X159304571Y-83211200D02*
X159066476Y-83925485D01*
X159066476Y-83925485D02*
X159685523Y-83925485D01*
X152770642Y-70303580D02*
X152723023Y-70351200D01*
X152723023Y-70351200D02*
X152580166Y-70398819D01*
X152580166Y-70398819D02*
X152484928Y-70398819D01*
X152484928Y-70398819D02*
X152342071Y-70351200D01*
X152342071Y-70351200D02*
X152246833Y-70255961D01*
X152246833Y-70255961D02*
X152199214Y-70160723D01*
X152199214Y-70160723D02*
X152151595Y-69970247D01*
X152151595Y-69970247D02*
X152151595Y-69827390D01*
X152151595Y-69827390D02*
X152199214Y-69636914D01*
X152199214Y-69636914D02*
X152246833Y-69541676D01*
X152246833Y-69541676D02*
X152342071Y-69446438D01*
X152342071Y-69446438D02*
X152484928Y-69398819D01*
X152484928Y-69398819D02*
X152580166Y-69398819D01*
X152580166Y-69398819D02*
X152723023Y-69446438D01*
X152723023Y-69446438D02*
X152770642Y-69494057D01*
X153151595Y-69494057D02*
X153199214Y-69446438D01*
X153199214Y-69446438D02*
X153294452Y-69398819D01*
X153294452Y-69398819D02*
X153532547Y-69398819D01*
X153532547Y-69398819D02*
X153627785Y-69446438D01*
X153627785Y-69446438D02*
X153675404Y-69494057D01*
X153675404Y-69494057D02*
X153723023Y-69589295D01*
X153723023Y-69589295D02*
X153723023Y-69684533D01*
X153723023Y-69684533D02*
X153675404Y-69827390D01*
X153675404Y-69827390D02*
X153103976Y-70398819D01*
X153103976Y-70398819D02*
X153723023Y-70398819D01*
X154056357Y-69398819D02*
X154675404Y-69398819D01*
X154675404Y-69398819D02*
X154342071Y-69779771D01*
X154342071Y-69779771D02*
X154484928Y-69779771D01*
X154484928Y-69779771D02*
X154580166Y-69827390D01*
X154580166Y-69827390D02*
X154627785Y-69875009D01*
X154627785Y-69875009D02*
X154675404Y-69970247D01*
X154675404Y-69970247D02*
X154675404Y-70208342D01*
X154675404Y-70208342D02*
X154627785Y-70303580D01*
X154627785Y-70303580D02*
X154580166Y-70351200D01*
X154580166Y-70351200D02*
X154484928Y-70398819D01*
X154484928Y-70398819D02*
X154199214Y-70398819D01*
X154199214Y-70398819D02*
X154103976Y-70351200D01*
X154103976Y-70351200D02*
X154056357Y-70303580D01*
X146770642Y-73803580D02*
X146723023Y-73851200D01*
X146723023Y-73851200D02*
X146580166Y-73898819D01*
X146580166Y-73898819D02*
X146484928Y-73898819D01*
X146484928Y-73898819D02*
X146342071Y-73851200D01*
X146342071Y-73851200D02*
X146246833Y-73755961D01*
X146246833Y-73755961D02*
X146199214Y-73660723D01*
X146199214Y-73660723D02*
X146151595Y-73470247D01*
X146151595Y-73470247D02*
X146151595Y-73327390D01*
X146151595Y-73327390D02*
X146199214Y-73136914D01*
X146199214Y-73136914D02*
X146246833Y-73041676D01*
X146246833Y-73041676D02*
X146342071Y-72946438D01*
X146342071Y-72946438D02*
X146484928Y-72898819D01*
X146484928Y-72898819D02*
X146580166Y-72898819D01*
X146580166Y-72898819D02*
X146723023Y-72946438D01*
X146723023Y-72946438D02*
X146770642Y-72994057D01*
X147151595Y-72994057D02*
X147199214Y-72946438D01*
X147199214Y-72946438D02*
X147294452Y-72898819D01*
X147294452Y-72898819D02*
X147532547Y-72898819D01*
X147532547Y-72898819D02*
X147627785Y-72946438D01*
X147627785Y-72946438D02*
X147675404Y-72994057D01*
X147675404Y-72994057D02*
X147723023Y-73089295D01*
X147723023Y-73089295D02*
X147723023Y-73184533D01*
X147723023Y-73184533D02*
X147675404Y-73327390D01*
X147675404Y-73327390D02*
X147103976Y-73898819D01*
X147103976Y-73898819D02*
X147723023Y-73898819D01*
X148103976Y-72994057D02*
X148151595Y-72946438D01*
X148151595Y-72946438D02*
X148246833Y-72898819D01*
X148246833Y-72898819D02*
X148484928Y-72898819D01*
X148484928Y-72898819D02*
X148580166Y-72946438D01*
X148580166Y-72946438D02*
X148627785Y-72994057D01*
X148627785Y-72994057D02*
X148675404Y-73089295D01*
X148675404Y-73089295D02*
X148675404Y-73184533D01*
X148675404Y-73184533D02*
X148627785Y-73327390D01*
X148627785Y-73327390D02*
X148056357Y-73898819D01*
X148056357Y-73898819D02*
X148675404Y-73898819D01*
X156894642Y-90679580D02*
X156847023Y-90727200D01*
X156847023Y-90727200D02*
X156704166Y-90774819D01*
X156704166Y-90774819D02*
X156608928Y-90774819D01*
X156608928Y-90774819D02*
X156466071Y-90727200D01*
X156466071Y-90727200D02*
X156370833Y-90631961D01*
X156370833Y-90631961D02*
X156323214Y-90536723D01*
X156323214Y-90536723D02*
X156275595Y-90346247D01*
X156275595Y-90346247D02*
X156275595Y-90203390D01*
X156275595Y-90203390D02*
X156323214Y-90012914D01*
X156323214Y-90012914D02*
X156370833Y-89917676D01*
X156370833Y-89917676D02*
X156466071Y-89822438D01*
X156466071Y-89822438D02*
X156608928Y-89774819D01*
X156608928Y-89774819D02*
X156704166Y-89774819D01*
X156704166Y-89774819D02*
X156847023Y-89822438D01*
X156847023Y-89822438D02*
X156894642Y-89870057D01*
X157275595Y-89870057D02*
X157323214Y-89822438D01*
X157323214Y-89822438D02*
X157418452Y-89774819D01*
X157418452Y-89774819D02*
X157656547Y-89774819D01*
X157656547Y-89774819D02*
X157751785Y-89822438D01*
X157751785Y-89822438D02*
X157799404Y-89870057D01*
X157799404Y-89870057D02*
X157847023Y-89965295D01*
X157847023Y-89965295D02*
X157847023Y-90060533D01*
X157847023Y-90060533D02*
X157799404Y-90203390D01*
X157799404Y-90203390D02*
X157227976Y-90774819D01*
X157227976Y-90774819D02*
X157847023Y-90774819D01*
X158799404Y-90774819D02*
X158227976Y-90774819D01*
X158513690Y-90774819D02*
X158513690Y-89774819D01*
X158513690Y-89774819D02*
X158418452Y-89917676D01*
X158418452Y-89917676D02*
X158323214Y-90012914D01*
X158323214Y-90012914D02*
X158227976Y-90060533D01*
X163894642Y-91039580D02*
X163847023Y-91087200D01*
X163847023Y-91087200D02*
X163704166Y-91134819D01*
X163704166Y-91134819D02*
X163608928Y-91134819D01*
X163608928Y-91134819D02*
X163466071Y-91087200D01*
X163466071Y-91087200D02*
X163370833Y-90991961D01*
X163370833Y-90991961D02*
X163323214Y-90896723D01*
X163323214Y-90896723D02*
X163275595Y-90706247D01*
X163275595Y-90706247D02*
X163275595Y-90563390D01*
X163275595Y-90563390D02*
X163323214Y-90372914D01*
X163323214Y-90372914D02*
X163370833Y-90277676D01*
X163370833Y-90277676D02*
X163466071Y-90182438D01*
X163466071Y-90182438D02*
X163608928Y-90134819D01*
X163608928Y-90134819D02*
X163704166Y-90134819D01*
X163704166Y-90134819D02*
X163847023Y-90182438D01*
X163847023Y-90182438D02*
X163894642Y-90230057D01*
X164275595Y-90230057D02*
X164323214Y-90182438D01*
X164323214Y-90182438D02*
X164418452Y-90134819D01*
X164418452Y-90134819D02*
X164656547Y-90134819D01*
X164656547Y-90134819D02*
X164751785Y-90182438D01*
X164751785Y-90182438D02*
X164799404Y-90230057D01*
X164799404Y-90230057D02*
X164847023Y-90325295D01*
X164847023Y-90325295D02*
X164847023Y-90420533D01*
X164847023Y-90420533D02*
X164799404Y-90563390D01*
X164799404Y-90563390D02*
X164227976Y-91134819D01*
X164227976Y-91134819D02*
X164847023Y-91134819D01*
X165466071Y-90134819D02*
X165561309Y-90134819D01*
X165561309Y-90134819D02*
X165656547Y-90182438D01*
X165656547Y-90182438D02*
X165704166Y-90230057D01*
X165704166Y-90230057D02*
X165751785Y-90325295D01*
X165751785Y-90325295D02*
X165799404Y-90515771D01*
X165799404Y-90515771D02*
X165799404Y-90753866D01*
X165799404Y-90753866D02*
X165751785Y-90944342D01*
X165751785Y-90944342D02*
X165704166Y-91039580D01*
X165704166Y-91039580D02*
X165656547Y-91087200D01*
X165656547Y-91087200D02*
X165561309Y-91134819D01*
X165561309Y-91134819D02*
X165466071Y-91134819D01*
X165466071Y-91134819D02*
X165370833Y-91087200D01*
X165370833Y-91087200D02*
X165323214Y-91039580D01*
X165323214Y-91039580D02*
X165275595Y-90944342D01*
X165275595Y-90944342D02*
X165227976Y-90753866D01*
X165227976Y-90753866D02*
X165227976Y-90515771D01*
X165227976Y-90515771D02*
X165275595Y-90325295D01*
X165275595Y-90325295D02*
X165323214Y-90230057D01*
X165323214Y-90230057D02*
X165370833Y-90182438D01*
X165370833Y-90182438D02*
X165466071Y-90134819D01*
X148569642Y-111179580D02*
X148522023Y-111227200D01*
X148522023Y-111227200D02*
X148379166Y-111274819D01*
X148379166Y-111274819D02*
X148283928Y-111274819D01*
X148283928Y-111274819D02*
X148141071Y-111227200D01*
X148141071Y-111227200D02*
X148045833Y-111131961D01*
X148045833Y-111131961D02*
X147998214Y-111036723D01*
X147998214Y-111036723D02*
X147950595Y-110846247D01*
X147950595Y-110846247D02*
X147950595Y-110703390D01*
X147950595Y-110703390D02*
X147998214Y-110512914D01*
X147998214Y-110512914D02*
X148045833Y-110417676D01*
X148045833Y-110417676D02*
X148141071Y-110322438D01*
X148141071Y-110322438D02*
X148283928Y-110274819D01*
X148283928Y-110274819D02*
X148379166Y-110274819D01*
X148379166Y-110274819D02*
X148522023Y-110322438D01*
X148522023Y-110322438D02*
X148569642Y-110370057D01*
X149522023Y-111274819D02*
X148950595Y-111274819D01*
X149236309Y-111274819D02*
X149236309Y-110274819D01*
X149236309Y-110274819D02*
X149141071Y-110417676D01*
X149141071Y-110417676D02*
X149045833Y-110512914D01*
X149045833Y-110512914D02*
X148950595Y-110560533D01*
X149855357Y-110274819D02*
X150474404Y-110274819D01*
X150474404Y-110274819D02*
X150141071Y-110655771D01*
X150141071Y-110655771D02*
X150283928Y-110655771D01*
X150283928Y-110655771D02*
X150379166Y-110703390D01*
X150379166Y-110703390D02*
X150426785Y-110751009D01*
X150426785Y-110751009D02*
X150474404Y-110846247D01*
X150474404Y-110846247D02*
X150474404Y-111084342D01*
X150474404Y-111084342D02*
X150426785Y-111179580D01*
X150426785Y-111179580D02*
X150379166Y-111227200D01*
X150379166Y-111227200D02*
X150283928Y-111274819D01*
X150283928Y-111274819D02*
X149998214Y-111274819D01*
X149998214Y-111274819D02*
X149902976Y-111227200D01*
X149902976Y-111227200D02*
X149855357Y-111179580D01*
X114857142Y-60179580D02*
X114809523Y-60227200D01*
X114809523Y-60227200D02*
X114666666Y-60274819D01*
X114666666Y-60274819D02*
X114571428Y-60274819D01*
X114571428Y-60274819D02*
X114428571Y-60227200D01*
X114428571Y-60227200D02*
X114333333Y-60131961D01*
X114333333Y-60131961D02*
X114285714Y-60036723D01*
X114285714Y-60036723D02*
X114238095Y-59846247D01*
X114238095Y-59846247D02*
X114238095Y-59703390D01*
X114238095Y-59703390D02*
X114285714Y-59512914D01*
X114285714Y-59512914D02*
X114333333Y-59417676D01*
X114333333Y-59417676D02*
X114428571Y-59322438D01*
X114428571Y-59322438D02*
X114571428Y-59274819D01*
X114571428Y-59274819D02*
X114666666Y-59274819D01*
X114666666Y-59274819D02*
X114809523Y-59322438D01*
X114809523Y-59322438D02*
X114857142Y-59370057D01*
X115809523Y-60274819D02*
X115238095Y-60274819D01*
X115523809Y-60274819D02*
X115523809Y-59274819D01*
X115523809Y-59274819D02*
X115428571Y-59417676D01*
X115428571Y-59417676D02*
X115333333Y-59512914D01*
X115333333Y-59512914D02*
X115238095Y-59560533D01*
X116761904Y-60274819D02*
X116190476Y-60274819D01*
X116476190Y-60274819D02*
X116476190Y-59274819D01*
X116476190Y-59274819D02*
X116380952Y-59417676D01*
X116380952Y-59417676D02*
X116285714Y-59512914D01*
X116285714Y-59512914D02*
X116190476Y-59560533D01*
X110394642Y-60179580D02*
X110347023Y-60227200D01*
X110347023Y-60227200D02*
X110204166Y-60274819D01*
X110204166Y-60274819D02*
X110108928Y-60274819D01*
X110108928Y-60274819D02*
X109966071Y-60227200D01*
X109966071Y-60227200D02*
X109870833Y-60131961D01*
X109870833Y-60131961D02*
X109823214Y-60036723D01*
X109823214Y-60036723D02*
X109775595Y-59846247D01*
X109775595Y-59846247D02*
X109775595Y-59703390D01*
X109775595Y-59703390D02*
X109823214Y-59512914D01*
X109823214Y-59512914D02*
X109870833Y-59417676D01*
X109870833Y-59417676D02*
X109966071Y-59322438D01*
X109966071Y-59322438D02*
X110108928Y-59274819D01*
X110108928Y-59274819D02*
X110204166Y-59274819D01*
X110204166Y-59274819D02*
X110347023Y-59322438D01*
X110347023Y-59322438D02*
X110394642Y-59370057D01*
X111347023Y-60274819D02*
X110775595Y-60274819D01*
X111061309Y-60274819D02*
X111061309Y-59274819D01*
X111061309Y-59274819D02*
X110966071Y-59417676D01*
X110966071Y-59417676D02*
X110870833Y-59512914D01*
X110870833Y-59512914D02*
X110775595Y-59560533D01*
X111966071Y-59274819D02*
X112061309Y-59274819D01*
X112061309Y-59274819D02*
X112156547Y-59322438D01*
X112156547Y-59322438D02*
X112204166Y-59370057D01*
X112204166Y-59370057D02*
X112251785Y-59465295D01*
X112251785Y-59465295D02*
X112299404Y-59655771D01*
X112299404Y-59655771D02*
X112299404Y-59893866D01*
X112299404Y-59893866D02*
X112251785Y-60084342D01*
X112251785Y-60084342D02*
X112204166Y-60179580D01*
X112204166Y-60179580D02*
X112156547Y-60227200D01*
X112156547Y-60227200D02*
X112061309Y-60274819D01*
X112061309Y-60274819D02*
X111966071Y-60274819D01*
X111966071Y-60274819D02*
X111870833Y-60227200D01*
X111870833Y-60227200D02*
X111823214Y-60179580D01*
X111823214Y-60179580D02*
X111775595Y-60084342D01*
X111775595Y-60084342D02*
X111727976Y-59893866D01*
X111727976Y-59893866D02*
X111727976Y-59655771D01*
X111727976Y-59655771D02*
X111775595Y-59465295D01*
X111775595Y-59465295D02*
X111823214Y-59370057D01*
X111823214Y-59370057D02*
X111870833Y-59322438D01*
X111870833Y-59322438D02*
X111966071Y-59274819D01*
X146488095Y-57858819D02*
X146488095Y-58668342D01*
X146488095Y-58668342D02*
X146535714Y-58763580D01*
X146535714Y-58763580D02*
X146583333Y-58811200D01*
X146583333Y-58811200D02*
X146678571Y-58858819D01*
X146678571Y-58858819D02*
X146869047Y-58858819D01*
X146869047Y-58858819D02*
X146964285Y-58811200D01*
X146964285Y-58811200D02*
X147011904Y-58763580D01*
X147011904Y-58763580D02*
X147059523Y-58668342D01*
X147059523Y-58668342D02*
X147059523Y-57858819D01*
X147964285Y-57858819D02*
X147773809Y-57858819D01*
X147773809Y-57858819D02*
X147678571Y-57906438D01*
X147678571Y-57906438D02*
X147630952Y-57954057D01*
X147630952Y-57954057D02*
X147535714Y-58096914D01*
X147535714Y-58096914D02*
X147488095Y-58287390D01*
X147488095Y-58287390D02*
X147488095Y-58668342D01*
X147488095Y-58668342D02*
X147535714Y-58763580D01*
X147535714Y-58763580D02*
X147583333Y-58811200D01*
X147583333Y-58811200D02*
X147678571Y-58858819D01*
X147678571Y-58858819D02*
X147869047Y-58858819D01*
X147869047Y-58858819D02*
X147964285Y-58811200D01*
X147964285Y-58811200D02*
X148011904Y-58763580D01*
X148011904Y-58763580D02*
X148059523Y-58668342D01*
X148059523Y-58668342D02*
X148059523Y-58430247D01*
X148059523Y-58430247D02*
X148011904Y-58335009D01*
X148011904Y-58335009D02*
X147964285Y-58287390D01*
X147964285Y-58287390D02*
X147869047Y-58239771D01*
X147869047Y-58239771D02*
X147678571Y-58239771D01*
X147678571Y-58239771D02*
X147583333Y-58287390D01*
X147583333Y-58287390D02*
X147535714Y-58335009D01*
X147535714Y-58335009D02*
X147488095Y-58430247D01*
X103761905Y-101454819D02*
X103761905Y-100454819D01*
X103761905Y-100454819D02*
X104142857Y-100454819D01*
X104142857Y-100454819D02*
X104238095Y-100502438D01*
X104238095Y-100502438D02*
X104285714Y-100550057D01*
X104285714Y-100550057D02*
X104333333Y-100645295D01*
X104333333Y-100645295D02*
X104333333Y-100788152D01*
X104333333Y-100788152D02*
X104285714Y-100883390D01*
X104285714Y-100883390D02*
X104238095Y-100931009D01*
X104238095Y-100931009D02*
X104142857Y-100978628D01*
X104142857Y-100978628D02*
X103761905Y-100978628D01*
X104714286Y-100550057D02*
X104761905Y-100502438D01*
X104761905Y-100502438D02*
X104857143Y-100454819D01*
X104857143Y-100454819D02*
X105095238Y-100454819D01*
X105095238Y-100454819D02*
X105190476Y-100502438D01*
X105190476Y-100502438D02*
X105238095Y-100550057D01*
X105238095Y-100550057D02*
X105285714Y-100645295D01*
X105285714Y-100645295D02*
X105285714Y-100740533D01*
X105285714Y-100740533D02*
X105238095Y-100883390D01*
X105238095Y-100883390D02*
X104666667Y-101454819D01*
X104666667Y-101454819D02*
X105285714Y-101454819D01*
D12*
%TO.C,U5*%
X119300000Y-52360000D02*
X119300000Y-58560000D01*
X119300000Y-52360000D02*
X137700000Y-52360000D01*
X119300000Y-77210000D02*
X119300000Y-78210000D01*
X119300000Y-78210000D02*
X120800000Y-78210000D01*
X137700000Y-52360000D02*
X137700000Y-58560000D01*
X137700000Y-78210000D02*
X136200000Y-78210000D01*
X137700000Y-78210000D02*
X137700000Y-77210000D01*
X119300000Y-59235000D02*
X118800000Y-59235000D01*
X119300000Y-58735000D01*
X119300000Y-59235000D01*
G36*
X119300000Y-59235000D02*
G01*
X118800000Y-59235000D01*
X119300000Y-58735000D01*
X119300000Y-59235000D01*
G37*
%TO.C,JP1*%
X161350000Y-101000000D02*
X157250000Y-101000000D01*
X161350000Y-99000000D02*
X161350000Y-101000000D01*
X158000000Y-101200000D02*
X158300000Y-101500000D01*
X158000000Y-101200000D02*
X157700000Y-101500000D01*
X157700000Y-101500000D02*
X158300000Y-101500000D01*
X157250000Y-101000000D02*
X157250000Y-99000000D01*
X157250000Y-99000000D02*
X161350000Y-99000000D01*
%TO.C,R17*%
X159072936Y-104235000D02*
X159527064Y-104235000D01*
X159072936Y-102765000D02*
X159527064Y-102765000D01*
%TO.C,R12*%
X107022936Y-86265000D02*
X107477064Y-86265000D01*
X107022936Y-87735000D02*
X107477064Y-87735000D01*
%TO.C,SW1*%
X101390000Y-71390000D02*
X101390000Y-73900000D01*
X101390000Y-71390000D02*
X113610000Y-71390000D01*
X101390000Y-76200000D02*
X101390000Y-78800000D01*
X101390000Y-81100000D02*
X101390000Y-83610000D01*
X113610000Y-71390000D02*
X113610000Y-73900000D01*
X113610000Y-76200000D02*
X113610000Y-78800000D01*
X113610000Y-81100000D02*
X113610000Y-83610000D01*
X113610000Y-83610000D02*
X101390000Y-83610000D01*
X111050000Y-77500000D02*
G75*
G02*
X103950000Y-77500000I-3550000J0D01*
G01*
X103950000Y-77500000D02*
G75*
G02*
X111050000Y-77500000I3550000J0D01*
G01*
%TO.C,C12*%
X111526248Y-86265000D02*
X112048752Y-86265000D01*
X111526248Y-87735000D02*
X112048752Y-87735000D01*
%TO.C,C6*%
X109738748Y-91735000D02*
X110261252Y-91735000D01*
X109738748Y-90265000D02*
X110261252Y-90265000D01*
%TO.C,U8*%
X129840000Y-81640000D02*
X129840000Y-86860000D01*
X129840000Y-86860000D02*
X131090000Y-86860000D01*
X131090000Y-81640000D02*
X129840000Y-81640000D01*
X136410000Y-81640000D02*
X137660000Y-81640000D01*
X136410000Y-86860000D02*
X136410000Y-87550000D01*
X137660000Y-81640000D02*
X137660000Y-86860000D01*
X137660000Y-86860000D02*
X136410000Y-86860000D01*
%TO.C,C17*%
X135738748Y-88765000D02*
X136261252Y-88765000D01*
X135738748Y-90235000D02*
X136261252Y-90235000D01*
%TO.C,C16*%
X131238748Y-88765000D02*
X131761252Y-88765000D01*
X131238748Y-90235000D02*
X131761252Y-90235000D01*
%TO.C,C2*%
X96739748Y-54563000D02*
X97262252Y-54563000D01*
X96739748Y-53093000D02*
X97262252Y-53093000D01*
%TO.C,J5*%
X92920000Y-79805000D02*
X92920000Y-73785000D01*
X92920000Y-73785000D02*
X87620000Y-73785000D01*
X92340000Y-74385000D02*
X92340000Y-73785000D01*
X91540000Y-78805000D02*
X91540000Y-79805000D01*
X91290000Y-79805000D02*
X91290000Y-78805000D01*
X91290000Y-78275000D02*
X91540000Y-78805000D01*
X90740000Y-74385000D02*
X92340000Y-74385000D01*
X90740000Y-73785000D02*
X90740000Y-74385000D01*
X89800000Y-74385000D02*
X89800000Y-73785000D01*
X89250000Y-79805000D02*
X89250000Y-78805000D01*
X89250000Y-78275000D02*
X91290000Y-78275000D01*
X89000000Y-79805000D02*
X89000000Y-78805000D01*
X89000000Y-78805000D02*
X91540000Y-78805000D01*
X89000000Y-78805000D02*
X89250000Y-78275000D01*
X88200000Y-74385000D02*
X89800000Y-74385000D01*
X88200000Y-73785000D02*
X88200000Y-74385000D01*
X87620000Y-79805000D02*
X92920000Y-79805000D01*
X87620000Y-73785000D02*
X87620000Y-79805000D01*
X87330000Y-74815000D02*
X87330000Y-78815000D01*
%TO.C,R5*%
X97228064Y-75645000D02*
X96773936Y-75645000D01*
X97228064Y-74175000D02*
X96773936Y-74175000D01*
%TO.C,R1*%
X97228064Y-42244000D02*
X96773936Y-42244000D01*
X97228064Y-40774000D02*
X96773936Y-40774000D01*
%TO.C,J3*%
X92920000Y-63188000D02*
X92920000Y-57168000D01*
X92920000Y-57168000D02*
X87620000Y-57168000D01*
X92340000Y-57768000D02*
X92340000Y-57168000D01*
X91540000Y-62188000D02*
X91540000Y-63188000D01*
X91290000Y-63188000D02*
X91290000Y-62188000D01*
X91290000Y-61658000D02*
X91540000Y-62188000D01*
X90740000Y-57768000D02*
X92340000Y-57768000D01*
X90740000Y-57168000D02*
X90740000Y-57768000D01*
X89800000Y-57768000D02*
X89800000Y-57168000D01*
X89250000Y-63188000D02*
X89250000Y-62188000D01*
X89250000Y-61658000D02*
X91290000Y-61658000D01*
X89000000Y-63188000D02*
X89000000Y-62188000D01*
X89000000Y-62188000D02*
X91540000Y-62188000D01*
X89000000Y-62188000D02*
X89250000Y-61658000D01*
X88200000Y-57768000D02*
X89800000Y-57768000D01*
X88200000Y-57168000D02*
X88200000Y-57768000D01*
X87620000Y-63188000D02*
X92920000Y-63188000D01*
X87620000Y-57168000D02*
X87620000Y-63188000D01*
X87330000Y-58198000D02*
X87330000Y-62198000D01*
%TO.C,C1*%
X96761248Y-46435000D02*
X97283752Y-46435000D01*
X96761248Y-44965000D02*
X97283752Y-44965000D01*
%TO.C,R3*%
X97228064Y-58754000D02*
X96773936Y-58754000D01*
X97228064Y-57284000D02*
X96773936Y-57284000D01*
%TO.C,J1*%
X92920000Y-46678000D02*
X92920000Y-40658000D01*
X92920000Y-40658000D02*
X87620000Y-40658000D01*
X92340000Y-41258000D02*
X92340000Y-40658000D01*
X91540000Y-45678000D02*
X91540000Y-46678000D01*
X91290000Y-46678000D02*
X91290000Y-45678000D01*
X91290000Y-45148000D02*
X91540000Y-45678000D01*
X90740000Y-41258000D02*
X92340000Y-41258000D01*
X90740000Y-40658000D02*
X90740000Y-41258000D01*
X89800000Y-41258000D02*
X89800000Y-40658000D01*
X89250000Y-46678000D02*
X89250000Y-45678000D01*
X89250000Y-45148000D02*
X91290000Y-45148000D01*
X89000000Y-46678000D02*
X89000000Y-45678000D01*
X89000000Y-45678000D02*
X91540000Y-45678000D01*
X89000000Y-45678000D02*
X89250000Y-45148000D01*
X88200000Y-41258000D02*
X89800000Y-41258000D01*
X88200000Y-40658000D02*
X88200000Y-41258000D01*
X87620000Y-46678000D02*
X92920000Y-46678000D01*
X87620000Y-40658000D02*
X87620000Y-46678000D01*
X87330000Y-41688000D02*
X87330000Y-45688000D01*
%TO.C,R2*%
X97212064Y-50499000D02*
X96757936Y-50499000D01*
X97212064Y-49029000D02*
X96757936Y-49029000D01*
%TO.C,C4*%
X96739748Y-71581000D02*
X97262252Y-71581000D01*
X96739748Y-70111000D02*
X97262252Y-70111000D01*
%TO.C,J2*%
X92920000Y-54913000D02*
X92920000Y-48893000D01*
X92920000Y-48893000D02*
X87620000Y-48893000D01*
X92340000Y-49493000D02*
X92340000Y-48893000D01*
X91540000Y-53913000D02*
X91540000Y-54913000D01*
X91290000Y-54913000D02*
X91290000Y-53913000D01*
X91290000Y-53383000D02*
X91540000Y-53913000D01*
X90740000Y-49493000D02*
X92340000Y-49493000D01*
X90740000Y-48893000D02*
X90740000Y-49493000D01*
X89800000Y-49493000D02*
X89800000Y-48893000D01*
X89250000Y-54913000D02*
X89250000Y-53913000D01*
X89250000Y-53383000D02*
X91290000Y-53383000D01*
X89000000Y-54913000D02*
X89000000Y-53913000D01*
X89000000Y-53913000D02*
X91540000Y-53913000D01*
X89000000Y-53913000D02*
X89250000Y-53383000D01*
X88200000Y-49493000D02*
X89800000Y-49493000D01*
X88200000Y-48893000D02*
X88200000Y-49493000D01*
X87620000Y-54913000D02*
X92920000Y-54913000D01*
X87620000Y-48893000D02*
X87620000Y-54913000D01*
X87330000Y-49923000D02*
X87330000Y-53923000D01*
%TO.C,C5*%
X96739748Y-78620000D02*
X97262252Y-78620000D01*
X96739748Y-80090000D02*
X97262252Y-80090000D01*
%TO.C,J4*%
X92920000Y-71550000D02*
X92920000Y-65530000D01*
X92920000Y-65530000D02*
X87620000Y-65530000D01*
X92340000Y-66130000D02*
X92340000Y-65530000D01*
X91540000Y-70550000D02*
X91540000Y-71550000D01*
X91290000Y-71550000D02*
X91290000Y-70550000D01*
X91290000Y-70020000D02*
X91540000Y-70550000D01*
X90740000Y-66130000D02*
X92340000Y-66130000D01*
X90740000Y-65530000D02*
X90740000Y-66130000D01*
X89800000Y-66130000D02*
X89800000Y-65530000D01*
X89250000Y-71550000D02*
X89250000Y-70550000D01*
X89250000Y-70020000D02*
X91290000Y-70020000D01*
X89000000Y-71550000D02*
X89000000Y-70550000D01*
X89000000Y-70550000D02*
X91540000Y-70550000D01*
X89000000Y-70550000D02*
X89250000Y-70020000D01*
X88200000Y-66130000D02*
X89800000Y-66130000D01*
X88200000Y-65530000D02*
X88200000Y-66130000D01*
X87620000Y-71550000D02*
X92920000Y-71550000D01*
X87620000Y-65530000D02*
X87620000Y-71550000D01*
X87330000Y-66560000D02*
X87330000Y-70560000D01*
%TO.C,C3*%
X96739748Y-63072000D02*
X97262252Y-63072000D01*
X96739748Y-61602000D02*
X97262252Y-61602000D01*
%TO.C,R4*%
X97212064Y-67263000D02*
X96757936Y-67263000D01*
X97212064Y-65793000D02*
X96757936Y-65793000D01*
%TO.C,C18*%
X92738748Y-110235000D02*
X93261252Y-110235000D01*
X92738748Y-108765000D02*
X93261252Y-108765000D01*
%TO.C,J7*%
X114009000Y-91718000D02*
X114009000Y-95718000D01*
X114299000Y-90688000D02*
X114299000Y-96708000D01*
X114299000Y-96708000D02*
X119599000Y-96708000D01*
X114879000Y-90688000D02*
X114879000Y-91288000D01*
X114879000Y-91288000D02*
X116479000Y-91288000D01*
X115679000Y-95708000D02*
X115929000Y-95178000D01*
X115679000Y-95708000D02*
X118219000Y-95708000D01*
X115679000Y-96708000D02*
X115679000Y-95708000D01*
X115929000Y-95178000D02*
X117969000Y-95178000D01*
X115929000Y-96708000D02*
X115929000Y-95708000D01*
X116479000Y-91288000D02*
X116479000Y-90688000D01*
X117419000Y-90688000D02*
X117419000Y-91288000D01*
X117419000Y-91288000D02*
X119019000Y-91288000D01*
X117969000Y-95178000D02*
X118219000Y-95708000D01*
X117969000Y-96708000D02*
X117969000Y-95708000D01*
X118219000Y-95708000D02*
X118219000Y-96708000D01*
X119019000Y-91288000D02*
X119019000Y-90688000D01*
X119599000Y-90688000D02*
X114299000Y-90688000D01*
X119599000Y-96708000D02*
X119599000Y-90688000D01*
%TO.C,R6*%
X89772936Y-89365000D02*
X90227064Y-89365000D01*
X89772936Y-87895000D02*
X90227064Y-87895000D01*
%TO.C,R8*%
X89772936Y-93937000D02*
X90227064Y-93937000D01*
X89772936Y-92467000D02*
X90227064Y-92467000D01*
%TO.C,D1*%
X97920000Y-90990000D02*
X97920000Y-84970000D01*
X97920000Y-84970000D02*
X92620000Y-84970000D01*
X97340000Y-85570000D02*
X97340000Y-84970000D01*
X96540000Y-89990000D02*
X96540000Y-90990000D01*
X96290000Y-90990000D02*
X96290000Y-89990000D01*
X96290000Y-89460000D02*
X96540000Y-89990000D01*
X95740000Y-85570000D02*
X97340000Y-85570000D01*
X95740000Y-84970000D02*
X95740000Y-85570000D01*
X94800000Y-85570000D02*
X94800000Y-84970000D01*
X94250000Y-90990000D02*
X94250000Y-89990000D01*
X94250000Y-89460000D02*
X96290000Y-89460000D01*
X94000000Y-90990000D02*
X94000000Y-89990000D01*
X94000000Y-89990000D02*
X96540000Y-89990000D01*
X94000000Y-89990000D02*
X94250000Y-89460000D01*
X93200000Y-85570000D02*
X94800000Y-85570000D01*
X93200000Y-84970000D02*
X93200000Y-85570000D01*
X92620000Y-90990000D02*
X97920000Y-90990000D01*
X92620000Y-84970000D02*
X92620000Y-90990000D01*
X92330000Y-86000000D02*
X92330000Y-90000000D01*
%TO.C,U7*%
X104965000Y-97890000D02*
X104485000Y-97890000D01*
X104725000Y-97560000D01*
X104965000Y-97890000D01*
G36*
X104965000Y-97890000D02*
G01*
X104485000Y-97890000D01*
X104725000Y-97560000D01*
X104965000Y-97890000D01*
G37*
X102025000Y-97655000D02*
X103975000Y-97655000D01*
X102025000Y-97655000D02*
X100075000Y-97655000D01*
X102025000Y-92535000D02*
X103975000Y-92535000D01*
X102025000Y-92535000D02*
X100075000Y-92535000D01*
%TO.C,U3*%
X132859000Y-96078000D02*
X132859000Y-96308000D01*
X132859000Y-96308000D02*
X133834000Y-96308000D01*
X133149000Y-93088000D02*
X133834000Y-93088000D01*
X135104000Y-93088000D02*
X136079000Y-93088000D01*
X135104000Y-96308000D02*
X136079000Y-96308000D01*
X136079000Y-93088000D02*
X136079000Y-93318000D01*
X136079000Y-96078000D02*
X136079000Y-96308000D01*
X132829000Y-93088000D02*
X132549000Y-93088000D01*
X132829000Y-92808000D01*
X132829000Y-93088000D01*
G36*
X132829000Y-93088000D02*
G01*
X132549000Y-93088000D01*
X132829000Y-92808000D01*
X132829000Y-93088000D01*
G37*
%TO.C,L1*%
X128616748Y-93115000D02*
X129139252Y-93115000D01*
X128616748Y-94535000D02*
X129139252Y-94535000D01*
%TO.C,R9*%
X108847936Y-98063000D02*
X109302064Y-98063000D01*
X108847936Y-99533000D02*
X109302064Y-99533000D01*
%TO.C,C14*%
X92738748Y-104735000D02*
X93261252Y-104735000D01*
X92738748Y-103265000D02*
X93261252Y-103265000D01*
%TO.C,U2*%
X110212500Y-92981000D02*
X109412500Y-92981000D01*
X110212500Y-92981000D02*
X111012500Y-92981000D01*
X110212500Y-96101000D02*
X109412500Y-96101000D01*
X110212500Y-96101000D02*
X111012500Y-96101000D01*
X111752500Y-96381000D02*
X111272500Y-96381000D01*
X111512500Y-96051000D01*
X111752500Y-96381000D01*
G36*
X111752500Y-96381000D02*
G01*
X111272500Y-96381000D01*
X111512500Y-96051000D01*
X111752500Y-96381000D01*
G37*
%TO.C,C8*%
X123821248Y-93090000D02*
X124343752Y-93090000D01*
X123821248Y-94560000D02*
X124343752Y-94560000D01*
%TO.C,C15*%
X117979248Y-98678000D02*
X118501752Y-98678000D01*
X117979248Y-100148000D02*
X118501752Y-100148000D01*
%TO.C,R7*%
X123563936Y-98551000D02*
X124018064Y-98551000D01*
X123563936Y-100021000D02*
X124018064Y-100021000D01*
%TO.C,D2*%
X97153000Y-100516000D02*
X97153000Y-96516000D01*
X96863000Y-101546000D02*
X96863000Y-95526000D01*
X96863000Y-95526000D02*
X91563000Y-95526000D01*
X96283000Y-101546000D02*
X96283000Y-100946000D01*
X96283000Y-100946000D02*
X94683000Y-100946000D01*
X95483000Y-96526000D02*
X95233000Y-97056000D01*
X95483000Y-96526000D02*
X92943000Y-96526000D01*
X95483000Y-95526000D02*
X95483000Y-96526000D01*
X95233000Y-97056000D02*
X93193000Y-97056000D01*
X95233000Y-95526000D02*
X95233000Y-96526000D01*
X94683000Y-100946000D02*
X94683000Y-101546000D01*
X93743000Y-101546000D02*
X93743000Y-100946000D01*
X93743000Y-100946000D02*
X92143000Y-100946000D01*
X93193000Y-97056000D02*
X92943000Y-96526000D01*
X93193000Y-95526000D02*
X93193000Y-96526000D01*
X92943000Y-96526000D02*
X92943000Y-95526000D01*
X92143000Y-100946000D02*
X92143000Y-101546000D01*
X91563000Y-101546000D02*
X96863000Y-101546000D01*
X91563000Y-95526000D02*
X91563000Y-101546000D01*
%TO.C,J6*%
X126880000Y-86990000D02*
X126880000Y-80970000D01*
X126880000Y-80970000D02*
X119040000Y-80970000D01*
X126300000Y-81570000D02*
X126300000Y-80970000D01*
X125500000Y-85990000D02*
X125500000Y-86990000D01*
X125250000Y-86990000D02*
X125250000Y-85990000D01*
X125250000Y-85460000D02*
X125500000Y-85990000D01*
X124700000Y-81570000D02*
X126300000Y-81570000D01*
X124700000Y-80970000D02*
X124700000Y-81570000D01*
X123760000Y-81570000D02*
X123760000Y-80970000D01*
X122160000Y-81570000D02*
X123760000Y-81570000D01*
X122160000Y-80970000D02*
X122160000Y-81570000D01*
X121220000Y-81570000D02*
X121220000Y-80970000D01*
X120670000Y-86990000D02*
X120670000Y-85990000D01*
X120670000Y-85460000D02*
X125250000Y-85460000D01*
X120420000Y-86990000D02*
X120420000Y-85990000D01*
X120420000Y-85990000D02*
X125500000Y-85990000D01*
X120420000Y-85990000D02*
X120670000Y-85460000D01*
X119620000Y-81570000D02*
X121220000Y-81570000D01*
X119620000Y-80970000D02*
X119620000Y-81570000D01*
X119040000Y-86990000D02*
X126880000Y-86990000D01*
X119040000Y-80970000D02*
X119040000Y-86990000D01*
X118750000Y-82000000D02*
X118750000Y-86000000D01*
%TO.C,C7*%
X149298752Y-93265000D02*
X148776248Y-93265000D01*
X149298752Y-94735000D02*
X148776248Y-94735000D01*
%TO.C,C9*%
X144726752Y-93265000D02*
X144204248Y-93265000D01*
X144726752Y-94735000D02*
X144204248Y-94735000D01*
%TO.C,U4*%
X144766000Y-78464000D02*
X149986000Y-78464000D01*
X144766000Y-79714000D02*
X144766000Y-78464000D01*
X144766000Y-88534000D02*
X144766000Y-89784000D01*
X144766000Y-89784000D02*
X149986000Y-89784000D01*
X149986000Y-78464000D02*
X149986000Y-79714000D01*
X149986000Y-79714000D02*
X150676000Y-79714000D01*
X149986000Y-89784000D02*
X149986000Y-88534000D01*
%TO.C,U9*%
X154725000Y-67269000D02*
X156675000Y-67269000D01*
X154725000Y-67269000D02*
X152775000Y-67269000D01*
X154725000Y-62149000D02*
X156675000Y-62149000D01*
X154725000Y-62149000D02*
X152775000Y-62149000D01*
X157665000Y-67504000D02*
X157185000Y-67504000D01*
X157425000Y-67174000D01*
X157665000Y-67504000D01*
G36*
X157665000Y-67504000D02*
G01*
X157185000Y-67504000D01*
X157425000Y-67174000D01*
X157665000Y-67504000D01*
G37*
%TO.C,C19*%
X154238748Y-58235000D02*
X154761252Y-58235000D01*
X154238748Y-56765000D02*
X154761252Y-56765000D01*
%TO.C,R18*%
X158272936Y-58235000D02*
X158727064Y-58235000D01*
X158272936Y-56765000D02*
X158727064Y-56765000D01*
%TO.C,Y1*%
X156500000Y-86650000D02*
X156500000Y-90350000D01*
X156500000Y-90350000D02*
X161800000Y-90350000D01*
%TO.C,SW2*%
X140890000Y-97390000D02*
X140890000Y-99900000D01*
X140890000Y-97390000D02*
X153110000Y-97390000D01*
X140890000Y-102200000D02*
X140890000Y-104800000D01*
X140890000Y-107100000D02*
X140890000Y-109610000D01*
X153110000Y-97390000D02*
X153110000Y-99900000D01*
X153110000Y-102200000D02*
X153110000Y-104800000D01*
X153110000Y-107100000D02*
X153110000Y-109610000D01*
X153110000Y-109610000D02*
X140890000Y-109610000D01*
X150550000Y-103500000D02*
G75*
G02*
X143450000Y-103500000I-3550000J0D01*
G01*
X143450000Y-103500000D02*
G75*
G02*
X150550000Y-103500000I3550000J0D01*
G01*
%TO.C,R22*%
X162648936Y-83889000D02*
X163103064Y-83889000D01*
X162648936Y-85359000D02*
X163103064Y-85359000D01*
%TO.C,R21*%
X162648936Y-75389000D02*
X163103064Y-75389000D01*
X162648936Y-76859000D02*
X163103064Y-76859000D01*
%TO.C,R20*%
X153148936Y-74389000D02*
X153603064Y-74389000D01*
X153148936Y-75859000D02*
X153603064Y-75859000D01*
%TO.C,R19*%
X147148936Y-70889000D02*
X147603064Y-70889000D01*
X147148936Y-72359000D02*
X147603064Y-72359000D01*
%TO.C,R16*%
X144522936Y-111765000D02*
X144977064Y-111765000D01*
X144522936Y-113235000D02*
X144977064Y-113235000D01*
%TO.C,R15*%
X122424406Y-112265000D02*
X122878534Y-112265000D01*
X122424406Y-113735000D02*
X122878534Y-113735000D01*
%TO.C,R14*%
X126878534Y-104735000D02*
X126424406Y-104735000D01*
X126878534Y-103265000D02*
X126424406Y-103265000D01*
%TO.C,R13*%
X116272936Y-85265000D02*
X116727064Y-85265000D01*
X116272936Y-86735000D02*
X116727064Y-86735000D01*
%TO.C,R11*%
X118378534Y-109735000D02*
X117924406Y-109735000D01*
X118378534Y-108265000D02*
X117924406Y-108265000D01*
%TO.C,R10*%
X118378534Y-104735000D02*
X117924406Y-104735000D01*
X118378534Y-103265000D02*
X117924406Y-103265000D01*
%TO.C,Q2*%
X122588970Y-107990000D02*
X121938970Y-107990000D01*
X122588970Y-107990000D02*
X123238970Y-107990000D01*
X122588970Y-111110000D02*
X121938970Y-111110000D01*
X122588970Y-111110000D02*
X123238970Y-111110000D01*
X121426470Y-108040000D02*
X121186470Y-107710000D01*
X121666470Y-107710000D01*
X121426470Y-108040000D01*
G36*
X121426470Y-108040000D02*
G01*
X121186470Y-107710000D01*
X121666470Y-107710000D01*
X121426470Y-108040000D01*
G37*
%TO.C,Q1*%
X122588970Y-102440000D02*
X121938970Y-102440000D01*
X122588970Y-102440000D02*
X123238970Y-102440000D01*
X122588970Y-105560000D02*
X121938970Y-105560000D01*
X122588970Y-105560000D02*
X123238970Y-105560000D01*
X121426470Y-102490000D02*
X121186470Y-102160000D01*
X121666470Y-102160000D01*
X121426470Y-102490000D01*
G36*
X121426470Y-102490000D02*
G01*
X121186470Y-102160000D01*
X121666470Y-102160000D01*
X121426470Y-102490000D01*
G37*
%TO.C,L4*%
X167114748Y-79914000D02*
X167637252Y-79914000D01*
X167114748Y-81334000D02*
X167637252Y-81334000D01*
%TO.C,L3*%
X153139748Y-81414000D02*
X153662252Y-81414000D01*
X153139748Y-82834000D02*
X153662252Y-82834000D01*
%TO.C,L2*%
X153139748Y-78414000D02*
X153662252Y-78414000D01*
X153139748Y-79834000D02*
X153662252Y-79834000D01*
%TO.C,C29*%
X163137252Y-82859000D02*
X162614748Y-82859000D01*
X163137252Y-81389000D02*
X162614748Y-81389000D01*
%TO.C,C28*%
X162614748Y-78389000D02*
X163137252Y-78389000D01*
X162614748Y-79859000D02*
X163137252Y-79859000D01*
%TO.C,C27*%
X158152248Y-83889000D02*
X158674752Y-83889000D01*
X158152248Y-85359000D02*
X158674752Y-85359000D01*
%TO.C,C26*%
X158114748Y-75389000D02*
X158637252Y-75389000D01*
X158114748Y-76859000D02*
X158637252Y-76859000D01*
%TO.C,C25*%
X158114748Y-78389000D02*
X158637252Y-78389000D01*
X158114748Y-79859000D02*
X158637252Y-79859000D01*
%TO.C,C24*%
X158637252Y-82859000D02*
X158114748Y-82859000D01*
X158637252Y-81389000D02*
X158114748Y-81389000D01*
%TO.C,C23*%
X153152248Y-70889000D02*
X153674752Y-70889000D01*
X153152248Y-72359000D02*
X153674752Y-72359000D01*
%TO.C,C22*%
X147152248Y-74389000D02*
X147674752Y-74389000D01*
X147152248Y-75859000D02*
X147674752Y-75859000D01*
%TO.C,C21*%
X157276248Y-91265000D02*
X157798752Y-91265000D01*
X157276248Y-92735000D02*
X157798752Y-92735000D01*
%TO.C,C20*%
X164798752Y-89735000D02*
X164276248Y-89735000D01*
X164798752Y-88265000D02*
X164276248Y-88265000D01*
%TO.C,C13*%
X148951248Y-111765000D02*
X149473752Y-111765000D01*
X148951248Y-113235000D02*
X149473752Y-113235000D01*
%TO.C,C11*%
X115238748Y-60765000D02*
X115761252Y-60765000D01*
X115238748Y-62235000D02*
X115761252Y-62235000D01*
%TO.C,C10*%
X110776248Y-60765000D02*
X111298752Y-60765000D01*
X110776248Y-62235000D02*
X111298752Y-62235000D01*
%TO.C,U6*%
X144550000Y-59299000D02*
X144310000Y-58969000D01*
X144790000Y-58969000D01*
X144550000Y-59299000D01*
G36*
X144550000Y-59299000D02*
G01*
X144310000Y-58969000D01*
X144790000Y-58969000D01*
X144550000Y-59299000D01*
G37*
X147250000Y-69364000D02*
X149200000Y-69364000D01*
X147250000Y-69364000D02*
X145300000Y-69364000D01*
X147250000Y-59244000D02*
X149200000Y-59244000D01*
X147250000Y-59244000D02*
X145300000Y-59244000D01*
%TO.C,P2*%
X109080000Y-108760000D02*
X109080000Y-109710000D01*
X109080000Y-104785000D02*
X109080000Y-105640000D01*
X99920000Y-109710000D02*
X109080000Y-109710000D01*
X99920000Y-108760000D02*
X99920000Y-109710000D01*
X99920000Y-104785000D02*
X99920000Y-105640000D01*
%TD*%
M02*
