M48
INCH,TZ
T1C0.0118
T2C0.0118
T3C0.0236
T4C0.0469
T5C0.0512
%
G90
G05
T1
X37992Y-42126
X38598Y-21192
X38598Y-24542
X38598Y-27892
X38598Y-31242
X38606Y-17992
X38976Y-41339
X39917Y-40531
X41142Y-40011
X41535Y-39961
X42323Y-29764
X42323Y-31496
X42366Y-40531
X42874Y-43563
X43119Y-39714
X43337Y-38897
X43504Y-39961
X43839Y-37221
X44124Y-24213
X45543Y-36897
X45881Y-24213
X46123Y-41535
X46260Y-34646
X46300Y-25250
X46579Y-24649
X46654Y-31299
X47175Y-42195
X49213Y-37008
X49409Y-32677
X50197Y-39567
X50591Y-34252
X51363Y-35236
X51969Y-45276
X52312Y-33071
X52559Y-36614
X53135Y-35236
X53212Y-36024
X53664Y-39097
X53740Y-44488
X53937Y-30512
X54173Y-36024
X54724Y-27165
X54724Y-27559
X54724Y-28150
X55315Y-29528
X56102Y-30118
X56383Y-29778
X56890Y-30118
X57283Y-36457
X57285Y-37008
X57353Y-32874
X57636Y-32242
X57677Y-25591
X57677Y-26181
X57677Y-26181
X57677Y-35039
X57677Y-40000
X58071Y-32677
X58268Y-31299
X59085Y-37008
X61614Y-40354
X61890Y-25726
X62205Y-37402
X62205Y-38780
X62992Y-26181
X63386Y-36417
X63583Y-41929
X63976Y-39567
X64370Y-45669
X64961Y-26181
X64961Y-31102
X64961Y-32283
X64961Y-41142
X65354Y-45866
X65945Y-22638
X65945Y-46260
X66339Y-32677
X66732Y-40157
X66929Y-31693
T2
X49449Y-26386
X49449Y-26937
X49724Y-26110
X49724Y-26661
X49724Y-27213
X50000Y-26386
X50000Y-26937
X50276Y-26110
X50276Y-26661
X50276Y-27213
X50551Y-26386
X50551Y-26937
X52714Y-37283
X52941Y-36909
X52941Y-37657
X53167Y-37283
T4
X35039Y-17200
X35039Y-20442
X35039Y-23700
X35039Y-26992
X35039Y-30242
X36039Y-17200
X36039Y-20442
X36039Y-23700
X36039Y-26992
X36039Y-30242
X36592Y-38786
X37008Y-34646
X37592Y-38786
X38008Y-34646
X45543Y-36897
X46543Y-36897
X47409Y-33071
X48409Y-33071
X49409Y-33071
T5
X39862Y-29528
X39862Y-31496
X44783Y-29528
X44783Y-31496
X55413Y-39764
X55413Y-41732
X60335Y-39764
X60335Y-41732
T3
G00X39441Y-40482
M15
G01X39441Y-40876
M16
G05
G00X39441Y-41929
M15
G01X39441Y-42441
M16
G05
G00X42843Y-40482
M15
G01X42843Y-40876
M16
G05
G00X42843Y-41929
M15
G01X42843Y-42441
M16
G05
M30
