%TF.GenerationSoftware,KiCad,Pcbnew,9.0.0*%
%TF.CreationDate,2025-03-31T12:40:15-05:00*%
%TF.ProjectId,445 Design Document Schematic,34343520-4465-4736-9967-6e20446f6375,rev?*%
%TF.SameCoordinates,Original*%
%TF.FileFunction,Copper,L2,Bot*%
%TF.FilePolarity,Positive*%
%FSLAX46Y46*%
G04 Gerber Fmt 4.6, Leading zero omitted, Abs format (unit mm)*
G04 Created by KiCad (PCBNEW 9.0.0) date 2025-03-31 12:40:15*
%MOMM*%
%LPD*%
G01*
G04 APERTURE LIST*
G04 Aperture macros list*
%AMRoundRect*
0 Rectangle with rounded corners*
0 $1 Rounding radius*
0 $2 $3 $4 $5 $6 $7 $8 $9 X,Y pos of 4 corners*
0 Add a 4 corners polygon primitive as box body*
4,1,4,$2,$3,$4,$5,$6,$7,$8,$9,$2,$3,0*
0 Add four circle primitives for the rounded corners*
1,1,$1+$1,$2,$3*
1,1,$1+$1,$4,$5*
1,1,$1+$1,$6,$7*
1,1,$1+$1,$8,$9*
0 Add four rect primitives between the rounded corners*
20,1,$1+$1,$2,$3,$4,$5,0*
20,1,$1+$1,$4,$5,$6,$7,0*
20,1,$1+$1,$6,$7,$8,$9,0*
20,1,$1+$1,$8,$9,$2,$3,0*%
G04 Aperture macros list end*
%TA.AperFunction,HeatsinkPad*%
%ADD10O,1.300000X2.600000*%
%TD*%
%TA.AperFunction,HeatsinkPad*%
%ADD11O,1.300000X2.300000*%
%TD*%
%TA.AperFunction,ComponentPad*%
%ADD12RoundRect,0.250000X-0.620000X-0.845000X0.620000X-0.845000X0.620000X0.845000X-0.620000X0.845000X0*%
%TD*%
%TA.AperFunction,ComponentPad*%
%ADD13O,1.740000X2.190000*%
%TD*%
%TA.AperFunction,ComponentPad*%
%ADD14RoundRect,0.250000X0.550000X0.550000X-0.550000X0.550000X-0.550000X-0.550000X0.550000X-0.550000X0*%
%TD*%
%TA.AperFunction,ComponentPad*%
%ADD15C,1.600000*%
%TD*%
%TA.AperFunction,ComponentPad*%
%ADD16C,0.500000*%
%TD*%
%TA.AperFunction,HeatsinkPad*%
%ADD17C,0.600000*%
%TD*%
%TA.AperFunction,ComponentPad*%
%ADD18R,1.500000X1.500000*%
%TD*%
%TA.AperFunction,ComponentPad*%
%ADD19C,1.500000*%
%TD*%
%TA.AperFunction,ComponentPad*%
%ADD20C,2.000000*%
%TD*%
%TA.AperFunction,ComponentPad*%
%ADD21R,1.700000X1.700000*%
%TD*%
%TA.AperFunction,ComponentPad*%
%ADD22O,1.700000X1.700000*%
%TD*%
%TA.AperFunction,ComponentPad*%
%ADD23RoundRect,0.250000X0.620000X0.845000X-0.620000X0.845000X-0.620000X-0.845000X0.620000X-0.845000X0*%
%TD*%
%TA.AperFunction,ViaPad*%
%ADD24C,0.600000*%
%TD*%
%TA.AperFunction,Conductor*%
%ADD25C,0.200000*%
%TD*%
%TA.AperFunction,Conductor*%
%ADD26C,0.254000*%
%TD*%
G04 APERTURE END LIST*
D10*
%TO.P,P2,S1,SHIELD*%
%TO.N,Net-(P2-SHIELD)*%
X107820000Y-121650000D03*
D11*
X107820000Y-117825000D03*
D10*
X99180000Y-121650000D03*
D11*
X99180000Y-117825000D03*
%TD*%
D12*
%TO.P,J7,1,Pin_1*%
%TO.N,GND*%
X115679000Y-93718000D03*
D13*
%TO.P,J7,2,Pin_2*%
%TO.N,+5V*%
X118219000Y-93718000D03*
%TD*%
D12*
%TO.P,J5,1,Pin_1*%
%TO.N,GND*%
X89000000Y-76815000D03*
D13*
%TO.P,J5,2,Pin_2*%
%TO.N,Net-(J5-Pin_2)*%
X91540000Y-76815000D03*
%TD*%
D12*
%TO.P,J6,1,Pin_1*%
%TO.N,+3.3V*%
X120420000Y-84000000D03*
D13*
%TO.P,J6,2,Pin_2*%
%TO.N,/POT*%
X122960000Y-84000000D03*
%TO.P,J6,3,Pin_3*%
%TO.N,GND*%
X125500000Y-84000000D03*
%TD*%
D12*
%TO.P,D1,1,K*%
%TO.N,Net-(D1-K)*%
X90960000Y-86500000D03*
D13*
%TO.P,D1,2,A*%
%TO.N,Net-(D1-A)*%
X93500000Y-86500000D03*
%TD*%
D14*
%TO.P,U7,1*%
%TO.N,Net-(D1-K)*%
X104500000Y-106160000D03*
D15*
%TO.P,U7,2*%
%TO.N,Net-(U2-STDBY)*%
X104500000Y-103620000D03*
%TO.P,U7,3*%
%TO.N,N/C*%
X104500000Y-101080000D03*
%TO.P,U7,4*%
X104500000Y-98540000D03*
%TO.P,U7,5*%
X104500000Y-96000000D03*
%TO.P,U7,6*%
X104500000Y-93460000D03*
%TO.P,U7,7*%
X104500000Y-90920000D03*
%TO.P,U7,8*%
X96880000Y-90920000D03*
%TO.P,U7,9*%
X96880000Y-93460000D03*
%TO.P,U7,10*%
X96880000Y-96000000D03*
%TO.P,U7,11*%
X96880000Y-98540000D03*
%TO.P,U7,12*%
X96880000Y-101080000D03*
%TO.P,U7,13*%
X96880000Y-103620000D03*
%TO.P,U7,14*%
X96880000Y-106160000D03*
%TD*%
D16*
%TO.P,U3,11,PGND*%
%TO.N,GND*%
X133894000Y-94698000D03*
X134469000Y-93748000D03*
X134469000Y-95648000D03*
X135044000Y-94698000D03*
%TD*%
D17*
%TO.P,U5,41,GND*%
%TO.N,GND*%
X125600000Y-67020000D03*
X125600000Y-68420000D03*
X126300000Y-66320000D03*
X126300000Y-67720000D03*
X126300000Y-69120000D03*
X127000000Y-67020000D03*
X127000000Y-68420000D03*
X127700000Y-66320000D03*
X127700000Y-67720000D03*
X127700000Y-69120000D03*
X128400000Y-67020000D03*
X128400000Y-68420000D03*
%TD*%
D18*
%TO.P,U8,1,NC*%
%TO.N,unconnected-(U8-NC-Pad1)*%
X179057500Y-104930000D03*
D19*
%TO.P,U8,2,NC*%
%TO.N,unconnected-(U8-NC-Pad2)*%
X179057500Y-102390000D03*
%TO.P,U8,9,NC*%
%TO.N,unconnected-(U8-NC-Pad9)*%
X179057500Y-84610000D03*
%TO.P,U8,10,NC*%
%TO.N,unconnected-(U8-NC-Pad10)*%
X179057500Y-82070000D03*
%TO.P,U8,11,VOUT*%
%TO.N,Net-(U8-VOUT)*%
X153657500Y-82070000D03*
%TO.P,U8,12,IM1*%
%TO.N,+3.3V*%
X153657500Y-84610000D03*
%TO.P,U8,13,VDD*%
X153657500Y-87150000D03*
%TO.P,U8,14,VSS*%
%TO.N,GND*%
X153657500Y-89690000D03*
%TO.P,U8,15,SOD*%
%TO.N,/Display_MOSI*%
X153657500Y-92230000D03*
%TO.P,U8,16,SID*%
%TO.N,/Display_MISO*%
X153657500Y-94770000D03*
%TO.P,U8,17,SCLK*%
%TO.N,/Display_SCLK*%
X153657500Y-97310000D03*
%TO.P,U8,18,~{CS}*%
%TO.N,/Display_CS*%
X153657500Y-99850000D03*
%TO.P,U8,19,SA0*%
%TO.N,unconnected-(U8-SA0-Pad19)*%
X153657500Y-102390000D03*
%TO.P,U8,20,~{RST}*%
%TO.N,/Display_RST*%
X153657500Y-104930000D03*
%TD*%
D20*
%TO.P,SW1,1,1*%
%TO.N,GND*%
X104250000Y-73400000D03*
X110750000Y-73400000D03*
%TO.P,SW1,2,2*%
%TO.N,/CHIP_PU*%
X104250000Y-77900000D03*
X110750000Y-77900000D03*
%TD*%
D21*
%TO.P,J9,1,Pin_1*%
%TO.N,/RTS*%
X173120000Y-40500000D03*
D22*
%TO.P,J9,2,Pin_2*%
%TO.N,/DTR*%
X170580000Y-40500000D03*
%TO.P,J9,3,Pin_3*%
%TO.N,/TX*%
X168040000Y-40500000D03*
%TO.P,J9,4,Pin_4*%
%TO.N,/RX*%
X165500000Y-40500000D03*
%TO.P,J9,5,Pin_5*%
%TO.N,GND*%
X162960000Y-40500000D03*
%TD*%
D12*
%TO.P,J3,1,Pin_1*%
%TO.N,GND*%
X89000000Y-60198000D03*
D13*
%TO.P,J3,2,Pin_2*%
%TO.N,Net-(J3-Pin_2)*%
X91540000Y-60198000D03*
%TD*%
D20*
%TO.P,SW2,1,1*%
%TO.N,GND*%
X138750000Y-108500000D03*
X145250000Y-108500000D03*
%TO.P,SW2,2,2*%
%TO.N,/GPIO0_STRAPPING*%
X138750000Y-113000000D03*
X145250000Y-113000000D03*
%TD*%
D12*
%TO.P,J1,1,Pin_1*%
%TO.N,GND*%
X89000000Y-43688000D03*
D13*
%TO.P,J1,2,Pin_2*%
%TO.N,Net-(J1-Pin_2)*%
X91540000Y-43688000D03*
%TD*%
D12*
%TO.P,J2,1,Pin_1*%
%TO.N,GND*%
X89000000Y-51923000D03*
D13*
%TO.P,J2,2,Pin_2*%
%TO.N,Net-(J2-Pin_2)*%
X91540000Y-51923000D03*
%TD*%
D12*
%TO.P,J4,1,Pin_1*%
%TO.N,GND*%
X89000000Y-68560000D03*
D13*
%TO.P,J4,2,Pin_2*%
%TO.N,Net-(J4-Pin_2)*%
X91540000Y-68560000D03*
%TD*%
D23*
%TO.P,D2,1,K*%
%TO.N,Net-(D2-K)*%
X92443000Y-97016000D03*
D13*
%TO.P,D2,2,A*%
%TO.N,Net-(D2-A)*%
X89903000Y-97016000D03*
%TD*%
D24*
%TO.N,GND*%
X119278000Y-99413000D03*
X130462500Y-89500000D03*
X100500000Y-114373000D03*
X100500000Y-116000000D03*
X111350000Y-94541000D03*
X98038500Y-53828000D03*
X116537500Y-61500000D03*
X163500000Y-65500000D03*
X98038500Y-62337000D03*
X162649000Y-69876000D03*
X177574000Y-57876000D03*
X134962500Y-89500000D03*
X159500000Y-60000000D03*
X163500000Y-55463500D03*
X115679000Y-93718000D03*
X177574000Y-54876000D03*
X98038500Y-79355000D03*
X158077000Y-69876000D03*
X125000000Y-94000000D03*
X112075000Y-61500000D03*
X98060000Y-45700000D03*
X125500000Y-83000000D03*
X163186236Y-58500000D03*
X163500000Y-62000000D03*
X160974000Y-52626000D03*
X110075000Y-98798000D03*
X98038500Y-70846000D03*
X161500000Y-49500000D03*
%TO.N,+3.3V*%
X152500000Y-70000000D03*
X137600000Y-91500000D03*
X133500000Y-93000000D03*
X158074000Y-60276000D03*
X150000000Y-116000000D03*
X158074000Y-61476000D03*
X158074000Y-68476000D03*
X135159248Y-91500000D03*
X158074000Y-62976000D03*
X145000000Y-85500000D03*
X140950735Y-116049265D03*
X140500000Y-75000000D03*
X136500000Y-113000000D03*
X140500000Y-70000000D03*
X117500000Y-88000000D03*
X136306644Y-99306644D03*
X117000000Y-64135000D03*
%TO.N,/Display_MISO*%
X149500000Y-93500000D03*
X138000000Y-81500000D03*
X149500000Y-86500000D03*
X139500000Y-84500000D03*
%TO.N,/Display_MOSI*%
X137600000Y-87500000D03*
X139000000Y-89000000D03*
%TO.N,/RFID_MOSI*%
X139000000Y-71500000D03*
X141500000Y-74000000D03*
%TO.N,/Display_SCLK*%
X148500000Y-93500000D03*
X137600000Y-86500000D03*
X139500000Y-88000000D03*
X148500000Y-91500000D03*
%TO.N,/Display_RST*%
X144500000Y-93500000D03*
X139500000Y-87000000D03*
X144500000Y-90000000D03*
X137600000Y-85000000D03*
%TO.N,/RFID_SCK*%
X145000000Y-69400000D03*
X156000000Y-56463500D03*
X156000000Y-60500000D03*
X153000000Y-63500000D03*
%TO.N,/RFID_MISO*%
X139500000Y-74500000D03*
X139500000Y-77500000D03*
%TO.N,/Display_CS*%
X139500000Y-85500000D03*
X137600000Y-84000000D03*
X146500000Y-88500000D03*
X146500000Y-93500000D03*
%TO.N,/RFID_CS*%
X155786133Y-51512398D03*
X139000000Y-70000000D03*
%TO.N,/CHIP_PU*%
X118310265Y-62608265D03*
X127500000Y-100500000D03*
%TO.N,/GPIO0_STRAPPING*%
X137000000Y-77500000D03*
X137100000Y-105000000D03*
%TO.N,Net-(P2-SHIELD)*%
X107900000Y-125150000D03*
X97000000Y-124000000D03*
X88500000Y-114000000D03*
%TO.N,Net-(U4-OSCOUT)*%
X173574000Y-68376000D03*
X159133735Y-52852938D03*
%TO.N,Net-(U4-OSCIN)*%
X160074000Y-52876000D03*
X168574000Y-64500000D03*
%TO.N,Net-(U4-TX1)*%
X163418000Y-57190500D03*
X165074000Y-56800000D03*
%TO.N,/RTS*%
X133500000Y-104500000D03*
X135589674Y-104589674D03*
%TO.N,/DTR*%
X119825735Y-107174265D03*
X117151470Y-105500000D03*
%TO.N,/GPIO3_STRAPPING*%
X132000000Y-115000000D03*
X118500000Y-79500000D03*
%TO.N,/RFID_IRQ*%
X146000000Y-81900000D03*
X157984376Y-52479410D03*
%TO.N,/RFID_RST*%
X138399000Y-80500000D03*
X138500000Y-69000000D03*
%TD*%
D25*
%TO.N,Net-(U4-OSCIN)*%
X168574000Y-62876000D02*
X168574000Y-64500000D01*
%TO.N,GND*%
X163130900Y-65500000D02*
X163500000Y-65500000D01*
X163000000Y-53000000D02*
X161348000Y-53000000D01*
X165675000Y-60325000D02*
X165500000Y-60500000D01*
X159500000Y-60000000D02*
X159500000Y-61869100D01*
X159500000Y-61869100D02*
X163130900Y-65500000D01*
X163500000Y-62000000D02*
X163500000Y-60500000D01*
X100500000Y-116000000D02*
X100500000Y-114373000D01*
X163000000Y-53000000D02*
X163000000Y-54963500D01*
X163000000Y-54963500D02*
X163500000Y-55463500D01*
X163186236Y-60186236D02*
X163186236Y-58500000D01*
X164587443Y-55463500D02*
X165675000Y-56551057D01*
X163500000Y-60500000D02*
X163186236Y-60186236D01*
X161500000Y-49500000D02*
X163000000Y-51000000D01*
X165500000Y-60500000D02*
X163500000Y-60500000D01*
X163000000Y-51000000D02*
X163000000Y-53000000D01*
X161348000Y-53000000D02*
X160974000Y-52626000D01*
X165675000Y-56551057D02*
X165675000Y-60325000D01*
X163500000Y-55463500D02*
X164587443Y-55463500D01*
%TO.N,+3.3V*%
X136306644Y-99306644D02*
X136500000Y-99500000D01*
X137600000Y-91500000D02*
X140500000Y-88600000D01*
X135000000Y-91500000D02*
X135159248Y-91500000D01*
X140500000Y-70000000D02*
X152500000Y-70000000D01*
X136500000Y-99500000D02*
X136500000Y-113000000D01*
X140500000Y-88600000D02*
X141900000Y-88600000D01*
D26*
X158074000Y-62876000D02*
X158074000Y-62976000D01*
X158074000Y-62876000D02*
X158074000Y-63376000D01*
D25*
X149950735Y-116049265D02*
X150000000Y-116000000D01*
D26*
X158074000Y-61476000D02*
X158074000Y-60276000D01*
X158074000Y-68476000D02*
X158074000Y-62876000D01*
D25*
X141900000Y-88600000D02*
X145000000Y-85500000D01*
X117000000Y-87500000D02*
X117500000Y-88000000D01*
X117000000Y-64135000D02*
X117000000Y-87500000D01*
X140500000Y-88600000D02*
X140500000Y-75000000D01*
X133500000Y-93000000D02*
X135000000Y-91500000D01*
X140950735Y-116049265D02*
X149950735Y-116049265D01*
%TO.N,/Display_MISO*%
X139500000Y-84500000D02*
X138000000Y-83000000D01*
X149500000Y-93500000D02*
X149500000Y-86500000D01*
X138000000Y-83000000D02*
X138000000Y-81500000D01*
%TO.N,/Display_MOSI*%
X137600000Y-87600000D02*
X137600000Y-87500000D01*
X139000000Y-89000000D02*
X137600000Y-87600000D01*
%TO.N,/RFID_MOSI*%
X139000000Y-71500000D02*
X141500000Y-74000000D01*
%TO.N,/Display_SCLK*%
X139100000Y-88000000D02*
X137600000Y-86500000D01*
X139500000Y-88000000D02*
X139100000Y-88000000D01*
X148500000Y-93500000D02*
X148500000Y-91500000D01*
%TO.N,/Display_RST*%
X139500000Y-87000000D02*
X137600000Y-85100000D01*
X137600000Y-85100000D02*
X137600000Y-85000000D01*
X144500000Y-93500000D02*
X144500000Y-90000000D01*
%TO.N,/RFID_SCK*%
X156000000Y-60500000D02*
X156000000Y-56463500D01*
X147100000Y-69400000D02*
X153000000Y-63500000D01*
X145000000Y-69400000D02*
X147100000Y-69400000D01*
%TO.N,/RFID_MISO*%
X139500000Y-77500000D02*
X139500000Y-74500000D01*
%TO.N,/Display_CS*%
X139500000Y-85500000D02*
X139100000Y-85500000D01*
X139100000Y-85500000D02*
X137600000Y-84000000D01*
X146500000Y-93500000D02*
X146500000Y-88500000D01*
%TO.N,/RFID_CS*%
X154000000Y-74000000D02*
X154000000Y-52382900D01*
X143848530Y-74000000D02*
X154000000Y-74000000D01*
X143424265Y-74424265D02*
X139000000Y-70000000D01*
X155786133Y-51512398D02*
X155998265Y-51300266D01*
X154870502Y-51512398D02*
X155786133Y-51512398D01*
X154000000Y-52382900D02*
X154870502Y-51512398D01*
X143424265Y-74424265D02*
X143848530Y-74000000D01*
%TO.N,/CHIP_PU*%
X110750000Y-77900000D02*
X115000000Y-73650000D01*
X115000000Y-64000000D02*
X116391735Y-62608265D01*
X111000000Y-79400000D02*
X111000000Y-84000000D01*
X116391735Y-62608265D02*
X118310265Y-62608265D01*
X110750000Y-79150000D02*
X111000000Y-79400000D01*
X110750000Y-77900000D02*
X110750000Y-79150000D01*
X115000000Y-73650000D02*
X115000000Y-64000000D01*
X110750000Y-77900000D02*
X104250000Y-77900000D01*
X111000000Y-84000000D02*
X127500000Y-100500000D01*
%TO.N,/GPIO0_STRAPPING*%
X137000000Y-101500000D02*
X137000000Y-104900000D01*
X137000000Y-104900000D02*
X137100000Y-105000000D01*
X137000000Y-101500000D02*
X137000000Y-77500000D01*
%TO.N,Net-(P2-SHIELD)*%
X97000000Y-125000000D02*
X99000000Y-125000000D01*
X99150000Y-125150000D02*
X107900000Y-125150000D01*
X99000000Y-125000000D02*
X99150000Y-125150000D01*
X88500000Y-114000000D02*
X88500000Y-125000000D01*
X88500000Y-125000000D02*
X97000000Y-125000000D01*
X97000000Y-124000000D02*
X97000000Y-125000000D01*
%TO.N,Net-(U4-OSCOUT)*%
X155074000Y-62376000D02*
X158950000Y-62376000D01*
X158950000Y-62376000D02*
X159074000Y-62500000D01*
X155175000Y-62275000D02*
X155074000Y-62376000D01*
X155175000Y-52977000D02*
X155175000Y-62275000D01*
X159133735Y-52852938D02*
X158906263Y-53080410D01*
X159074000Y-62500000D02*
X159074000Y-68376000D01*
X159074000Y-68376000D02*
X173574000Y-68376000D01*
X155278410Y-53080410D02*
X155175000Y-52977000D01*
X158906263Y-53080410D02*
X155278410Y-53080410D01*
%TO.N,Net-(U4-OSCIN)*%
X161074000Y-57876000D02*
X161074000Y-62876000D01*
X160574000Y-57876000D02*
X161074000Y-57876000D01*
X161074000Y-62876000D02*
X168574000Y-62876000D01*
X160574000Y-53376000D02*
X160574000Y-57876000D01*
X160074000Y-52876000D02*
X160574000Y-53376000D01*
%TO.N,Net-(U4-TX1)*%
X163185236Y-56957736D02*
X163185236Y-56846715D01*
X163231951Y-56800000D02*
X165074000Y-56800000D01*
X163418000Y-57190500D02*
X163185236Y-56957736D01*
X163185236Y-56846715D02*
X163231951Y-56800000D01*
D26*
%TO.N,/RTS*%
X135500000Y-104500000D02*
X135589674Y-104589674D01*
X133500000Y-104500000D02*
X135500000Y-104500000D01*
D25*
%TO.N,/DTR*%
X118151470Y-105500000D02*
X117151470Y-105500000D01*
X119825735Y-107174265D02*
X118151470Y-105500000D01*
D26*
%TO.N,/GPIO3_STRAPPING*%
X132000000Y-115000000D02*
X132000000Y-102000000D01*
X132000000Y-102000000D02*
X118500000Y-88500000D01*
X118500000Y-88500000D02*
X118500000Y-79500000D01*
D25*
%TO.N,/RFID_IRQ*%
X157880966Y-52376000D02*
X157984376Y-52479410D01*
X154500000Y-52450000D02*
X154500000Y-74500000D01*
X154574000Y-52376000D02*
X154500000Y-52450000D01*
X146000000Y-82000000D02*
X146000000Y-81900000D01*
X154574000Y-52376000D02*
X157880966Y-52376000D01*
X153500000Y-74500000D02*
X146000000Y-82000000D01*
X154500000Y-74500000D02*
X153500000Y-74500000D01*
%TO.N,/RFID_RST*%
X138399000Y-69101000D02*
X138500000Y-69000000D01*
X138399000Y-80500000D02*
X138399000Y-69101000D01*
%TD*%
%TA.AperFunction,Conductor*%
%TO.N,GND*%
G36*
X104443039Y-37519685D02*
G01*
X104488794Y-37572489D01*
X104500000Y-37624000D01*
X104500000Y-58510000D01*
X152500000Y-58510000D01*
X152500000Y-40250000D01*
X161632769Y-40250000D01*
X162526988Y-40250000D01*
X162494075Y-40307007D01*
X162460000Y-40434174D01*
X162460000Y-40565826D01*
X162494075Y-40692993D01*
X162526988Y-40750000D01*
X161632769Y-40750000D01*
X161643242Y-40816126D01*
X161643242Y-40816129D01*
X161708904Y-41018217D01*
X161805379Y-41207557D01*
X161930272Y-41379459D01*
X161930276Y-41379464D01*
X162080535Y-41529723D01*
X162080540Y-41529727D01*
X162252442Y-41654620D01*
X162441782Y-41751095D01*
X162643871Y-41816757D01*
X162710000Y-41827231D01*
X162710000Y-40933012D01*
X162767007Y-40965925D01*
X162894174Y-41000000D01*
X163025826Y-41000000D01*
X163152993Y-40965925D01*
X163210000Y-40933012D01*
X163210000Y-41827230D01*
X163276126Y-41816757D01*
X163276129Y-41816757D01*
X163478217Y-41751095D01*
X163667557Y-41654620D01*
X163839459Y-41529727D01*
X163839464Y-41529723D01*
X163989723Y-41379464D01*
X163989727Y-41379459D01*
X164114620Y-41207558D01*
X164119232Y-41198507D01*
X164167205Y-41147709D01*
X164235025Y-41130912D01*
X164301161Y-41153447D01*
X164340204Y-41198504D01*
X164344949Y-41207817D01*
X164469890Y-41379786D01*
X164620213Y-41530109D01*
X164792179Y-41655048D01*
X164792181Y-41655049D01*
X164792184Y-41655051D01*
X164981588Y-41751557D01*
X165183757Y-41817246D01*
X165393713Y-41850500D01*
X165393714Y-41850500D01*
X165606286Y-41850500D01*
X165606287Y-41850500D01*
X165816243Y-41817246D01*
X166018412Y-41751557D01*
X166207816Y-41655051D01*
X166294138Y-41592335D01*
X166379786Y-41530109D01*
X166379788Y-41530106D01*
X166379792Y-41530104D01*
X166530104Y-41379792D01*
X166530106Y-41379788D01*
X166530109Y-41379786D01*
X166655048Y-41207820D01*
X166655050Y-41207817D01*
X166655051Y-41207816D01*
X166659514Y-41199054D01*
X166707488Y-41148259D01*
X166775308Y-41131463D01*
X166841444Y-41153999D01*
X166880486Y-41199056D01*
X166884951Y-41207820D01*
X167009890Y-41379786D01*
X167160213Y-41530109D01*
X167332179Y-41655048D01*
X167332181Y-41655049D01*
X167332184Y-41655051D01*
X167521588Y-41751557D01*
X167723757Y-41817246D01*
X167933713Y-41850500D01*
X167933714Y-41850500D01*
X168146286Y-41850500D01*
X168146287Y-41850500D01*
X168356243Y-41817246D01*
X168558412Y-41751557D01*
X168747816Y-41655051D01*
X168834138Y-41592335D01*
X168919786Y-41530109D01*
X168919788Y-41530106D01*
X168919792Y-41530104D01*
X169070104Y-41379792D01*
X169070106Y-41379788D01*
X169070109Y-41379786D01*
X169195048Y-41207820D01*
X169195050Y-41207817D01*
X169195051Y-41207816D01*
X169199514Y-41199054D01*
X169247488Y-41148259D01*
X169315308Y-41131463D01*
X169381444Y-41153999D01*
X169420486Y-41199056D01*
X169424951Y-41207820D01*
X169549890Y-41379786D01*
X169700213Y-41530109D01*
X169872179Y-41655048D01*
X169872181Y-41655049D01*
X169872184Y-41655051D01*
X170061588Y-41751557D01*
X170263757Y-41817246D01*
X170473713Y-41850500D01*
X170473714Y-41850500D01*
X170686286Y-41850500D01*
X170686287Y-41850500D01*
X170896243Y-41817246D01*
X171098412Y-41751557D01*
X171287816Y-41655051D01*
X171459792Y-41530104D01*
X171573329Y-41416566D01*
X171634648Y-41383084D01*
X171704340Y-41388068D01*
X171760274Y-41429939D01*
X171777189Y-41460917D01*
X171826202Y-41592328D01*
X171826206Y-41592335D01*
X171912452Y-41707544D01*
X171912455Y-41707547D01*
X172027664Y-41793793D01*
X172027671Y-41793797D01*
X172162517Y-41844091D01*
X172162516Y-41844091D01*
X172169444Y-41844835D01*
X172222127Y-41850500D01*
X174017872Y-41850499D01*
X174077483Y-41844091D01*
X174212331Y-41793796D01*
X174327546Y-41707546D01*
X174413796Y-41592331D01*
X174464091Y-41457483D01*
X174470500Y-41397873D01*
X174470499Y-39602128D01*
X174464091Y-39542517D01*
X174462810Y-39539083D01*
X174413797Y-39407671D01*
X174413793Y-39407664D01*
X174327547Y-39292455D01*
X174327544Y-39292452D01*
X174212335Y-39206206D01*
X174212328Y-39206202D01*
X174077482Y-39155908D01*
X174077483Y-39155908D01*
X174017883Y-39149501D01*
X174017881Y-39149500D01*
X174017873Y-39149500D01*
X174017864Y-39149500D01*
X172222129Y-39149500D01*
X172222123Y-39149501D01*
X172162516Y-39155908D01*
X172027671Y-39206202D01*
X172027664Y-39206206D01*
X171912455Y-39292452D01*
X171912452Y-39292455D01*
X171826206Y-39407664D01*
X171826203Y-39407669D01*
X171777189Y-39539083D01*
X171735317Y-39595016D01*
X171669853Y-39619433D01*
X171601580Y-39604581D01*
X171573326Y-39583430D01*
X171459786Y-39469890D01*
X171287820Y-39344951D01*
X171098414Y-39248444D01*
X171098413Y-39248443D01*
X171098412Y-39248443D01*
X170896243Y-39182754D01*
X170896241Y-39182753D01*
X170896240Y-39182753D01*
X170734957Y-39157208D01*
X170686287Y-39149500D01*
X170473713Y-39149500D01*
X170425042Y-39157208D01*
X170263760Y-39182753D01*
X170061585Y-39248444D01*
X169872179Y-39344951D01*
X169700213Y-39469890D01*
X169549890Y-39620213D01*
X169424949Y-39792182D01*
X169420484Y-39800946D01*
X169372509Y-39851742D01*
X169304688Y-39868536D01*
X169238553Y-39845998D01*
X169199516Y-39800946D01*
X169195050Y-39792182D01*
X169070109Y-39620213D01*
X168919786Y-39469890D01*
X168747820Y-39344951D01*
X168558414Y-39248444D01*
X168558413Y-39248443D01*
X168558412Y-39248443D01*
X168356243Y-39182754D01*
X168356241Y-39182753D01*
X168356240Y-39182753D01*
X168194957Y-39157208D01*
X168146287Y-39149500D01*
X167933713Y-39149500D01*
X167885042Y-39157208D01*
X167723760Y-39182753D01*
X167521585Y-39248444D01*
X167332179Y-39344951D01*
X167160213Y-39469890D01*
X167009890Y-39620213D01*
X166884949Y-39792182D01*
X166880484Y-39800946D01*
X166832509Y-39851742D01*
X166764688Y-39868536D01*
X166698553Y-39845998D01*
X166659516Y-39800946D01*
X166655050Y-39792182D01*
X166530109Y-39620213D01*
X166379786Y-39469890D01*
X166207820Y-39344951D01*
X166018414Y-39248444D01*
X166018413Y-39248443D01*
X166018412Y-39248443D01*
X165816243Y-39182754D01*
X165816241Y-39182753D01*
X165816240Y-39182753D01*
X165654957Y-39157208D01*
X165606287Y-39149500D01*
X165393713Y-39149500D01*
X165345042Y-39157208D01*
X165183760Y-39182753D01*
X164981585Y-39248444D01*
X164792179Y-39344951D01*
X164620213Y-39469890D01*
X164469890Y-39620213D01*
X164344949Y-39792182D01*
X164340202Y-39801499D01*
X164292227Y-39852293D01*
X164224405Y-39869087D01*
X164158271Y-39846548D01*
X164119234Y-39801495D01*
X164114622Y-39792444D01*
X163989727Y-39620540D01*
X163989723Y-39620535D01*
X163839464Y-39470276D01*
X163839459Y-39470272D01*
X163667557Y-39345379D01*
X163478215Y-39248903D01*
X163276124Y-39183241D01*
X163210000Y-39172768D01*
X163210000Y-40066988D01*
X163152993Y-40034075D01*
X163025826Y-40000000D01*
X162894174Y-40000000D01*
X162767007Y-40034075D01*
X162710000Y-40066988D01*
X162710000Y-39172768D01*
X162709999Y-39172768D01*
X162643875Y-39183241D01*
X162441784Y-39248903D01*
X162252442Y-39345379D01*
X162080540Y-39470272D01*
X162080535Y-39470276D01*
X161930276Y-39620535D01*
X161930272Y-39620540D01*
X161805379Y-39792442D01*
X161708904Y-39981782D01*
X161643242Y-40183870D01*
X161643242Y-40183873D01*
X161632769Y-40250000D01*
X152500000Y-40250000D01*
X152500000Y-37624000D01*
X152519685Y-37556961D01*
X152572489Y-37511206D01*
X152624000Y-37500000D01*
X183125500Y-37500000D01*
X183192539Y-37519685D01*
X183238294Y-37572489D01*
X183249500Y-37624000D01*
X183249500Y-127376000D01*
X183229815Y-127443039D01*
X183177011Y-127488794D01*
X183125500Y-127500000D01*
X83874500Y-127500000D01*
X83807461Y-127480315D01*
X83761706Y-127427511D01*
X83750500Y-127376000D01*
X83750500Y-113921153D01*
X87699500Y-113921153D01*
X87699500Y-114078846D01*
X87730261Y-114233489D01*
X87730264Y-114233501D01*
X87790602Y-114379172D01*
X87790609Y-114379185D01*
X87878602Y-114510874D01*
X87899480Y-114577551D01*
X87899500Y-114579765D01*
X87899500Y-125079056D01*
X87940423Y-125231783D01*
X87940426Y-125231790D01*
X88019475Y-125368709D01*
X88019479Y-125368714D01*
X88019480Y-125368716D01*
X88131284Y-125480520D01*
X88131286Y-125480521D01*
X88131290Y-125480524D01*
X88215575Y-125529185D01*
X88268216Y-125559577D01*
X88420943Y-125600500D01*
X96920943Y-125600500D01*
X97079057Y-125600500D01*
X98700069Y-125600500D01*
X98716184Y-125604958D01*
X98731252Y-125604485D01*
X98753167Y-125615189D01*
X98763801Y-125618131D01*
X98776509Y-125625745D01*
X98781284Y-125630520D01*
X98868095Y-125680639D01*
X98869004Y-125681164D01*
X98869021Y-125681174D01*
X98896933Y-125697289D01*
X98918215Y-125709577D01*
X99070943Y-125750501D01*
X99070946Y-125750501D01*
X99236653Y-125750501D01*
X99236669Y-125750500D01*
X107320234Y-125750500D01*
X107387273Y-125770185D01*
X107389125Y-125771398D01*
X107520814Y-125859390D01*
X107520827Y-125859397D01*
X107666498Y-125919735D01*
X107666503Y-125919737D01*
X107821153Y-125950499D01*
X107821156Y-125950500D01*
X107821158Y-125950500D01*
X107978844Y-125950500D01*
X107978845Y-125950499D01*
X108133497Y-125919737D01*
X108279179Y-125859394D01*
X108410289Y-125771789D01*
X108521789Y-125660289D01*
X108609394Y-125529179D01*
X108669737Y-125383497D01*
X108700500Y-125228842D01*
X108700500Y-125071158D01*
X108700500Y-125071155D01*
X108700499Y-125071153D01*
X108669738Y-124916510D01*
X108669737Y-124916503D01*
X108669735Y-124916498D01*
X108609397Y-124770827D01*
X108609390Y-124770814D01*
X108521789Y-124639711D01*
X108521786Y-124639707D01*
X108410292Y-124528213D01*
X108410288Y-124528210D01*
X108279185Y-124440609D01*
X108279172Y-124440602D01*
X108133501Y-124380264D01*
X108133489Y-124380261D01*
X107978845Y-124349500D01*
X107978842Y-124349500D01*
X107821158Y-124349500D01*
X107821155Y-124349500D01*
X107666510Y-124380261D01*
X107666498Y-124380264D01*
X107520827Y-124440602D01*
X107520814Y-124440609D01*
X107389125Y-124528602D01*
X107322447Y-124549480D01*
X107320234Y-124549500D01*
X99449931Y-124549500D01*
X99433815Y-124545041D01*
X99418749Y-124545515D01*
X99396833Y-124534810D01*
X99386199Y-124531869D01*
X99373490Y-124524254D01*
X99368716Y-124519480D01*
X99281904Y-124469360D01*
X99231785Y-124440423D01*
X99079057Y-124399499D01*
X98920943Y-124399499D01*
X98913347Y-124399499D01*
X98913331Y-124399500D01*
X97886555Y-124399500D01*
X97819516Y-124379815D01*
X97773761Y-124327011D01*
X97763817Y-124257853D01*
X97768840Y-124239588D01*
X97767969Y-124239324D01*
X97769731Y-124233509D01*
X97769737Y-124233497D01*
X97800500Y-124078842D01*
X97800500Y-123921158D01*
X97800500Y-123921155D01*
X97800499Y-123921153D01*
X97769738Y-123766510D01*
X97769737Y-123766503D01*
X97769735Y-123766498D01*
X97709397Y-123620827D01*
X97709390Y-123620814D01*
X97621789Y-123489711D01*
X97621786Y-123489707D01*
X97510292Y-123378213D01*
X97510288Y-123378210D01*
X97379185Y-123290609D01*
X97379172Y-123290602D01*
X97233501Y-123230264D01*
X97233489Y-123230261D01*
X97078845Y-123199500D01*
X97078842Y-123199500D01*
X96921158Y-123199500D01*
X96921155Y-123199500D01*
X96766510Y-123230261D01*
X96766498Y-123230264D01*
X96620827Y-123290602D01*
X96620814Y-123290609D01*
X96489711Y-123378210D01*
X96489707Y-123378213D01*
X96378213Y-123489707D01*
X96378210Y-123489711D01*
X96290609Y-123620814D01*
X96290602Y-123620827D01*
X96230264Y-123766498D01*
X96230261Y-123766510D01*
X96199500Y-123921153D01*
X96199500Y-124078846D01*
X96230261Y-124233489D01*
X96232031Y-124239324D01*
X96229279Y-124240158D01*
X96235503Y-124297359D01*
X96204309Y-124359878D01*
X96144266Y-124395608D01*
X96113445Y-124399500D01*
X89224500Y-124399500D01*
X89157461Y-124379815D01*
X89111706Y-124327011D01*
X89100500Y-124275500D01*
X89100500Y-120909448D01*
X98029500Y-120909448D01*
X98029500Y-122390551D01*
X98057829Y-122569410D01*
X98113787Y-122741636D01*
X98113788Y-122741639D01*
X98196006Y-122902997D01*
X98302441Y-123049494D01*
X98302445Y-123049499D01*
X98430500Y-123177554D01*
X98430505Y-123177558D01*
X98558287Y-123270396D01*
X98577006Y-123283996D01*
X98682484Y-123337740D01*
X98738360Y-123366211D01*
X98738363Y-123366212D01*
X98824476Y-123394191D01*
X98910591Y-123422171D01*
X98993429Y-123435291D01*
X99089449Y-123450500D01*
X99089454Y-123450500D01*
X99270551Y-123450500D01*
X99357259Y-123436765D01*
X99449409Y-123422171D01*
X99621639Y-123366211D01*
X99782994Y-123283996D01*
X99929501Y-123177553D01*
X100057553Y-123049501D01*
X100163996Y-122902994D01*
X100246211Y-122741639D01*
X100302171Y-122569409D01*
X100316765Y-122477259D01*
X100330500Y-122390551D01*
X100330500Y-120909448D01*
X106669500Y-120909448D01*
X106669500Y-122390551D01*
X106697829Y-122569410D01*
X106753787Y-122741636D01*
X106753788Y-122741639D01*
X106836006Y-122902997D01*
X106942441Y-123049494D01*
X106942445Y-123049499D01*
X107070500Y-123177554D01*
X107070505Y-123177558D01*
X107198287Y-123270396D01*
X107217006Y-123283996D01*
X107322484Y-123337740D01*
X107378360Y-123366211D01*
X107378363Y-123366212D01*
X107464476Y-123394191D01*
X107550591Y-123422171D01*
X107633429Y-123435291D01*
X107729449Y-123450500D01*
X107729454Y-123450500D01*
X107910551Y-123450500D01*
X107997259Y-123436765D01*
X108089409Y-123422171D01*
X108261639Y-123366211D01*
X108422994Y-123283996D01*
X108569501Y-123177553D01*
X108697553Y-123049501D01*
X108803996Y-122902994D01*
X108886211Y-122741639D01*
X108942171Y-122569409D01*
X108956765Y-122477259D01*
X108970500Y-122390551D01*
X108970500Y-120909448D01*
X108954019Y-120805397D01*
X108942171Y-120730591D01*
X108886211Y-120558361D01*
X108886211Y-120558360D01*
X108857740Y-120502484D01*
X108803996Y-120397006D01*
X108790396Y-120378287D01*
X108697558Y-120250505D01*
X108697554Y-120250500D01*
X108569499Y-120122445D01*
X108569494Y-120122441D01*
X108422997Y-120016006D01*
X108422996Y-120016005D01*
X108422994Y-120016004D01*
X108371300Y-119989664D01*
X108261639Y-119933788D01*
X108261636Y-119933787D01*
X108089410Y-119877829D01*
X107910551Y-119849500D01*
X107910546Y-119849500D01*
X107729454Y-119849500D01*
X107729449Y-119849500D01*
X107550589Y-119877829D01*
X107378363Y-119933787D01*
X107378360Y-119933788D01*
X107217002Y-120016006D01*
X107070505Y-120122441D01*
X107070500Y-120122445D01*
X106942445Y-120250500D01*
X106942441Y-120250505D01*
X106836006Y-120397002D01*
X106753788Y-120558360D01*
X106753787Y-120558363D01*
X106697829Y-120730589D01*
X106669500Y-120909448D01*
X100330500Y-120909448D01*
X100314019Y-120805397D01*
X100302171Y-120730591D01*
X100246211Y-120558361D01*
X100246211Y-120558360D01*
X100217740Y-120502484D01*
X100163996Y-120397006D01*
X100150396Y-120378287D01*
X100057558Y-120250505D01*
X100057554Y-120250500D01*
X99929499Y-120122445D01*
X99929494Y-120122441D01*
X99782997Y-120016006D01*
X99782996Y-120016005D01*
X99782994Y-120016004D01*
X99731300Y-119989664D01*
X99621639Y-119933788D01*
X99621636Y-119933787D01*
X99449410Y-119877829D01*
X99270551Y-119849500D01*
X99270546Y-119849500D01*
X99089454Y-119849500D01*
X99089449Y-119849500D01*
X98910589Y-119877829D01*
X98738363Y-119933787D01*
X98738360Y-119933788D01*
X98577002Y-120016006D01*
X98430505Y-120122441D01*
X98430500Y-120122445D01*
X98302445Y-120250500D01*
X98302441Y-120250505D01*
X98196006Y-120397002D01*
X98113788Y-120558360D01*
X98113787Y-120558363D01*
X98057829Y-120730589D01*
X98029500Y-120909448D01*
X89100500Y-120909448D01*
X89100500Y-117234448D01*
X98029500Y-117234448D01*
X98029500Y-118415551D01*
X98057829Y-118594410D01*
X98113787Y-118766636D01*
X98113788Y-118766639D01*
X98196006Y-118927997D01*
X98302441Y-119074494D01*
X98302445Y-119074499D01*
X98430500Y-119202554D01*
X98430505Y-119202558D01*
X98558287Y-119295396D01*
X98577006Y-119308996D01*
X98682484Y-119362740D01*
X98738360Y-119391211D01*
X98738363Y-119391212D01*
X98824476Y-119419191D01*
X98910591Y-119447171D01*
X98993429Y-119460291D01*
X99089449Y-119475500D01*
X99089454Y-119475500D01*
X99270551Y-119475500D01*
X99357259Y-119461765D01*
X99449409Y-119447171D01*
X99621639Y-119391211D01*
X99782994Y-119308996D01*
X99929501Y-119202553D01*
X100057553Y-119074501D01*
X100065775Y-119063184D01*
X100121102Y-119020516D01*
X100190715Y-119014533D01*
X100228097Y-119028679D01*
X100287509Y-119062981D01*
X100287510Y-119062982D01*
X100287512Y-119062982D01*
X100287515Y-119062984D01*
X100427525Y-119100500D01*
X100427528Y-119100500D01*
X100572472Y-119100500D01*
X100572475Y-119100500D01*
X100712485Y-119062984D01*
X100838015Y-118990509D01*
X100940509Y-118888015D01*
X101012984Y-118762485D01*
X101050500Y-118622475D01*
X101050500Y-118477525D01*
X105824500Y-118477525D01*
X105824500Y-118622475D01*
X105862016Y-118762485D01*
X105862017Y-118762488D01*
X105934488Y-118888011D01*
X105934490Y-118888013D01*
X105934491Y-118888015D01*
X106036985Y-118990509D01*
X106036986Y-118990510D01*
X106036988Y-118990511D01*
X106162511Y-119062982D01*
X106162512Y-119062982D01*
X106162515Y-119062984D01*
X106302525Y-119100500D01*
X106302528Y-119100500D01*
X106697472Y-119100500D01*
X106697475Y-119100500D01*
X106837485Y-119062984D01*
X106837488Y-119062981D01*
X106842030Y-119061765D01*
X106911880Y-119063428D01*
X106961805Y-119093859D01*
X107070500Y-119202554D01*
X107070505Y-119202558D01*
X107198287Y-119295396D01*
X107217006Y-119308996D01*
X107322484Y-119362740D01*
X107378360Y-119391211D01*
X107378363Y-119391212D01*
X107464476Y-119419191D01*
X107550591Y-119447171D01*
X107633429Y-119460291D01*
X107729449Y-119475500D01*
X107729454Y-119475500D01*
X107910551Y-119475500D01*
X107997259Y-119461765D01*
X108089409Y-119447171D01*
X108261639Y-119391211D01*
X108422994Y-119308996D01*
X108569501Y-119202553D01*
X108697553Y-119074501D01*
X108803996Y-118927994D01*
X108886211Y-118766639D01*
X108942171Y-118594409D01*
X108960684Y-118477525D01*
X108970500Y-118415551D01*
X108970500Y-117234448D01*
X108954019Y-117130397D01*
X108942171Y-117055591D01*
X108886211Y-116883361D01*
X108886211Y-116883360D01*
X108843990Y-116800499D01*
X108803996Y-116722006D01*
X108790396Y-116703287D01*
X108697558Y-116575505D01*
X108697554Y-116575500D01*
X108569499Y-116447445D01*
X108569494Y-116447441D01*
X108422997Y-116341006D01*
X108422996Y-116341005D01*
X108422994Y-116341004D01*
X108371300Y-116314664D01*
X108261639Y-116258788D01*
X108261636Y-116258787D01*
X108089410Y-116202829D01*
X107910551Y-116174500D01*
X107910546Y-116174500D01*
X107729454Y-116174500D01*
X107729449Y-116174500D01*
X107550589Y-116202829D01*
X107378363Y-116258787D01*
X107378360Y-116258788D01*
X107217002Y-116341006D01*
X107070505Y-116447441D01*
X107070500Y-116447445D01*
X106942445Y-116575500D01*
X106942441Y-116575505D01*
X106836006Y-116722002D01*
X106753788Y-116883360D01*
X106753787Y-116883363D01*
X106697829Y-117055589D01*
X106669500Y-117234448D01*
X106669500Y-117875500D01*
X106649815Y-117942539D01*
X106597011Y-117988294D01*
X106545500Y-117999500D01*
X106302525Y-117999500D01*
X106173993Y-118033940D01*
X106162511Y-118037017D01*
X106036988Y-118109488D01*
X106036982Y-118109493D01*
X105934493Y-118211982D01*
X105934488Y-118211988D01*
X105862017Y-118337511D01*
X105862016Y-118337515D01*
X105824500Y-118477525D01*
X101050500Y-118477525D01*
X101012984Y-118337515D01*
X100940509Y-118211985D01*
X100838015Y-118109491D01*
X100838013Y-118109490D01*
X100838011Y-118109488D01*
X100712488Y-118037017D01*
X100712489Y-118037017D01*
X100701006Y-118033940D01*
X100572475Y-117999500D01*
X100454500Y-117999500D01*
X100387461Y-117979815D01*
X100341706Y-117927011D01*
X100330500Y-117875500D01*
X100330500Y-117234448D01*
X100314019Y-117130397D01*
X100302171Y-117055591D01*
X100246211Y-116883361D01*
X100246211Y-116883360D01*
X100203990Y-116800499D01*
X100163996Y-116722006D01*
X100150396Y-116703287D01*
X100057558Y-116575505D01*
X100057554Y-116575500D01*
X99929499Y-116447445D01*
X99929494Y-116447441D01*
X99782997Y-116341006D01*
X99782996Y-116341005D01*
X99782994Y-116341004D01*
X99731300Y-116314664D01*
X99621639Y-116258788D01*
X99621636Y-116258787D01*
X99449410Y-116202829D01*
X99270551Y-116174500D01*
X99270546Y-116174500D01*
X99089454Y-116174500D01*
X99089449Y-116174500D01*
X98910589Y-116202829D01*
X98738363Y-116258787D01*
X98738360Y-116258788D01*
X98577002Y-116341006D01*
X98430505Y-116447441D01*
X98430500Y-116447445D01*
X98302445Y-116575500D01*
X98302441Y-116575505D01*
X98196006Y-116722002D01*
X98113788Y-116883360D01*
X98113787Y-116883363D01*
X98057829Y-117055589D01*
X98029500Y-117234448D01*
X89100500Y-117234448D01*
X89100500Y-115970418D01*
X140150235Y-115970418D01*
X140150235Y-116128111D01*
X140180996Y-116282754D01*
X140180999Y-116282766D01*
X140241337Y-116428437D01*
X140241344Y-116428450D01*
X140328945Y-116559553D01*
X140328948Y-116559557D01*
X140440442Y-116671051D01*
X140440446Y-116671054D01*
X140571549Y-116758655D01*
X140571562Y-116758662D01*
X140717233Y-116819000D01*
X140717238Y-116819002D01*
X140871888Y-116849764D01*
X140871891Y-116849765D01*
X140871893Y-116849765D01*
X141029579Y-116849765D01*
X141029580Y-116849764D01*
X141184232Y-116819002D01*
X141329914Y-116758659D01*
X141403640Y-116709397D01*
X141461610Y-116670663D01*
X141528288Y-116649785D01*
X141530501Y-116649765D01*
X149493965Y-116649765D01*
X149561004Y-116669450D01*
X149562809Y-116670631D01*
X149620821Y-116709394D01*
X149620823Y-116709395D01*
X149620827Y-116709397D01*
X149739748Y-116758655D01*
X149766503Y-116769737D01*
X149921153Y-116800499D01*
X149921156Y-116800500D01*
X149921158Y-116800500D01*
X150078844Y-116800500D01*
X150078845Y-116800499D01*
X150233497Y-116769737D01*
X150379179Y-116709394D01*
X150510289Y-116621789D01*
X150621789Y-116510289D01*
X150709394Y-116379179D01*
X150769737Y-116233497D01*
X150800500Y-116078842D01*
X150800500Y-115921158D01*
X150800500Y-115921155D01*
X150800499Y-115921153D01*
X150769738Y-115766510D01*
X150769737Y-115766503D01*
X150729800Y-115670086D01*
X150709397Y-115620827D01*
X150709390Y-115620814D01*
X150621789Y-115489711D01*
X150621786Y-115489707D01*
X150510292Y-115378213D01*
X150510288Y-115378210D01*
X150379185Y-115290609D01*
X150379172Y-115290602D01*
X150233501Y-115230264D01*
X150233489Y-115230261D01*
X150078845Y-115199500D01*
X150078842Y-115199500D01*
X149921158Y-115199500D01*
X149921155Y-115199500D01*
X149766510Y-115230261D01*
X149766498Y-115230264D01*
X149620827Y-115290602D01*
X149620814Y-115290609D01*
X149489711Y-115378210D01*
X149489707Y-115378213D01*
X149455477Y-115412445D01*
X149394155Y-115445931D01*
X149367795Y-115448765D01*
X141530501Y-115448765D01*
X141463462Y-115429080D01*
X141461610Y-115427867D01*
X141329920Y-115339874D01*
X141329907Y-115339867D01*
X141184236Y-115279529D01*
X141184224Y-115279526D01*
X141029580Y-115248765D01*
X141029577Y-115248765D01*
X140871893Y-115248765D01*
X140871890Y-115248765D01*
X140717245Y-115279526D01*
X140717233Y-115279529D01*
X140571562Y-115339867D01*
X140571549Y-115339874D01*
X140440446Y-115427475D01*
X140440442Y-115427478D01*
X140328948Y-115538972D01*
X140328945Y-115538976D01*
X140241344Y-115670079D01*
X140241337Y-115670092D01*
X140180999Y-115815763D01*
X140180996Y-115815775D01*
X140150235Y-115970418D01*
X89100500Y-115970418D01*
X89100500Y-114579765D01*
X89120185Y-114512726D01*
X89121398Y-114510874D01*
X89209390Y-114379185D01*
X89209390Y-114379184D01*
X89209394Y-114379179D01*
X89269737Y-114233497D01*
X89300500Y-114078842D01*
X89300500Y-113921158D01*
X89300500Y-113921155D01*
X89300499Y-113921153D01*
X89269738Y-113766510D01*
X89269737Y-113766503D01*
X89209794Y-113621786D01*
X89209397Y-113620827D01*
X89209390Y-113620814D01*
X89121789Y-113489711D01*
X89121786Y-113489707D01*
X89010292Y-113378213D01*
X89010288Y-113378210D01*
X88879185Y-113290609D01*
X88879172Y-113290602D01*
X88733501Y-113230264D01*
X88733489Y-113230261D01*
X88578845Y-113199500D01*
X88578842Y-113199500D01*
X88421158Y-113199500D01*
X88421155Y-113199500D01*
X88266510Y-113230261D01*
X88266498Y-113230264D01*
X88120827Y-113290602D01*
X88120814Y-113290609D01*
X87989711Y-113378210D01*
X87989707Y-113378213D01*
X87878213Y-113489707D01*
X87878210Y-113489711D01*
X87790609Y-113620814D01*
X87790602Y-113620827D01*
X87730264Y-113766498D01*
X87730261Y-113766510D01*
X87699500Y-113921153D01*
X83750500Y-113921153D01*
X83750500Y-96683133D01*
X88532500Y-96683133D01*
X88532500Y-97348866D01*
X88566245Y-97561922D01*
X88566246Y-97561926D01*
X88632908Y-97767089D01*
X88730843Y-97959299D01*
X88857641Y-98133821D01*
X89010179Y-98286359D01*
X89184701Y-98413157D01*
X89376911Y-98511092D01*
X89582074Y-98577754D01*
X89661973Y-98590408D01*
X89795134Y-98611500D01*
X89795139Y-98611500D01*
X90010866Y-98611500D01*
X90129230Y-98592752D01*
X90223926Y-98577754D01*
X90429089Y-98511092D01*
X90621299Y-98413157D01*
X90795821Y-98286359D01*
X90937807Y-98144372D01*
X90999126Y-98110890D01*
X91068818Y-98115874D01*
X91124752Y-98157745D01*
X91137864Y-98179645D01*
X91138181Y-98180326D01*
X91138186Y-98180334D01*
X91230288Y-98329656D01*
X91354344Y-98453712D01*
X91503666Y-98545814D01*
X91670203Y-98600999D01*
X91772991Y-98611500D01*
X93113008Y-98611499D01*
X93215797Y-98600999D01*
X93382334Y-98545814D01*
X93531656Y-98453712D01*
X93655712Y-98329656D01*
X93747814Y-98180334D01*
X93802999Y-98013797D01*
X93813500Y-97911009D01*
X93813499Y-96120992D01*
X93802999Y-96018203D01*
X93747814Y-95851666D01*
X93655712Y-95702344D01*
X93531656Y-95578288D01*
X93435395Y-95518914D01*
X93382336Y-95486187D01*
X93382331Y-95486185D01*
X93357449Y-95477940D01*
X93215797Y-95431001D01*
X93215795Y-95431000D01*
X93113010Y-95420500D01*
X91772998Y-95420500D01*
X91772981Y-95420501D01*
X91670203Y-95431000D01*
X91670200Y-95431001D01*
X91503668Y-95486185D01*
X91503663Y-95486187D01*
X91354342Y-95578289D01*
X91230289Y-95702342D01*
X91138179Y-95851677D01*
X91137861Y-95852360D01*
X91137518Y-95852748D01*
X91134395Y-95857813D01*
X91133529Y-95857278D01*
X91091683Y-95904794D01*
X91024487Y-95923939D01*
X90957608Y-95903716D01*
X90937804Y-95887624D01*
X90795823Y-95745643D01*
X90795821Y-95745641D01*
X90621299Y-95618843D01*
X90429089Y-95520908D01*
X90223926Y-95454246D01*
X90223924Y-95454245D01*
X90223922Y-95454245D01*
X90010866Y-95420500D01*
X90010861Y-95420500D01*
X89795139Y-95420500D01*
X89795134Y-95420500D01*
X89582077Y-95454245D01*
X89376908Y-95520909D01*
X89184700Y-95618843D01*
X89144571Y-95647999D01*
X89010179Y-95745641D01*
X89010177Y-95745643D01*
X89010176Y-95745643D01*
X88857643Y-95898176D01*
X88857643Y-95898177D01*
X88857641Y-95898179D01*
X88834874Y-95929515D01*
X88730843Y-96072700D01*
X88632909Y-96264908D01*
X88566245Y-96470077D01*
X88532500Y-96683133D01*
X83750500Y-96683133D01*
X83750500Y-90817648D01*
X95579500Y-90817648D01*
X95579500Y-91022351D01*
X95611522Y-91224534D01*
X95674781Y-91419223D01*
X95767715Y-91601613D01*
X95888028Y-91767213D01*
X96032786Y-91911971D01*
X96168112Y-92010289D01*
X96198390Y-92032287D01*
X96289840Y-92078883D01*
X96291080Y-92079515D01*
X96341876Y-92127490D01*
X96358671Y-92195311D01*
X96336134Y-92261446D01*
X96291080Y-92300485D01*
X96198386Y-92347715D01*
X96032786Y-92468028D01*
X95888028Y-92612786D01*
X95767715Y-92778386D01*
X95674781Y-92960776D01*
X95611522Y-93155465D01*
X95579500Y-93357648D01*
X95579500Y-93562351D01*
X95611522Y-93764534D01*
X95674781Y-93959223D01*
X95738022Y-94083338D01*
X95761116Y-94128663D01*
X95767715Y-94141613D01*
X95888028Y-94307213D01*
X96032786Y-94451971D01*
X96187749Y-94564556D01*
X96198390Y-94572287D01*
X96289840Y-94618883D01*
X96291080Y-94619515D01*
X96341876Y-94667490D01*
X96358671Y-94735311D01*
X96336134Y-94801446D01*
X96291080Y-94840485D01*
X96198386Y-94887715D01*
X96032786Y-95008028D01*
X95888028Y-95152786D01*
X95767715Y-95318386D01*
X95674781Y-95500776D01*
X95611522Y-95695465D01*
X95579500Y-95897648D01*
X95579500Y-96102351D01*
X95611522Y-96304534D01*
X95674781Y-96499223D01*
X95767715Y-96681613D01*
X95888028Y-96847213D01*
X96032786Y-96991971D01*
X96187749Y-97104556D01*
X96198390Y-97112287D01*
X96289840Y-97158883D01*
X96291080Y-97159515D01*
X96341876Y-97207490D01*
X96358671Y-97275311D01*
X96336134Y-97341446D01*
X96291080Y-97380485D01*
X96198386Y-97427715D01*
X96032786Y-97548028D01*
X95888028Y-97692786D01*
X95767715Y-97858386D01*
X95674781Y-98040776D01*
X95611522Y-98235465D01*
X95579500Y-98437648D01*
X95579500Y-98642351D01*
X95611522Y-98844534D01*
X95674781Y-99039223D01*
X95767715Y-99221613D01*
X95888028Y-99387213D01*
X96032786Y-99531971D01*
X96187749Y-99644556D01*
X96198390Y-99652287D01*
X96264220Y-99685829D01*
X96291080Y-99699515D01*
X96341876Y-99747490D01*
X96358671Y-99815311D01*
X96336134Y-99881446D01*
X96291080Y-99920485D01*
X96198386Y-99967715D01*
X96032786Y-100088028D01*
X95888028Y-100232786D01*
X95767715Y-100398386D01*
X95674781Y-100580776D01*
X95611522Y-100775465D01*
X95579500Y-100977648D01*
X95579500Y-101182351D01*
X95611522Y-101384534D01*
X95674781Y-101579223D01*
X95767715Y-101761613D01*
X95888028Y-101927213D01*
X96032786Y-102071971D01*
X96187749Y-102184556D01*
X96198390Y-102192287D01*
X96289840Y-102238883D01*
X96291080Y-102239515D01*
X96341876Y-102287490D01*
X96358671Y-102355311D01*
X96336134Y-102421446D01*
X96291080Y-102460485D01*
X96198386Y-102507715D01*
X96032786Y-102628028D01*
X95888028Y-102772786D01*
X95767715Y-102938386D01*
X95674781Y-103120776D01*
X95611522Y-103315465D01*
X95579500Y-103517648D01*
X95579500Y-103722351D01*
X95611522Y-103924534D01*
X95674781Y-104119223D01*
X95767715Y-104301613D01*
X95888028Y-104467213D01*
X96032786Y-104611971D01*
X96153262Y-104699500D01*
X96198390Y-104732287D01*
X96289840Y-104778883D01*
X96291080Y-104779515D01*
X96341876Y-104827490D01*
X96358671Y-104895311D01*
X96336134Y-104961446D01*
X96291080Y-105000485D01*
X96198386Y-105047715D01*
X96032786Y-105168028D01*
X95888028Y-105312786D01*
X95767715Y-105478386D01*
X95674781Y-105660776D01*
X95611522Y-105855465D01*
X95579500Y-106057648D01*
X95579500Y-106262351D01*
X95611522Y-106464534D01*
X95674781Y-106659223D01*
X95767715Y-106841613D01*
X95888028Y-107007213D01*
X96032786Y-107151971D01*
X96171996Y-107253111D01*
X96198390Y-107272287D01*
X96314607Y-107331503D01*
X96380776Y-107365218D01*
X96380778Y-107365218D01*
X96380781Y-107365220D01*
X96471856Y-107394812D01*
X96575465Y-107428477D01*
X96676557Y-107444488D01*
X96777648Y-107460500D01*
X96777649Y-107460500D01*
X96982351Y-107460500D01*
X96982352Y-107460500D01*
X97184534Y-107428477D01*
X97379219Y-107365220D01*
X97561610Y-107272287D01*
X97690482Y-107178657D01*
X97727213Y-107151971D01*
X97727215Y-107151968D01*
X97727219Y-107151966D01*
X97871966Y-107007219D01*
X97871968Y-107007215D01*
X97871971Y-107007213D01*
X97976892Y-106862799D01*
X97992287Y-106841610D01*
X98085220Y-106659219D01*
X98148477Y-106464534D01*
X98180500Y-106262352D01*
X98180500Y-106057648D01*
X98148477Y-105855466D01*
X98130617Y-105800500D01*
X98108844Y-105733489D01*
X98085220Y-105660781D01*
X98085218Y-105660778D01*
X98085218Y-105660776D01*
X98033865Y-105559991D01*
X97992287Y-105478390D01*
X97974618Y-105454070D01*
X97871971Y-105312786D01*
X97727213Y-105168028D01*
X97561614Y-105047715D01*
X97523749Y-105028422D01*
X97468917Y-105000483D01*
X97418123Y-104952511D01*
X97401328Y-104884690D01*
X97423865Y-104818555D01*
X97468917Y-104779516D01*
X97561610Y-104732287D01*
X97633550Y-104680020D01*
X97727213Y-104611971D01*
X97727215Y-104611968D01*
X97727219Y-104611966D01*
X97871966Y-104467219D01*
X97871968Y-104467215D01*
X97871971Y-104467213D01*
X97924732Y-104394590D01*
X97992287Y-104301610D01*
X98085220Y-104119219D01*
X98148477Y-103924534D01*
X98180500Y-103722352D01*
X98180500Y-103517648D01*
X98148477Y-103315466D01*
X98085220Y-103120781D01*
X98085218Y-103120778D01*
X98085218Y-103120776D01*
X98046814Y-103045405D01*
X97992287Y-102938390D01*
X97984556Y-102927749D01*
X97871971Y-102772786D01*
X97727213Y-102628028D01*
X97561614Y-102507715D01*
X97523749Y-102488422D01*
X97468917Y-102460483D01*
X97418123Y-102412511D01*
X97401328Y-102344690D01*
X97423865Y-102278555D01*
X97468917Y-102239516D01*
X97561610Y-102192287D01*
X97582770Y-102176913D01*
X97727213Y-102071971D01*
X97727215Y-102071968D01*
X97727219Y-102071966D01*
X97871966Y-101927219D01*
X97871968Y-101927215D01*
X97871971Y-101927213D01*
X97952066Y-101816970D01*
X97992287Y-101761610D01*
X98085220Y-101579219D01*
X98148477Y-101384534D01*
X98180500Y-101182352D01*
X98180500Y-100977648D01*
X98148477Y-100775466D01*
X98134840Y-100733497D01*
X98085218Y-100580776D01*
X98046814Y-100505405D01*
X97992287Y-100398390D01*
X97984556Y-100387749D01*
X97871971Y-100232786D01*
X97727213Y-100088028D01*
X97561614Y-99967715D01*
X97523749Y-99948422D01*
X97468917Y-99920483D01*
X97418123Y-99872511D01*
X97401328Y-99804690D01*
X97423865Y-99738555D01*
X97468917Y-99699516D01*
X97561610Y-99652287D01*
X97582770Y-99636913D01*
X97727213Y-99531971D01*
X97727215Y-99531968D01*
X97727219Y-99531966D01*
X97871966Y-99387219D01*
X97871968Y-99387215D01*
X97871971Y-99387213D01*
X97987788Y-99227802D01*
X97992287Y-99221610D01*
X98085220Y-99039219D01*
X98148477Y-98844534D01*
X98180500Y-98642352D01*
X98180500Y-98437648D01*
X98163396Y-98329657D01*
X98148477Y-98235465D01*
X98115451Y-98133822D01*
X98085220Y-98040781D01*
X98085218Y-98040778D01*
X98085218Y-98040776D01*
X98019101Y-97911016D01*
X97992287Y-97858390D01*
X97984556Y-97847749D01*
X97871971Y-97692786D01*
X97727213Y-97548028D01*
X97561614Y-97427715D01*
X97523749Y-97408422D01*
X97468917Y-97380483D01*
X97418123Y-97332511D01*
X97401328Y-97264690D01*
X97423865Y-97198555D01*
X97468917Y-97159516D01*
X97561610Y-97112287D01*
X97582770Y-97096913D01*
X97727213Y-96991971D01*
X97727215Y-96991968D01*
X97727219Y-96991966D01*
X97871966Y-96847219D01*
X97871968Y-96847215D01*
X97871971Y-96847213D01*
X97924732Y-96774590D01*
X97992287Y-96681610D01*
X98085220Y-96499219D01*
X98148477Y-96304534D01*
X98180500Y-96102352D01*
X98180500Y-95897648D01*
X98161100Y-95775164D01*
X98148477Y-95695465D01*
X98110404Y-95578289D01*
X98085220Y-95500781D01*
X98085218Y-95500778D01*
X98085218Y-95500776D01*
X98044315Y-95420500D01*
X97992287Y-95318390D01*
X97964217Y-95279754D01*
X97871971Y-95152786D01*
X97727213Y-95008028D01*
X97561614Y-94887715D01*
X97523749Y-94868422D01*
X97468917Y-94840483D01*
X97418123Y-94792511D01*
X97401328Y-94724690D01*
X97423865Y-94658555D01*
X97468917Y-94619516D01*
X97561610Y-94572287D01*
X97582770Y-94556913D01*
X97727213Y-94451971D01*
X97727215Y-94451968D01*
X97727219Y-94451966D01*
X97871966Y-94307219D01*
X97871968Y-94307215D01*
X97871971Y-94307213D01*
X97954138Y-94194118D01*
X97992287Y-94141610D01*
X98085220Y-93959219D01*
X98148477Y-93764534D01*
X98180500Y-93562352D01*
X98180500Y-93357648D01*
X98152969Y-93183825D01*
X98148477Y-93155465D01*
X98106677Y-93026820D01*
X98085220Y-92960781D01*
X98085218Y-92960778D01*
X98085218Y-92960776D01*
X98042103Y-92876159D01*
X97992287Y-92778390D01*
X97950084Y-92720302D01*
X97871971Y-92612786D01*
X97727213Y-92468028D01*
X97561614Y-92347715D01*
X97523749Y-92328422D01*
X97468917Y-92300483D01*
X97418123Y-92252511D01*
X97401328Y-92184690D01*
X97423865Y-92118555D01*
X97468917Y-92079516D01*
X97561610Y-92032287D01*
X97620404Y-91989571D01*
X97727213Y-91911971D01*
X97727215Y-91911968D01*
X97727219Y-91911966D01*
X97871966Y-91767219D01*
X97871968Y-91767215D01*
X97871971Y-91767213D01*
X97924732Y-91694590D01*
X97992287Y-91601610D01*
X98085220Y-91419219D01*
X98148477Y-91224534D01*
X98180500Y-91022352D01*
X98180500Y-90817648D01*
X103199500Y-90817648D01*
X103199500Y-91022351D01*
X103231522Y-91224534D01*
X103294781Y-91419223D01*
X103387715Y-91601613D01*
X103508028Y-91767213D01*
X103652786Y-91911971D01*
X103788112Y-92010289D01*
X103818390Y-92032287D01*
X103909840Y-92078883D01*
X103911080Y-92079515D01*
X103961876Y-92127490D01*
X103978671Y-92195311D01*
X103956134Y-92261446D01*
X103911080Y-92300485D01*
X103818386Y-92347715D01*
X103652786Y-92468028D01*
X103508028Y-92612786D01*
X103387715Y-92778386D01*
X103294781Y-92960776D01*
X103231522Y-93155465D01*
X103199500Y-93357648D01*
X103199500Y-93562351D01*
X103231522Y-93764534D01*
X103294781Y-93959223D01*
X103358022Y-94083338D01*
X103381116Y-94128663D01*
X103387715Y-94141613D01*
X103508028Y-94307213D01*
X103652786Y-94451971D01*
X103807749Y-94564556D01*
X103818390Y-94572287D01*
X103909840Y-94618883D01*
X103911080Y-94619515D01*
X103961876Y-94667490D01*
X103978671Y-94735311D01*
X103956134Y-94801446D01*
X103911080Y-94840485D01*
X103818386Y-94887715D01*
X103652786Y-95008028D01*
X103508028Y-95152786D01*
X103387715Y-95318386D01*
X103294781Y-95500776D01*
X103231522Y-95695465D01*
X103199500Y-95897648D01*
X103199500Y-96102351D01*
X103231522Y-96304534D01*
X103294781Y-96499223D01*
X103387715Y-96681613D01*
X103508028Y-96847213D01*
X103652786Y-96991971D01*
X103807749Y-97104556D01*
X103818390Y-97112287D01*
X103909840Y-97158883D01*
X103911080Y-97159515D01*
X103961876Y-97207490D01*
X103978671Y-97275311D01*
X103956134Y-97341446D01*
X103911080Y-97380485D01*
X103818386Y-97427715D01*
X103652786Y-97548028D01*
X103508028Y-97692786D01*
X103387715Y-97858386D01*
X103294781Y-98040776D01*
X103231522Y-98235465D01*
X103199500Y-98437648D01*
X103199500Y-98642351D01*
X103231522Y-98844534D01*
X103294781Y-99039223D01*
X103387715Y-99221613D01*
X103508028Y-99387213D01*
X103652786Y-99531971D01*
X103807749Y-99644556D01*
X103818390Y-99652287D01*
X103884220Y-99685829D01*
X103911080Y-99699515D01*
X103961876Y-99747490D01*
X103978671Y-99815311D01*
X103956134Y-99881446D01*
X103911080Y-99920485D01*
X103818386Y-99967715D01*
X103652786Y-100088028D01*
X103508028Y-100232786D01*
X103387715Y-100398386D01*
X103294781Y-100580776D01*
X103231522Y-100775465D01*
X103199500Y-100977648D01*
X103199500Y-101182351D01*
X103231522Y-101384534D01*
X103294781Y-101579223D01*
X103387715Y-101761613D01*
X103508028Y-101927213D01*
X103652786Y-102071971D01*
X103807749Y-102184556D01*
X103818390Y-102192287D01*
X103909840Y-102238883D01*
X103911080Y-102239515D01*
X103961876Y-102287490D01*
X103978671Y-102355311D01*
X103956134Y-102421446D01*
X103911080Y-102460485D01*
X103818386Y-102507715D01*
X103652786Y-102628028D01*
X103508028Y-102772786D01*
X103387715Y-102938386D01*
X103294781Y-103120776D01*
X103231522Y-103315465D01*
X103199500Y-103517648D01*
X103199500Y-103722351D01*
X103231522Y-103924534D01*
X103294781Y-104119223D01*
X103387715Y-104301613D01*
X103508028Y-104467213D01*
X103508034Y-104467219D01*
X103652781Y-104611966D01*
X103746452Y-104680021D01*
X103789117Y-104735350D01*
X103795096Y-104804963D01*
X103762491Y-104866759D01*
X103712571Y-104898045D01*
X103630666Y-104925186D01*
X103630663Y-104925187D01*
X103481342Y-105017289D01*
X103357289Y-105141342D01*
X103265187Y-105290663D01*
X103265185Y-105290668D01*
X103261927Y-105300500D01*
X103210001Y-105457203D01*
X103210001Y-105457204D01*
X103210000Y-105457204D01*
X103199500Y-105559983D01*
X103199500Y-106760001D01*
X103199501Y-106760018D01*
X103210000Y-106862796D01*
X103210001Y-106862799D01*
X103265185Y-107029331D01*
X103265187Y-107029336D01*
X103300069Y-107085888D01*
X103357288Y-107178656D01*
X103481344Y-107302712D01*
X103630666Y-107394814D01*
X103797203Y-107449999D01*
X103899991Y-107460500D01*
X105100008Y-107460499D01*
X105202797Y-107449999D01*
X105369334Y-107394814D01*
X105518656Y-107302712D01*
X105642712Y-107178656D01*
X105734814Y-107029334D01*
X105789999Y-106862797D01*
X105800500Y-106760009D01*
X105800499Y-105559992D01*
X105789999Y-105457203D01*
X105789997Y-105457195D01*
X105788965Y-105454080D01*
X105788961Y-105454070D01*
X105778053Y-105421153D01*
X116350970Y-105421153D01*
X116350970Y-105578846D01*
X116381731Y-105733489D01*
X116381734Y-105733501D01*
X116442072Y-105879172D01*
X116442079Y-105879185D01*
X116529680Y-106010288D01*
X116529683Y-106010292D01*
X116641177Y-106121786D01*
X116641181Y-106121789D01*
X116772284Y-106209390D01*
X116772297Y-106209397D01*
X116900141Y-106262351D01*
X116917973Y-106269737D01*
X117072623Y-106300499D01*
X117072626Y-106300500D01*
X117072628Y-106300500D01*
X117230314Y-106300500D01*
X117230315Y-106300499D01*
X117384967Y-106269737D01*
X117530649Y-106209394D01*
X117573892Y-106180500D01*
X117662345Y-106121398D01*
X117680391Y-106115747D01*
X117696301Y-106105523D01*
X117727262Y-106101071D01*
X117729023Y-106100520D01*
X117731236Y-106100500D01*
X117851373Y-106100500D01*
X117918412Y-106120185D01*
X117939054Y-106136819D01*
X118991160Y-107188925D01*
X119024645Y-107250248D01*
X119025096Y-107252414D01*
X119055996Y-107407756D01*
X119055999Y-107407766D01*
X119116337Y-107553437D01*
X119116344Y-107553450D01*
X119203945Y-107684553D01*
X119203948Y-107684557D01*
X119315442Y-107796051D01*
X119315446Y-107796054D01*
X119446549Y-107883655D01*
X119446562Y-107883662D01*
X119592233Y-107944000D01*
X119592238Y-107944002D01*
X119746888Y-107974764D01*
X119746891Y-107974765D01*
X119746893Y-107974765D01*
X119904579Y-107974765D01*
X119904580Y-107974764D01*
X120059232Y-107944002D01*
X120204914Y-107883659D01*
X120336024Y-107796054D01*
X120447524Y-107684554D01*
X120535129Y-107553444D01*
X120595472Y-107407762D01*
X120626235Y-107253107D01*
X120626235Y-107095423D01*
X120626235Y-107095420D01*
X120626234Y-107095418D01*
X120595473Y-106940775D01*
X120595472Y-106940768D01*
X120595470Y-106940763D01*
X120535132Y-106795092D01*
X120535125Y-106795079D01*
X120447524Y-106663976D01*
X120447521Y-106663972D01*
X120336027Y-106552478D01*
X120336023Y-106552475D01*
X120204920Y-106464874D01*
X120204907Y-106464867D01*
X120059236Y-106404529D01*
X120059226Y-106404526D01*
X119903884Y-106373626D01*
X119841973Y-106341241D01*
X119840395Y-106339690D01*
X118639060Y-105138355D01*
X118639058Y-105138352D01*
X118520187Y-105019481D01*
X118520179Y-105019475D01*
X118432498Y-104968853D01*
X118432497Y-104968853D01*
X118383255Y-104940423D01*
X118230527Y-104899499D01*
X118072413Y-104899499D01*
X118064817Y-104899499D01*
X118064801Y-104899500D01*
X117731236Y-104899500D01*
X117664197Y-104879815D01*
X117662345Y-104878602D01*
X117530655Y-104790609D01*
X117530642Y-104790602D01*
X117384971Y-104730264D01*
X117384959Y-104730261D01*
X117230315Y-104699500D01*
X117230312Y-104699500D01*
X117072628Y-104699500D01*
X117072625Y-104699500D01*
X116917980Y-104730261D01*
X116917968Y-104730264D01*
X116772297Y-104790602D01*
X116772284Y-104790609D01*
X116641181Y-104878210D01*
X116641177Y-104878213D01*
X116529683Y-104989707D01*
X116529680Y-104989711D01*
X116442079Y-105120814D01*
X116442072Y-105120827D01*
X116381734Y-105266498D01*
X116381731Y-105266510D01*
X116350970Y-105421153D01*
X105778053Y-105421153D01*
X105747117Y-105327794D01*
X105734814Y-105290666D01*
X105642712Y-105141344D01*
X105518656Y-105017288D01*
X105369334Y-104925186D01*
X105287427Y-104898044D01*
X105229984Y-104858272D01*
X105203161Y-104793756D01*
X105215476Y-104724980D01*
X105253547Y-104680021D01*
X105347219Y-104611966D01*
X105491966Y-104467219D01*
X105491968Y-104467215D01*
X105491971Y-104467213D01*
X105544732Y-104394590D01*
X105612287Y-104301610D01*
X105705220Y-104119219D01*
X105768477Y-103924534D01*
X105800500Y-103722352D01*
X105800500Y-103517648D01*
X105768477Y-103315466D01*
X105705220Y-103120781D01*
X105705218Y-103120778D01*
X105705218Y-103120776D01*
X105666814Y-103045405D01*
X105612287Y-102938390D01*
X105604556Y-102927749D01*
X105491971Y-102772786D01*
X105347213Y-102628028D01*
X105181614Y-102507715D01*
X105143749Y-102488422D01*
X105088917Y-102460483D01*
X105038123Y-102412511D01*
X105021328Y-102344690D01*
X105043865Y-102278555D01*
X105088917Y-102239516D01*
X105181610Y-102192287D01*
X105202770Y-102176913D01*
X105347213Y-102071971D01*
X105347215Y-102071968D01*
X105347219Y-102071966D01*
X105491966Y-101927219D01*
X105491968Y-101927215D01*
X105491971Y-101927213D01*
X105572066Y-101816970D01*
X105612287Y-101761610D01*
X105705220Y-101579219D01*
X105768477Y-101384534D01*
X105800500Y-101182352D01*
X105800500Y-100977648D01*
X105768477Y-100775466D01*
X105754840Y-100733497D01*
X105705218Y-100580776D01*
X105666814Y-100505405D01*
X105612287Y-100398390D01*
X105604556Y-100387749D01*
X105491971Y-100232786D01*
X105347213Y-100088028D01*
X105181614Y-99967715D01*
X105143749Y-99948422D01*
X105088917Y-99920483D01*
X105038123Y-99872511D01*
X105021328Y-99804690D01*
X105043865Y-99738555D01*
X105088917Y-99699516D01*
X105181610Y-99652287D01*
X105202770Y-99636913D01*
X105347213Y-99531971D01*
X105347215Y-99531968D01*
X105347219Y-99531966D01*
X105491966Y-99387219D01*
X105491968Y-99387215D01*
X105491971Y-99387213D01*
X105607788Y-99227802D01*
X105612287Y-99221610D01*
X105705220Y-99039219D01*
X105768477Y-98844534D01*
X105800500Y-98642352D01*
X105800500Y-98437648D01*
X105783396Y-98329657D01*
X105768477Y-98235465D01*
X105735451Y-98133822D01*
X105705220Y-98040781D01*
X105705218Y-98040778D01*
X105705218Y-98040776D01*
X105639101Y-97911016D01*
X105612287Y-97858390D01*
X105604556Y-97847749D01*
X105491971Y-97692786D01*
X105347213Y-97548028D01*
X105181614Y-97427715D01*
X105143749Y-97408422D01*
X105088917Y-97380483D01*
X105038123Y-97332511D01*
X105021328Y-97264690D01*
X105043865Y-97198555D01*
X105088917Y-97159516D01*
X105181610Y-97112287D01*
X105202770Y-97096913D01*
X105347213Y-96991971D01*
X105347215Y-96991968D01*
X105347219Y-96991966D01*
X105491966Y-96847219D01*
X105491968Y-96847215D01*
X105491971Y-96847213D01*
X105544732Y-96774590D01*
X105612287Y-96681610D01*
X105705220Y-96499219D01*
X105768477Y-96304534D01*
X105800500Y-96102352D01*
X105800500Y-95897648D01*
X105781100Y-95775164D01*
X105768477Y-95695465D01*
X105730404Y-95578289D01*
X105705220Y-95500781D01*
X105705218Y-95500778D01*
X105705218Y-95500776D01*
X105664315Y-95420500D01*
X105612287Y-95318390D01*
X105584217Y-95279754D01*
X105491971Y-95152786D01*
X105347213Y-95008028D01*
X105181614Y-94887715D01*
X105143749Y-94868422D01*
X105088917Y-94840483D01*
X105038123Y-94792511D01*
X105021328Y-94724690D01*
X105043865Y-94658555D01*
X105088917Y-94619516D01*
X105181610Y-94572287D01*
X105202770Y-94556913D01*
X105347213Y-94451971D01*
X105347215Y-94451968D01*
X105347219Y-94451966D01*
X105491966Y-94307219D01*
X105491968Y-94307215D01*
X105491971Y-94307213D01*
X105574138Y-94194118D01*
X105612287Y-94141610D01*
X105705220Y-93959219D01*
X105766786Y-93769738D01*
X105768476Y-93764538D01*
X105768476Y-93764537D01*
X105768477Y-93764534D01*
X105800500Y-93562352D01*
X105800500Y-93357648D01*
X105772969Y-93183825D01*
X105768477Y-93155465D01*
X105726677Y-93026820D01*
X105705220Y-92960781D01*
X105705218Y-92960778D01*
X105705218Y-92960776D01*
X105662103Y-92876159D01*
X105648057Y-92848592D01*
X105612287Y-92778390D01*
X105570084Y-92720302D01*
X105491971Y-92612786D01*
X105347213Y-92468028D01*
X105181614Y-92347715D01*
X105143749Y-92328422D01*
X105088917Y-92300483D01*
X105038123Y-92252511D01*
X105021328Y-92184690D01*
X105043865Y-92118555D01*
X105088917Y-92079516D01*
X105181610Y-92032287D01*
X105240404Y-91989571D01*
X105347213Y-91911971D01*
X105347215Y-91911968D01*
X105347219Y-91911966D01*
X105491966Y-91767219D01*
X105491968Y-91767215D01*
X105491971Y-91767213D01*
X105544732Y-91694590D01*
X105612287Y-91601610D01*
X105705220Y-91419219D01*
X105768477Y-91224534D01*
X105800500Y-91022352D01*
X105800500Y-90817648D01*
X105768477Y-90615466D01*
X105705220Y-90420781D01*
X105705218Y-90420778D01*
X105705218Y-90420776D01*
X105666680Y-90345143D01*
X105612287Y-90238390D01*
X105577130Y-90190000D01*
X105491971Y-90072786D01*
X105347213Y-89928028D01*
X105181613Y-89807715D01*
X105181612Y-89807714D01*
X105181610Y-89807713D01*
X105100731Y-89766503D01*
X104999223Y-89714781D01*
X104804534Y-89651522D01*
X104629995Y-89623878D01*
X104602352Y-89619500D01*
X104397648Y-89619500D01*
X104389308Y-89620821D01*
X104195465Y-89651522D01*
X104000776Y-89714781D01*
X103818386Y-89807715D01*
X103652786Y-89928028D01*
X103508028Y-90072786D01*
X103387715Y-90238386D01*
X103294781Y-90420776D01*
X103231522Y-90615465D01*
X103199500Y-90817648D01*
X98180500Y-90817648D01*
X98148477Y-90615466D01*
X98085220Y-90420781D01*
X98085218Y-90420778D01*
X98085218Y-90420776D01*
X98046680Y-90345143D01*
X97992287Y-90238390D01*
X97957130Y-90190000D01*
X97871971Y-90072786D01*
X97727213Y-89928028D01*
X97561613Y-89807715D01*
X97561612Y-89807714D01*
X97561610Y-89807713D01*
X97480731Y-89766503D01*
X97379223Y-89714781D01*
X97184534Y-89651522D01*
X97009995Y-89623878D01*
X96982352Y-89619500D01*
X96777648Y-89619500D01*
X96769308Y-89620821D01*
X96575465Y-89651522D01*
X96380776Y-89714781D01*
X96198386Y-89807715D01*
X96032786Y-89928028D01*
X95888028Y-90072786D01*
X95767715Y-90238386D01*
X95674781Y-90420776D01*
X95611522Y-90615465D01*
X95579500Y-90817648D01*
X83750500Y-90817648D01*
X83750500Y-85604983D01*
X89589500Y-85604983D01*
X89589500Y-87395001D01*
X89589501Y-87395018D01*
X89600000Y-87497796D01*
X89600001Y-87497799D01*
X89637584Y-87611216D01*
X89655186Y-87664334D01*
X89747288Y-87813656D01*
X89871344Y-87937712D01*
X90020666Y-88029814D01*
X90187203Y-88084999D01*
X90289991Y-88095500D01*
X91630008Y-88095499D01*
X91732797Y-88084999D01*
X91899334Y-88029814D01*
X92048656Y-87937712D01*
X92172712Y-87813656D01*
X92264814Y-87664334D01*
X92264817Y-87664322D01*
X92265129Y-87663657D01*
X92265469Y-87663269D01*
X92268605Y-87658187D01*
X92269473Y-87658722D01*
X92311299Y-87611216D01*
X92378491Y-87592060D01*
X92445373Y-87612272D01*
X92465195Y-87628375D01*
X92607179Y-87770359D01*
X92781701Y-87897157D01*
X92973911Y-87995092D01*
X93179074Y-88061754D01*
X93258973Y-88074408D01*
X93392134Y-88095500D01*
X93392139Y-88095500D01*
X93607866Y-88095500D01*
X93731087Y-88075983D01*
X93820926Y-88061754D01*
X94026089Y-87995092D01*
X94218299Y-87897157D01*
X94392821Y-87770359D01*
X94545359Y-87617821D01*
X94672157Y-87443299D01*
X94770092Y-87251089D01*
X94836754Y-87045926D01*
X94851752Y-86951230D01*
X94870500Y-86832866D01*
X94870500Y-86167133D01*
X94845658Y-86010292D01*
X94836754Y-85954074D01*
X94770092Y-85748911D01*
X94672157Y-85556701D01*
X94545359Y-85382179D01*
X94392821Y-85229641D01*
X94218299Y-85102843D01*
X94026089Y-85004908D01*
X93820926Y-84938246D01*
X93820924Y-84938245D01*
X93820922Y-84938245D01*
X93607866Y-84904500D01*
X93607861Y-84904500D01*
X93392139Y-84904500D01*
X93392134Y-84904500D01*
X93179077Y-84938245D01*
X92973908Y-85004909D01*
X92781700Y-85102843D01*
X92607180Y-85229640D01*
X92465195Y-85371625D01*
X92403872Y-85405109D01*
X92334180Y-85400125D01*
X92278247Y-85358253D01*
X92265132Y-85336348D01*
X92264815Y-85335669D01*
X92264814Y-85335668D01*
X92264814Y-85335666D01*
X92172712Y-85186344D01*
X92048656Y-85062288D01*
X91899334Y-84970186D01*
X91732797Y-84915001D01*
X91732795Y-84915000D01*
X91630010Y-84904500D01*
X90289998Y-84904500D01*
X90289981Y-84904501D01*
X90187203Y-84915000D01*
X90187200Y-84915001D01*
X90020668Y-84970185D01*
X90020663Y-84970187D01*
X89871342Y-85062289D01*
X89747289Y-85186342D01*
X89655187Y-85335663D01*
X89655186Y-85335666D01*
X89600001Y-85502203D01*
X89600001Y-85502204D01*
X89600000Y-85502204D01*
X89589500Y-85604983D01*
X83750500Y-85604983D01*
X83750500Y-75920013D01*
X87630000Y-75920013D01*
X87630000Y-76565000D01*
X88457291Y-76565000D01*
X88445548Y-76585339D01*
X88405000Y-76736667D01*
X88405000Y-76893333D01*
X88445548Y-77044661D01*
X88457291Y-77065000D01*
X87630001Y-77065000D01*
X87630001Y-77709986D01*
X87640494Y-77812697D01*
X87695641Y-77979119D01*
X87695643Y-77979124D01*
X87787684Y-78128345D01*
X87911654Y-78252315D01*
X88060875Y-78344356D01*
X88060880Y-78344358D01*
X88227302Y-78399505D01*
X88227309Y-78399506D01*
X88330019Y-78409999D01*
X88749999Y-78409999D01*
X88750000Y-78409998D01*
X88750000Y-77357709D01*
X88770339Y-77369452D01*
X88921667Y-77410000D01*
X89078333Y-77410000D01*
X89229661Y-77369452D01*
X89250000Y-77357709D01*
X89250000Y-78409999D01*
X89669972Y-78409999D01*
X89669986Y-78409998D01*
X89772697Y-78399505D01*
X89939119Y-78344358D01*
X89939124Y-78344356D01*
X90088345Y-78252315D01*
X90212315Y-78128345D01*
X90304354Y-77979127D01*
X90304745Y-77978289D01*
X90305167Y-77977809D01*
X90308149Y-77972975D01*
X90308974Y-77973484D01*
X90350910Y-77925843D01*
X90418100Y-77906681D01*
X90484984Y-77926887D01*
X90504816Y-77942996D01*
X90647179Y-78085359D01*
X90821701Y-78212157D01*
X91013911Y-78310092D01*
X91219074Y-78376754D01*
X91298973Y-78389408D01*
X91432134Y-78410500D01*
X91432139Y-78410500D01*
X91647866Y-78410500D01*
X91766230Y-78391752D01*
X91860926Y-78376754D01*
X92066089Y-78310092D01*
X92258299Y-78212157D01*
X92432821Y-78085359D01*
X92585359Y-77932821D01*
X92695008Y-77781902D01*
X102749500Y-77781902D01*
X102749500Y-78018097D01*
X102786446Y-78251368D01*
X102859433Y-78475996D01*
X102966657Y-78686433D01*
X103105483Y-78877510D01*
X103272490Y-79044517D01*
X103463567Y-79183343D01*
X103553286Y-79229057D01*
X103674003Y-79290566D01*
X103674005Y-79290566D01*
X103674008Y-79290568D01*
X103794412Y-79329689D01*
X103898631Y-79363553D01*
X104131903Y-79400500D01*
X104131908Y-79400500D01*
X104368097Y-79400500D01*
X104601368Y-79363553D01*
X104825992Y-79290568D01*
X105036433Y-79183343D01*
X105227510Y-79044517D01*
X105394517Y-78877510D01*
X105533343Y-78686433D01*
X105593583Y-78568204D01*
X105641558Y-78517409D01*
X105704068Y-78500500D01*
X109295932Y-78500500D01*
X109362971Y-78520185D01*
X109406416Y-78568203D01*
X109466657Y-78686433D01*
X109605483Y-78877510D01*
X109772490Y-79044517D01*
X109963567Y-79183343D01*
X110115522Y-79260767D01*
X110134361Y-79278560D01*
X110155665Y-79293307D01*
X110160931Y-79303654D01*
X110166317Y-79308741D01*
X110173719Y-79323634D01*
X110176872Y-79331216D01*
X110190423Y-79381785D01*
X110213155Y-79421158D01*
X110217175Y-79428121D01*
X110217176Y-79428123D01*
X110269477Y-79518712D01*
X110269481Y-79518717D01*
X110363181Y-79612417D01*
X110396666Y-79673740D01*
X110399500Y-79700098D01*
X110399500Y-83913330D01*
X110399499Y-83913348D01*
X110399499Y-84079054D01*
X110399498Y-84079054D01*
X110399499Y-84079057D01*
X110440423Y-84231785D01*
X110440424Y-84231787D01*
X110440423Y-84231787D01*
X110454710Y-84256531D01*
X110454711Y-84256533D01*
X110519475Y-84368709D01*
X110519481Y-84368717D01*
X110638349Y-84487585D01*
X110638355Y-84487590D01*
X118079013Y-91928248D01*
X118112498Y-91989571D01*
X118107514Y-92059263D01*
X118065642Y-92115196D01*
X118010731Y-92138402D01*
X117898076Y-92156245D01*
X117692908Y-92222909D01*
X117500700Y-92320843D01*
X117326180Y-92447640D01*
X117183816Y-92590004D01*
X117122493Y-92623488D01*
X117052801Y-92618504D01*
X116996868Y-92576632D01*
X116983748Y-92554716D01*
X116983356Y-92553876D01*
X116891315Y-92404654D01*
X116767345Y-92280684D01*
X116618124Y-92188643D01*
X116618119Y-92188641D01*
X116451697Y-92133494D01*
X116451690Y-92133493D01*
X116348986Y-92123000D01*
X115929000Y-92123000D01*
X115929000Y-93175290D01*
X115908661Y-93163548D01*
X115757333Y-93123000D01*
X115600667Y-93123000D01*
X115449339Y-93163548D01*
X115429000Y-93175290D01*
X115429000Y-92123000D01*
X115009028Y-92123000D01*
X115009012Y-92123001D01*
X114906302Y-92133494D01*
X114739880Y-92188641D01*
X114739875Y-92188643D01*
X114590654Y-92280684D01*
X114466684Y-92404654D01*
X114374643Y-92553875D01*
X114374641Y-92553880D01*
X114319494Y-92720302D01*
X114319493Y-92720309D01*
X114309000Y-92823013D01*
X114309000Y-93468000D01*
X115136291Y-93468000D01*
X115124548Y-93488339D01*
X115084000Y-93639667D01*
X115084000Y-93796333D01*
X115124548Y-93947661D01*
X115136291Y-93968000D01*
X114309001Y-93968000D01*
X114309001Y-94612986D01*
X114319494Y-94715697D01*
X114374641Y-94882119D01*
X114374643Y-94882124D01*
X114466684Y-95031345D01*
X114590654Y-95155315D01*
X114739875Y-95247356D01*
X114739880Y-95247358D01*
X114906302Y-95302505D01*
X114906309Y-95302506D01*
X115009019Y-95312999D01*
X115428999Y-95312999D01*
X115429000Y-95312998D01*
X115429000Y-94260709D01*
X115449339Y-94272452D01*
X115600667Y-94313000D01*
X115757333Y-94313000D01*
X115908661Y-94272452D01*
X115929000Y-94260709D01*
X115929000Y-95312999D01*
X116348972Y-95312999D01*
X116348986Y-95312998D01*
X116451697Y-95302505D01*
X116618119Y-95247358D01*
X116618124Y-95247356D01*
X116767345Y-95155315D01*
X116891315Y-95031345D01*
X116983354Y-94882127D01*
X116983745Y-94881289D01*
X116984167Y-94880809D01*
X116987149Y-94875975D01*
X116987974Y-94876484D01*
X117029910Y-94828843D01*
X117097100Y-94809681D01*
X117163984Y-94829887D01*
X117183816Y-94845996D01*
X117326179Y-94988359D01*
X117500701Y-95115157D01*
X117692911Y-95213092D01*
X117898074Y-95279754D01*
X117977973Y-95292408D01*
X118111134Y-95313500D01*
X118111139Y-95313500D01*
X118326866Y-95313500D01*
X118445230Y-95294752D01*
X118539926Y-95279754D01*
X118745089Y-95213092D01*
X118937299Y-95115157D01*
X119111821Y-94988359D01*
X119264359Y-94835821D01*
X119391157Y-94661299D01*
X119489092Y-94469089D01*
X119555754Y-94263926D01*
X119573194Y-94153816D01*
X119589500Y-94050866D01*
X119589500Y-93738097D01*
X119609185Y-93671058D01*
X119661989Y-93625303D01*
X119731147Y-93615359D01*
X119794703Y-93644384D01*
X119801181Y-93650416D01*
X126665425Y-100514660D01*
X126698910Y-100575983D01*
X126699361Y-100578149D01*
X126730261Y-100733491D01*
X126730264Y-100733501D01*
X126790602Y-100879172D01*
X126790609Y-100879185D01*
X126878210Y-101010288D01*
X126878213Y-101010292D01*
X126989707Y-101121786D01*
X126989711Y-101121789D01*
X127120814Y-101209390D01*
X127120827Y-101209397D01*
X127173265Y-101231117D01*
X127266503Y-101269737D01*
X127421153Y-101300499D01*
X127421156Y-101300500D01*
X127421158Y-101300500D01*
X127578844Y-101300500D01*
X127578845Y-101300499D01*
X127733497Y-101269737D01*
X127879179Y-101209394D01*
X128010289Y-101121789D01*
X128121789Y-101010289D01*
X128209394Y-100879179D01*
X128269737Y-100733497D01*
X128300500Y-100578842D01*
X128300500Y-100421158D01*
X128300500Y-100421155D01*
X128300499Y-100421153D01*
X128269738Y-100266510D01*
X128269737Y-100266503D01*
X128218509Y-100142826D01*
X128209397Y-100120827D01*
X128209390Y-100120814D01*
X128121789Y-99989711D01*
X128121786Y-99989707D01*
X128010292Y-99878213D01*
X128010288Y-99878210D01*
X127879185Y-99790609D01*
X127879172Y-99790602D01*
X127733501Y-99730264D01*
X127733491Y-99730261D01*
X127578151Y-99699362D01*
X127516241Y-99666977D01*
X127514662Y-99665426D01*
X111636819Y-83787583D01*
X111603334Y-83726260D01*
X111600500Y-83699902D01*
X111600500Y-79320942D01*
X111597636Y-79310256D01*
X111597635Y-79310252D01*
X111585914Y-79266510D01*
X111581255Y-79249120D01*
X111582918Y-79179271D01*
X111622080Y-79121408D01*
X111628129Y-79116721D01*
X111727510Y-79044517D01*
X111894517Y-78877510D01*
X112033343Y-78686433D01*
X112140568Y-78475992D01*
X112213553Y-78251368D01*
X112233038Y-78128345D01*
X112250500Y-78018097D01*
X112250500Y-77781902D01*
X112218338Y-77578846D01*
X112213553Y-77548632D01*
X112172547Y-77422433D01*
X112170553Y-77352593D01*
X112202796Y-77296437D01*
X115480520Y-74018716D01*
X115559577Y-73881784D01*
X115600501Y-73729057D01*
X115600501Y-73570942D01*
X115600501Y-73563347D01*
X115600500Y-73563329D01*
X115600500Y-64300097D01*
X115620185Y-64233058D01*
X115636819Y-64212416D01*
X115793082Y-64056153D01*
X116011372Y-63837863D01*
X116072692Y-63804380D01*
X116142383Y-63809364D01*
X116198317Y-63851235D01*
X116222734Y-63916700D01*
X116220668Y-63949736D01*
X116199500Y-64056158D01*
X116199500Y-64213846D01*
X116230261Y-64368489D01*
X116230264Y-64368501D01*
X116290602Y-64514172D01*
X116290609Y-64514185D01*
X116378602Y-64645874D01*
X116399480Y-64712551D01*
X116399500Y-64714765D01*
X116399500Y-87413330D01*
X116399499Y-87413348D01*
X116399499Y-87579054D01*
X116399498Y-87579054D01*
X116422350Y-87664336D01*
X116440423Y-87731785D01*
X116460468Y-87766503D01*
X116519480Y-87868716D01*
X116631284Y-87980520D01*
X116631285Y-87980521D01*
X116650264Y-87999500D01*
X116665425Y-88014660D01*
X116698911Y-88075983D01*
X116699362Y-88078151D01*
X116730261Y-88233491D01*
X116730264Y-88233501D01*
X116790602Y-88379172D01*
X116790609Y-88379185D01*
X116878210Y-88510288D01*
X116878213Y-88510292D01*
X116989707Y-88621786D01*
X116989711Y-88621789D01*
X117120814Y-88709390D01*
X117120827Y-88709397D01*
X117257010Y-88765805D01*
X117266503Y-88769737D01*
X117378773Y-88792069D01*
X117421153Y-88800499D01*
X117421156Y-88800500D01*
X117421158Y-88800500D01*
X117578844Y-88800500D01*
X117578845Y-88800499D01*
X117733497Y-88769737D01*
X117789911Y-88746369D01*
X117821490Y-88742974D01*
X117852848Y-88737902D01*
X117855979Y-88739266D01*
X117859377Y-88738901D01*
X117887784Y-88753120D01*
X117916904Y-88765805D01*
X117919512Y-88769001D01*
X117921856Y-88770175D01*
X117940482Y-88792069D01*
X117943895Y-88797179D01*
X117943917Y-88797233D01*
X117966596Y-88831174D01*
X117966949Y-88831703D01*
X117967003Y-88831784D01*
X117967005Y-88831786D01*
X118012590Y-88900010D01*
X118012591Y-88900011D01*
X131336181Y-102223600D01*
X131369666Y-102284923D01*
X131372500Y-102311281D01*
X131372500Y-114460642D01*
X131352815Y-114527681D01*
X131351602Y-114529533D01*
X131290609Y-114620814D01*
X131290602Y-114620827D01*
X131230264Y-114766498D01*
X131230261Y-114766510D01*
X131199500Y-114921153D01*
X131199500Y-115078846D01*
X131230261Y-115233489D01*
X131230264Y-115233501D01*
X131290602Y-115379172D01*
X131290609Y-115379185D01*
X131378210Y-115510288D01*
X131378213Y-115510292D01*
X131489707Y-115621786D01*
X131489711Y-115621789D01*
X131620814Y-115709390D01*
X131620827Y-115709397D01*
X131758683Y-115766498D01*
X131766503Y-115769737D01*
X131921153Y-115800499D01*
X131921156Y-115800500D01*
X131921158Y-115800500D01*
X132078844Y-115800500D01*
X132078845Y-115800499D01*
X132233497Y-115769737D01*
X132379179Y-115709394D01*
X132510289Y-115621789D01*
X132621789Y-115510289D01*
X132709394Y-115379179D01*
X132769737Y-115233497D01*
X132800500Y-115078842D01*
X132800500Y-114921158D01*
X132800500Y-114921155D01*
X132800499Y-114921153D01*
X132769738Y-114766510D01*
X132769737Y-114766503D01*
X132769735Y-114766498D01*
X132709397Y-114620827D01*
X132709390Y-114620814D01*
X132648398Y-114529533D01*
X132627520Y-114462855D01*
X132627500Y-114460642D01*
X132627500Y-105043847D01*
X132647185Y-104976808D01*
X132699989Y-104931053D01*
X132769147Y-104921109D01*
X132832703Y-104950134D01*
X132854602Y-104974956D01*
X132878210Y-105010289D01*
X132989707Y-105121786D01*
X132989711Y-105121789D01*
X133120814Y-105209390D01*
X133120827Y-105209397D01*
X133258683Y-105266498D01*
X133266503Y-105269737D01*
X133371730Y-105290668D01*
X133421153Y-105300499D01*
X133421156Y-105300500D01*
X133421158Y-105300500D01*
X133578844Y-105300500D01*
X133578845Y-105300499D01*
X133733497Y-105269737D01*
X133879179Y-105209394D01*
X133970466Y-105148398D01*
X134037143Y-105127520D01*
X134039357Y-105127500D01*
X134944060Y-105127500D01*
X135011099Y-105147185D01*
X135031742Y-105163820D01*
X135079381Y-105211460D01*
X135079385Y-105211463D01*
X135210488Y-105299064D01*
X135210501Y-105299071D01*
X135356172Y-105359409D01*
X135356177Y-105359411D01*
X135510827Y-105390173D01*
X135510830Y-105390174D01*
X135510832Y-105390174D01*
X135668517Y-105390174D01*
X135686151Y-105386666D01*
X135751309Y-105373705D01*
X135820899Y-105379932D01*
X135876077Y-105422794D01*
X135899322Y-105488683D01*
X135899500Y-105495322D01*
X135899500Y-112420234D01*
X135879815Y-112487273D01*
X135878602Y-112489125D01*
X135790609Y-112620814D01*
X135790602Y-112620827D01*
X135730264Y-112766498D01*
X135730261Y-112766510D01*
X135699500Y-112921153D01*
X135699500Y-113078846D01*
X135730261Y-113233489D01*
X135730264Y-113233501D01*
X135790602Y-113379172D01*
X135790609Y-113379185D01*
X135878210Y-113510288D01*
X135878213Y-113510292D01*
X135989707Y-113621786D01*
X135989711Y-113621789D01*
X136120814Y-113709390D01*
X136120827Y-113709397D01*
X136258683Y-113766498D01*
X136266503Y-113769737D01*
X136421153Y-113800499D01*
X136421156Y-113800500D01*
X136421158Y-113800500D01*
X136578844Y-113800500D01*
X136578845Y-113800499D01*
X136733497Y-113769737D01*
X136879179Y-113709394D01*
X137010289Y-113621789D01*
X137121789Y-113510289D01*
X137125280Y-113505064D01*
X137178887Y-113460256D01*
X137248211Y-113451543D01*
X137311241Y-113481692D01*
X137346316Y-113535628D01*
X137359431Y-113575992D01*
X137427405Y-113709397D01*
X137466657Y-113786433D01*
X137605483Y-113977510D01*
X137772490Y-114144517D01*
X137963567Y-114283343D01*
X138062991Y-114334002D01*
X138174003Y-114390566D01*
X138174005Y-114390566D01*
X138174008Y-114390568D01*
X138294412Y-114429689D01*
X138398631Y-114463553D01*
X138631903Y-114500500D01*
X138631908Y-114500500D01*
X138868097Y-114500500D01*
X139101368Y-114463553D01*
X139110327Y-114460642D01*
X139325992Y-114390568D01*
X139536433Y-114283343D01*
X139727510Y-114144517D01*
X139894517Y-113977510D01*
X140033343Y-113786433D01*
X140140568Y-113575992D01*
X140213553Y-113351368D01*
X140223177Y-113290606D01*
X140250500Y-113118097D01*
X140250500Y-112881902D01*
X143749500Y-112881902D01*
X143749500Y-113118097D01*
X143786446Y-113351368D01*
X143859433Y-113575996D01*
X143927405Y-113709397D01*
X143966657Y-113786433D01*
X144105483Y-113977510D01*
X144272490Y-114144517D01*
X144463567Y-114283343D01*
X144562991Y-114334002D01*
X144674003Y-114390566D01*
X144674005Y-114390566D01*
X144674008Y-114390568D01*
X144794412Y-114429689D01*
X144898631Y-114463553D01*
X145131903Y-114500500D01*
X145131908Y-114500500D01*
X145368097Y-114500500D01*
X145601368Y-114463553D01*
X145610327Y-114460642D01*
X145825992Y-114390568D01*
X146036433Y-114283343D01*
X146227510Y-114144517D01*
X146394517Y-113977510D01*
X146533343Y-113786433D01*
X146640568Y-113575992D01*
X146713553Y-113351368D01*
X146723177Y-113290606D01*
X146750500Y-113118097D01*
X146750500Y-112881902D01*
X146713553Y-112648631D01*
X146672145Y-112521191D01*
X146640568Y-112424008D01*
X146640566Y-112424005D01*
X146640566Y-112424003D01*
X146533342Y-112213566D01*
X146394517Y-112022490D01*
X146227510Y-111855483D01*
X146036433Y-111716657D01*
X145825996Y-111609433D01*
X145601368Y-111536446D01*
X145368097Y-111499500D01*
X145368092Y-111499500D01*
X145131908Y-111499500D01*
X145131903Y-111499500D01*
X144898631Y-111536446D01*
X144674003Y-111609433D01*
X144463566Y-111716657D01*
X144354550Y-111795862D01*
X144272490Y-111855483D01*
X144272488Y-111855485D01*
X144272487Y-111855485D01*
X144105485Y-112022487D01*
X144105485Y-112022488D01*
X144105483Y-112022490D01*
X144045862Y-112104550D01*
X143966657Y-112213566D01*
X143859433Y-112424003D01*
X143786446Y-112648631D01*
X143749500Y-112881902D01*
X140250500Y-112881902D01*
X140213553Y-112648631D01*
X140172145Y-112521191D01*
X140140568Y-112424008D01*
X140140566Y-112424005D01*
X140140566Y-112424003D01*
X140033342Y-112213566D01*
X139894517Y-112022490D01*
X139727510Y-111855483D01*
X139536433Y-111716657D01*
X139325996Y-111609433D01*
X139101368Y-111536446D01*
X138868097Y-111499500D01*
X138868092Y-111499500D01*
X138631908Y-111499500D01*
X138631903Y-111499500D01*
X138398631Y-111536446D01*
X138174003Y-111609433D01*
X137963566Y-111716657D01*
X137854550Y-111795862D01*
X137772490Y-111855483D01*
X137772488Y-111855485D01*
X137772487Y-111855485D01*
X137605485Y-112022487D01*
X137605485Y-112022488D01*
X137605483Y-112022490D01*
X137545862Y-112104550D01*
X137466657Y-112213566D01*
X137359432Y-112424006D01*
X137346316Y-112464372D01*
X137337845Y-112476758D01*
X137333875Y-112491228D01*
X137318524Y-112505014D01*
X137306877Y-112522047D01*
X137293054Y-112527887D01*
X137281892Y-112537913D01*
X137261524Y-112541211D01*
X137242518Y-112549243D01*
X137227733Y-112546684D01*
X137212921Y-112549083D01*
X137194002Y-112540845D01*
X137173672Y-112537327D01*
X137161568Y-112526724D01*
X137148860Y-112521191D01*
X137125279Y-112494934D01*
X137121789Y-112489711D01*
X137121391Y-112489115D01*
X137100520Y-112422436D01*
X137100500Y-112420234D01*
X137100500Y-109060365D01*
X137120185Y-108993326D01*
X137172989Y-108947571D01*
X137242147Y-108937627D01*
X137305703Y-108966652D01*
X137342431Y-109022047D01*
X137359897Y-109075802D01*
X137467087Y-109286174D01*
X137527338Y-109369104D01*
X137527340Y-109369105D01*
X138226212Y-108670233D01*
X138237482Y-108712292D01*
X138309890Y-108837708D01*
X138412292Y-108940110D01*
X138537708Y-109012518D01*
X138579765Y-109023787D01*
X137880893Y-109722658D01*
X137963828Y-109782914D01*
X138174197Y-109890102D01*
X138398752Y-109963065D01*
X138398751Y-109963065D01*
X138631948Y-110000000D01*
X138868052Y-110000000D01*
X139101247Y-109963065D01*
X139325802Y-109890102D01*
X139536163Y-109782918D01*
X139536169Y-109782914D01*
X139619104Y-109722658D01*
X139619105Y-109722658D01*
X138920233Y-109023787D01*
X138962292Y-109012518D01*
X139087708Y-108940110D01*
X139190110Y-108837708D01*
X139262518Y-108712292D01*
X139273787Y-108670233D01*
X139972658Y-109369105D01*
X139972658Y-109369104D01*
X140032914Y-109286169D01*
X140032918Y-109286163D01*
X140140102Y-109075802D01*
X140213065Y-108851247D01*
X140250000Y-108618052D01*
X140250000Y-108381947D01*
X143750000Y-108381947D01*
X143750000Y-108618052D01*
X143786934Y-108851247D01*
X143859897Y-109075802D01*
X143967087Y-109286174D01*
X144027338Y-109369104D01*
X144027340Y-109369105D01*
X144726212Y-108670233D01*
X144737482Y-108712292D01*
X144809890Y-108837708D01*
X144912292Y-108940110D01*
X145037708Y-109012518D01*
X145079765Y-109023787D01*
X144380893Y-109722658D01*
X144463828Y-109782914D01*
X144674197Y-109890102D01*
X144898752Y-109963065D01*
X144898751Y-109963065D01*
X145131948Y-110000000D01*
X145368052Y-110000000D01*
X145601247Y-109963065D01*
X145825802Y-109890102D01*
X146036163Y-109782918D01*
X146036169Y-109782914D01*
X146119104Y-109722658D01*
X146119105Y-109722658D01*
X145420233Y-109023787D01*
X145462292Y-109012518D01*
X145587708Y-108940110D01*
X145690110Y-108837708D01*
X145762518Y-108712292D01*
X145773787Y-108670234D01*
X146472658Y-109369105D01*
X146472658Y-109369104D01*
X146532914Y-109286169D01*
X146532918Y-109286163D01*
X146640102Y-109075802D01*
X146713065Y-108851247D01*
X146750000Y-108618052D01*
X146750000Y-108381947D01*
X146713065Y-108148752D01*
X146640102Y-107924197D01*
X146532914Y-107713828D01*
X146472658Y-107630894D01*
X146472658Y-107630893D01*
X145773787Y-108329765D01*
X145762518Y-108287708D01*
X145690110Y-108162292D01*
X145587708Y-108059890D01*
X145462292Y-107987482D01*
X145420234Y-107976212D01*
X146119105Y-107277340D01*
X146119104Y-107277338D01*
X146036174Y-107217087D01*
X145825802Y-107109897D01*
X145601247Y-107036934D01*
X145601248Y-107036934D01*
X145368052Y-107000000D01*
X145131948Y-107000000D01*
X144898752Y-107036934D01*
X144674197Y-107109897D01*
X144463830Y-107217084D01*
X144380894Y-107277340D01*
X145079766Y-107976212D01*
X145037708Y-107987482D01*
X144912292Y-108059890D01*
X144809890Y-108162292D01*
X144737482Y-108287708D01*
X144726212Y-108329766D01*
X144027340Y-107630894D01*
X143967084Y-107713830D01*
X143859897Y-107924197D01*
X143786934Y-108148752D01*
X143750000Y-108381947D01*
X140250000Y-108381947D01*
X140213065Y-108148752D01*
X140140102Y-107924197D01*
X140032914Y-107713828D01*
X139972658Y-107630894D01*
X139972658Y-107630893D01*
X139273787Y-108329765D01*
X139262518Y-108287708D01*
X139190110Y-108162292D01*
X139087708Y-108059890D01*
X138962292Y-107987482D01*
X138920234Y-107976212D01*
X139619105Y-107277340D01*
X139619104Y-107277339D01*
X139536174Y-107217087D01*
X139325802Y-107109897D01*
X139101247Y-107036934D01*
X139101248Y-107036934D01*
X138868052Y-107000000D01*
X138631948Y-107000000D01*
X138398752Y-107036934D01*
X138174197Y-107109897D01*
X137963830Y-107217084D01*
X137880894Y-107277340D01*
X138579766Y-107976212D01*
X138537708Y-107987482D01*
X138412292Y-108059890D01*
X138309890Y-108162292D01*
X138237482Y-108287708D01*
X138226212Y-108329766D01*
X137527340Y-107630894D01*
X137467084Y-107713830D01*
X137359897Y-107924195D01*
X137342431Y-107977953D01*
X137302993Y-108035628D01*
X137238634Y-108062826D01*
X137169788Y-108050911D01*
X137118312Y-108003667D01*
X137100500Y-107939634D01*
X137100500Y-105917847D01*
X137120185Y-105850808D01*
X137172989Y-105805053D01*
X137200309Y-105796230D01*
X137244287Y-105787482D01*
X137333497Y-105769737D01*
X137479179Y-105709394D01*
X137610289Y-105621789D01*
X137721789Y-105510289D01*
X137809394Y-105379179D01*
X137869737Y-105233497D01*
X137900500Y-105078842D01*
X137900500Y-104921158D01*
X137900500Y-104921155D01*
X137900499Y-104921153D01*
X137896192Y-104899499D01*
X137869737Y-104766503D01*
X137856066Y-104733497D01*
X137809397Y-104620827D01*
X137809390Y-104620814D01*
X137721789Y-104489711D01*
X137721786Y-104489707D01*
X137636819Y-104404740D01*
X137603334Y-104343417D01*
X137600500Y-104317059D01*
X137600500Y-92417847D01*
X137620185Y-92350808D01*
X137672989Y-92305053D01*
X137700309Y-92296230D01*
X137728602Y-92290602D01*
X137833497Y-92269737D01*
X137979179Y-92209394D01*
X138110289Y-92121789D01*
X138221789Y-92010289D01*
X138309394Y-91879179D01*
X138369737Y-91733497D01*
X138395971Y-91601610D01*
X138400638Y-91578150D01*
X138433023Y-91516239D01*
X138434518Y-91514716D01*
X140028082Y-89921153D01*
X143699500Y-89921153D01*
X143699500Y-90078846D01*
X143730261Y-90233489D01*
X143730264Y-90233501D01*
X143790602Y-90379172D01*
X143790609Y-90379185D01*
X143878602Y-90510874D01*
X143899480Y-90577551D01*
X143899500Y-90579765D01*
X143899500Y-92920234D01*
X143879815Y-92987273D01*
X143878602Y-92989125D01*
X143790609Y-93120814D01*
X143790602Y-93120827D01*
X143730264Y-93266498D01*
X143730261Y-93266510D01*
X143699500Y-93421153D01*
X143699500Y-93578846D01*
X143730261Y-93733489D01*
X143730264Y-93733501D01*
X143790602Y-93879172D01*
X143790609Y-93879185D01*
X143878210Y-94010288D01*
X143878213Y-94010292D01*
X143989707Y-94121786D01*
X143989711Y-94121789D01*
X144120814Y-94209390D01*
X144120827Y-94209397D01*
X144252464Y-94263922D01*
X144266503Y-94269737D01*
X144368246Y-94289975D01*
X144421153Y-94300499D01*
X144421156Y-94300500D01*
X144421158Y-94300500D01*
X144578844Y-94300500D01*
X144578845Y-94300499D01*
X144733497Y-94269737D01*
X144879179Y-94209394D01*
X145010289Y-94121789D01*
X145121789Y-94010289D01*
X145209394Y-93879179D01*
X145269737Y-93733497D01*
X145300500Y-93578842D01*
X145300500Y-93421158D01*
X145300500Y-93421155D01*
X145300499Y-93421153D01*
X145286875Y-93352662D01*
X145269737Y-93266503D01*
X145227092Y-93163548D01*
X145209397Y-93120827D01*
X145209390Y-93120814D01*
X145121398Y-92989125D01*
X145100520Y-92922447D01*
X145100500Y-92920234D01*
X145100500Y-90579765D01*
X145120185Y-90512726D01*
X145121398Y-90510874D01*
X145209390Y-90379185D01*
X145209390Y-90379184D01*
X145209394Y-90379179D01*
X145269737Y-90233497D01*
X145300500Y-90078842D01*
X145300500Y-89921158D01*
X145300500Y-89921155D01*
X145300499Y-89921153D01*
X145281847Y-89827385D01*
X145269737Y-89766503D01*
X145269735Y-89766498D01*
X145209397Y-89620827D01*
X145209390Y-89620814D01*
X145121789Y-89489711D01*
X145121786Y-89489707D01*
X145010292Y-89378213D01*
X145010288Y-89378210D01*
X144879185Y-89290609D01*
X144879172Y-89290602D01*
X144733501Y-89230264D01*
X144733489Y-89230261D01*
X144578845Y-89199500D01*
X144578842Y-89199500D01*
X144421158Y-89199500D01*
X144421155Y-89199500D01*
X144266510Y-89230261D01*
X144266498Y-89230264D01*
X144120827Y-89290602D01*
X144120814Y-89290609D01*
X143989711Y-89378210D01*
X143989707Y-89378213D01*
X143878213Y-89489707D01*
X143878210Y-89489711D01*
X143790609Y-89620814D01*
X143790602Y-89620827D01*
X143730264Y-89766498D01*
X143730261Y-89766510D01*
X143699500Y-89921153D01*
X140028082Y-89921153D01*
X140712416Y-89236819D01*
X140773739Y-89203334D01*
X140800097Y-89200500D01*
X141813331Y-89200500D01*
X141813347Y-89200501D01*
X141820943Y-89200501D01*
X141979054Y-89200501D01*
X141979057Y-89200501D01*
X142131785Y-89159577D01*
X142181904Y-89130639D01*
X142268716Y-89080520D01*
X142380520Y-88968716D01*
X142380520Y-88968714D01*
X142390728Y-88958507D01*
X142390729Y-88958504D01*
X142928080Y-88421153D01*
X145699500Y-88421153D01*
X145699500Y-88578846D01*
X145730261Y-88733489D01*
X145730264Y-88733501D01*
X145790602Y-88879172D01*
X145790609Y-88879185D01*
X145878602Y-89010874D01*
X145899480Y-89077551D01*
X145899500Y-89079765D01*
X145899500Y-92920234D01*
X145879815Y-92987273D01*
X145878602Y-92989125D01*
X145790609Y-93120814D01*
X145790602Y-93120827D01*
X145730264Y-93266498D01*
X145730261Y-93266510D01*
X145699500Y-93421153D01*
X145699500Y-93578846D01*
X145730261Y-93733489D01*
X145730264Y-93733501D01*
X145790602Y-93879172D01*
X145790609Y-93879185D01*
X145878210Y-94010288D01*
X145878213Y-94010292D01*
X145989707Y-94121786D01*
X145989711Y-94121789D01*
X146120814Y-94209390D01*
X146120827Y-94209397D01*
X146252464Y-94263922D01*
X146266503Y-94269737D01*
X146368246Y-94289975D01*
X146421153Y-94300499D01*
X146421156Y-94300500D01*
X146421158Y-94300500D01*
X146578844Y-94300500D01*
X146578845Y-94300499D01*
X146733497Y-94269737D01*
X146879179Y-94209394D01*
X147010289Y-94121789D01*
X147121789Y-94010289D01*
X147209394Y-93879179D01*
X147269737Y-93733497D01*
X147300500Y-93578842D01*
X147300500Y-93421158D01*
X147300500Y-93421155D01*
X147300499Y-93421153D01*
X147286875Y-93352662D01*
X147269737Y-93266503D01*
X147227092Y-93163548D01*
X147209397Y-93120827D01*
X147209390Y-93120814D01*
X147121398Y-92989125D01*
X147100520Y-92922447D01*
X147100500Y-92920234D01*
X147100500Y-91421153D01*
X147699500Y-91421153D01*
X147699500Y-91578846D01*
X147730261Y-91733489D01*
X147730264Y-91733501D01*
X147790602Y-91879172D01*
X147790609Y-91879185D01*
X147878602Y-92010874D01*
X147899480Y-92077551D01*
X147899500Y-92079765D01*
X147899500Y-92920234D01*
X147879815Y-92987273D01*
X147878602Y-92989125D01*
X147790609Y-93120814D01*
X147790602Y-93120827D01*
X147730264Y-93266498D01*
X147730261Y-93266510D01*
X147699500Y-93421153D01*
X147699500Y-93578846D01*
X147730261Y-93733489D01*
X147730264Y-93733501D01*
X147790602Y-93879172D01*
X147790609Y-93879185D01*
X147878210Y-94010288D01*
X147878213Y-94010292D01*
X147989707Y-94121786D01*
X147989711Y-94121789D01*
X148120814Y-94209390D01*
X148120827Y-94209397D01*
X148252464Y-94263922D01*
X148266503Y-94269737D01*
X148368246Y-94289975D01*
X148421153Y-94300499D01*
X148421156Y-94300500D01*
X148421158Y-94300500D01*
X148578844Y-94300500D01*
X148578845Y-94300499D01*
X148733497Y-94269737D01*
X148879179Y-94209394D01*
X148931110Y-94174694D01*
X148997785Y-94153816D01*
X149065165Y-94172300D01*
X149068863Y-94174676D01*
X149120821Y-94209394D01*
X149120823Y-94209395D01*
X149120825Y-94209396D01*
X149252464Y-94263922D01*
X149266503Y-94269737D01*
X149368246Y-94289975D01*
X149421153Y-94300499D01*
X149421156Y-94300500D01*
X149421158Y-94300500D01*
X149578844Y-94300500D01*
X149578845Y-94300499D01*
X149733497Y-94269737D01*
X149879179Y-94209394D01*
X150010289Y-94121789D01*
X150121789Y-94010289D01*
X150209394Y-93879179D01*
X150269737Y-93733497D01*
X150300500Y-93578842D01*
X150300500Y-93421158D01*
X150300500Y-93421155D01*
X150300499Y-93421153D01*
X150286875Y-93352662D01*
X150269737Y-93266503D01*
X150227092Y-93163548D01*
X150209397Y-93120827D01*
X150209390Y-93120814D01*
X150121398Y-92989125D01*
X150100520Y-92922447D01*
X150100500Y-92920234D01*
X150100500Y-87079765D01*
X150120185Y-87012726D01*
X150121398Y-87010874D01*
X150209390Y-86879185D01*
X150209390Y-86879184D01*
X150209394Y-86879179D01*
X150269737Y-86733497D01*
X150300500Y-86578842D01*
X150300500Y-86421158D01*
X150300500Y-86421155D01*
X150300499Y-86421153D01*
X150277232Y-86304184D01*
X150269737Y-86266503D01*
X150240605Y-86196172D01*
X150209397Y-86120827D01*
X150209390Y-86120814D01*
X150121789Y-85989711D01*
X150121786Y-85989707D01*
X150010292Y-85878213D01*
X150010288Y-85878210D01*
X149879185Y-85790609D01*
X149879172Y-85790602D01*
X149733501Y-85730264D01*
X149733489Y-85730261D01*
X149578845Y-85699500D01*
X149578842Y-85699500D01*
X149421158Y-85699500D01*
X149421155Y-85699500D01*
X149266510Y-85730261D01*
X149266498Y-85730264D01*
X149120827Y-85790602D01*
X149120814Y-85790609D01*
X148989711Y-85878210D01*
X148989707Y-85878213D01*
X148878213Y-85989707D01*
X148878210Y-85989711D01*
X148790609Y-86120814D01*
X148790602Y-86120827D01*
X148730264Y-86266498D01*
X148730261Y-86266510D01*
X148699500Y-86421153D01*
X148699500Y-86578846D01*
X148730261Y-86733489D01*
X148730264Y-86733501D01*
X148790602Y-86879172D01*
X148790609Y-86879185D01*
X148878602Y-87010874D01*
X148899480Y-87077551D01*
X148899500Y-87079765D01*
X148899500Y-90613444D01*
X148879815Y-90680483D01*
X148827011Y-90726238D01*
X148757853Y-90736182D01*
X148739575Y-90731202D01*
X148739324Y-90732031D01*
X148733500Y-90730264D01*
X148733497Y-90730263D01*
X148733492Y-90730262D01*
X148733489Y-90730261D01*
X148578845Y-90699500D01*
X148578842Y-90699500D01*
X148421158Y-90699500D01*
X148421155Y-90699500D01*
X148266510Y-90730261D01*
X148266498Y-90730264D01*
X148120827Y-90790602D01*
X148120814Y-90790609D01*
X147989711Y-90878210D01*
X147989707Y-90878213D01*
X147878213Y-90989707D01*
X147878210Y-90989711D01*
X147790609Y-91120814D01*
X147790602Y-91120827D01*
X147730264Y-91266498D01*
X147730261Y-91266510D01*
X147699500Y-91421153D01*
X147100500Y-91421153D01*
X147100500Y-89079765D01*
X147120185Y-89012726D01*
X147121398Y-89010874D01*
X147209390Y-88879185D01*
X147209390Y-88879184D01*
X147209394Y-88879179D01*
X147269737Y-88733497D01*
X147300500Y-88578842D01*
X147300500Y-88421158D01*
X147300500Y-88421155D01*
X147300499Y-88421153D01*
X147278167Y-88308884D01*
X147269737Y-88266503D01*
X147237518Y-88188719D01*
X147209397Y-88120827D01*
X147209390Y-88120814D01*
X147121789Y-87989711D01*
X147121786Y-87989707D01*
X147010292Y-87878213D01*
X147010288Y-87878210D01*
X146879185Y-87790609D01*
X146879172Y-87790602D01*
X146733501Y-87730264D01*
X146733489Y-87730261D01*
X146578845Y-87699500D01*
X146578842Y-87699500D01*
X146421158Y-87699500D01*
X146421155Y-87699500D01*
X146266510Y-87730261D01*
X146266498Y-87730264D01*
X146120827Y-87790602D01*
X146120814Y-87790609D01*
X145989711Y-87878210D01*
X145989707Y-87878213D01*
X145878213Y-87989707D01*
X145878210Y-87989711D01*
X145790609Y-88120814D01*
X145790602Y-88120827D01*
X145730264Y-88266498D01*
X145730261Y-88266510D01*
X145699500Y-88421153D01*
X142928080Y-88421153D01*
X145014662Y-86334572D01*
X145075983Y-86301089D01*
X145078150Y-86300638D01*
X145136085Y-86289113D01*
X145233497Y-86269737D01*
X145379179Y-86209394D01*
X145510289Y-86121789D01*
X145621789Y-86010289D01*
X145709394Y-85879179D01*
X145769737Y-85733497D01*
X145800500Y-85578842D01*
X145800500Y-85421158D01*
X145800500Y-85421155D01*
X145800499Y-85421153D01*
X145795726Y-85397156D01*
X145769737Y-85266503D01*
X145754469Y-85229643D01*
X145709397Y-85120827D01*
X145709390Y-85120814D01*
X145621789Y-84989711D01*
X145621786Y-84989707D01*
X145510292Y-84878213D01*
X145510288Y-84878210D01*
X145379185Y-84790609D01*
X145379172Y-84790602D01*
X145233501Y-84730264D01*
X145233489Y-84730261D01*
X145078845Y-84699500D01*
X145078842Y-84699500D01*
X144921158Y-84699500D01*
X144921155Y-84699500D01*
X144766510Y-84730261D01*
X144766498Y-84730264D01*
X144620827Y-84790602D01*
X144620814Y-84790609D01*
X144489711Y-84878210D01*
X144489707Y-84878213D01*
X144378213Y-84989707D01*
X144378210Y-84989711D01*
X144290609Y-85120814D01*
X144290602Y-85120827D01*
X144230264Y-85266498D01*
X144230261Y-85266508D01*
X144199361Y-85421850D01*
X144166976Y-85483761D01*
X144165425Y-85485339D01*
X141687584Y-87963181D01*
X141626261Y-87996666D01*
X141599903Y-87999500D01*
X141224500Y-87999500D01*
X141157461Y-87979815D01*
X141111706Y-87927011D01*
X141100500Y-87875500D01*
X141100500Y-75579765D01*
X141120185Y-75512726D01*
X141121398Y-75510874D01*
X141183560Y-75417843D01*
X141209394Y-75379179D01*
X141269737Y-75233497D01*
X141300500Y-75078842D01*
X141300500Y-74924500D01*
X141320185Y-74857461D01*
X141372989Y-74811706D01*
X141424500Y-74800500D01*
X141578844Y-74800500D01*
X141578845Y-74800499D01*
X141733497Y-74769737D01*
X141879179Y-74709394D01*
X142010289Y-74621789D01*
X142121789Y-74510289D01*
X142209394Y-74379179D01*
X142232263Y-74323967D01*
X142276101Y-74269566D01*
X142342395Y-74247500D01*
X142410094Y-74264778D01*
X142434504Y-74283740D01*
X143055549Y-74904785D01*
X143142360Y-74954904D01*
X143142362Y-74954906D01*
X143180416Y-74976876D01*
X143192480Y-74983842D01*
X143345208Y-75024766D01*
X143345211Y-75024766D01*
X143503321Y-75024766D01*
X143503322Y-75024766D01*
X143503323Y-75024766D01*
X143656050Y-74983842D01*
X143792981Y-74904785D01*
X143904785Y-74792981D01*
X143904785Y-74792979D01*
X143914985Y-74782780D01*
X143914988Y-74782775D01*
X144060947Y-74636817D01*
X144122270Y-74603334D01*
X144148627Y-74600500D01*
X152250902Y-74600500D01*
X152317941Y-74620185D01*
X152363696Y-74672989D01*
X152373640Y-74742147D01*
X152344615Y-74805703D01*
X152338583Y-74812181D01*
X146087584Y-81063181D01*
X146026261Y-81096666D01*
X145999903Y-81099500D01*
X145921155Y-81099500D01*
X145766510Y-81130261D01*
X145766498Y-81130264D01*
X145620827Y-81190602D01*
X145620814Y-81190609D01*
X145489711Y-81278210D01*
X145489707Y-81278213D01*
X145378213Y-81389707D01*
X145378210Y-81389711D01*
X145290609Y-81520814D01*
X145290602Y-81520827D01*
X145230264Y-81666498D01*
X145230261Y-81666510D01*
X145199500Y-81821153D01*
X145199500Y-81978846D01*
X145230261Y-82133489D01*
X145230264Y-82133501D01*
X145290602Y-82279172D01*
X145290609Y-82279185D01*
X145378210Y-82410288D01*
X145378213Y-82410292D01*
X145489707Y-82521786D01*
X145489711Y-82521789D01*
X145620814Y-82609390D01*
X145620827Y-82609397D01*
X145766498Y-82669735D01*
X145766503Y-82669737D01*
X145918157Y-82699903D01*
X145921153Y-82700499D01*
X145921156Y-82700500D01*
X145921158Y-82700500D01*
X146078844Y-82700500D01*
X146078845Y-82700499D01*
X146233497Y-82669737D01*
X146379179Y-82609394D01*
X146510289Y-82521789D01*
X146621789Y-82410289D01*
X146709394Y-82279179D01*
X146769737Y-82133497D01*
X146775807Y-82102978D01*
X146784572Y-82086222D01*
X146788592Y-82067744D01*
X146807334Y-82042707D01*
X146808191Y-82041070D01*
X146809687Y-82039546D01*
X146877656Y-81971577D01*
X152407000Y-81971577D01*
X152407000Y-82168422D01*
X152437790Y-82362826D01*
X152498617Y-82550029D01*
X152574982Y-82699903D01*
X152587976Y-82725405D01*
X152703672Y-82884646D01*
X152842854Y-83023828D01*
X153002095Y-83139524D01*
X153125492Y-83202397D01*
X153178713Y-83229515D01*
X153229509Y-83277489D01*
X153246304Y-83345310D01*
X153223767Y-83411445D01*
X153178713Y-83450485D01*
X153002094Y-83540476D01*
X152911241Y-83606485D01*
X152842854Y-83656172D01*
X152842852Y-83656174D01*
X152842851Y-83656174D01*
X152703674Y-83795351D01*
X152703674Y-83795352D01*
X152703672Y-83795354D01*
X152697257Y-83804184D01*
X152587976Y-83954594D01*
X152498617Y-84129970D01*
X152437790Y-84317173D01*
X152407000Y-84511577D01*
X152407000Y-84708422D01*
X152437790Y-84902826D01*
X152498617Y-85090029D01*
X152569753Y-85229640D01*
X152587976Y-85265405D01*
X152703672Y-85424646D01*
X152842854Y-85563828D01*
X153002095Y-85679524D01*
X153108008Y-85733489D01*
X153178713Y-85769515D01*
X153229509Y-85817489D01*
X153246304Y-85885310D01*
X153223767Y-85951445D01*
X153178713Y-85990485D01*
X153002094Y-86080476D01*
X152911241Y-86146485D01*
X152842854Y-86196172D01*
X152842852Y-86196174D01*
X152842851Y-86196174D01*
X152703674Y-86335351D01*
X152703674Y-86335352D01*
X152703672Y-86335354D01*
X152653985Y-86403741D01*
X152587976Y-86494594D01*
X152498617Y-86669970D01*
X152437790Y-86857173D01*
X152407000Y-87051577D01*
X152407000Y-87248422D01*
X152437790Y-87442826D01*
X152498617Y-87630029D01*
X152580437Y-87790609D01*
X152587976Y-87805405D01*
X152703672Y-87964646D01*
X152842854Y-88103828D01*
X152959696Y-88188719D01*
X153002096Y-88219525D01*
X153179263Y-88309795D01*
X153230060Y-88357769D01*
X153246855Y-88425590D01*
X153224318Y-88491725D01*
X153179264Y-88530765D01*
X153002359Y-88620902D01*
X152967373Y-88646320D01*
X152967372Y-88646320D01*
X153528090Y-89207037D01*
X153464507Y-89224075D01*
X153350493Y-89289901D01*
X153257401Y-89382993D01*
X153191575Y-89497007D01*
X153174537Y-89560590D01*
X152613820Y-88999872D01*
X152613820Y-88999873D01*
X152588402Y-89034859D01*
X152588399Y-89034863D01*
X152499082Y-89210161D01*
X152438278Y-89397294D01*
X152407500Y-89591617D01*
X152407500Y-89788382D01*
X152438278Y-89982705D01*
X152499081Y-90169835D01*
X152588405Y-90345145D01*
X152613819Y-90380125D01*
X152613820Y-90380125D01*
X153174537Y-89819408D01*
X153191575Y-89882993D01*
X153257401Y-89997007D01*
X153350493Y-90090099D01*
X153464507Y-90155925D01*
X153528090Y-90172962D01*
X152967373Y-90733677D01*
X152967373Y-90733678D01*
X153002358Y-90759096D01*
X153179264Y-90849234D01*
X153230060Y-90897209D01*
X153246855Y-90965030D01*
X153224318Y-91031164D01*
X153179264Y-91070204D01*
X153002094Y-91160476D01*
X152913927Y-91224534D01*
X152842854Y-91276172D01*
X152842852Y-91276174D01*
X152842851Y-91276174D01*
X152703674Y-91415351D01*
X152703674Y-91415352D01*
X152703672Y-91415354D01*
X152653985Y-91483741D01*
X152587976Y-91574594D01*
X152498617Y-91749970D01*
X152437790Y-91937173D01*
X152407000Y-92131577D01*
X152407000Y-92328422D01*
X152437790Y-92522826D01*
X152498617Y-92710029D01*
X152533447Y-92778386D01*
X152587976Y-92885405D01*
X152703672Y-93044646D01*
X152842854Y-93183828D01*
X153002095Y-93299524D01*
X153106385Y-93352662D01*
X153178713Y-93389515D01*
X153229509Y-93437489D01*
X153246304Y-93505310D01*
X153223767Y-93571445D01*
X153178713Y-93610485D01*
X153002094Y-93700476D01*
X152956640Y-93733501D01*
X152842854Y-93816172D01*
X152842852Y-93816174D01*
X152842851Y-93816174D01*
X152703674Y-93955351D01*
X152703674Y-93955352D01*
X152703672Y-93955354D01*
X152663760Y-94010288D01*
X152587976Y-94114594D01*
X152498617Y-94289970D01*
X152437790Y-94477173D01*
X152407000Y-94671577D01*
X152407000Y-94868422D01*
X152437790Y-95062826D01*
X152498617Y-95250029D01*
X152579504Y-95408778D01*
X152587976Y-95425405D01*
X152703672Y-95584646D01*
X152842854Y-95723828D01*
X153002095Y-95839524D01*
X153096497Y-95887624D01*
X153178713Y-95929515D01*
X153229509Y-95977489D01*
X153246304Y-96045310D01*
X153223767Y-96111445D01*
X153178713Y-96150485D01*
X153002094Y-96240476D01*
X152968467Y-96264908D01*
X152842854Y-96356172D01*
X152842852Y-96356174D01*
X152842851Y-96356174D01*
X152703674Y-96495351D01*
X152703674Y-96495352D01*
X152703672Y-96495354D01*
X152653985Y-96563741D01*
X152587976Y-96654594D01*
X152498617Y-96829970D01*
X152437790Y-97017173D01*
X152407000Y-97211577D01*
X152407000Y-97408422D01*
X152437790Y-97602826D01*
X152498617Y-97790029D01*
X152582968Y-97955576D01*
X152587976Y-97965405D01*
X152703672Y-98124646D01*
X152842854Y-98263828D01*
X153002095Y-98379524D01*
X153068102Y-98413156D01*
X153178713Y-98469515D01*
X153229509Y-98517489D01*
X153246304Y-98585310D01*
X153223767Y-98651445D01*
X153178713Y-98690485D01*
X153002094Y-98780476D01*
X152913927Y-98844534D01*
X152842854Y-98896172D01*
X152842852Y-98896174D01*
X152842851Y-98896174D01*
X152703674Y-99035351D01*
X152703674Y-99035352D01*
X152703672Y-99035354D01*
X152676214Y-99073147D01*
X152587976Y-99194594D01*
X152498617Y-99369970D01*
X152437790Y-99557173D01*
X152407000Y-99751577D01*
X152407000Y-99948422D01*
X152437790Y-100142826D01*
X152498617Y-100330029D01*
X152545050Y-100421158D01*
X152587976Y-100505405D01*
X152703672Y-100664646D01*
X152842854Y-100803828D01*
X153002095Y-100919524D01*
X153116171Y-100977648D01*
X153178713Y-101009515D01*
X153229509Y-101057489D01*
X153246304Y-101125310D01*
X153223767Y-101191445D01*
X153178713Y-101230485D01*
X153002094Y-101320476D01*
X152913927Y-101384534D01*
X152842854Y-101436172D01*
X152842852Y-101436174D01*
X152842851Y-101436174D01*
X152703674Y-101575351D01*
X152703674Y-101575352D01*
X152703672Y-101575354D01*
X152685771Y-101599993D01*
X152587976Y-101734594D01*
X152498617Y-101909970D01*
X152437790Y-102097173D01*
X152407000Y-102291577D01*
X152407000Y-102488422D01*
X152437790Y-102682826D01*
X152498617Y-102870029D01*
X152533447Y-102938386D01*
X152587976Y-103045405D01*
X152703672Y-103204646D01*
X152842854Y-103343828D01*
X153002095Y-103459524D01*
X153102165Y-103510512D01*
X153178713Y-103549515D01*
X153229509Y-103597489D01*
X153246304Y-103665310D01*
X153223767Y-103731445D01*
X153178713Y-103770485D01*
X153002094Y-103860476D01*
X152977682Y-103878213D01*
X152842854Y-103976172D01*
X152842852Y-103976174D01*
X152842851Y-103976174D01*
X152703674Y-104115351D01*
X152703674Y-104115352D01*
X152703672Y-104115354D01*
X152691480Y-104132135D01*
X152587976Y-104274594D01*
X152498617Y-104449970D01*
X152437790Y-104637173D01*
X152407000Y-104831577D01*
X152407000Y-105028422D01*
X152437790Y-105222826D01*
X152498617Y-105410029D01*
X152584632Y-105578842D01*
X152587976Y-105585405D01*
X152703672Y-105744646D01*
X152842854Y-105883828D01*
X153002095Y-105999524D01*
X153023221Y-106010288D01*
X153177470Y-106088882D01*
X153177472Y-106088882D01*
X153177475Y-106088884D01*
X153273809Y-106120185D01*
X153364673Y-106149709D01*
X153559078Y-106180500D01*
X153559083Y-106180500D01*
X153755922Y-106180500D01*
X153950326Y-106149709D01*
X154030074Y-106123797D01*
X154137525Y-106088884D01*
X154312905Y-105999524D01*
X154472146Y-105883828D01*
X154611328Y-105744646D01*
X154727024Y-105585405D01*
X154816384Y-105410025D01*
X154877209Y-105222826D01*
X154888997Y-105148398D01*
X154908000Y-105028422D01*
X154908000Y-104831577D01*
X154877209Y-104637173D01*
X154816382Y-104449970D01*
X154740790Y-104301613D01*
X154727024Y-104274595D01*
X154611328Y-104115354D01*
X154472146Y-103976172D01*
X154337318Y-103878213D01*
X154312903Y-103860474D01*
X154136287Y-103770485D01*
X154085490Y-103722511D01*
X154068695Y-103654690D01*
X154091232Y-103588555D01*
X154136287Y-103549515D01*
X154312903Y-103459525D01*
X154312902Y-103459525D01*
X154312905Y-103459524D01*
X154472146Y-103343828D01*
X154611328Y-103204646D01*
X154727024Y-103045405D01*
X154816384Y-102870025D01*
X154877209Y-102682826D01*
X154904944Y-102507715D01*
X154908000Y-102488422D01*
X154908000Y-102291577D01*
X177807000Y-102291577D01*
X177807000Y-102488422D01*
X177837790Y-102682826D01*
X177898617Y-102870029D01*
X177933447Y-102938386D01*
X177987976Y-103045405D01*
X178103672Y-103204646D01*
X178242854Y-103343828D01*
X178396121Y-103455184D01*
X178438785Y-103510512D01*
X178444764Y-103580125D01*
X178412158Y-103641920D01*
X178351319Y-103676278D01*
X178323236Y-103679500D01*
X178259630Y-103679500D01*
X178259623Y-103679501D01*
X178200016Y-103685908D01*
X178065171Y-103736202D01*
X178065164Y-103736206D01*
X177949955Y-103822452D01*
X177949952Y-103822455D01*
X177863706Y-103937664D01*
X177863702Y-103937671D01*
X177813408Y-104072517D01*
X177807001Y-104132116D01*
X177807001Y-104132123D01*
X177807000Y-104132135D01*
X177807001Y-105727870D01*
X177813408Y-105787483D01*
X177863702Y-105922328D01*
X177863706Y-105922335D01*
X177949952Y-106037544D01*
X177949955Y-106037547D01*
X178065164Y-106123793D01*
X178065171Y-106123797D01*
X178200017Y-106174091D01*
X178200016Y-106174091D01*
X178206944Y-106174835D01*
X178259627Y-106180500D01*
X179855372Y-106180499D01*
X179914983Y-106174091D01*
X180049831Y-106123796D01*
X180165046Y-106037546D01*
X180251296Y-105922331D01*
X180301591Y-105787483D01*
X180308000Y-105727873D01*
X180307999Y-104132128D01*
X180301591Y-104072517D01*
X180270706Y-103989711D01*
X180251297Y-103937671D01*
X180251293Y-103937664D01*
X180165047Y-103822455D01*
X180165044Y-103822452D01*
X180049835Y-103736206D01*
X180049828Y-103736202D01*
X179914982Y-103685908D01*
X179914983Y-103685908D01*
X179855383Y-103679501D01*
X179855381Y-103679500D01*
X179855373Y-103679500D01*
X179855365Y-103679500D01*
X179791767Y-103679500D01*
X179724728Y-103659815D01*
X179678973Y-103607011D01*
X179669029Y-103537853D01*
X179698054Y-103474297D01*
X179718881Y-103455182D01*
X179872146Y-103343828D01*
X180011328Y-103204646D01*
X180127024Y-103045405D01*
X180216384Y-102870025D01*
X180277209Y-102682826D01*
X180304944Y-102507715D01*
X180308000Y-102488422D01*
X180308000Y-102291577D01*
X180277209Y-102097173D01*
X180216382Y-101909970D01*
X180140790Y-101761613D01*
X180127024Y-101734595D01*
X180011328Y-101575354D01*
X179872146Y-101436172D01*
X179712905Y-101320476D01*
X179673698Y-101300499D01*
X179537529Y-101231117D01*
X179350326Y-101170290D01*
X179155922Y-101139500D01*
X179155917Y-101139500D01*
X178959083Y-101139500D01*
X178959078Y-101139500D01*
X178764673Y-101170290D01*
X178577470Y-101231117D01*
X178402094Y-101320476D01*
X178313927Y-101384534D01*
X178242854Y-101436172D01*
X178242852Y-101436174D01*
X178242851Y-101436174D01*
X178103674Y-101575351D01*
X178103674Y-101575352D01*
X178103672Y-101575354D01*
X178085771Y-101599993D01*
X177987976Y-101734594D01*
X177898617Y-101909970D01*
X177837790Y-102097173D01*
X177807000Y-102291577D01*
X154908000Y-102291577D01*
X154877209Y-102097173D01*
X154816382Y-101909970D01*
X154740790Y-101761613D01*
X154727024Y-101734595D01*
X154611328Y-101575354D01*
X154472146Y-101436172D01*
X154392525Y-101378324D01*
X154312903Y-101320474D01*
X154136287Y-101230485D01*
X154085490Y-101182511D01*
X154068695Y-101114690D01*
X154091232Y-101048555D01*
X154136287Y-101009515D01*
X154312903Y-100919525D01*
X154312902Y-100919525D01*
X154312905Y-100919524D01*
X154472146Y-100803828D01*
X154611328Y-100664646D01*
X154727024Y-100505405D01*
X154816384Y-100330025D01*
X154877209Y-100142826D01*
X154901460Y-99989711D01*
X154908000Y-99948422D01*
X154908000Y-99751577D01*
X154877209Y-99557173D01*
X154816382Y-99369970D01*
X154769243Y-99277455D01*
X154727024Y-99194595D01*
X154611328Y-99035354D01*
X154472146Y-98896172D01*
X154392525Y-98838324D01*
X154312903Y-98780474D01*
X154136287Y-98690485D01*
X154085490Y-98642511D01*
X154068695Y-98574690D01*
X154091232Y-98508555D01*
X154136287Y-98469515D01*
X154312903Y-98379525D01*
X154312902Y-98379525D01*
X154312905Y-98379524D01*
X154472146Y-98263828D01*
X154611328Y-98124646D01*
X154727024Y-97965405D01*
X154816384Y-97790025D01*
X154877209Y-97602826D01*
X154883687Y-97561926D01*
X154908000Y-97408422D01*
X154908000Y-97211577D01*
X154877209Y-97017173D01*
X154816382Y-96829970D01*
X154769243Y-96737455D01*
X154727024Y-96654595D01*
X154611328Y-96495354D01*
X154472146Y-96356172D01*
X154346533Y-96264908D01*
X154312903Y-96240474D01*
X154136287Y-96150485D01*
X154085490Y-96102511D01*
X154068695Y-96034690D01*
X154091232Y-95968555D01*
X154136287Y-95929515D01*
X154312903Y-95839525D01*
X154312902Y-95839525D01*
X154312905Y-95839524D01*
X154472146Y-95723828D01*
X154611328Y-95584646D01*
X154727024Y-95425405D01*
X154816384Y-95250025D01*
X154877209Y-95062826D01*
X154885888Y-95008028D01*
X154908000Y-94868422D01*
X154908000Y-94671577D01*
X154877209Y-94477173D01*
X154821985Y-94307213D01*
X154816384Y-94289975D01*
X154816382Y-94289972D01*
X154816382Y-94289970D01*
X154740790Y-94141613D01*
X154727024Y-94114595D01*
X154611328Y-93955354D01*
X154472146Y-93816172D01*
X154358360Y-93733501D01*
X154312903Y-93700474D01*
X154136287Y-93610485D01*
X154085490Y-93562511D01*
X154068695Y-93494690D01*
X154091232Y-93428555D01*
X154136287Y-93389515D01*
X154312903Y-93299525D01*
X154312902Y-93299525D01*
X154312905Y-93299524D01*
X154472146Y-93183828D01*
X154611328Y-93044646D01*
X154727024Y-92885405D01*
X154816384Y-92710025D01*
X154877209Y-92522826D01*
X154882454Y-92489711D01*
X154908000Y-92328422D01*
X154908000Y-92131577D01*
X154877209Y-91937173D01*
X154816382Y-91749970D01*
X154740790Y-91601613D01*
X154727024Y-91574595D01*
X154611328Y-91415354D01*
X154472146Y-91276172D01*
X154312905Y-91160476D01*
X154137525Y-91071116D01*
X154137524Y-91071115D01*
X154135735Y-91070204D01*
X154084939Y-91022230D01*
X154068144Y-90954409D01*
X154090681Y-90888274D01*
X154135736Y-90849234D01*
X154312641Y-90759097D01*
X154347625Y-90733678D01*
X154347626Y-90733678D01*
X153786910Y-90172962D01*
X153850493Y-90155925D01*
X153964507Y-90090099D01*
X154057599Y-89997007D01*
X154123425Y-89882993D01*
X154140462Y-89819410D01*
X154701178Y-90380126D01*
X154701178Y-90380125D01*
X154726595Y-90345143D01*
X154815918Y-90169835D01*
X154876721Y-89982705D01*
X154907500Y-89788382D01*
X154907500Y-89591617D01*
X154876721Y-89397294D01*
X154815918Y-89210164D01*
X154726596Y-89034858D01*
X154701178Y-88999873D01*
X154701177Y-88999873D01*
X154140462Y-89560589D01*
X154123425Y-89497007D01*
X154057599Y-89382993D01*
X153964507Y-89289901D01*
X153850493Y-89224075D01*
X153786909Y-89207037D01*
X154347625Y-88646320D01*
X154347625Y-88646319D01*
X154312645Y-88620905D01*
X154135735Y-88530765D01*
X154084939Y-88482790D01*
X154068144Y-88414969D01*
X154090682Y-88348834D01*
X154135736Y-88309795D01*
X154137522Y-88308884D01*
X154137525Y-88308884D01*
X154312905Y-88219524D01*
X154472146Y-88103828D01*
X154611328Y-87964646D01*
X154727024Y-87805405D01*
X154816384Y-87630025D01*
X154877209Y-87442826D01*
X154884784Y-87395001D01*
X154908000Y-87248422D01*
X154908000Y-87051577D01*
X154877209Y-86857173D01*
X154816382Y-86669970D01*
X154727023Y-86494594D01*
X154611328Y-86335354D01*
X154472146Y-86196172D01*
X154368425Y-86120814D01*
X154312903Y-86080474D01*
X154136287Y-85990485D01*
X154085490Y-85942511D01*
X154068695Y-85874690D01*
X154091232Y-85808555D01*
X154136287Y-85769515D01*
X154312903Y-85679525D01*
X154312902Y-85679525D01*
X154312905Y-85679524D01*
X154472146Y-85563828D01*
X154611328Y-85424646D01*
X154727024Y-85265405D01*
X154816384Y-85090025D01*
X154877209Y-84902826D01*
X154881108Y-84878210D01*
X154908000Y-84708422D01*
X154908000Y-84511577D01*
X154877209Y-84317173D01*
X154816382Y-84129970D01*
X154727023Y-83954594D01*
X154697056Y-83913348D01*
X154611328Y-83795354D01*
X154472146Y-83656172D01*
X154392525Y-83598324D01*
X154312903Y-83540474D01*
X154136287Y-83450485D01*
X154085490Y-83402511D01*
X154068695Y-83334690D01*
X154091232Y-83268555D01*
X154136287Y-83229515D01*
X154312903Y-83139525D01*
X154312902Y-83139525D01*
X154312905Y-83139524D01*
X154472146Y-83023828D01*
X154611328Y-82884646D01*
X154727024Y-82725405D01*
X154816384Y-82550025D01*
X154877209Y-82362826D01*
X154908000Y-82168422D01*
X154908000Y-81971577D01*
X177807000Y-81971577D01*
X177807000Y-82168422D01*
X177837790Y-82362826D01*
X177898617Y-82550029D01*
X177974982Y-82699903D01*
X177987976Y-82725405D01*
X178103672Y-82884646D01*
X178242854Y-83023828D01*
X178402095Y-83139524D01*
X178525492Y-83202397D01*
X178578713Y-83229515D01*
X178629509Y-83277489D01*
X178646304Y-83345310D01*
X178623767Y-83411445D01*
X178578713Y-83450485D01*
X178402094Y-83540476D01*
X178311241Y-83606485D01*
X178242854Y-83656172D01*
X178242852Y-83656174D01*
X178242851Y-83656174D01*
X178103674Y-83795351D01*
X178103674Y-83795352D01*
X178103672Y-83795354D01*
X178097257Y-83804184D01*
X177987976Y-83954594D01*
X177898617Y-84129970D01*
X177837790Y-84317173D01*
X177807000Y-84511577D01*
X177807000Y-84708422D01*
X177837790Y-84902826D01*
X177898617Y-85090029D01*
X177969753Y-85229640D01*
X177987976Y-85265405D01*
X178103672Y-85424646D01*
X178242854Y-85563828D01*
X178402095Y-85679524D01*
X178484955Y-85721743D01*
X178577470Y-85768882D01*
X178577472Y-85768882D01*
X178577475Y-85768884D01*
X178677817Y-85801487D01*
X178764673Y-85829709D01*
X178959078Y-85860500D01*
X178959083Y-85860500D01*
X179155922Y-85860500D01*
X179350326Y-85829709D01*
X179387935Y-85817489D01*
X179537525Y-85768884D01*
X179712905Y-85679524D01*
X179872146Y-85563828D01*
X180011328Y-85424646D01*
X180127024Y-85265405D01*
X180216384Y-85090025D01*
X180277209Y-84902826D01*
X180281108Y-84878210D01*
X180308000Y-84708422D01*
X180308000Y-84511577D01*
X180277209Y-84317173D01*
X180216382Y-84129970D01*
X180127023Y-83954594D01*
X180097056Y-83913348D01*
X180011328Y-83795354D01*
X179872146Y-83656172D01*
X179792525Y-83598324D01*
X179712903Y-83540474D01*
X179536287Y-83450485D01*
X179485490Y-83402511D01*
X179468695Y-83334690D01*
X179491232Y-83268555D01*
X179536287Y-83229515D01*
X179712903Y-83139525D01*
X179712902Y-83139525D01*
X179712905Y-83139524D01*
X179872146Y-83023828D01*
X180011328Y-82884646D01*
X180127024Y-82725405D01*
X180216384Y-82550025D01*
X180277209Y-82362826D01*
X180308000Y-82168422D01*
X180308000Y-81971577D01*
X180277209Y-81777173D01*
X180216382Y-81589970D01*
X180127023Y-81414594D01*
X180011328Y-81255354D01*
X179872146Y-81116172D01*
X179712905Y-81000476D01*
X179537529Y-80911117D01*
X179350326Y-80850290D01*
X179155922Y-80819500D01*
X179155917Y-80819500D01*
X178959083Y-80819500D01*
X178959078Y-80819500D01*
X178764673Y-80850290D01*
X178577470Y-80911117D01*
X178402094Y-81000476D01*
X178315789Y-81063181D01*
X178242854Y-81116172D01*
X178242852Y-81116174D01*
X178242851Y-81116174D01*
X178103674Y-81255351D01*
X178103674Y-81255352D01*
X178103672Y-81255354D01*
X178087064Y-81278213D01*
X177987976Y-81414594D01*
X177898617Y-81589970D01*
X177837790Y-81777173D01*
X177807000Y-81971577D01*
X154908000Y-81971577D01*
X154877209Y-81777173D01*
X154816382Y-81589970D01*
X154727023Y-81414594D01*
X154611328Y-81255354D01*
X154472146Y-81116172D01*
X154312905Y-81000476D01*
X154137529Y-80911117D01*
X153950326Y-80850290D01*
X153755922Y-80819500D01*
X153755917Y-80819500D01*
X153559083Y-80819500D01*
X153559078Y-80819500D01*
X153364673Y-80850290D01*
X153177470Y-80911117D01*
X153002094Y-81000476D01*
X152915789Y-81063181D01*
X152842854Y-81116172D01*
X152842852Y-81116174D01*
X152842851Y-81116174D01*
X152703674Y-81255351D01*
X152703674Y-81255352D01*
X152703672Y-81255354D01*
X152687064Y-81278213D01*
X152587976Y-81414594D01*
X152498617Y-81589970D01*
X152437790Y-81777173D01*
X152407000Y-81971577D01*
X146877656Y-81971577D01*
X153712417Y-75136819D01*
X153773740Y-75103334D01*
X153800098Y-75100500D01*
X154579055Y-75100500D01*
X154579057Y-75100500D01*
X154731784Y-75059577D01*
X154868716Y-74980520D01*
X154980520Y-74868716D01*
X155059577Y-74731784D01*
X155100500Y-74579057D01*
X155100500Y-63100500D01*
X155120185Y-63033461D01*
X155172989Y-62987706D01*
X155224500Y-62976500D01*
X157156152Y-62976500D01*
X157223191Y-62996185D01*
X157268946Y-63048989D01*
X157277769Y-63076308D01*
X157304261Y-63209491D01*
X157304264Y-63209501D01*
X157364603Y-63355174D01*
X157364604Y-63355175D01*
X157364606Y-63355179D01*
X157425602Y-63446465D01*
X157446480Y-63513142D01*
X157446500Y-63515356D01*
X157446500Y-67936642D01*
X157426815Y-68003681D01*
X157425602Y-68005533D01*
X157364609Y-68096814D01*
X157364602Y-68096827D01*
X157304264Y-68242498D01*
X157304261Y-68242510D01*
X157273500Y-68397153D01*
X157273500Y-68554846D01*
X157304261Y-68709489D01*
X157304264Y-68709501D01*
X157364602Y-68855172D01*
X157364609Y-68855185D01*
X157452210Y-68986288D01*
X157452213Y-68986292D01*
X157563707Y-69097786D01*
X157563711Y-69097789D01*
X157694814Y-69185390D01*
X157694827Y-69185397D01*
X157840498Y-69245735D01*
X157840503Y-69245737D01*
X157995153Y-69276499D01*
X157995156Y-69276500D01*
X157995158Y-69276500D01*
X158152844Y-69276500D01*
X158152845Y-69276499D01*
X158307497Y-69245737D01*
X158431685Y-69194297D01*
X158453172Y-69185397D01*
X158453172Y-69185396D01*
X158453179Y-69185394D01*
X158584289Y-69097789D01*
X158695789Y-68986289D01*
X158697531Y-68983682D01*
X158698797Y-68982623D01*
X158699653Y-68981581D01*
X158699850Y-68981743D01*
X158751142Y-68938875D01*
X158820467Y-68930166D01*
X158834205Y-68934066D01*
X158834365Y-68933473D01*
X158842214Y-68935576D01*
X158842216Y-68935577D01*
X158994943Y-68976500D01*
X172994234Y-68976500D01*
X173061273Y-68996185D01*
X173063125Y-68997398D01*
X173194814Y-69085390D01*
X173194827Y-69085397D01*
X173337676Y-69144566D01*
X173340503Y-69145737D01*
X173495153Y-69176499D01*
X173495156Y-69176500D01*
X173495158Y-69176500D01*
X173652844Y-69176500D01*
X173652845Y-69176499D01*
X173807497Y-69145737D01*
X173953179Y-69085394D01*
X174084289Y-68997789D01*
X174195789Y-68886289D01*
X174283394Y-68755179D01*
X174343737Y-68609497D01*
X174374500Y-68454842D01*
X174374500Y-68297158D01*
X174374500Y-68297155D01*
X174374499Y-68297153D01*
X174361194Y-68230264D01*
X174343737Y-68142503D01*
X174290542Y-68014077D01*
X174283397Y-67996827D01*
X174283390Y-67996814D01*
X174195789Y-67865711D01*
X174195786Y-67865707D01*
X174084292Y-67754213D01*
X174084288Y-67754210D01*
X173953185Y-67666609D01*
X173953172Y-67666602D01*
X173807501Y-67606264D01*
X173807489Y-67606261D01*
X173652845Y-67575500D01*
X173652842Y-67575500D01*
X173495158Y-67575500D01*
X173495155Y-67575500D01*
X173340510Y-67606261D01*
X173340498Y-67606264D01*
X173194827Y-67666602D01*
X173194814Y-67666609D01*
X173063125Y-67754602D01*
X172996447Y-67775480D01*
X172994234Y-67775500D01*
X159798500Y-67775500D01*
X159731461Y-67755815D01*
X159685706Y-67703011D01*
X159674500Y-67651500D01*
X159674500Y-62420945D01*
X159674500Y-62420943D01*
X159633577Y-62268216D01*
X159610989Y-62229092D01*
X159554524Y-62131290D01*
X159554521Y-62131286D01*
X159554520Y-62131284D01*
X159442716Y-62019480D01*
X159442715Y-62019479D01*
X159438385Y-62015149D01*
X159438374Y-62015139D01*
X159437590Y-62014355D01*
X159437588Y-62014352D01*
X159318717Y-61895481D01*
X159318716Y-61895480D01*
X159231904Y-61845360D01*
X159231904Y-61845359D01*
X159231900Y-61845358D01*
X159181785Y-61816423D01*
X159029057Y-61775499D01*
X158981703Y-61775499D01*
X158914664Y-61755814D01*
X158868909Y-61703010D01*
X158858965Y-61633852D01*
X158860086Y-61627307D01*
X158874500Y-61554844D01*
X158874500Y-61397155D01*
X158874499Y-61397153D01*
X158858321Y-61315821D01*
X158843737Y-61242503D01*
X158830021Y-61209390D01*
X158783397Y-61096827D01*
X158783390Y-61096814D01*
X158722398Y-61005533D01*
X158716747Y-60987486D01*
X158706523Y-60971577D01*
X158702071Y-60940615D01*
X158701520Y-60938855D01*
X158701500Y-60936642D01*
X158701500Y-60815356D01*
X158721185Y-60748317D01*
X158722398Y-60746465D01*
X158783394Y-60655179D01*
X158843737Y-60509497D01*
X158874500Y-60354842D01*
X158874500Y-60197158D01*
X158874500Y-60197155D01*
X158874499Y-60197153D01*
X158859317Y-60120827D01*
X158843737Y-60042503D01*
X158821870Y-59989711D01*
X158783397Y-59896827D01*
X158783390Y-59896814D01*
X158695789Y-59765711D01*
X158695786Y-59765707D01*
X158584292Y-59654213D01*
X158584288Y-59654210D01*
X158453185Y-59566609D01*
X158453172Y-59566602D01*
X158307501Y-59506264D01*
X158307489Y-59506261D01*
X158152845Y-59475500D01*
X158152842Y-59475500D01*
X157995158Y-59475500D01*
X157995155Y-59475500D01*
X157840510Y-59506261D01*
X157840498Y-59506264D01*
X157694827Y-59566602D01*
X157694814Y-59566609D01*
X157563711Y-59654210D01*
X157563707Y-59654213D01*
X157452213Y-59765707D01*
X157452210Y-59765711D01*
X157364609Y-59896814D01*
X157364602Y-59896827D01*
X157304264Y-60042498D01*
X157304261Y-60042510D01*
X157273500Y-60197153D01*
X157273500Y-60354846D01*
X157304261Y-60509489D01*
X157304264Y-60509501D01*
X157364603Y-60655174D01*
X157364604Y-60655175D01*
X157364606Y-60655179D01*
X157377261Y-60674118D01*
X157425602Y-60746465D01*
X157431252Y-60764511D01*
X157441477Y-60780421D01*
X157445928Y-60811380D01*
X157446480Y-60813142D01*
X157446500Y-60815356D01*
X157446500Y-60936642D01*
X157426815Y-61003681D01*
X157425602Y-61005533D01*
X157364609Y-61096814D01*
X157364602Y-61096827D01*
X157304264Y-61242498D01*
X157304261Y-61242510D01*
X157273500Y-61397153D01*
X157273500Y-61554846D01*
X157287914Y-61627309D01*
X157281687Y-61696900D01*
X157238824Y-61752078D01*
X157172934Y-61775322D01*
X157166297Y-61775500D01*
X155899500Y-61775500D01*
X155832461Y-61755815D01*
X155786706Y-61703011D01*
X155775500Y-61651500D01*
X155775500Y-61422621D01*
X155795185Y-61355582D01*
X155847989Y-61309827D01*
X155915065Y-61300182D01*
X155915093Y-61299903D01*
X155916229Y-61300014D01*
X155917147Y-61299883D01*
X155920200Y-61300405D01*
X155921156Y-61300500D01*
X155921158Y-61300500D01*
X156078844Y-61300500D01*
X156078845Y-61300499D01*
X156233497Y-61269737D01*
X156379179Y-61209394D01*
X156510289Y-61121789D01*
X156621789Y-61010289D01*
X156709394Y-60879179D01*
X156769737Y-60733497D01*
X156800500Y-60578842D01*
X156800500Y-60421158D01*
X156800500Y-60421155D01*
X156800499Y-60421153D01*
X156769737Y-60266503D01*
X156741014Y-60197158D01*
X156709397Y-60120827D01*
X156709390Y-60120814D01*
X156621398Y-59989125D01*
X156600520Y-59922447D01*
X156600500Y-59920234D01*
X156600500Y-57043265D01*
X156620185Y-56976226D01*
X156621398Y-56974374D01*
X156709390Y-56842685D01*
X156709390Y-56842684D01*
X156709394Y-56842679D01*
X156769737Y-56696997D01*
X156800500Y-56542342D01*
X156800500Y-56384658D01*
X156800500Y-56384655D01*
X156800499Y-56384653D01*
X156787535Y-56319479D01*
X156769737Y-56230003D01*
X156769735Y-56229998D01*
X156709397Y-56084327D01*
X156709390Y-56084314D01*
X156621789Y-55953211D01*
X156621786Y-55953207D01*
X156510292Y-55841713D01*
X156510288Y-55841710D01*
X156379185Y-55754109D01*
X156379172Y-55754102D01*
X156233501Y-55693764D01*
X156233489Y-55693761D01*
X156078845Y-55663000D01*
X156078842Y-55663000D01*
X155921158Y-55663000D01*
X155921157Y-55663000D01*
X155915095Y-55663597D01*
X155914909Y-55661714D01*
X155854078Y-55656259D01*
X155798909Y-55613386D01*
X155775677Y-55547492D01*
X155775500Y-55540878D01*
X155775500Y-53804910D01*
X155795185Y-53737871D01*
X155847989Y-53692116D01*
X155899500Y-53680910D01*
X158819594Y-53680910D01*
X158819610Y-53680911D01*
X158827206Y-53680911D01*
X158985318Y-53680911D01*
X158985320Y-53680911D01*
X159061409Y-53660522D01*
X159072082Y-53657663D01*
X159104175Y-53653438D01*
X159212579Y-53653438D01*
X159212580Y-53653437D01*
X159367232Y-53622675D01*
X159512914Y-53562332D01*
X159517714Y-53559124D01*
X159584387Y-53538242D01*
X159651769Y-53556722D01*
X159655477Y-53559105D01*
X159694821Y-53585394D01*
X159694823Y-53585395D01*
X159694825Y-53585396D01*
X159767662Y-53615565D01*
X159840503Y-53645737D01*
X159873691Y-53652338D01*
X159935600Y-53684721D01*
X159970176Y-53745436D01*
X159973500Y-53773955D01*
X159973500Y-57955057D01*
X159974889Y-57960238D01*
X160014423Y-58107783D01*
X160014426Y-58107790D01*
X160093475Y-58244709D01*
X160093479Y-58244714D01*
X160093480Y-58244716D01*
X160205284Y-58356520D01*
X160205286Y-58356521D01*
X160205290Y-58356524D01*
X160342209Y-58435573D01*
X160342216Y-58435577D01*
X160381593Y-58446128D01*
X160441253Y-58482491D01*
X160471783Y-58545337D01*
X160473500Y-58565902D01*
X160473500Y-62796943D01*
X160473500Y-62955057D01*
X160512472Y-63100500D01*
X160514423Y-63107783D01*
X160514426Y-63107790D01*
X160593475Y-63244709D01*
X160593479Y-63244714D01*
X160593480Y-63244716D01*
X160705284Y-63356520D01*
X160705286Y-63356521D01*
X160705290Y-63356524D01*
X160842209Y-63435573D01*
X160842216Y-63435577D01*
X160994943Y-63476500D01*
X167849500Y-63476500D01*
X167916539Y-63496185D01*
X167962294Y-63548989D01*
X167973500Y-63600500D01*
X167973500Y-63920234D01*
X167953815Y-63987273D01*
X167952602Y-63989125D01*
X167864609Y-64120814D01*
X167864602Y-64120827D01*
X167804264Y-64266498D01*
X167804261Y-64266510D01*
X167773500Y-64421153D01*
X167773500Y-64578846D01*
X167804261Y-64733489D01*
X167804264Y-64733501D01*
X167864602Y-64879172D01*
X167864609Y-64879185D01*
X167952210Y-65010288D01*
X167952213Y-65010292D01*
X168063707Y-65121786D01*
X168063711Y-65121789D01*
X168194814Y-65209390D01*
X168194827Y-65209397D01*
X168340498Y-65269735D01*
X168340503Y-65269737D01*
X168495153Y-65300499D01*
X168495156Y-65300500D01*
X168495158Y-65300500D01*
X168652844Y-65300500D01*
X168652845Y-65300499D01*
X168807497Y-65269737D01*
X168953179Y-65209394D01*
X169084289Y-65121789D01*
X169195789Y-65010289D01*
X169283394Y-64879179D01*
X169343737Y-64733497D01*
X169374500Y-64578842D01*
X169374500Y-64421158D01*
X169374500Y-64421155D01*
X169374499Y-64421153D01*
X169357277Y-64334574D01*
X169343737Y-64266503D01*
X169320082Y-64209394D01*
X169283397Y-64120827D01*
X169283390Y-64120814D01*
X169195398Y-63989125D01*
X169174520Y-63922447D01*
X169174500Y-63920234D01*
X169174500Y-62796945D01*
X169174500Y-62796943D01*
X169133577Y-62644216D01*
X169067302Y-62529423D01*
X169054524Y-62507290D01*
X169054518Y-62507282D01*
X168942717Y-62395481D01*
X168942709Y-62395475D01*
X168805790Y-62316426D01*
X168805786Y-62316424D01*
X168805784Y-62316423D01*
X168653057Y-62275500D01*
X168653056Y-62275500D01*
X161798500Y-62275500D01*
X161731461Y-62255815D01*
X161685706Y-62203011D01*
X161674500Y-62151500D01*
X161674500Y-57796945D01*
X161674500Y-57796943D01*
X161633577Y-57644216D01*
X161590547Y-57569685D01*
X161554524Y-57507290D01*
X161554518Y-57507282D01*
X161442717Y-57395481D01*
X161442709Y-57395475D01*
X161305790Y-57316426D01*
X161305782Y-57316422D01*
X161266403Y-57305870D01*
X161206744Y-57269504D01*
X161176216Y-57206656D01*
X161174500Y-57186096D01*
X161174500Y-56767658D01*
X162584735Y-56767658D01*
X162584735Y-56878679D01*
X162584735Y-57036793D01*
X162613275Y-57143303D01*
X162617500Y-57175397D01*
X162617500Y-57269346D01*
X162648261Y-57423989D01*
X162648264Y-57424001D01*
X162708602Y-57569672D01*
X162708609Y-57569685D01*
X162796210Y-57700788D01*
X162796213Y-57700792D01*
X162907707Y-57812286D01*
X162907711Y-57812289D01*
X163038814Y-57899890D01*
X163038827Y-57899897D01*
X163171995Y-57955056D01*
X163184503Y-57960237D01*
X163339153Y-57990999D01*
X163339156Y-57991000D01*
X163339158Y-57991000D01*
X163496844Y-57991000D01*
X163496845Y-57990999D01*
X163651497Y-57960237D01*
X163797179Y-57899894D01*
X163928289Y-57812289D01*
X164039789Y-57700789D01*
X164127394Y-57569679D01*
X164127397Y-57569672D01*
X164165763Y-57477048D01*
X164178305Y-57461482D01*
X164186611Y-57443297D01*
X164199780Y-57434833D01*
X164209603Y-57422644D01*
X164228572Y-57416330D01*
X164245389Y-57405523D01*
X164272948Y-57401560D01*
X164275897Y-57400579D01*
X164280324Y-57400500D01*
X164494234Y-57400500D01*
X164561273Y-57420185D01*
X164563125Y-57421398D01*
X164694814Y-57509390D01*
X164694827Y-57509397D01*
X164840346Y-57569672D01*
X164840503Y-57569737D01*
X164995153Y-57600499D01*
X164995156Y-57600500D01*
X164995158Y-57600500D01*
X165152844Y-57600500D01*
X165152845Y-57600499D01*
X165307497Y-57569737D01*
X165453179Y-57509394D01*
X165584289Y-57421789D01*
X165695789Y-57310289D01*
X165783394Y-57179179D01*
X165843737Y-57033497D01*
X165874500Y-56878842D01*
X165874500Y-56721158D01*
X165874500Y-56721155D01*
X165874499Y-56721153D01*
X165843738Y-56566510D01*
X165843737Y-56566503D01*
X165807077Y-56477997D01*
X165783397Y-56420827D01*
X165783390Y-56420814D01*
X165695789Y-56289711D01*
X165695786Y-56289707D01*
X165584292Y-56178213D01*
X165584288Y-56178210D01*
X165453185Y-56090609D01*
X165453172Y-56090602D01*
X165307501Y-56030264D01*
X165307489Y-56030261D01*
X165152845Y-55999500D01*
X165152842Y-55999500D01*
X164995158Y-55999500D01*
X164995155Y-55999500D01*
X164840510Y-56030261D01*
X164840498Y-56030264D01*
X164694827Y-56090602D01*
X164694814Y-56090609D01*
X164563125Y-56178602D01*
X164496447Y-56199480D01*
X164494234Y-56199500D01*
X163318620Y-56199500D01*
X163318604Y-56199499D01*
X163311008Y-56199499D01*
X163152894Y-56199499D01*
X163045538Y-56228265D01*
X163000161Y-56240424D01*
X163000160Y-56240425D01*
X162950047Y-56269359D01*
X162950046Y-56269360D01*
X162914804Y-56289707D01*
X162863236Y-56319479D01*
X162863233Y-56319481D01*
X162704717Y-56477997D01*
X162704716Y-56477999D01*
X162676097Y-56527569D01*
X162625659Y-56614930D01*
X162584735Y-56767658D01*
X161174500Y-56767658D01*
X161174500Y-53465060D01*
X161174501Y-53465047D01*
X161174501Y-53296944D01*
X161133576Y-53144214D01*
X161133573Y-53144209D01*
X161054524Y-53007290D01*
X161054518Y-53007282D01*
X160908573Y-52861337D01*
X160875088Y-52800014D01*
X160874637Y-52797847D01*
X160843738Y-52642510D01*
X160843737Y-52642503D01*
X160792167Y-52518000D01*
X160783397Y-52496827D01*
X160783390Y-52496814D01*
X160695789Y-52365711D01*
X160695786Y-52365707D01*
X160584292Y-52254213D01*
X160584288Y-52254210D01*
X160453185Y-52166609D01*
X160453172Y-52166602D01*
X160307501Y-52106264D01*
X160307489Y-52106261D01*
X160152845Y-52075500D01*
X160152842Y-52075500D01*
X159995158Y-52075500D01*
X159995155Y-52075500D01*
X159840510Y-52106261D01*
X159840498Y-52106264D01*
X159694828Y-52166602D01*
X159694810Y-52166612D01*
X159690006Y-52169822D01*
X159623326Y-52190694D01*
X159555948Y-52172204D01*
X159552248Y-52169826D01*
X159512914Y-52143544D01*
X159512907Y-52143540D01*
X159367236Y-52083202D01*
X159367224Y-52083199D01*
X159212580Y-52052438D01*
X159212577Y-52052438D01*
X159054893Y-52052438D01*
X159054890Y-52052438D01*
X158900245Y-52083199D01*
X158900238Y-52083201D01*
X158823630Y-52114932D01*
X158754161Y-52122399D01*
X158691682Y-52091124D01*
X158673077Y-52069261D01*
X158606165Y-51969121D01*
X158606162Y-51969117D01*
X158494668Y-51857623D01*
X158494664Y-51857620D01*
X158363561Y-51770019D01*
X158363548Y-51770012D01*
X158217877Y-51709674D01*
X158217865Y-51709671D01*
X158063221Y-51678910D01*
X158063218Y-51678910D01*
X157905534Y-51678910D01*
X157905531Y-51678910D01*
X157750886Y-51709671D01*
X157750874Y-51709674D01*
X157614744Y-51766061D01*
X157567292Y-51775500D01*
X156701076Y-51775500D01*
X156634037Y-51755815D01*
X156588282Y-51703011D01*
X156577204Y-51645878D01*
X156577629Y-51636503D01*
X156586633Y-51591240D01*
X156586633Y-51438124D01*
X156586761Y-51435304D01*
X156587753Y-51432414D01*
X156590859Y-51408830D01*
X156598766Y-51379323D01*
X156598766Y-51221211D01*
X156598766Y-51221209D01*
X156557842Y-51068481D01*
X156478784Y-50931550D01*
X156366981Y-50819747D01*
X156230050Y-50740689D01*
X156077322Y-50699765D01*
X155919208Y-50699765D01*
X155919206Y-50699765D01*
X155889694Y-50707673D01*
X155857602Y-50711898D01*
X155707288Y-50711898D01*
X155552643Y-50742659D01*
X155552631Y-50742662D01*
X155406960Y-50803000D01*
X155406947Y-50803007D01*
X155275258Y-50891000D01*
X155257211Y-50896650D01*
X155241302Y-50906875D01*
X155210340Y-50911326D01*
X155208580Y-50911878D01*
X155206367Y-50911898D01*
X154957172Y-50911898D01*
X154957156Y-50911897D01*
X154949560Y-50911897D01*
X154791445Y-50911897D01*
X154718112Y-50931547D01*
X154638716Y-50952821D01*
X154638711Y-50952824D01*
X154501792Y-51031873D01*
X154501784Y-51031879D01*
X153519481Y-52014182D01*
X153519475Y-52014190D01*
X153469801Y-52100230D01*
X153469801Y-52100231D01*
X153440423Y-52151115D01*
X153399499Y-52303843D01*
X153399499Y-52303845D01*
X153399499Y-52471946D01*
X153399500Y-52471959D01*
X153399500Y-62613444D01*
X153379815Y-62680483D01*
X153327011Y-62726238D01*
X153257853Y-62736182D01*
X153239575Y-62731202D01*
X153239324Y-62732031D01*
X153233500Y-62730264D01*
X153233497Y-62730263D01*
X153233492Y-62730262D01*
X153233489Y-62730261D01*
X153078845Y-62699500D01*
X153078842Y-62699500D01*
X152921158Y-62699500D01*
X152921155Y-62699500D01*
X152766510Y-62730261D01*
X152766498Y-62730264D01*
X152620827Y-62790602D01*
X152620814Y-62790609D01*
X152489711Y-62878210D01*
X152489707Y-62878213D01*
X152378213Y-62989707D01*
X152378210Y-62989711D01*
X152290609Y-63120814D01*
X152290602Y-63120827D01*
X152230264Y-63266498D01*
X152230261Y-63266508D01*
X152199361Y-63421850D01*
X152166976Y-63483761D01*
X152165425Y-63485339D01*
X146887584Y-68763181D01*
X146826261Y-68796666D01*
X146799903Y-68799500D01*
X145579766Y-68799500D01*
X145512727Y-68779815D01*
X145510875Y-68778602D01*
X145379185Y-68690609D01*
X145379172Y-68690602D01*
X145233501Y-68630264D01*
X145233489Y-68630261D01*
X145078845Y-68599500D01*
X145078842Y-68599500D01*
X144921158Y-68599500D01*
X144921155Y-68599500D01*
X144766510Y-68630261D01*
X144766498Y-68630264D01*
X144620827Y-68690602D01*
X144620814Y-68690609D01*
X144489711Y-68778210D01*
X144489707Y-68778213D01*
X144378213Y-68889707D01*
X144378210Y-68889711D01*
X144290609Y-69020814D01*
X144290602Y-69020827D01*
X144230264Y-69166498D01*
X144230261Y-69166508D01*
X144203769Y-69299692D01*
X144171384Y-69361603D01*
X144110668Y-69396177D01*
X144082152Y-69399500D01*
X141079766Y-69399500D01*
X141012727Y-69379815D01*
X141010875Y-69378602D01*
X140879185Y-69290609D01*
X140879172Y-69290602D01*
X140733501Y-69230264D01*
X140733489Y-69230261D01*
X140578845Y-69199500D01*
X140578842Y-69199500D01*
X140421158Y-69199500D01*
X140421155Y-69199500D01*
X140266510Y-69230261D01*
X140266498Y-69230264D01*
X140120827Y-69290602D01*
X140120814Y-69290609D01*
X139989711Y-69378210D01*
X139989707Y-69378213D01*
X139878213Y-69489707D01*
X139853102Y-69527289D01*
X139799489Y-69572093D01*
X139730164Y-69580800D01*
X139667137Y-69550645D01*
X139646898Y-69527289D01*
X139621786Y-69489707D01*
X139510292Y-69378213D01*
X139510288Y-69378210D01*
X139379185Y-69290609D01*
X139379179Y-69290606D01*
X139361589Y-69283320D01*
X139307186Y-69239478D01*
X139285122Y-69173184D01*
X139287425Y-69144571D01*
X139300500Y-69078842D01*
X139300500Y-68921158D01*
X139300500Y-68921155D01*
X139300499Y-68921153D01*
X139278389Y-68810000D01*
X139269737Y-68766503D01*
X139265049Y-68755185D01*
X139209397Y-68620827D01*
X139209390Y-68620814D01*
X139121789Y-68489711D01*
X139121786Y-68489707D01*
X139010292Y-68378213D01*
X139010288Y-68378210D01*
X138879185Y-68290609D01*
X138879172Y-68290602D01*
X138733501Y-68230264D01*
X138733489Y-68230261D01*
X138578845Y-68199500D01*
X138578842Y-68199500D01*
X138421158Y-68199500D01*
X138421155Y-68199500D01*
X138266510Y-68230261D01*
X138266498Y-68230264D01*
X138120827Y-68290602D01*
X138120814Y-68290609D01*
X137989711Y-68378210D01*
X137989707Y-68378213D01*
X137878213Y-68489707D01*
X137878210Y-68489711D01*
X137790609Y-68620814D01*
X137790602Y-68620827D01*
X137730264Y-68766498D01*
X137730261Y-68766510D01*
X137699500Y-68921153D01*
X137699500Y-69078846D01*
X137730261Y-69233489D01*
X137730264Y-69233501D01*
X137789061Y-69375450D01*
X137798500Y-69422902D01*
X137798500Y-76867059D01*
X137778815Y-76934098D01*
X137726011Y-76979853D01*
X137656853Y-76989797D01*
X137593297Y-76960772D01*
X137586819Y-76954740D01*
X137510292Y-76878213D01*
X137510288Y-76878210D01*
X137379185Y-76790609D01*
X137379172Y-76790602D01*
X137233501Y-76730264D01*
X137233489Y-76730261D01*
X137078845Y-76699500D01*
X137078842Y-76699500D01*
X136921158Y-76699500D01*
X136921155Y-76699500D01*
X136766510Y-76730261D01*
X136766498Y-76730264D01*
X136620827Y-76790602D01*
X136620814Y-76790609D01*
X136489711Y-76878210D01*
X136489707Y-76878213D01*
X136378213Y-76989707D01*
X136378210Y-76989711D01*
X136290609Y-77120814D01*
X136290602Y-77120827D01*
X136230264Y-77266498D01*
X136230261Y-77266510D01*
X136199500Y-77421153D01*
X136199500Y-77578846D01*
X136230261Y-77733489D01*
X136230264Y-77733501D01*
X136290602Y-77879172D01*
X136290609Y-77879185D01*
X136378602Y-78010874D01*
X136399480Y-78077551D01*
X136399500Y-78079765D01*
X136399500Y-98382144D01*
X136379815Y-98449183D01*
X136327011Y-98494938D01*
X136275500Y-98506144D01*
X136227799Y-98506144D01*
X136073154Y-98536905D01*
X136073142Y-98536908D01*
X135927471Y-98597246D01*
X135927458Y-98597253D01*
X135796355Y-98684854D01*
X135796351Y-98684857D01*
X135684857Y-98796351D01*
X135684854Y-98796355D01*
X135597253Y-98927458D01*
X135597246Y-98927471D01*
X135536908Y-99073142D01*
X135536905Y-99073154D01*
X135506144Y-99227797D01*
X135506144Y-99385490D01*
X135536905Y-99540133D01*
X135536908Y-99540145D01*
X135597246Y-99685816D01*
X135597253Y-99685829D01*
X135684854Y-99816932D01*
X135684857Y-99816936D01*
X135796351Y-99928430D01*
X135796356Y-99928434D01*
X135844389Y-99960528D01*
X135889195Y-100014140D01*
X135899500Y-100063631D01*
X135899500Y-103684025D01*
X135879815Y-103751064D01*
X135827011Y-103796819D01*
X135757853Y-103806763D01*
X135751309Y-103805642D01*
X135668519Y-103789174D01*
X135668516Y-103789174D01*
X135510832Y-103789174D01*
X135510829Y-103789174D01*
X135356184Y-103819935D01*
X135356172Y-103819938D01*
X135252065Y-103863061D01*
X135204613Y-103872500D01*
X134039357Y-103872500D01*
X133972318Y-103852815D01*
X133970466Y-103851602D01*
X133879185Y-103790609D01*
X133879172Y-103790602D01*
X133733501Y-103730264D01*
X133733489Y-103730261D01*
X133578845Y-103699500D01*
X133578842Y-103699500D01*
X133421158Y-103699500D01*
X133421155Y-103699500D01*
X133266510Y-103730261D01*
X133266498Y-103730264D01*
X133120827Y-103790602D01*
X133120814Y-103790609D01*
X132989711Y-103878210D01*
X132989707Y-103878213D01*
X132878213Y-103989707D01*
X132854602Y-104025044D01*
X132800989Y-104069848D01*
X132731664Y-104078555D01*
X132668637Y-104048400D01*
X132631918Y-103988956D01*
X132627500Y-103956152D01*
X132627500Y-101938194D01*
X132603386Y-101816970D01*
X132603385Y-101816969D01*
X132603385Y-101816965D01*
X132580458Y-101761613D01*
X132556086Y-101702773D01*
X132556079Y-101702760D01*
X132487412Y-101599993D01*
X132462770Y-101575351D01*
X132400008Y-101512589D01*
X127212996Y-96325577D01*
X134144975Y-96325577D01*
X134250236Y-96369178D01*
X134250240Y-96369179D01*
X134395126Y-96397999D01*
X134395129Y-96398000D01*
X134542871Y-96398000D01*
X134542873Y-96397999D01*
X134687760Y-96369179D01*
X134687775Y-96369175D01*
X134793024Y-96325578D01*
X134793024Y-96325577D01*
X134469001Y-96001554D01*
X134469000Y-96001554D01*
X134144975Y-96325577D01*
X127212996Y-96325577D01*
X126262996Y-95375577D01*
X133569975Y-95375577D01*
X133650127Y-95408778D01*
X133704530Y-95452620D01*
X133726594Y-95518914D01*
X133724291Y-95547527D01*
X133719000Y-95574129D01*
X133719000Y-95721873D01*
X133747820Y-95866759D01*
X133747822Y-95866767D01*
X133791421Y-95972024D01*
X134204542Y-95558904D01*
X134265865Y-95525419D01*
X134335557Y-95530403D01*
X134359242Y-95545625D01*
X134341836Y-95563032D01*
X134319000Y-95618163D01*
X134319000Y-95677837D01*
X134341836Y-95732968D01*
X134384032Y-95775164D01*
X134439163Y-95798000D01*
X134498837Y-95798000D01*
X134553968Y-95775164D01*
X134596164Y-95732968D01*
X134619000Y-95677837D01*
X134619000Y-95618163D01*
X134596164Y-95563032D01*
X134580048Y-95546916D01*
X134619417Y-95525419D01*
X134689109Y-95530403D01*
X134733457Y-95558904D01*
X135146577Y-95972024D01*
X135146578Y-95972024D01*
X135190175Y-95866775D01*
X135190179Y-95866760D01*
X135218999Y-95721873D01*
X135219000Y-95721871D01*
X135219000Y-95574129D01*
X135213709Y-95547532D01*
X135219936Y-95477940D01*
X135262798Y-95422762D01*
X135287872Y-95408778D01*
X135368024Y-95375577D01*
X135044000Y-95051554D01*
X134686204Y-95409350D01*
X134624881Y-95442835D01*
X134555189Y-95437851D01*
X134510842Y-95409350D01*
X134469000Y-95367508D01*
X134427158Y-95409350D01*
X134365834Y-95442834D01*
X134296143Y-95437849D01*
X134251796Y-95409349D01*
X133894001Y-95051554D01*
X133894000Y-95051554D01*
X133569975Y-95375577D01*
X126262996Y-95375577D01*
X125511545Y-94624126D01*
X133144000Y-94624126D01*
X133144000Y-94771873D01*
X133172820Y-94916759D01*
X133172822Y-94916767D01*
X133216421Y-95022024D01*
X133540446Y-94698000D01*
X133540446Y-94697999D01*
X133510610Y-94668163D01*
X133744000Y-94668163D01*
X133744000Y-94727837D01*
X133766836Y-94782968D01*
X133809032Y-94825164D01*
X133864163Y-94848000D01*
X133923837Y-94848000D01*
X133978968Y-94825164D01*
X134021164Y-94782968D01*
X134044000Y-94727837D01*
X134044000Y-94698000D01*
X134247554Y-94698000D01*
X134469000Y-94919446D01*
X134690446Y-94698000D01*
X134660609Y-94668163D01*
X134894000Y-94668163D01*
X134894000Y-94727837D01*
X134916836Y-94782968D01*
X134959032Y-94825164D01*
X135014163Y-94848000D01*
X135073837Y-94848000D01*
X135128968Y-94825164D01*
X135171164Y-94782968D01*
X135194000Y-94727837D01*
X135194000Y-94697999D01*
X135397554Y-94697999D01*
X135397554Y-94698000D01*
X135721577Y-95022024D01*
X135721578Y-95022024D01*
X135765175Y-94916775D01*
X135765179Y-94916760D01*
X135793999Y-94771873D01*
X135794000Y-94771871D01*
X135794000Y-94624128D01*
X135793999Y-94624126D01*
X135765179Y-94479240D01*
X135765178Y-94479236D01*
X135721577Y-94373975D01*
X135397554Y-94697999D01*
X135194000Y-94697999D01*
X135194000Y-94668163D01*
X135171164Y-94613032D01*
X135128968Y-94570836D01*
X135073837Y-94548000D01*
X135014163Y-94548000D01*
X134959032Y-94570836D01*
X134916836Y-94613032D01*
X134894000Y-94668163D01*
X134660609Y-94668163D01*
X134469000Y-94476554D01*
X134247554Y-94698000D01*
X134044000Y-94698000D01*
X134044000Y-94668163D01*
X134021164Y-94613032D01*
X133978968Y-94570836D01*
X133923837Y-94548000D01*
X133864163Y-94548000D01*
X133809032Y-94570836D01*
X133766836Y-94613032D01*
X133744000Y-94668163D01*
X133510610Y-94668163D01*
X133216421Y-94373974D01*
X133216420Y-94373974D01*
X133172823Y-94479228D01*
X133172820Y-94479240D01*
X133144000Y-94624126D01*
X125511545Y-94624126D01*
X123808572Y-92921153D01*
X132699500Y-92921153D01*
X132699500Y-93078846D01*
X132730261Y-93233489D01*
X132730264Y-93233501D01*
X132790602Y-93379172D01*
X132790609Y-93379185D01*
X132878210Y-93510288D01*
X132878213Y-93510292D01*
X132989707Y-93621786D01*
X132989711Y-93621789D01*
X133120814Y-93709390D01*
X133120827Y-93709397D01*
X133253944Y-93764535D01*
X133266503Y-93769737D01*
X133421153Y-93800499D01*
X133421156Y-93800500D01*
X133477521Y-93800500D01*
X133544560Y-93820185D01*
X133590315Y-93872989D01*
X133600259Y-93942147D01*
X133574189Y-93999231D01*
X133569974Y-94020421D01*
X133893999Y-94344446D01*
X134251796Y-93986650D01*
X134313119Y-93953165D01*
X134382811Y-93958149D01*
X134427158Y-93986650D01*
X134469000Y-94028492D01*
X134510842Y-93986650D01*
X134572165Y-93953165D01*
X134641857Y-93958149D01*
X134686204Y-93986650D01*
X135044000Y-94344446D01*
X135044001Y-94344446D01*
X135368024Y-94020421D01*
X135287873Y-93987221D01*
X135233470Y-93943380D01*
X135211405Y-93877086D01*
X135213709Y-93848467D01*
X135219000Y-93821869D01*
X135219000Y-93674128D01*
X135218999Y-93674126D01*
X135190179Y-93529240D01*
X135190178Y-93529236D01*
X135146576Y-93423974D01*
X134733457Y-93837095D01*
X134672134Y-93870580D01*
X134602442Y-93865596D01*
X134578757Y-93850374D01*
X134596164Y-93832968D01*
X134619000Y-93777837D01*
X134619000Y-93718163D01*
X134596164Y-93663032D01*
X134553968Y-93620836D01*
X134498837Y-93598000D01*
X134439163Y-93598000D01*
X134384032Y-93620836D01*
X134367916Y-93636951D01*
X134346419Y-93597581D01*
X134351403Y-93527889D01*
X134379904Y-93483542D01*
X134793024Y-93070421D01*
X134687767Y-93026822D01*
X134687761Y-93026820D01*
X134610557Y-93011463D01*
X134548646Y-92979078D01*
X134514072Y-92918362D01*
X134517813Y-92848592D01*
X134547065Y-92802169D01*
X135012415Y-92336818D01*
X135073738Y-92303334D01*
X135100096Y-92300500D01*
X135238092Y-92300500D01*
X135238093Y-92300499D01*
X135392745Y-92269737D01*
X135538427Y-92209394D01*
X135669537Y-92121789D01*
X135781037Y-92010289D01*
X135868642Y-91879179D01*
X135928985Y-91733497D01*
X135959748Y-91578842D01*
X135959748Y-91421158D01*
X135959748Y-91421155D01*
X135959747Y-91421153D01*
X135959362Y-91419219D01*
X135928985Y-91266503D01*
X135885068Y-91160476D01*
X135868645Y-91120827D01*
X135868638Y-91120814D01*
X135781037Y-90989711D01*
X135781034Y-90989707D01*
X135669540Y-90878213D01*
X135669536Y-90878210D01*
X135538433Y-90790609D01*
X135538420Y-90790602D01*
X135392749Y-90730264D01*
X135392737Y-90730261D01*
X135238093Y-90699500D01*
X135238090Y-90699500D01*
X135080406Y-90699500D01*
X135080403Y-90699500D01*
X134925758Y-90730261D01*
X134925746Y-90730264D01*
X134780075Y-90790602D01*
X134780062Y-90790609D01*
X134648959Y-90878210D01*
X134648955Y-90878213D01*
X134537461Y-90989707D01*
X134537458Y-90989711D01*
X134449857Y-91120814D01*
X134449852Y-91120824D01*
X134402660Y-91234755D01*
X134375780Y-91274983D01*
X133485339Y-92165425D01*
X133424016Y-92198910D01*
X133421850Y-92199361D01*
X133266508Y-92230261D01*
X133266498Y-92230264D01*
X133120827Y-92290602D01*
X133120814Y-92290609D01*
X132989711Y-92378210D01*
X132989707Y-92378213D01*
X132878213Y-92489707D01*
X132878210Y-92489711D01*
X132790609Y-92620814D01*
X132790602Y-92620827D01*
X132730264Y-92766498D01*
X132730261Y-92766510D01*
X132699500Y-92921153D01*
X123808572Y-92921153D01*
X119163819Y-88276400D01*
X119130334Y-88215077D01*
X119127500Y-88188719D01*
X119127500Y-85532658D01*
X119147185Y-85465619D01*
X119199989Y-85419864D01*
X119269147Y-85409920D01*
X119325151Y-85433993D01*
X119325197Y-85433920D01*
X119325690Y-85434224D01*
X119328416Y-85435396D01*
X119331342Y-85437710D01*
X119331344Y-85437712D01*
X119480666Y-85529814D01*
X119647203Y-85584999D01*
X119749991Y-85595500D01*
X121090008Y-85595499D01*
X121192797Y-85584999D01*
X121359334Y-85529814D01*
X121508656Y-85437712D01*
X121632712Y-85313656D01*
X121724814Y-85164334D01*
X121724817Y-85164322D01*
X121725129Y-85163657D01*
X121725469Y-85163269D01*
X121728605Y-85158187D01*
X121729473Y-85158722D01*
X121771299Y-85111216D01*
X121838491Y-85092060D01*
X121905373Y-85112272D01*
X121925195Y-85128375D01*
X122067179Y-85270359D01*
X122241701Y-85397157D01*
X122433911Y-85495092D01*
X122639074Y-85561754D01*
X122706796Y-85572480D01*
X122852134Y-85595500D01*
X122852139Y-85595500D01*
X123067866Y-85595500D01*
X123186230Y-85576752D01*
X123280926Y-85561754D01*
X123486089Y-85495092D01*
X123678299Y-85397157D01*
X123852821Y-85270359D01*
X124005359Y-85117821D01*
X124129991Y-84946279D01*
X124185321Y-84903614D01*
X124254934Y-84897635D01*
X124316729Y-84930241D01*
X124330627Y-84946279D01*
X124455025Y-85117496D01*
X124455025Y-85117497D01*
X124607502Y-85269974D01*
X124781963Y-85396728D01*
X124974098Y-85494627D01*
X125179190Y-85561266D01*
X125250000Y-85572481D01*
X125250000Y-84542709D01*
X125270339Y-84554452D01*
X125421667Y-84595000D01*
X125578333Y-84595000D01*
X125729661Y-84554452D01*
X125750000Y-84542709D01*
X125750000Y-85572480D01*
X125820809Y-85561266D01*
X126025901Y-85494627D01*
X126218036Y-85396728D01*
X126392496Y-85269974D01*
X126392497Y-85269974D01*
X126544974Y-85117497D01*
X126544974Y-85117496D01*
X126671728Y-84943036D01*
X126769627Y-84750901D01*
X126836265Y-84545809D01*
X126870000Y-84332820D01*
X126870000Y-84250000D01*
X126042709Y-84250000D01*
X126054452Y-84229661D01*
X126095000Y-84078333D01*
X126095000Y-83921667D01*
X126054452Y-83770339D01*
X126042709Y-83750000D01*
X126870000Y-83750000D01*
X126870000Y-83667179D01*
X126836265Y-83454190D01*
X126769627Y-83249098D01*
X126671728Y-83056963D01*
X126544974Y-82882503D01*
X126544974Y-82882502D01*
X126392497Y-82730025D01*
X126218036Y-82603271D01*
X126025899Y-82505372D01*
X125820805Y-82438733D01*
X125750000Y-82427518D01*
X125750000Y-83457290D01*
X125729661Y-83445548D01*
X125578333Y-83405000D01*
X125421667Y-83405000D01*
X125270339Y-83445548D01*
X125250000Y-83457290D01*
X125250000Y-82427518D01*
X125249999Y-82427518D01*
X125179194Y-82438733D01*
X124974100Y-82505372D01*
X124781963Y-82603271D01*
X124607503Y-82730025D01*
X124607502Y-82730025D01*
X124455024Y-82882503D01*
X124330627Y-83053720D01*
X124275296Y-83096385D01*
X124205683Y-83102364D01*
X124143888Y-83069758D01*
X124129991Y-83053720D01*
X124108271Y-83023825D01*
X124005359Y-82882179D01*
X123852821Y-82729641D01*
X123678299Y-82602843D01*
X123486089Y-82504908D01*
X123280926Y-82438246D01*
X123280924Y-82438245D01*
X123280922Y-82438245D01*
X123067866Y-82404500D01*
X123067861Y-82404500D01*
X122852139Y-82404500D01*
X122852134Y-82404500D01*
X122639077Y-82438245D01*
X122433908Y-82504909D01*
X122241700Y-82602843D01*
X122067180Y-82729640D01*
X121925195Y-82871625D01*
X121863872Y-82905109D01*
X121794180Y-82900125D01*
X121738247Y-82858253D01*
X121725132Y-82836348D01*
X121724815Y-82835669D01*
X121724814Y-82835668D01*
X121724814Y-82835666D01*
X121632712Y-82686344D01*
X121508656Y-82562288D01*
X121359334Y-82470186D01*
X121192797Y-82415001D01*
X121192795Y-82415000D01*
X121090010Y-82404500D01*
X119749998Y-82404500D01*
X119749981Y-82404501D01*
X119647203Y-82415000D01*
X119647200Y-82415001D01*
X119480668Y-82470185D01*
X119480663Y-82470187D01*
X119331342Y-82562289D01*
X119328409Y-82564609D01*
X119326018Y-82565573D01*
X119325197Y-82566080D01*
X119325110Y-82565939D01*
X119263613Y-82590748D01*
X119194972Y-82577706D01*
X119144277Y-82529625D01*
X119127500Y-82467341D01*
X119127500Y-80039356D01*
X119147185Y-79972317D01*
X119148398Y-79970465D01*
X119149763Y-79968422D01*
X119209394Y-79879179D01*
X119269737Y-79733497D01*
X119300500Y-79578842D01*
X119300500Y-79421158D01*
X119300500Y-79421155D01*
X119300499Y-79421153D01*
X119292668Y-79381785D01*
X119269737Y-79266503D01*
X119262537Y-79249121D01*
X119209397Y-79120827D01*
X119209390Y-79120814D01*
X119121789Y-78989711D01*
X119121786Y-78989707D01*
X119010292Y-78878213D01*
X119010288Y-78878210D01*
X118879185Y-78790609D01*
X118879172Y-78790602D01*
X118733501Y-78730264D01*
X118733489Y-78730261D01*
X118578845Y-78699500D01*
X118578842Y-78699500D01*
X118421158Y-78699500D01*
X118421155Y-78699500D01*
X118266510Y-78730261D01*
X118266498Y-78730264D01*
X118120827Y-78790602D01*
X118120814Y-78790609D01*
X117989711Y-78878210D01*
X117989707Y-78878213D01*
X117878213Y-78989707D01*
X117878210Y-78989711D01*
X117827602Y-79065451D01*
X117773989Y-79110256D01*
X117704664Y-79118963D01*
X117641637Y-79088808D01*
X117604918Y-79029365D01*
X117600500Y-78996560D01*
X117600500Y-64714765D01*
X117620185Y-64647726D01*
X117621398Y-64645874D01*
X117666188Y-64578842D01*
X117709394Y-64514179D01*
X117769737Y-64368497D01*
X117800500Y-64213842D01*
X117800500Y-64056158D01*
X117800500Y-64056155D01*
X117800499Y-64056153D01*
X117769738Y-63901510D01*
X117769737Y-63901503D01*
X117769735Y-63901498D01*
X117709397Y-63755827D01*
X117709390Y-63755814D01*
X117621789Y-63624711D01*
X117621786Y-63624707D01*
X117510292Y-63513213D01*
X117510288Y-63513210D01*
X117394537Y-63435867D01*
X117349732Y-63382255D01*
X117341025Y-63312930D01*
X117371180Y-63249902D01*
X117430623Y-63213183D01*
X117463428Y-63208765D01*
X117730499Y-63208765D01*
X117797538Y-63228450D01*
X117799390Y-63229663D01*
X117931079Y-63317655D01*
X117931092Y-63317662D01*
X118024905Y-63356520D01*
X118076768Y-63378002D01*
X118231418Y-63408764D01*
X118231421Y-63408765D01*
X118231423Y-63408765D01*
X118389109Y-63408765D01*
X118389110Y-63408764D01*
X118543762Y-63378002D01*
X118689444Y-63317659D01*
X118820554Y-63230054D01*
X118932054Y-63118554D01*
X119019659Y-62987444D01*
X119080002Y-62841762D01*
X119110765Y-62687107D01*
X119110765Y-62529423D01*
X119110765Y-62529420D01*
X119110764Y-62529418D01*
X119080003Y-62374775D01*
X119080002Y-62374768D01*
X119055835Y-62316423D01*
X119019662Y-62229092D01*
X119019655Y-62229079D01*
X118932054Y-62097976D01*
X118932051Y-62097972D01*
X118820557Y-61986478D01*
X118820553Y-61986475D01*
X118689450Y-61898874D01*
X118689437Y-61898867D01*
X118543766Y-61838529D01*
X118543754Y-61838526D01*
X118389110Y-61807765D01*
X118389107Y-61807765D01*
X118231423Y-61807765D01*
X118231420Y-61807765D01*
X118076775Y-61838526D01*
X118076763Y-61838529D01*
X117931092Y-61898867D01*
X117931079Y-61898874D01*
X117799390Y-61986867D01*
X117732712Y-62007745D01*
X117730499Y-62007765D01*
X116478405Y-62007765D01*
X116478389Y-62007764D01*
X116470793Y-62007764D01*
X116312678Y-62007764D01*
X116236314Y-62028226D01*
X116159949Y-62048688D01*
X116159944Y-62048691D01*
X116023025Y-62127740D01*
X116023017Y-62127746D01*
X114519479Y-63631284D01*
X114491797Y-63679232D01*
X114480096Y-63699500D01*
X114440423Y-63768215D01*
X114399499Y-63920943D01*
X114399499Y-63920945D01*
X114399499Y-64089046D01*
X114399500Y-64089059D01*
X114399500Y-73349902D01*
X114379815Y-73416941D01*
X114363181Y-73437583D01*
X111353563Y-76447200D01*
X111292240Y-76480685D01*
X111227564Y-76477450D01*
X111101370Y-76436447D01*
X110868097Y-76399500D01*
X110868092Y-76399500D01*
X110631908Y-76399500D01*
X110631903Y-76399500D01*
X110398631Y-76436446D01*
X110174003Y-76509433D01*
X109963566Y-76616657D01*
X109854550Y-76695862D01*
X109772490Y-76755483D01*
X109772488Y-76755485D01*
X109772487Y-76755485D01*
X109605485Y-76922487D01*
X109605485Y-76922488D01*
X109605483Y-76922490D01*
X109545862Y-77004550D01*
X109466657Y-77113566D01*
X109406417Y-77231795D01*
X109358442Y-77282591D01*
X109295932Y-77299500D01*
X105704068Y-77299500D01*
X105637029Y-77279815D01*
X105593583Y-77231795D01*
X105533343Y-77113567D01*
X105394517Y-76922490D01*
X105227510Y-76755483D01*
X105036433Y-76616657D01*
X104825996Y-76509433D01*
X104601368Y-76436446D01*
X104368097Y-76399500D01*
X104368092Y-76399500D01*
X104131908Y-76399500D01*
X104131903Y-76399500D01*
X103898631Y-76436446D01*
X103674003Y-76509433D01*
X103463566Y-76616657D01*
X103354550Y-76695862D01*
X103272490Y-76755483D01*
X103272488Y-76755485D01*
X103272487Y-76755485D01*
X103105485Y-76922487D01*
X103105485Y-76922488D01*
X103105483Y-76922490D01*
X103045862Y-77004550D01*
X102966657Y-77113566D01*
X102859433Y-77324003D01*
X102786446Y-77548631D01*
X102749500Y-77781902D01*
X92695008Y-77781902D01*
X92712157Y-77758299D01*
X92810092Y-77566089D01*
X92876754Y-77360926D01*
X92897206Y-77231795D01*
X92910500Y-77147866D01*
X92910500Y-76482133D01*
X92876754Y-76269077D01*
X92876754Y-76269074D01*
X92810092Y-76063911D01*
X92712157Y-75871701D01*
X92585359Y-75697179D01*
X92432821Y-75544641D01*
X92258299Y-75417843D01*
X92066089Y-75319908D01*
X91860926Y-75253246D01*
X91860924Y-75253245D01*
X91860922Y-75253245D01*
X91647866Y-75219500D01*
X91647861Y-75219500D01*
X91432139Y-75219500D01*
X91432134Y-75219500D01*
X91219077Y-75253245D01*
X91013908Y-75319909D01*
X90821700Y-75417843D01*
X90647180Y-75544640D01*
X90504816Y-75687004D01*
X90443493Y-75720488D01*
X90373801Y-75715504D01*
X90317868Y-75673632D01*
X90304748Y-75651716D01*
X90304356Y-75650876D01*
X90212315Y-75501654D01*
X90088345Y-75377684D01*
X89939124Y-75285643D01*
X89939119Y-75285641D01*
X89772697Y-75230494D01*
X89772690Y-75230493D01*
X89669986Y-75220000D01*
X89250000Y-75220000D01*
X89250000Y-76272290D01*
X89229661Y-76260548D01*
X89078333Y-76220000D01*
X88921667Y-76220000D01*
X88770339Y-76260548D01*
X88750000Y-76272290D01*
X88750000Y-75220000D01*
X88330028Y-75220000D01*
X88330012Y-75220001D01*
X88227302Y-75230494D01*
X88060880Y-75285641D01*
X88060875Y-75285643D01*
X87911654Y-75377684D01*
X87787684Y-75501654D01*
X87695643Y-75650875D01*
X87695641Y-75650880D01*
X87640494Y-75817302D01*
X87640493Y-75817309D01*
X87630000Y-75920013D01*
X83750500Y-75920013D01*
X83750500Y-73281947D01*
X102750000Y-73281947D01*
X102750000Y-73518052D01*
X102786934Y-73751247D01*
X102859897Y-73975802D01*
X102967087Y-74186174D01*
X103027338Y-74269104D01*
X103027340Y-74269105D01*
X103726212Y-73570233D01*
X103737482Y-73612292D01*
X103809890Y-73737708D01*
X103912292Y-73840110D01*
X104037708Y-73912518D01*
X104079765Y-73923787D01*
X103380893Y-74622658D01*
X103463828Y-74682914D01*
X103674197Y-74790102D01*
X103898752Y-74863065D01*
X103898751Y-74863065D01*
X104131948Y-74900000D01*
X104368052Y-74900000D01*
X104601247Y-74863065D01*
X104825802Y-74790102D01*
X105036163Y-74682918D01*
X105036169Y-74682914D01*
X105119104Y-74622658D01*
X105119105Y-74622658D01*
X104420233Y-73923787D01*
X104462292Y-73912518D01*
X104587708Y-73840110D01*
X104690110Y-73737708D01*
X104762518Y-73612292D01*
X104773787Y-73570234D01*
X105472658Y-74269105D01*
X105472658Y-74269104D01*
X105532914Y-74186169D01*
X105532918Y-74186163D01*
X105640102Y-73975802D01*
X105713065Y-73751247D01*
X105750000Y-73518052D01*
X105750000Y-73281947D01*
X109250000Y-73281947D01*
X109250000Y-73518052D01*
X109286934Y-73751247D01*
X109359897Y-73975802D01*
X109467087Y-74186174D01*
X109527338Y-74269104D01*
X109527340Y-74269105D01*
X110226212Y-73570233D01*
X110237482Y-73612292D01*
X110309890Y-73737708D01*
X110412292Y-73840110D01*
X110537708Y-73912518D01*
X110579765Y-73923787D01*
X109880893Y-74622658D01*
X109963828Y-74682914D01*
X110174197Y-74790102D01*
X110398752Y-74863065D01*
X110398751Y-74863065D01*
X110631948Y-74900000D01*
X110868052Y-74900000D01*
X111101247Y-74863065D01*
X111325802Y-74790102D01*
X111536163Y-74682918D01*
X111536169Y-74682914D01*
X111619104Y-74622658D01*
X111619105Y-74622658D01*
X110920233Y-73923787D01*
X110962292Y-73912518D01*
X111087708Y-73840110D01*
X111190110Y-73737708D01*
X111262518Y-73612292D01*
X111273787Y-73570233D01*
X111972658Y-74269105D01*
X111972658Y-74269104D01*
X112032914Y-74186169D01*
X112032918Y-74186163D01*
X112140102Y-73975802D01*
X112213065Y-73751247D01*
X112250000Y-73518052D01*
X112250000Y-73281947D01*
X112213065Y-73048752D01*
X112140102Y-72824197D01*
X112032914Y-72613828D01*
X111972658Y-72530894D01*
X111972658Y-72530893D01*
X111273787Y-73229765D01*
X111262518Y-73187708D01*
X111190110Y-73062292D01*
X111087708Y-72959890D01*
X110962292Y-72887482D01*
X110920234Y-72876212D01*
X111619105Y-72177340D01*
X111619104Y-72177338D01*
X111536174Y-72117087D01*
X111325802Y-72009897D01*
X111101247Y-71936934D01*
X111101248Y-71936934D01*
X110868052Y-71900000D01*
X110631948Y-71900000D01*
X110398752Y-71936934D01*
X110174197Y-72009897D01*
X109963830Y-72117084D01*
X109880894Y-72177340D01*
X110579766Y-72876212D01*
X110537708Y-72887482D01*
X110412292Y-72959890D01*
X110309890Y-73062292D01*
X110237482Y-73187708D01*
X110226212Y-73229765D01*
X109527340Y-72530894D01*
X109467084Y-72613830D01*
X109359897Y-72824197D01*
X109286934Y-73048752D01*
X109250000Y-73281947D01*
X105750000Y-73281947D01*
X105713065Y-73048752D01*
X105640102Y-72824197D01*
X105532914Y-72613828D01*
X105472658Y-72530894D01*
X105472658Y-72530893D01*
X104773787Y-73229765D01*
X104762518Y-73187708D01*
X104690110Y-73062292D01*
X104587708Y-72959890D01*
X104462292Y-72887482D01*
X104420234Y-72876212D01*
X105119105Y-72177340D01*
X105119104Y-72177339D01*
X105036174Y-72117087D01*
X104825802Y-72009897D01*
X104601247Y-71936934D01*
X104601248Y-71936934D01*
X104368052Y-71900000D01*
X104131948Y-71900000D01*
X103898752Y-71936934D01*
X103674197Y-72009897D01*
X103463830Y-72117084D01*
X103380894Y-72177340D01*
X104079766Y-72876212D01*
X104037708Y-72887482D01*
X103912292Y-72959890D01*
X103809890Y-73062292D01*
X103737482Y-73187708D01*
X103726212Y-73229766D01*
X103027340Y-72530894D01*
X102967084Y-72613830D01*
X102859897Y-72824197D01*
X102786934Y-73048752D01*
X102750000Y-73281947D01*
X83750500Y-73281947D01*
X83750500Y-67665013D01*
X87630000Y-67665013D01*
X87630000Y-68310000D01*
X88457291Y-68310000D01*
X88445548Y-68330339D01*
X88405000Y-68481667D01*
X88405000Y-68638333D01*
X88445548Y-68789661D01*
X88457291Y-68810000D01*
X87630001Y-68810000D01*
X87630001Y-69454986D01*
X87640494Y-69557697D01*
X87695641Y-69724119D01*
X87695643Y-69724124D01*
X87787684Y-69873345D01*
X87911654Y-69997315D01*
X88060875Y-70089356D01*
X88060880Y-70089358D01*
X88227302Y-70144505D01*
X88227309Y-70144506D01*
X88330019Y-70154999D01*
X88749999Y-70154999D01*
X88750000Y-70154998D01*
X88750000Y-69102709D01*
X88770339Y-69114452D01*
X88921667Y-69155000D01*
X89078333Y-69155000D01*
X89229661Y-69114452D01*
X89250000Y-69102709D01*
X89250000Y-70154999D01*
X89669972Y-70154999D01*
X89669986Y-70154998D01*
X89772697Y-70144505D01*
X89939119Y-70089358D01*
X89939124Y-70089356D01*
X90088345Y-69997315D01*
X90212315Y-69873345D01*
X90304354Y-69724127D01*
X90304745Y-69723289D01*
X90305167Y-69722809D01*
X90308149Y-69717975D01*
X90308974Y-69718484D01*
X90350910Y-69670843D01*
X90418100Y-69651681D01*
X90484984Y-69671887D01*
X90504816Y-69687996D01*
X90647179Y-69830359D01*
X90821701Y-69957157D01*
X91013911Y-70055092D01*
X91219074Y-70121754D01*
X91298973Y-70134408D01*
X91432134Y-70155500D01*
X91432139Y-70155500D01*
X91647866Y-70155500D01*
X91766230Y-70136752D01*
X91860926Y-70121754D01*
X92066089Y-70055092D01*
X92258299Y-69957157D01*
X92432821Y-69830359D01*
X92585359Y-69677821D01*
X92712157Y-69503299D01*
X92810092Y-69311089D01*
X92876754Y-69105926D01*
X92895702Y-68986292D01*
X92910500Y-68892866D01*
X92910500Y-68227133D01*
X92876754Y-68014077D01*
X92876754Y-68014074D01*
X92810092Y-67808911D01*
X92712157Y-67616701D01*
X92585359Y-67442179D01*
X92432821Y-67289641D01*
X92258299Y-67162843D01*
X92066089Y-67064908D01*
X91860926Y-66998246D01*
X91860924Y-66998245D01*
X91860922Y-66998245D01*
X91647866Y-66964500D01*
X91647861Y-66964500D01*
X91432139Y-66964500D01*
X91432134Y-66964500D01*
X91219077Y-66998245D01*
X91013908Y-67064909D01*
X90821700Y-67162843D01*
X90647180Y-67289640D01*
X90504816Y-67432004D01*
X90443493Y-67465488D01*
X90373801Y-67460504D01*
X90317868Y-67418632D01*
X90304748Y-67396716D01*
X90304356Y-67395876D01*
X90212315Y-67246654D01*
X90088345Y-67122684D01*
X89939124Y-67030643D01*
X89939119Y-67030641D01*
X89772697Y-66975494D01*
X89772690Y-66975493D01*
X89669986Y-66965000D01*
X89250000Y-66965000D01*
X89250000Y-68017290D01*
X89229661Y-68005548D01*
X89078333Y-67965000D01*
X88921667Y-67965000D01*
X88770339Y-68005548D01*
X88750000Y-68017290D01*
X88750000Y-66965000D01*
X88330028Y-66965000D01*
X88330012Y-66965001D01*
X88227302Y-66975494D01*
X88060880Y-67030641D01*
X88060875Y-67030643D01*
X87911654Y-67122684D01*
X87787684Y-67246654D01*
X87695643Y-67395875D01*
X87695641Y-67395880D01*
X87640494Y-67562302D01*
X87640493Y-67562309D01*
X87630000Y-67665013D01*
X83750500Y-67665013D01*
X83750500Y-59303013D01*
X87630000Y-59303013D01*
X87630000Y-59948000D01*
X88457291Y-59948000D01*
X88445548Y-59968339D01*
X88405000Y-60119667D01*
X88405000Y-60276333D01*
X88445548Y-60427661D01*
X88457291Y-60448000D01*
X87630001Y-60448000D01*
X87630001Y-61092986D01*
X87640494Y-61195697D01*
X87695641Y-61362119D01*
X87695643Y-61362124D01*
X87787684Y-61511345D01*
X87911654Y-61635315D01*
X88060875Y-61727356D01*
X88060880Y-61727358D01*
X88227302Y-61782505D01*
X88227309Y-61782506D01*
X88330019Y-61792999D01*
X88749999Y-61792999D01*
X88750000Y-61792998D01*
X88750000Y-60740709D01*
X88770339Y-60752452D01*
X88921667Y-60793000D01*
X89078333Y-60793000D01*
X89229661Y-60752452D01*
X89250000Y-60740709D01*
X89250000Y-61792999D01*
X89669972Y-61792999D01*
X89669986Y-61792998D01*
X89772697Y-61782505D01*
X89939119Y-61727358D01*
X89939124Y-61727356D01*
X90088345Y-61635315D01*
X90212315Y-61511345D01*
X90304354Y-61362127D01*
X90304745Y-61361289D01*
X90305167Y-61360809D01*
X90308149Y-61355975D01*
X90308974Y-61356484D01*
X90350910Y-61308843D01*
X90418100Y-61289681D01*
X90484984Y-61309887D01*
X90504816Y-61325996D01*
X90647179Y-61468359D01*
X90821701Y-61595157D01*
X91013911Y-61693092D01*
X91219074Y-61759754D01*
X91298973Y-61772408D01*
X91432134Y-61793500D01*
X91432139Y-61793500D01*
X91647866Y-61793500D01*
X91766230Y-61774752D01*
X91860926Y-61759754D01*
X92066089Y-61693092D01*
X92258299Y-61595157D01*
X92432821Y-61468359D01*
X92585359Y-61315821D01*
X92712157Y-61141299D01*
X92810092Y-60949089D01*
X92876754Y-60743926D01*
X92902900Y-60578846D01*
X92910500Y-60530866D01*
X92910500Y-59865133D01*
X92887810Y-59721882D01*
X92876754Y-59652074D01*
X92810092Y-59446911D01*
X92712157Y-59254701D01*
X92585359Y-59080179D01*
X92432821Y-58927641D01*
X92258299Y-58800843D01*
X92066089Y-58702908D01*
X91860926Y-58636246D01*
X91860924Y-58636245D01*
X91860922Y-58636245D01*
X91647866Y-58602500D01*
X91647861Y-58602500D01*
X91432139Y-58602500D01*
X91432134Y-58602500D01*
X91219077Y-58636245D01*
X91013908Y-58702909D01*
X90821700Y-58800843D01*
X90647180Y-58927640D01*
X90504816Y-59070004D01*
X90443493Y-59103488D01*
X90373801Y-59098504D01*
X90317868Y-59056632D01*
X90304748Y-59034716D01*
X90304356Y-59033876D01*
X90212315Y-58884654D01*
X90088345Y-58760684D01*
X89939124Y-58668643D01*
X89939119Y-58668641D01*
X89772697Y-58613494D01*
X89772690Y-58613493D01*
X89669986Y-58603000D01*
X89250000Y-58603000D01*
X89250000Y-59655290D01*
X89229661Y-59643548D01*
X89078333Y-59603000D01*
X88921667Y-59603000D01*
X88770339Y-59643548D01*
X88750000Y-59655290D01*
X88750000Y-58603000D01*
X88330028Y-58603000D01*
X88330012Y-58603001D01*
X88227302Y-58613494D01*
X88060880Y-58668641D01*
X88060875Y-58668643D01*
X87911654Y-58760684D01*
X87787684Y-58884654D01*
X87695643Y-59033875D01*
X87695641Y-59033880D01*
X87640494Y-59200302D01*
X87640493Y-59200309D01*
X87630000Y-59303013D01*
X83750500Y-59303013D01*
X83750500Y-51028013D01*
X87630000Y-51028013D01*
X87630000Y-51673000D01*
X88457291Y-51673000D01*
X88445548Y-51693339D01*
X88405000Y-51844667D01*
X88405000Y-52001333D01*
X88445548Y-52152661D01*
X88457291Y-52173000D01*
X87630001Y-52173000D01*
X87630001Y-52817986D01*
X87640494Y-52920697D01*
X87695641Y-53087119D01*
X87695643Y-53087124D01*
X87787684Y-53236345D01*
X87911654Y-53360315D01*
X88060875Y-53452356D01*
X88060880Y-53452358D01*
X88227302Y-53507505D01*
X88227309Y-53507506D01*
X88330019Y-53517999D01*
X88749999Y-53517999D01*
X88750000Y-53517998D01*
X88750000Y-52465709D01*
X88770339Y-52477452D01*
X88921667Y-52518000D01*
X89078333Y-52518000D01*
X89229661Y-52477452D01*
X89250000Y-52465709D01*
X89250000Y-53517999D01*
X89669972Y-53517999D01*
X89669986Y-53517998D01*
X89772697Y-53507505D01*
X89939119Y-53452358D01*
X89939124Y-53452356D01*
X90088345Y-53360315D01*
X90212315Y-53236345D01*
X90304354Y-53087127D01*
X90304745Y-53086289D01*
X90305167Y-53085809D01*
X90308149Y-53080975D01*
X90308974Y-53081484D01*
X90350910Y-53033843D01*
X90418100Y-53014681D01*
X90484984Y-53034887D01*
X90504816Y-53050996D01*
X90647179Y-53193359D01*
X90821701Y-53320157D01*
X91013911Y-53418092D01*
X91219074Y-53484754D01*
X91298973Y-53497408D01*
X91432134Y-53518500D01*
X91432139Y-53518500D01*
X91647866Y-53518500D01*
X91766230Y-53499752D01*
X91860926Y-53484754D01*
X92066089Y-53418092D01*
X92258299Y-53320157D01*
X92432821Y-53193359D01*
X92585359Y-53040821D01*
X92712157Y-52866299D01*
X92810092Y-52674089D01*
X92876754Y-52468926D01*
X92893102Y-52365707D01*
X92910500Y-52255866D01*
X92910500Y-51590133D01*
X92884886Y-51428417D01*
X92876754Y-51377074D01*
X92810092Y-51171911D01*
X92712157Y-50979701D01*
X92585359Y-50805179D01*
X92432821Y-50652641D01*
X92258299Y-50525843D01*
X92066089Y-50427908D01*
X91860926Y-50361246D01*
X91860924Y-50361245D01*
X91860922Y-50361245D01*
X91647866Y-50327500D01*
X91647861Y-50327500D01*
X91432139Y-50327500D01*
X91432134Y-50327500D01*
X91219077Y-50361245D01*
X91013908Y-50427909D01*
X90821700Y-50525843D01*
X90647180Y-50652640D01*
X90504816Y-50795004D01*
X90443493Y-50828488D01*
X90373801Y-50823504D01*
X90317868Y-50781632D01*
X90304748Y-50759716D01*
X90304356Y-50758876D01*
X90212315Y-50609654D01*
X90088345Y-50485684D01*
X89939124Y-50393643D01*
X89939119Y-50393641D01*
X89772697Y-50338494D01*
X89772690Y-50338493D01*
X89669986Y-50328000D01*
X89250000Y-50328000D01*
X89250000Y-51380290D01*
X89229661Y-51368548D01*
X89078333Y-51328000D01*
X88921667Y-51328000D01*
X88770339Y-51368548D01*
X88750000Y-51380290D01*
X88750000Y-50328000D01*
X88330028Y-50328000D01*
X88330012Y-50328001D01*
X88227302Y-50338494D01*
X88060880Y-50393641D01*
X88060875Y-50393643D01*
X87911654Y-50485684D01*
X87787684Y-50609654D01*
X87695643Y-50758875D01*
X87695641Y-50758880D01*
X87640494Y-50925302D01*
X87640493Y-50925309D01*
X87630000Y-51028013D01*
X83750500Y-51028013D01*
X83750500Y-42793013D01*
X87630000Y-42793013D01*
X87630000Y-43438000D01*
X88457291Y-43438000D01*
X88445548Y-43458339D01*
X88405000Y-43609667D01*
X88405000Y-43766333D01*
X88445548Y-43917661D01*
X88457291Y-43938000D01*
X87630001Y-43938000D01*
X87630001Y-44582986D01*
X87640494Y-44685697D01*
X87695641Y-44852119D01*
X87695643Y-44852124D01*
X87787684Y-45001345D01*
X87911654Y-45125315D01*
X88060875Y-45217356D01*
X88060880Y-45217358D01*
X88227302Y-45272505D01*
X88227309Y-45272506D01*
X88330019Y-45282999D01*
X88749999Y-45282999D01*
X88750000Y-45282998D01*
X88750000Y-44230709D01*
X88770339Y-44242452D01*
X88921667Y-44283000D01*
X89078333Y-44283000D01*
X89229661Y-44242452D01*
X89250000Y-44230709D01*
X89250000Y-45282999D01*
X89669972Y-45282999D01*
X89669986Y-45282998D01*
X89772697Y-45272505D01*
X89939119Y-45217358D01*
X89939124Y-45217356D01*
X90088345Y-45125315D01*
X90212315Y-45001345D01*
X90304354Y-44852127D01*
X90304745Y-44851289D01*
X90305167Y-44850809D01*
X90308149Y-44845975D01*
X90308974Y-44846484D01*
X90350910Y-44798843D01*
X90418100Y-44779681D01*
X90484984Y-44799887D01*
X90504816Y-44815996D01*
X90647179Y-44958359D01*
X90821701Y-45085157D01*
X91013911Y-45183092D01*
X91219074Y-45249754D01*
X91298973Y-45262408D01*
X91432134Y-45283500D01*
X91432139Y-45283500D01*
X91647866Y-45283500D01*
X91766230Y-45264752D01*
X91860926Y-45249754D01*
X92066089Y-45183092D01*
X92258299Y-45085157D01*
X92432821Y-44958359D01*
X92585359Y-44805821D01*
X92712157Y-44631299D01*
X92810092Y-44439089D01*
X92876754Y-44233926D01*
X92891752Y-44139230D01*
X92910500Y-44020866D01*
X92910500Y-43355133D01*
X92876754Y-43142077D01*
X92876754Y-43142074D01*
X92810092Y-42936911D01*
X92712157Y-42744701D01*
X92585359Y-42570179D01*
X92432821Y-42417641D01*
X92258299Y-42290843D01*
X92066089Y-42192908D01*
X91860926Y-42126246D01*
X91860924Y-42126245D01*
X91860922Y-42126245D01*
X91647866Y-42092500D01*
X91647861Y-42092500D01*
X91432139Y-42092500D01*
X91432134Y-42092500D01*
X91219077Y-42126245D01*
X91013908Y-42192909D01*
X90821700Y-42290843D01*
X90647180Y-42417640D01*
X90504816Y-42560004D01*
X90443493Y-42593488D01*
X90373801Y-42588504D01*
X90317868Y-42546632D01*
X90304748Y-42524716D01*
X90304356Y-42523876D01*
X90212315Y-42374654D01*
X90088345Y-42250684D01*
X89939124Y-42158643D01*
X89939119Y-42158641D01*
X89772697Y-42103494D01*
X89772690Y-42103493D01*
X89669986Y-42093000D01*
X89250000Y-42093000D01*
X89250000Y-43145290D01*
X89229661Y-43133548D01*
X89078333Y-43093000D01*
X88921667Y-43093000D01*
X88770339Y-43133548D01*
X88750000Y-43145290D01*
X88750000Y-42093000D01*
X88330028Y-42093000D01*
X88330012Y-42093001D01*
X88227302Y-42103494D01*
X88060880Y-42158641D01*
X88060875Y-42158643D01*
X87911654Y-42250684D01*
X87787684Y-42374654D01*
X87695643Y-42523875D01*
X87695641Y-42523880D01*
X87640494Y-42690302D01*
X87640493Y-42690309D01*
X87630000Y-42793013D01*
X83750500Y-42793013D01*
X83750500Y-37624000D01*
X83770185Y-37556961D01*
X83822989Y-37511206D01*
X83874500Y-37500000D01*
X104376000Y-37500000D01*
X104443039Y-37519685D01*
G37*
%TD.AperFunction*%
%TD*%
M02*
