%TF.GenerationSoftware,KiCad,Pcbnew,9.0.0*%
%TF.CreationDate,2025-03-31T12:40:15-05:00*%
%TF.ProjectId,445 Design Document Schematic,34343520-4465-4736-9967-6e20446f6375,rev?*%
%TF.SameCoordinates,Original*%
%TF.FileFunction,Soldermask,Bot*%
%TF.FilePolarity,Negative*%
%FSLAX46Y46*%
G04 Gerber Fmt 4.6, Leading zero omitted, Abs format (unit mm)*
G04 Created by KiCad (PCBNEW 9.0.0) date 2025-03-31 12:40:15*
%MOMM*%
%LPD*%
G01*
G04 APERTURE LIST*
G04 Aperture macros list*
%AMRoundRect*
0 Rectangle with rounded corners*
0 $1 Rounding radius*
0 $2 $3 $4 $5 $6 $7 $8 $9 X,Y pos of 4 corners*
0 Add a 4 corners polygon primitive as box body*
4,1,4,$2,$3,$4,$5,$6,$7,$8,$9,$2,$3,0*
0 Add four circle primitives for the rounded corners*
1,1,$1+$1,$2,$3*
1,1,$1+$1,$4,$5*
1,1,$1+$1,$6,$7*
1,1,$1+$1,$8,$9*
0 Add four rect primitives between the rounded corners*
20,1,$1+$1,$2,$3,$4,$5,0*
20,1,$1+$1,$4,$5,$6,$7,0*
20,1,$1+$1,$6,$7,$8,$9,0*
20,1,$1+$1,$8,$9,$2,$3,0*%
G04 Aperture macros list end*
%ADD10O,1.300000X2.600000*%
%ADD11O,1.300000X2.300000*%
%ADD12O,0.850000X0.600000*%
%ADD13C,0.600000*%
%ADD14RoundRect,0.250000X-0.620000X-0.845000X0.620000X-0.845000X0.620000X0.845000X-0.620000X0.845000X0*%
%ADD15O,1.740000X2.190000*%
%ADD16C,3.200000*%
%ADD17RoundRect,0.250000X0.550000X0.550000X-0.550000X0.550000X-0.550000X-0.550000X0.550000X-0.550000X0*%
%ADD18C,1.600000*%
%ADD19R,1.500000X1.500000*%
%ADD20C,1.500000*%
%ADD21C,2.000000*%
%ADD22R,1.700000X1.700000*%
%ADD23O,1.700000X1.700000*%
%ADD24RoundRect,0.250000X0.620000X0.845000X-0.620000X0.845000X-0.620000X-0.845000X0.620000X-0.845000X0*%
G04 APERTURE END LIST*
D10*
%TO.C,P2*%
X107820000Y-121650000D03*
D11*
X107820000Y-117825000D03*
D10*
X99180000Y-121650000D03*
D11*
X99180000Y-117825000D03*
D12*
X106500000Y-118550000D03*
D13*
X100500000Y-118550000D03*
%TD*%
D14*
%TO.C,J7*%
X115679000Y-93718000D03*
D15*
X118219000Y-93718000D03*
%TD*%
D14*
%TO.C,J5*%
X89000000Y-76815000D03*
D15*
X91540000Y-76815000D03*
%TD*%
D16*
%TO.C,H4*%
X83500000Y-132000000D03*
%TD*%
D14*
%TO.C,J6*%
X120420000Y-84000000D03*
D15*
X122960000Y-84000000D03*
X125500000Y-84000000D03*
%TD*%
D14*
%TO.C,D1*%
X90960000Y-86500000D03*
D15*
X93500000Y-86500000D03*
%TD*%
D17*
%TO.C,U7*%
X104500000Y-106160000D03*
D18*
X104500000Y-103620000D03*
X104500000Y-101080000D03*
X104500000Y-98540000D03*
X104500000Y-96000000D03*
X104500000Y-93460000D03*
X104500000Y-90920000D03*
X96880000Y-90920000D03*
X96880000Y-93460000D03*
X96880000Y-96000000D03*
X96880000Y-98540000D03*
X96880000Y-101080000D03*
X96880000Y-103620000D03*
X96880000Y-106160000D03*
%TD*%
D19*
%TO.C,U8*%
X179057500Y-104930000D03*
D20*
X179057500Y-102390000D03*
X179057500Y-84610000D03*
X179057500Y-82070000D03*
X153657500Y-82070000D03*
X153657500Y-84610000D03*
X153657500Y-87150000D03*
X153657500Y-89690000D03*
X153657500Y-92230000D03*
X153657500Y-94770000D03*
X153657500Y-97310000D03*
X153657500Y-99850000D03*
X153657500Y-102390000D03*
X153657500Y-104930000D03*
%TD*%
D21*
%TO.C,SW1*%
X104250000Y-73400000D03*
X110750000Y-73400000D03*
X104250000Y-77900000D03*
X110750000Y-77900000D03*
%TD*%
D22*
%TO.C,J9*%
X173120000Y-40500000D03*
D23*
X170580000Y-40500000D03*
X168040000Y-40500000D03*
X165500000Y-40500000D03*
X162960000Y-40500000D03*
%TD*%
D16*
%TO.C,H2*%
X83500000Y-32000000D03*
%TD*%
D14*
%TO.C,J3*%
X89000000Y-60198000D03*
D15*
X91540000Y-60198000D03*
%TD*%
D21*
%TO.C,SW2*%
X138750000Y-108500000D03*
X145250000Y-108500000D03*
X138750000Y-113000000D03*
X145250000Y-113000000D03*
%TD*%
D14*
%TO.C,J1*%
X89000000Y-43688000D03*
D15*
X91540000Y-43688000D03*
%TD*%
D14*
%TO.C,J2*%
X89000000Y-51923000D03*
D15*
X91540000Y-51923000D03*
%TD*%
D16*
%TO.C,H3*%
X183500000Y-132000000D03*
%TD*%
%TO.C,H1*%
X183500000Y-32000000D03*
%TD*%
D14*
%TO.C,J4*%
X89000000Y-68560000D03*
D15*
X91540000Y-68560000D03*
%TD*%
D24*
%TO.C,D2*%
X92443000Y-97016000D03*
D15*
X89903000Y-97016000D03*
%TD*%
M02*
