%TF.GenerationSoftware,KiCad,Pcbnew,9.0.0*%
%TF.CreationDate,2025-03-31T12:40:15-05:00*%
%TF.ProjectId,445 Design Document Schematic,34343520-4465-4736-9967-6e20446f6375,rev?*%
%TF.SameCoordinates,Original*%
%TF.FileFunction,Legend,Top*%
%TF.FilePolarity,Positive*%
%FSLAX46Y46*%
G04 Gerber Fmt 4.6, Leading zero omitted, Abs format (unit mm)*
G04 Created by KiCad (PCBNEW 9.0.0) date 2025-03-31 12:40:15*
%MOMM*%
%LPD*%
G01*
G04 APERTURE LIST*
%ADD10C,0.300000*%
%ADD11C,0.150000*%
%ADD12C,0.120000*%
G04 APERTURE END LIST*
D10*
X106697368Y-48470996D02*
X106697368Y-49470996D01*
X106340225Y-47899568D02*
X105983082Y-48970996D01*
X105983082Y-48970996D02*
X106911653Y-48970996D01*
X108125939Y-48470996D02*
X108125939Y-49470996D01*
X107768796Y-47899568D02*
X107411653Y-48970996D01*
X107411653Y-48970996D02*
X108340224Y-48970996D01*
X109625938Y-47970996D02*
X108911652Y-47970996D01*
X108911652Y-47970996D02*
X108840224Y-48685282D01*
X108840224Y-48685282D02*
X108911652Y-48613853D01*
X108911652Y-48613853D02*
X109054510Y-48542425D01*
X109054510Y-48542425D02*
X109411652Y-48542425D01*
X109411652Y-48542425D02*
X109554510Y-48613853D01*
X109554510Y-48613853D02*
X109625938Y-48685282D01*
X109625938Y-48685282D02*
X109697367Y-48828139D01*
X109697367Y-48828139D02*
X109697367Y-49185282D01*
X109697367Y-49185282D02*
X109625938Y-49328139D01*
X109625938Y-49328139D02*
X109554510Y-49399568D01*
X109554510Y-49399568D02*
X109411652Y-49470996D01*
X109411652Y-49470996D02*
X109054510Y-49470996D01*
X109054510Y-49470996D02*
X108911652Y-49399568D01*
X108911652Y-49399568D02*
X108840224Y-49328139D01*
X111483080Y-49470996D02*
X111483080Y-47970996D01*
X111483080Y-47970996D02*
X112054509Y-47970996D01*
X112054509Y-47970996D02*
X112197366Y-48042425D01*
X112197366Y-48042425D02*
X112268795Y-48113853D01*
X112268795Y-48113853D02*
X112340223Y-48256710D01*
X112340223Y-48256710D02*
X112340223Y-48470996D01*
X112340223Y-48470996D02*
X112268795Y-48613853D01*
X112268795Y-48613853D02*
X112197366Y-48685282D01*
X112197366Y-48685282D02*
X112054509Y-48756710D01*
X112054509Y-48756710D02*
X111483080Y-48756710D01*
X113840223Y-49328139D02*
X113768795Y-49399568D01*
X113768795Y-49399568D02*
X113554509Y-49470996D01*
X113554509Y-49470996D02*
X113411652Y-49470996D01*
X113411652Y-49470996D02*
X113197366Y-49399568D01*
X113197366Y-49399568D02*
X113054509Y-49256710D01*
X113054509Y-49256710D02*
X112983080Y-49113853D01*
X112983080Y-49113853D02*
X112911652Y-48828139D01*
X112911652Y-48828139D02*
X112911652Y-48613853D01*
X112911652Y-48613853D02*
X112983080Y-48328139D01*
X112983080Y-48328139D02*
X113054509Y-48185282D01*
X113054509Y-48185282D02*
X113197366Y-48042425D01*
X113197366Y-48042425D02*
X113411652Y-47970996D01*
X113411652Y-47970996D02*
X113554509Y-47970996D01*
X113554509Y-47970996D02*
X113768795Y-48042425D01*
X113768795Y-48042425D02*
X113840223Y-48113853D01*
X114983080Y-48685282D02*
X115197366Y-48756710D01*
X115197366Y-48756710D02*
X115268795Y-48828139D01*
X115268795Y-48828139D02*
X115340223Y-48970996D01*
X115340223Y-48970996D02*
X115340223Y-49185282D01*
X115340223Y-49185282D02*
X115268795Y-49328139D01*
X115268795Y-49328139D02*
X115197366Y-49399568D01*
X115197366Y-49399568D02*
X115054509Y-49470996D01*
X115054509Y-49470996D02*
X114483080Y-49470996D01*
X114483080Y-49470996D02*
X114483080Y-47970996D01*
X114483080Y-47970996D02*
X114983080Y-47970996D01*
X114983080Y-47970996D02*
X115125938Y-48042425D01*
X115125938Y-48042425D02*
X115197366Y-48113853D01*
X115197366Y-48113853D02*
X115268795Y-48256710D01*
X115268795Y-48256710D02*
X115268795Y-48399568D01*
X115268795Y-48399568D02*
X115197366Y-48542425D01*
X115197366Y-48542425D02*
X115125938Y-48613853D01*
X115125938Y-48613853D02*
X114983080Y-48685282D01*
X114983080Y-48685282D02*
X114483080Y-48685282D01*
X105983082Y-50528769D02*
X106054510Y-50457341D01*
X106054510Y-50457341D02*
X106197368Y-50385912D01*
X106197368Y-50385912D02*
X106554510Y-50385912D01*
X106554510Y-50385912D02*
X106697368Y-50457341D01*
X106697368Y-50457341D02*
X106768796Y-50528769D01*
X106768796Y-50528769D02*
X106840225Y-50671626D01*
X106840225Y-50671626D02*
X106840225Y-50814484D01*
X106840225Y-50814484D02*
X106768796Y-51028769D01*
X106768796Y-51028769D02*
X105911653Y-51885912D01*
X105911653Y-51885912D02*
X106840225Y-51885912D01*
X107768796Y-50385912D02*
X107911653Y-50385912D01*
X107911653Y-50385912D02*
X108054510Y-50457341D01*
X108054510Y-50457341D02*
X108125939Y-50528769D01*
X108125939Y-50528769D02*
X108197367Y-50671626D01*
X108197367Y-50671626D02*
X108268796Y-50957341D01*
X108268796Y-50957341D02*
X108268796Y-51314484D01*
X108268796Y-51314484D02*
X108197367Y-51600198D01*
X108197367Y-51600198D02*
X108125939Y-51743055D01*
X108125939Y-51743055D02*
X108054510Y-51814484D01*
X108054510Y-51814484D02*
X107911653Y-51885912D01*
X107911653Y-51885912D02*
X107768796Y-51885912D01*
X107768796Y-51885912D02*
X107625939Y-51814484D01*
X107625939Y-51814484D02*
X107554510Y-51743055D01*
X107554510Y-51743055D02*
X107483081Y-51600198D01*
X107483081Y-51600198D02*
X107411653Y-51314484D01*
X107411653Y-51314484D02*
X107411653Y-50957341D01*
X107411653Y-50957341D02*
X107483081Y-50671626D01*
X107483081Y-50671626D02*
X107554510Y-50528769D01*
X107554510Y-50528769D02*
X107625939Y-50457341D01*
X107625939Y-50457341D02*
X107768796Y-50385912D01*
X108840224Y-50528769D02*
X108911652Y-50457341D01*
X108911652Y-50457341D02*
X109054510Y-50385912D01*
X109054510Y-50385912D02*
X109411652Y-50385912D01*
X109411652Y-50385912D02*
X109554510Y-50457341D01*
X109554510Y-50457341D02*
X109625938Y-50528769D01*
X109625938Y-50528769D02*
X109697367Y-50671626D01*
X109697367Y-50671626D02*
X109697367Y-50814484D01*
X109697367Y-50814484D02*
X109625938Y-51028769D01*
X109625938Y-51028769D02*
X108768795Y-51885912D01*
X108768795Y-51885912D02*
X109697367Y-51885912D01*
X111054509Y-50385912D02*
X110340223Y-50385912D01*
X110340223Y-50385912D02*
X110268795Y-51100198D01*
X110268795Y-51100198D02*
X110340223Y-51028769D01*
X110340223Y-51028769D02*
X110483081Y-50957341D01*
X110483081Y-50957341D02*
X110840223Y-50957341D01*
X110840223Y-50957341D02*
X110983081Y-51028769D01*
X110983081Y-51028769D02*
X111054509Y-51100198D01*
X111054509Y-51100198D02*
X111125938Y-51243055D01*
X111125938Y-51243055D02*
X111125938Y-51600198D01*
X111125938Y-51600198D02*
X111054509Y-51743055D01*
X111054509Y-51743055D02*
X110983081Y-51814484D01*
X110983081Y-51814484D02*
X110840223Y-51885912D01*
X110840223Y-51885912D02*
X110483081Y-51885912D01*
X110483081Y-51885912D02*
X110340223Y-51814484D01*
X110340223Y-51814484D02*
X110268795Y-51743055D01*
X111768794Y-51314484D02*
X112911652Y-51314484D01*
X113911652Y-50385912D02*
X114054509Y-50385912D01*
X114054509Y-50385912D02*
X114197366Y-50457341D01*
X114197366Y-50457341D02*
X114268795Y-50528769D01*
X114268795Y-50528769D02*
X114340223Y-50671626D01*
X114340223Y-50671626D02*
X114411652Y-50957341D01*
X114411652Y-50957341D02*
X114411652Y-51314484D01*
X114411652Y-51314484D02*
X114340223Y-51600198D01*
X114340223Y-51600198D02*
X114268795Y-51743055D01*
X114268795Y-51743055D02*
X114197366Y-51814484D01*
X114197366Y-51814484D02*
X114054509Y-51885912D01*
X114054509Y-51885912D02*
X113911652Y-51885912D01*
X113911652Y-51885912D02*
X113768795Y-51814484D01*
X113768795Y-51814484D02*
X113697366Y-51743055D01*
X113697366Y-51743055D02*
X113625937Y-51600198D01*
X113625937Y-51600198D02*
X113554509Y-51314484D01*
X113554509Y-51314484D02*
X113554509Y-50957341D01*
X113554509Y-50957341D02*
X113625937Y-50671626D01*
X113625937Y-50671626D02*
X113697366Y-50528769D01*
X113697366Y-50528769D02*
X113768795Y-50457341D01*
X113768795Y-50457341D02*
X113911652Y-50385912D01*
X114983080Y-50528769D02*
X115054508Y-50457341D01*
X115054508Y-50457341D02*
X115197366Y-50385912D01*
X115197366Y-50385912D02*
X115554508Y-50385912D01*
X115554508Y-50385912D02*
X115697366Y-50457341D01*
X115697366Y-50457341D02*
X115768794Y-50528769D01*
X115768794Y-50528769D02*
X115840223Y-50671626D01*
X115840223Y-50671626D02*
X115840223Y-50814484D01*
X115840223Y-50814484D02*
X115768794Y-51028769D01*
X115768794Y-51028769D02*
X114911651Y-51885912D01*
X114911651Y-51885912D02*
X115840223Y-51885912D01*
X116483079Y-51314484D02*
X117625937Y-51314484D01*
X118268794Y-50528769D02*
X118340222Y-50457341D01*
X118340222Y-50457341D02*
X118483080Y-50385912D01*
X118483080Y-50385912D02*
X118840222Y-50385912D01*
X118840222Y-50385912D02*
X118983080Y-50457341D01*
X118983080Y-50457341D02*
X119054508Y-50528769D01*
X119054508Y-50528769D02*
X119125937Y-50671626D01*
X119125937Y-50671626D02*
X119125937Y-50814484D01*
X119125937Y-50814484D02*
X119054508Y-51028769D01*
X119054508Y-51028769D02*
X118197365Y-51885912D01*
X118197365Y-51885912D02*
X119125937Y-51885912D01*
X120411651Y-50385912D02*
X120125936Y-50385912D01*
X120125936Y-50385912D02*
X119983079Y-50457341D01*
X119983079Y-50457341D02*
X119911651Y-50528769D01*
X119911651Y-50528769D02*
X119768793Y-50743055D01*
X119768793Y-50743055D02*
X119697365Y-51028769D01*
X119697365Y-51028769D02*
X119697365Y-51600198D01*
X119697365Y-51600198D02*
X119768793Y-51743055D01*
X119768793Y-51743055D02*
X119840222Y-51814484D01*
X119840222Y-51814484D02*
X119983079Y-51885912D01*
X119983079Y-51885912D02*
X120268793Y-51885912D01*
X120268793Y-51885912D02*
X120411651Y-51814484D01*
X120411651Y-51814484D02*
X120483079Y-51743055D01*
X120483079Y-51743055D02*
X120554508Y-51600198D01*
X120554508Y-51600198D02*
X120554508Y-51243055D01*
X120554508Y-51243055D02*
X120483079Y-51100198D01*
X120483079Y-51100198D02*
X120411651Y-51028769D01*
X120411651Y-51028769D02*
X120268793Y-50957341D01*
X120268793Y-50957341D02*
X119983079Y-50957341D01*
X119983079Y-50957341D02*
X119840222Y-51028769D01*
X119840222Y-51028769D02*
X119768793Y-51100198D01*
X119768793Y-51100198D02*
X119697365Y-51243055D01*
X105840225Y-52800828D02*
X106697368Y-52800828D01*
X106268796Y-54300828D02*
X106268796Y-52800828D01*
X107768796Y-54229400D02*
X107625939Y-54300828D01*
X107625939Y-54300828D02*
X107340225Y-54300828D01*
X107340225Y-54300828D02*
X107197367Y-54229400D01*
X107197367Y-54229400D02*
X107125939Y-54086542D01*
X107125939Y-54086542D02*
X107125939Y-53515114D01*
X107125939Y-53515114D02*
X107197367Y-53372257D01*
X107197367Y-53372257D02*
X107340225Y-53300828D01*
X107340225Y-53300828D02*
X107625939Y-53300828D01*
X107625939Y-53300828D02*
X107768796Y-53372257D01*
X107768796Y-53372257D02*
X107840225Y-53515114D01*
X107840225Y-53515114D02*
X107840225Y-53657971D01*
X107840225Y-53657971D02*
X107125939Y-53800828D01*
X109125939Y-54300828D02*
X109125939Y-53515114D01*
X109125939Y-53515114D02*
X109054510Y-53372257D01*
X109054510Y-53372257D02*
X108911653Y-53300828D01*
X108911653Y-53300828D02*
X108625939Y-53300828D01*
X108625939Y-53300828D02*
X108483081Y-53372257D01*
X109125939Y-54229400D02*
X108983081Y-54300828D01*
X108983081Y-54300828D02*
X108625939Y-54300828D01*
X108625939Y-54300828D02*
X108483081Y-54229400D01*
X108483081Y-54229400D02*
X108411653Y-54086542D01*
X108411653Y-54086542D02*
X108411653Y-53943685D01*
X108411653Y-53943685D02*
X108483081Y-53800828D01*
X108483081Y-53800828D02*
X108625939Y-53729400D01*
X108625939Y-53729400D02*
X108983081Y-53729400D01*
X108983081Y-53729400D02*
X109125939Y-53657971D01*
X109840224Y-54300828D02*
X109840224Y-53300828D01*
X109840224Y-53443685D02*
X109911653Y-53372257D01*
X109911653Y-53372257D02*
X110054510Y-53300828D01*
X110054510Y-53300828D02*
X110268796Y-53300828D01*
X110268796Y-53300828D02*
X110411653Y-53372257D01*
X110411653Y-53372257D02*
X110483082Y-53515114D01*
X110483082Y-53515114D02*
X110483082Y-54300828D01*
X110483082Y-53515114D02*
X110554510Y-53372257D01*
X110554510Y-53372257D02*
X110697367Y-53300828D01*
X110697367Y-53300828D02*
X110911653Y-53300828D01*
X110911653Y-53300828D02*
X111054510Y-53372257D01*
X111054510Y-53372257D02*
X111125939Y-53515114D01*
X111125939Y-53515114D02*
X111125939Y-54300828D01*
X112911653Y-52943685D02*
X112983081Y-52872257D01*
X112983081Y-52872257D02*
X113125939Y-52800828D01*
X113125939Y-52800828D02*
X113483081Y-52800828D01*
X113483081Y-52800828D02*
X113625939Y-52872257D01*
X113625939Y-52872257D02*
X113697367Y-52943685D01*
X113697367Y-52943685D02*
X113768796Y-53086542D01*
X113768796Y-53086542D02*
X113768796Y-53229400D01*
X113768796Y-53229400D02*
X113697367Y-53443685D01*
X113697367Y-53443685D02*
X112840224Y-54300828D01*
X112840224Y-54300828D02*
X113768796Y-54300828D01*
X114268795Y-52800828D02*
X115268795Y-52800828D01*
X115268795Y-52800828D02*
X114625938Y-54300828D01*
D11*
X169857142Y-63859580D02*
X169809523Y-63907200D01*
X169809523Y-63907200D02*
X169666666Y-63954819D01*
X169666666Y-63954819D02*
X169571428Y-63954819D01*
X169571428Y-63954819D02*
X169428571Y-63907200D01*
X169428571Y-63907200D02*
X169333333Y-63811961D01*
X169333333Y-63811961D02*
X169285714Y-63716723D01*
X169285714Y-63716723D02*
X169238095Y-63526247D01*
X169238095Y-63526247D02*
X169238095Y-63383390D01*
X169238095Y-63383390D02*
X169285714Y-63192914D01*
X169285714Y-63192914D02*
X169333333Y-63097676D01*
X169333333Y-63097676D02*
X169428571Y-63002438D01*
X169428571Y-63002438D02*
X169571428Y-62954819D01*
X169571428Y-62954819D02*
X169666666Y-62954819D01*
X169666666Y-62954819D02*
X169809523Y-63002438D01*
X169809523Y-63002438D02*
X169857142Y-63050057D01*
X170238095Y-63050057D02*
X170285714Y-63002438D01*
X170285714Y-63002438D02*
X170380952Y-62954819D01*
X170380952Y-62954819D02*
X170619047Y-62954819D01*
X170619047Y-62954819D02*
X170714285Y-63002438D01*
X170714285Y-63002438D02*
X170761904Y-63050057D01*
X170761904Y-63050057D02*
X170809523Y-63145295D01*
X170809523Y-63145295D02*
X170809523Y-63240533D01*
X170809523Y-63240533D02*
X170761904Y-63383390D01*
X170761904Y-63383390D02*
X170190476Y-63954819D01*
X170190476Y-63954819D02*
X170809523Y-63954819D01*
X171142857Y-62954819D02*
X171809523Y-62954819D01*
X171809523Y-62954819D02*
X171380952Y-63954819D01*
X165344642Y-46179580D02*
X165297023Y-46227200D01*
X165297023Y-46227200D02*
X165154166Y-46274819D01*
X165154166Y-46274819D02*
X165058928Y-46274819D01*
X165058928Y-46274819D02*
X164916071Y-46227200D01*
X164916071Y-46227200D02*
X164820833Y-46131961D01*
X164820833Y-46131961D02*
X164773214Y-46036723D01*
X164773214Y-46036723D02*
X164725595Y-45846247D01*
X164725595Y-45846247D02*
X164725595Y-45703390D01*
X164725595Y-45703390D02*
X164773214Y-45512914D01*
X164773214Y-45512914D02*
X164820833Y-45417676D01*
X164820833Y-45417676D02*
X164916071Y-45322438D01*
X164916071Y-45322438D02*
X165058928Y-45274819D01*
X165058928Y-45274819D02*
X165154166Y-45274819D01*
X165154166Y-45274819D02*
X165297023Y-45322438D01*
X165297023Y-45322438D02*
X165344642Y-45370057D01*
X165725595Y-45370057D02*
X165773214Y-45322438D01*
X165773214Y-45322438D02*
X165868452Y-45274819D01*
X165868452Y-45274819D02*
X166106547Y-45274819D01*
X166106547Y-45274819D02*
X166201785Y-45322438D01*
X166201785Y-45322438D02*
X166249404Y-45370057D01*
X166249404Y-45370057D02*
X166297023Y-45465295D01*
X166297023Y-45465295D02*
X166297023Y-45560533D01*
X166297023Y-45560533D02*
X166249404Y-45703390D01*
X166249404Y-45703390D02*
X165677976Y-46274819D01*
X165677976Y-46274819D02*
X166297023Y-46274819D01*
X166630357Y-45274819D02*
X167249404Y-45274819D01*
X167249404Y-45274819D02*
X166916071Y-45655771D01*
X166916071Y-45655771D02*
X167058928Y-45655771D01*
X167058928Y-45655771D02*
X167154166Y-45703390D01*
X167154166Y-45703390D02*
X167201785Y-45751009D01*
X167201785Y-45751009D02*
X167249404Y-45846247D01*
X167249404Y-45846247D02*
X167249404Y-46084342D01*
X167249404Y-46084342D02*
X167201785Y-46179580D01*
X167201785Y-46179580D02*
X167154166Y-46227200D01*
X167154166Y-46227200D02*
X167058928Y-46274819D01*
X167058928Y-46274819D02*
X166773214Y-46274819D01*
X166773214Y-46274819D02*
X166677976Y-46227200D01*
X166677976Y-46227200D02*
X166630357Y-46179580D01*
X102761905Y-115954819D02*
X102761905Y-114954819D01*
X102761905Y-114954819D02*
X103142857Y-114954819D01*
X103142857Y-114954819D02*
X103238095Y-115002438D01*
X103238095Y-115002438D02*
X103285714Y-115050057D01*
X103285714Y-115050057D02*
X103333333Y-115145295D01*
X103333333Y-115145295D02*
X103333333Y-115288152D01*
X103333333Y-115288152D02*
X103285714Y-115383390D01*
X103285714Y-115383390D02*
X103238095Y-115431009D01*
X103238095Y-115431009D02*
X103142857Y-115478628D01*
X103142857Y-115478628D02*
X102761905Y-115478628D01*
X103714286Y-115050057D02*
X103761905Y-115002438D01*
X103761905Y-115002438D02*
X103857143Y-114954819D01*
X103857143Y-114954819D02*
X104095238Y-114954819D01*
X104095238Y-114954819D02*
X104190476Y-115002438D01*
X104190476Y-115002438D02*
X104238095Y-115050057D01*
X104238095Y-115050057D02*
X104285714Y-115145295D01*
X104285714Y-115145295D02*
X104285714Y-115240533D01*
X104285714Y-115240533D02*
X104238095Y-115383390D01*
X104238095Y-115383390D02*
X103666667Y-115954819D01*
X103666667Y-115954819D02*
X104285714Y-115954819D01*
X118092048Y-89346866D02*
X118853953Y-89346866D01*
X118473000Y-89727819D02*
X118473000Y-88965914D01*
X115298048Y-89473866D02*
X116059953Y-89473866D01*
X91273048Y-72951866D02*
X92034953Y-72951866D01*
X91654000Y-73332819D02*
X91654000Y-72570914D01*
X88492048Y-73078866D02*
X89253953Y-73078866D01*
X142107142Y-118804819D02*
X141773809Y-118328628D01*
X141535714Y-118804819D02*
X141535714Y-117804819D01*
X141535714Y-117804819D02*
X141916666Y-117804819D01*
X141916666Y-117804819D02*
X142011904Y-117852438D01*
X142011904Y-117852438D02*
X142059523Y-117900057D01*
X142059523Y-117900057D02*
X142107142Y-117995295D01*
X142107142Y-117995295D02*
X142107142Y-118138152D01*
X142107142Y-118138152D02*
X142059523Y-118233390D01*
X142059523Y-118233390D02*
X142011904Y-118281009D01*
X142011904Y-118281009D02*
X141916666Y-118328628D01*
X141916666Y-118328628D02*
X141535714Y-118328628D01*
X143059523Y-118804819D02*
X142488095Y-118804819D01*
X142773809Y-118804819D02*
X142773809Y-117804819D01*
X142773809Y-117804819D02*
X142678571Y-117947676D01*
X142678571Y-117947676D02*
X142583333Y-118042914D01*
X142583333Y-118042914D02*
X142488095Y-118090533D01*
X143916666Y-117804819D02*
X143726190Y-117804819D01*
X143726190Y-117804819D02*
X143630952Y-117852438D01*
X143630952Y-117852438D02*
X143583333Y-117900057D01*
X143583333Y-117900057D02*
X143488095Y-118042914D01*
X143488095Y-118042914D02*
X143440476Y-118233390D01*
X143440476Y-118233390D02*
X143440476Y-118614342D01*
X143440476Y-118614342D02*
X143488095Y-118709580D01*
X143488095Y-118709580D02*
X143535714Y-118757200D01*
X143535714Y-118757200D02*
X143630952Y-118804819D01*
X143630952Y-118804819D02*
X143821428Y-118804819D01*
X143821428Y-118804819D02*
X143916666Y-118757200D01*
X143916666Y-118757200D02*
X143964285Y-118709580D01*
X143964285Y-118709580D02*
X144011904Y-118614342D01*
X144011904Y-118614342D02*
X144011904Y-118376247D01*
X144011904Y-118376247D02*
X143964285Y-118281009D01*
X143964285Y-118281009D02*
X143916666Y-118233390D01*
X143916666Y-118233390D02*
X143821428Y-118185771D01*
X143821428Y-118185771D02*
X143630952Y-118185771D01*
X143630952Y-118185771D02*
X143535714Y-118233390D01*
X143535714Y-118233390D02*
X143488095Y-118281009D01*
X143488095Y-118281009D02*
X143440476Y-118376247D01*
X115857142Y-84804819D02*
X115523809Y-84328628D01*
X115285714Y-84804819D02*
X115285714Y-83804819D01*
X115285714Y-83804819D02*
X115666666Y-83804819D01*
X115666666Y-83804819D02*
X115761904Y-83852438D01*
X115761904Y-83852438D02*
X115809523Y-83900057D01*
X115809523Y-83900057D02*
X115857142Y-83995295D01*
X115857142Y-83995295D02*
X115857142Y-84138152D01*
X115857142Y-84138152D02*
X115809523Y-84233390D01*
X115809523Y-84233390D02*
X115761904Y-84281009D01*
X115761904Y-84281009D02*
X115666666Y-84328628D01*
X115666666Y-84328628D02*
X115285714Y-84328628D01*
X116809523Y-84804819D02*
X116238095Y-84804819D01*
X116523809Y-84804819D02*
X116523809Y-83804819D01*
X116523809Y-83804819D02*
X116428571Y-83947676D01*
X116428571Y-83947676D02*
X116333333Y-84042914D01*
X116333333Y-84042914D02*
X116238095Y-84090533D01*
X117142857Y-83804819D02*
X117761904Y-83804819D01*
X117761904Y-83804819D02*
X117428571Y-84185771D01*
X117428571Y-84185771D02*
X117571428Y-84185771D01*
X117571428Y-84185771D02*
X117666666Y-84233390D01*
X117666666Y-84233390D02*
X117714285Y-84281009D01*
X117714285Y-84281009D02*
X117761904Y-84376247D01*
X117761904Y-84376247D02*
X117761904Y-84614342D01*
X117761904Y-84614342D02*
X117714285Y-84709580D01*
X117714285Y-84709580D02*
X117666666Y-84757200D01*
X117666666Y-84757200D02*
X117571428Y-84804819D01*
X117571428Y-84804819D02*
X117285714Y-84804819D01*
X117285714Y-84804819D02*
X117190476Y-84757200D01*
X117190476Y-84757200D02*
X117142857Y-84709580D01*
X82738095Y-128254819D02*
X82738095Y-127254819D01*
X82738095Y-127731009D02*
X83309523Y-127731009D01*
X83309523Y-128254819D02*
X83309523Y-127254819D01*
X84214285Y-127588152D02*
X84214285Y-128254819D01*
X83976190Y-127207200D02*
X83738095Y-127921485D01*
X83738095Y-127921485D02*
X84357142Y-127921485D01*
X177857142Y-71039580D02*
X177809523Y-71087200D01*
X177809523Y-71087200D02*
X177666666Y-71134819D01*
X177666666Y-71134819D02*
X177571428Y-71134819D01*
X177571428Y-71134819D02*
X177428571Y-71087200D01*
X177428571Y-71087200D02*
X177333333Y-70991961D01*
X177333333Y-70991961D02*
X177285714Y-70896723D01*
X177285714Y-70896723D02*
X177238095Y-70706247D01*
X177238095Y-70706247D02*
X177238095Y-70563390D01*
X177238095Y-70563390D02*
X177285714Y-70372914D01*
X177285714Y-70372914D02*
X177333333Y-70277676D01*
X177333333Y-70277676D02*
X177428571Y-70182438D01*
X177428571Y-70182438D02*
X177571428Y-70134819D01*
X177571428Y-70134819D02*
X177666666Y-70134819D01*
X177666666Y-70134819D02*
X177809523Y-70182438D01*
X177809523Y-70182438D02*
X177857142Y-70230057D01*
X178238095Y-70230057D02*
X178285714Y-70182438D01*
X178285714Y-70182438D02*
X178380952Y-70134819D01*
X178380952Y-70134819D02*
X178619047Y-70134819D01*
X178619047Y-70134819D02*
X178714285Y-70182438D01*
X178714285Y-70182438D02*
X178761904Y-70230057D01*
X178761904Y-70230057D02*
X178809523Y-70325295D01*
X178809523Y-70325295D02*
X178809523Y-70420533D01*
X178809523Y-70420533D02*
X178761904Y-70563390D01*
X178761904Y-70563390D02*
X178190476Y-71134819D01*
X178190476Y-71134819D02*
X178809523Y-71134819D01*
X179428571Y-70134819D02*
X179523809Y-70134819D01*
X179523809Y-70134819D02*
X179619047Y-70182438D01*
X179619047Y-70182438D02*
X179666666Y-70230057D01*
X179666666Y-70230057D02*
X179714285Y-70325295D01*
X179714285Y-70325295D02*
X179761904Y-70515771D01*
X179761904Y-70515771D02*
X179761904Y-70753866D01*
X179761904Y-70753866D02*
X179714285Y-70944342D01*
X179714285Y-70944342D02*
X179666666Y-71039580D01*
X179666666Y-71039580D02*
X179619047Y-71087200D01*
X179619047Y-71087200D02*
X179523809Y-71134819D01*
X179523809Y-71134819D02*
X179428571Y-71134819D01*
X179428571Y-71134819D02*
X179333333Y-71087200D01*
X179333333Y-71087200D02*
X179285714Y-71039580D01*
X179285714Y-71039580D02*
X179238095Y-70944342D01*
X179238095Y-70944342D02*
X179190476Y-70753866D01*
X179190476Y-70753866D02*
X179190476Y-70515771D01*
X179190476Y-70515771D02*
X179238095Y-70325295D01*
X179238095Y-70325295D02*
X179285714Y-70230057D01*
X179285714Y-70230057D02*
X179333333Y-70182438D01*
X179333333Y-70182438D02*
X179428571Y-70134819D01*
X154857142Y-49859580D02*
X154809523Y-49907200D01*
X154809523Y-49907200D02*
X154666666Y-49954819D01*
X154666666Y-49954819D02*
X154571428Y-49954819D01*
X154571428Y-49954819D02*
X154428571Y-49907200D01*
X154428571Y-49907200D02*
X154333333Y-49811961D01*
X154333333Y-49811961D02*
X154285714Y-49716723D01*
X154285714Y-49716723D02*
X154238095Y-49526247D01*
X154238095Y-49526247D02*
X154238095Y-49383390D01*
X154238095Y-49383390D02*
X154285714Y-49192914D01*
X154285714Y-49192914D02*
X154333333Y-49097676D01*
X154333333Y-49097676D02*
X154428571Y-49002438D01*
X154428571Y-49002438D02*
X154571428Y-48954819D01*
X154571428Y-48954819D02*
X154666666Y-48954819D01*
X154666666Y-48954819D02*
X154809523Y-49002438D01*
X154809523Y-49002438D02*
X154857142Y-49050057D01*
X155238095Y-49050057D02*
X155285714Y-49002438D01*
X155285714Y-49002438D02*
X155380952Y-48954819D01*
X155380952Y-48954819D02*
X155619047Y-48954819D01*
X155619047Y-48954819D02*
X155714285Y-49002438D01*
X155714285Y-49002438D02*
X155761904Y-49050057D01*
X155761904Y-49050057D02*
X155809523Y-49145295D01*
X155809523Y-49145295D02*
X155809523Y-49240533D01*
X155809523Y-49240533D02*
X155761904Y-49383390D01*
X155761904Y-49383390D02*
X155190476Y-49954819D01*
X155190476Y-49954819D02*
X155809523Y-49954819D01*
X156190476Y-49050057D02*
X156238095Y-49002438D01*
X156238095Y-49002438D02*
X156333333Y-48954819D01*
X156333333Y-48954819D02*
X156571428Y-48954819D01*
X156571428Y-48954819D02*
X156666666Y-49002438D01*
X156666666Y-49002438D02*
X156714285Y-49050057D01*
X156714285Y-49050057D02*
X156761904Y-49145295D01*
X156761904Y-49145295D02*
X156761904Y-49240533D01*
X156761904Y-49240533D02*
X156714285Y-49383390D01*
X156714285Y-49383390D02*
X156142857Y-49954819D01*
X156142857Y-49954819D02*
X156761904Y-49954819D01*
X86793333Y-85934819D02*
X86460000Y-85458628D01*
X86221905Y-85934819D02*
X86221905Y-84934819D01*
X86221905Y-84934819D02*
X86602857Y-84934819D01*
X86602857Y-84934819D02*
X86698095Y-84982438D01*
X86698095Y-84982438D02*
X86745714Y-85030057D01*
X86745714Y-85030057D02*
X86793333Y-85125295D01*
X86793333Y-85125295D02*
X86793333Y-85268152D01*
X86793333Y-85268152D02*
X86745714Y-85363390D01*
X86745714Y-85363390D02*
X86698095Y-85411009D01*
X86698095Y-85411009D02*
X86602857Y-85458628D01*
X86602857Y-85458628D02*
X86221905Y-85458628D01*
X87650476Y-84934819D02*
X87460000Y-84934819D01*
X87460000Y-84934819D02*
X87364762Y-84982438D01*
X87364762Y-84982438D02*
X87317143Y-85030057D01*
X87317143Y-85030057D02*
X87221905Y-85172914D01*
X87221905Y-85172914D02*
X87174286Y-85363390D01*
X87174286Y-85363390D02*
X87174286Y-85744342D01*
X87174286Y-85744342D02*
X87221905Y-85839580D01*
X87221905Y-85839580D02*
X87269524Y-85887200D01*
X87269524Y-85887200D02*
X87364762Y-85934819D01*
X87364762Y-85934819D02*
X87555238Y-85934819D01*
X87555238Y-85934819D02*
X87650476Y-85887200D01*
X87650476Y-85887200D02*
X87698095Y-85839580D01*
X87698095Y-85839580D02*
X87745714Y-85744342D01*
X87745714Y-85744342D02*
X87745714Y-85506247D01*
X87745714Y-85506247D02*
X87698095Y-85411009D01*
X87698095Y-85411009D02*
X87650476Y-85363390D01*
X87650476Y-85363390D02*
X87555238Y-85315771D01*
X87555238Y-85315771D02*
X87364762Y-85315771D01*
X87364762Y-85315771D02*
X87269524Y-85363390D01*
X87269524Y-85363390D02*
X87221905Y-85411009D01*
X87221905Y-85411009D02*
X87174286Y-85506247D01*
X174807142Y-53679580D02*
X174759523Y-53727200D01*
X174759523Y-53727200D02*
X174616666Y-53774819D01*
X174616666Y-53774819D02*
X174521428Y-53774819D01*
X174521428Y-53774819D02*
X174378571Y-53727200D01*
X174378571Y-53727200D02*
X174283333Y-53631961D01*
X174283333Y-53631961D02*
X174235714Y-53536723D01*
X174235714Y-53536723D02*
X174188095Y-53346247D01*
X174188095Y-53346247D02*
X174188095Y-53203390D01*
X174188095Y-53203390D02*
X174235714Y-53012914D01*
X174235714Y-53012914D02*
X174283333Y-52917676D01*
X174283333Y-52917676D02*
X174378571Y-52822438D01*
X174378571Y-52822438D02*
X174521428Y-52774819D01*
X174521428Y-52774819D02*
X174616666Y-52774819D01*
X174616666Y-52774819D02*
X174759523Y-52822438D01*
X174759523Y-52822438D02*
X174807142Y-52870057D01*
X175188095Y-52870057D02*
X175235714Y-52822438D01*
X175235714Y-52822438D02*
X175330952Y-52774819D01*
X175330952Y-52774819D02*
X175569047Y-52774819D01*
X175569047Y-52774819D02*
X175664285Y-52822438D01*
X175664285Y-52822438D02*
X175711904Y-52870057D01*
X175711904Y-52870057D02*
X175759523Y-52965295D01*
X175759523Y-52965295D02*
X175759523Y-53060533D01*
X175759523Y-53060533D02*
X175711904Y-53203390D01*
X175711904Y-53203390D02*
X175140476Y-53774819D01*
X175140476Y-53774819D02*
X175759523Y-53774819D01*
X176330952Y-53203390D02*
X176235714Y-53155771D01*
X176235714Y-53155771D02*
X176188095Y-53108152D01*
X176188095Y-53108152D02*
X176140476Y-53012914D01*
X176140476Y-53012914D02*
X176140476Y-52965295D01*
X176140476Y-52965295D02*
X176188095Y-52870057D01*
X176188095Y-52870057D02*
X176235714Y-52822438D01*
X176235714Y-52822438D02*
X176330952Y-52774819D01*
X176330952Y-52774819D02*
X176521428Y-52774819D01*
X176521428Y-52774819D02*
X176616666Y-52822438D01*
X176616666Y-52822438D02*
X176664285Y-52870057D01*
X176664285Y-52870057D02*
X176711904Y-52965295D01*
X176711904Y-52965295D02*
X176711904Y-53012914D01*
X176711904Y-53012914D02*
X176664285Y-53108152D01*
X176664285Y-53108152D02*
X176616666Y-53155771D01*
X176616666Y-53155771D02*
X176521428Y-53203390D01*
X176521428Y-53203390D02*
X176330952Y-53203390D01*
X176330952Y-53203390D02*
X176235714Y-53251009D01*
X176235714Y-53251009D02*
X176188095Y-53298628D01*
X176188095Y-53298628D02*
X176140476Y-53393866D01*
X176140476Y-53393866D02*
X176140476Y-53584342D01*
X176140476Y-53584342D02*
X176188095Y-53679580D01*
X176188095Y-53679580D02*
X176235714Y-53727200D01*
X176235714Y-53727200D02*
X176330952Y-53774819D01*
X176330952Y-53774819D02*
X176521428Y-53774819D01*
X176521428Y-53774819D02*
X176616666Y-53727200D01*
X176616666Y-53727200D02*
X176664285Y-53679580D01*
X176664285Y-53679580D02*
X176711904Y-53584342D01*
X176711904Y-53584342D02*
X176711904Y-53393866D01*
X176711904Y-53393866D02*
X176664285Y-53298628D01*
X176664285Y-53298628D02*
X176616666Y-53251009D01*
X176616666Y-53251009D02*
X176521428Y-53203390D01*
X167857142Y-49804819D02*
X167523809Y-49328628D01*
X167285714Y-49804819D02*
X167285714Y-48804819D01*
X167285714Y-48804819D02*
X167666666Y-48804819D01*
X167666666Y-48804819D02*
X167761904Y-48852438D01*
X167761904Y-48852438D02*
X167809523Y-48900057D01*
X167809523Y-48900057D02*
X167857142Y-48995295D01*
X167857142Y-48995295D02*
X167857142Y-49138152D01*
X167857142Y-49138152D02*
X167809523Y-49233390D01*
X167809523Y-49233390D02*
X167761904Y-49281009D01*
X167761904Y-49281009D02*
X167666666Y-49328628D01*
X167666666Y-49328628D02*
X167285714Y-49328628D01*
X168238095Y-48900057D02*
X168285714Y-48852438D01*
X168285714Y-48852438D02*
X168380952Y-48804819D01*
X168380952Y-48804819D02*
X168619047Y-48804819D01*
X168619047Y-48804819D02*
X168714285Y-48852438D01*
X168714285Y-48852438D02*
X168761904Y-48900057D01*
X168761904Y-48900057D02*
X168809523Y-48995295D01*
X168809523Y-48995295D02*
X168809523Y-49090533D01*
X168809523Y-49090533D02*
X168761904Y-49233390D01*
X168761904Y-49233390D02*
X168190476Y-49804819D01*
X168190476Y-49804819D02*
X168809523Y-49804819D01*
X169428571Y-48804819D02*
X169523809Y-48804819D01*
X169523809Y-48804819D02*
X169619047Y-48852438D01*
X169619047Y-48852438D02*
X169666666Y-48900057D01*
X169666666Y-48900057D02*
X169714285Y-48995295D01*
X169714285Y-48995295D02*
X169761904Y-49185771D01*
X169761904Y-49185771D02*
X169761904Y-49423866D01*
X169761904Y-49423866D02*
X169714285Y-49614342D01*
X169714285Y-49614342D02*
X169666666Y-49709580D01*
X169666666Y-49709580D02*
X169619047Y-49757200D01*
X169619047Y-49757200D02*
X169523809Y-49804819D01*
X169523809Y-49804819D02*
X169428571Y-49804819D01*
X169428571Y-49804819D02*
X169333333Y-49757200D01*
X169333333Y-49757200D02*
X169285714Y-49709580D01*
X169285714Y-49709580D02*
X169238095Y-49614342D01*
X169238095Y-49614342D02*
X169190476Y-49423866D01*
X169190476Y-49423866D02*
X169190476Y-49185771D01*
X169190476Y-49185771D02*
X169238095Y-48995295D01*
X169238095Y-48995295D02*
X169285714Y-48900057D01*
X169285714Y-48900057D02*
X169333333Y-48852438D01*
X169333333Y-48852438D02*
X169428571Y-48804819D01*
X86793333Y-90506819D02*
X86460000Y-90030628D01*
X86221905Y-90506819D02*
X86221905Y-89506819D01*
X86221905Y-89506819D02*
X86602857Y-89506819D01*
X86602857Y-89506819D02*
X86698095Y-89554438D01*
X86698095Y-89554438D02*
X86745714Y-89602057D01*
X86745714Y-89602057D02*
X86793333Y-89697295D01*
X86793333Y-89697295D02*
X86793333Y-89840152D01*
X86793333Y-89840152D02*
X86745714Y-89935390D01*
X86745714Y-89935390D02*
X86698095Y-89983009D01*
X86698095Y-89983009D02*
X86602857Y-90030628D01*
X86602857Y-90030628D02*
X86221905Y-90030628D01*
X87364762Y-89935390D02*
X87269524Y-89887771D01*
X87269524Y-89887771D02*
X87221905Y-89840152D01*
X87221905Y-89840152D02*
X87174286Y-89744914D01*
X87174286Y-89744914D02*
X87174286Y-89697295D01*
X87174286Y-89697295D02*
X87221905Y-89602057D01*
X87221905Y-89602057D02*
X87269524Y-89554438D01*
X87269524Y-89554438D02*
X87364762Y-89506819D01*
X87364762Y-89506819D02*
X87555238Y-89506819D01*
X87555238Y-89506819D02*
X87650476Y-89554438D01*
X87650476Y-89554438D02*
X87698095Y-89602057D01*
X87698095Y-89602057D02*
X87745714Y-89697295D01*
X87745714Y-89697295D02*
X87745714Y-89744914D01*
X87745714Y-89744914D02*
X87698095Y-89840152D01*
X87698095Y-89840152D02*
X87650476Y-89887771D01*
X87650476Y-89887771D02*
X87555238Y-89935390D01*
X87555238Y-89935390D02*
X87364762Y-89935390D01*
X87364762Y-89935390D02*
X87269524Y-89983009D01*
X87269524Y-89983009D02*
X87221905Y-90030628D01*
X87221905Y-90030628D02*
X87174286Y-90125866D01*
X87174286Y-90125866D02*
X87174286Y-90316342D01*
X87174286Y-90316342D02*
X87221905Y-90411580D01*
X87221905Y-90411580D02*
X87269524Y-90459200D01*
X87269524Y-90459200D02*
X87364762Y-90506819D01*
X87364762Y-90506819D02*
X87555238Y-90506819D01*
X87555238Y-90506819D02*
X87650476Y-90459200D01*
X87650476Y-90459200D02*
X87698095Y-90411580D01*
X87698095Y-90411580D02*
X87745714Y-90316342D01*
X87745714Y-90316342D02*
X87745714Y-90125866D01*
X87745714Y-90125866D02*
X87698095Y-90030628D01*
X87698095Y-90030628D02*
X87650476Y-89983009D01*
X87650476Y-89983009D02*
X87555238Y-89935390D01*
X96834333Y-52507580D02*
X96786714Y-52555200D01*
X96786714Y-52555200D02*
X96643857Y-52602819D01*
X96643857Y-52602819D02*
X96548619Y-52602819D01*
X96548619Y-52602819D02*
X96405762Y-52555200D01*
X96405762Y-52555200D02*
X96310524Y-52459961D01*
X96310524Y-52459961D02*
X96262905Y-52364723D01*
X96262905Y-52364723D02*
X96215286Y-52174247D01*
X96215286Y-52174247D02*
X96215286Y-52031390D01*
X96215286Y-52031390D02*
X96262905Y-51840914D01*
X96262905Y-51840914D02*
X96310524Y-51745676D01*
X96310524Y-51745676D02*
X96405762Y-51650438D01*
X96405762Y-51650438D02*
X96548619Y-51602819D01*
X96548619Y-51602819D02*
X96643857Y-51602819D01*
X96643857Y-51602819D02*
X96786714Y-51650438D01*
X96786714Y-51650438D02*
X96834333Y-51698057D01*
X97215286Y-51698057D02*
X97262905Y-51650438D01*
X97262905Y-51650438D02*
X97358143Y-51602819D01*
X97358143Y-51602819D02*
X97596238Y-51602819D01*
X97596238Y-51602819D02*
X97691476Y-51650438D01*
X97691476Y-51650438D02*
X97739095Y-51698057D01*
X97739095Y-51698057D02*
X97786714Y-51793295D01*
X97786714Y-51793295D02*
X97786714Y-51888533D01*
X97786714Y-51888533D02*
X97739095Y-52031390D01*
X97739095Y-52031390D02*
X97167667Y-52602819D01*
X97167667Y-52602819D02*
X97786714Y-52602819D01*
X120039048Y-79735866D02*
X120800953Y-79735866D01*
X120420000Y-80116819D02*
X120420000Y-79354914D01*
X125246048Y-79862866D02*
X126007953Y-79862866D01*
X100833333Y-41963819D02*
X100500000Y-41487628D01*
X100261905Y-41963819D02*
X100261905Y-40963819D01*
X100261905Y-40963819D02*
X100642857Y-40963819D01*
X100642857Y-40963819D02*
X100738095Y-41011438D01*
X100738095Y-41011438D02*
X100785714Y-41059057D01*
X100785714Y-41059057D02*
X100833333Y-41154295D01*
X100833333Y-41154295D02*
X100833333Y-41297152D01*
X100833333Y-41297152D02*
X100785714Y-41392390D01*
X100785714Y-41392390D02*
X100738095Y-41440009D01*
X100738095Y-41440009D02*
X100642857Y-41487628D01*
X100642857Y-41487628D02*
X100261905Y-41487628D01*
X101785714Y-41963819D02*
X101214286Y-41963819D01*
X101500000Y-41963819D02*
X101500000Y-40963819D01*
X101500000Y-40963819D02*
X101404762Y-41106676D01*
X101404762Y-41106676D02*
X101309524Y-41201914D01*
X101309524Y-41201914D02*
X101214286Y-41249533D01*
X93373048Y-82382866D02*
X94134953Y-82382866D01*
X93754000Y-82763819D02*
X93754000Y-82001914D01*
X90325048Y-82636866D02*
X91086953Y-82636866D01*
X106607142Y-85804819D02*
X106273809Y-85328628D01*
X106035714Y-85804819D02*
X106035714Y-84804819D01*
X106035714Y-84804819D02*
X106416666Y-84804819D01*
X106416666Y-84804819D02*
X106511904Y-84852438D01*
X106511904Y-84852438D02*
X106559523Y-84900057D01*
X106559523Y-84900057D02*
X106607142Y-84995295D01*
X106607142Y-84995295D02*
X106607142Y-85138152D01*
X106607142Y-85138152D02*
X106559523Y-85233390D01*
X106559523Y-85233390D02*
X106511904Y-85281009D01*
X106511904Y-85281009D02*
X106416666Y-85328628D01*
X106416666Y-85328628D02*
X106035714Y-85328628D01*
X107559523Y-85804819D02*
X106988095Y-85804819D01*
X107273809Y-85804819D02*
X107273809Y-84804819D01*
X107273809Y-84804819D02*
X107178571Y-84947676D01*
X107178571Y-84947676D02*
X107083333Y-85042914D01*
X107083333Y-85042914D02*
X106988095Y-85090533D01*
X107940476Y-84900057D02*
X107988095Y-84852438D01*
X107988095Y-84852438D02*
X108083333Y-84804819D01*
X108083333Y-84804819D02*
X108321428Y-84804819D01*
X108321428Y-84804819D02*
X108416666Y-84852438D01*
X108416666Y-84852438D02*
X108464285Y-84900057D01*
X108464285Y-84900057D02*
X108511904Y-84995295D01*
X108511904Y-84995295D02*
X108511904Y-85090533D01*
X108511904Y-85090533D02*
X108464285Y-85233390D01*
X108464285Y-85233390D02*
X107892857Y-85804819D01*
X107892857Y-85804819D02*
X108511904Y-85804819D01*
X99928095Y-107944819D02*
X99928095Y-108754342D01*
X99928095Y-108754342D02*
X99975714Y-108849580D01*
X99975714Y-108849580D02*
X100023333Y-108897200D01*
X100023333Y-108897200D02*
X100118571Y-108944819D01*
X100118571Y-108944819D02*
X100309047Y-108944819D01*
X100309047Y-108944819D02*
X100404285Y-108897200D01*
X100404285Y-108897200D02*
X100451904Y-108849580D01*
X100451904Y-108849580D02*
X100499523Y-108754342D01*
X100499523Y-108754342D02*
X100499523Y-107944819D01*
X100880476Y-107944819D02*
X101547142Y-107944819D01*
X101547142Y-107944819D02*
X101118571Y-108944819D01*
X133727415Y-91452819D02*
X133727415Y-92262342D01*
X133727415Y-92262342D02*
X133775034Y-92357580D01*
X133775034Y-92357580D02*
X133822653Y-92405200D01*
X133822653Y-92405200D02*
X133917891Y-92452819D01*
X133917891Y-92452819D02*
X134108367Y-92452819D01*
X134108367Y-92452819D02*
X134203605Y-92405200D01*
X134203605Y-92405200D02*
X134251224Y-92357580D01*
X134251224Y-92357580D02*
X134298843Y-92262342D01*
X134298843Y-92262342D02*
X134298843Y-91452819D01*
X134679796Y-91452819D02*
X135298843Y-91452819D01*
X135298843Y-91452819D02*
X134965510Y-91833771D01*
X134965510Y-91833771D02*
X135108367Y-91833771D01*
X135108367Y-91833771D02*
X135203605Y-91881390D01*
X135203605Y-91881390D02*
X135251224Y-91929009D01*
X135251224Y-91929009D02*
X135298843Y-92024247D01*
X135298843Y-92024247D02*
X135298843Y-92262342D01*
X135298843Y-92262342D02*
X135251224Y-92357580D01*
X135251224Y-92357580D02*
X135203605Y-92405200D01*
X135203605Y-92405200D02*
X135108367Y-92452819D01*
X135108367Y-92452819D02*
X134822653Y-92452819D01*
X134822653Y-92452819D02*
X134727415Y-92405200D01*
X134727415Y-92405200D02*
X134679796Y-92357580D01*
X128711333Y-92629819D02*
X128235143Y-92629819D01*
X128235143Y-92629819D02*
X128235143Y-91629819D01*
X129568476Y-92629819D02*
X128997048Y-92629819D01*
X129282762Y-92629819D02*
X129282762Y-91629819D01*
X129282762Y-91629819D02*
X129187524Y-91772676D01*
X129187524Y-91772676D02*
X129092286Y-91867914D01*
X129092286Y-91867914D02*
X128997048Y-91915533D01*
X89317142Y-106679580D02*
X89269523Y-106727200D01*
X89269523Y-106727200D02*
X89126666Y-106774819D01*
X89126666Y-106774819D02*
X89031428Y-106774819D01*
X89031428Y-106774819D02*
X88888571Y-106727200D01*
X88888571Y-106727200D02*
X88793333Y-106631961D01*
X88793333Y-106631961D02*
X88745714Y-106536723D01*
X88745714Y-106536723D02*
X88698095Y-106346247D01*
X88698095Y-106346247D02*
X88698095Y-106203390D01*
X88698095Y-106203390D02*
X88745714Y-106012914D01*
X88745714Y-106012914D02*
X88793333Y-105917676D01*
X88793333Y-105917676D02*
X88888571Y-105822438D01*
X88888571Y-105822438D02*
X89031428Y-105774819D01*
X89031428Y-105774819D02*
X89126666Y-105774819D01*
X89126666Y-105774819D02*
X89269523Y-105822438D01*
X89269523Y-105822438D02*
X89317142Y-105870057D01*
X90269523Y-106774819D02*
X89698095Y-106774819D01*
X89983809Y-106774819D02*
X89983809Y-105774819D01*
X89983809Y-105774819D02*
X89888571Y-105917676D01*
X89888571Y-105917676D02*
X89793333Y-106012914D01*
X89793333Y-106012914D02*
X89698095Y-106060533D01*
X90840952Y-106203390D02*
X90745714Y-106155771D01*
X90745714Y-106155771D02*
X90698095Y-106108152D01*
X90698095Y-106108152D02*
X90650476Y-106012914D01*
X90650476Y-106012914D02*
X90650476Y-105965295D01*
X90650476Y-105965295D02*
X90698095Y-105870057D01*
X90698095Y-105870057D02*
X90745714Y-105822438D01*
X90745714Y-105822438D02*
X90840952Y-105774819D01*
X90840952Y-105774819D02*
X91031428Y-105774819D01*
X91031428Y-105774819D02*
X91126666Y-105822438D01*
X91126666Y-105822438D02*
X91174285Y-105870057D01*
X91174285Y-105870057D02*
X91221904Y-105965295D01*
X91221904Y-105965295D02*
X91221904Y-106012914D01*
X91221904Y-106012914D02*
X91174285Y-106108152D01*
X91174285Y-106108152D02*
X91126666Y-106155771D01*
X91126666Y-106155771D02*
X91031428Y-106203390D01*
X91031428Y-106203390D02*
X90840952Y-106203390D01*
X90840952Y-106203390D02*
X90745714Y-106251009D01*
X90745714Y-106251009D02*
X90698095Y-106298628D01*
X90698095Y-106298628D02*
X90650476Y-106393866D01*
X90650476Y-106393866D02*
X90650476Y-106584342D01*
X90650476Y-106584342D02*
X90698095Y-106679580D01*
X90698095Y-106679580D02*
X90745714Y-106727200D01*
X90745714Y-106727200D02*
X90840952Y-106774819D01*
X90840952Y-106774819D02*
X91031428Y-106774819D01*
X91031428Y-106774819D02*
X91126666Y-106727200D01*
X91126666Y-106727200D02*
X91174285Y-106679580D01*
X91174285Y-106679580D02*
X91221904Y-106584342D01*
X91221904Y-106584342D02*
X91221904Y-106393866D01*
X91221904Y-106393866D02*
X91174285Y-106298628D01*
X91174285Y-106298628D02*
X91126666Y-106251009D01*
X91126666Y-106251009D02*
X91031428Y-106203390D01*
X168333333Y-57454819D02*
X167857143Y-57454819D01*
X167857143Y-57454819D02*
X167857143Y-56454819D01*
X168571429Y-56454819D02*
X169190476Y-56454819D01*
X169190476Y-56454819D02*
X168857143Y-56835771D01*
X168857143Y-56835771D02*
X169000000Y-56835771D01*
X169000000Y-56835771D02*
X169095238Y-56883390D01*
X169095238Y-56883390D02*
X169142857Y-56931009D01*
X169142857Y-56931009D02*
X169190476Y-57026247D01*
X169190476Y-57026247D02*
X169190476Y-57264342D01*
X169190476Y-57264342D02*
X169142857Y-57359580D01*
X169142857Y-57359580D02*
X169095238Y-57407200D01*
X169095238Y-57407200D02*
X169000000Y-57454819D01*
X169000000Y-57454819D02*
X168714286Y-57454819D01*
X168714286Y-57454819D02*
X168619048Y-57407200D01*
X168619048Y-57407200D02*
X168571429Y-57359580D01*
X100333333Y-75454819D02*
X100000000Y-74978628D01*
X99761905Y-75454819D02*
X99761905Y-74454819D01*
X99761905Y-74454819D02*
X100142857Y-74454819D01*
X100142857Y-74454819D02*
X100238095Y-74502438D01*
X100238095Y-74502438D02*
X100285714Y-74550057D01*
X100285714Y-74550057D02*
X100333333Y-74645295D01*
X100333333Y-74645295D02*
X100333333Y-74788152D01*
X100333333Y-74788152D02*
X100285714Y-74883390D01*
X100285714Y-74883390D02*
X100238095Y-74931009D01*
X100238095Y-74931009D02*
X100142857Y-74978628D01*
X100142857Y-74978628D02*
X99761905Y-74978628D01*
X101238095Y-74454819D02*
X100761905Y-74454819D01*
X100761905Y-74454819D02*
X100714286Y-74931009D01*
X100714286Y-74931009D02*
X100761905Y-74883390D01*
X100761905Y-74883390D02*
X100857143Y-74835771D01*
X100857143Y-74835771D02*
X101095238Y-74835771D01*
X101095238Y-74835771D02*
X101190476Y-74883390D01*
X101190476Y-74883390D02*
X101238095Y-74931009D01*
X101238095Y-74931009D02*
X101285714Y-75026247D01*
X101285714Y-75026247D02*
X101285714Y-75264342D01*
X101285714Y-75264342D02*
X101238095Y-75359580D01*
X101238095Y-75359580D02*
X101190476Y-75407200D01*
X101190476Y-75407200D02*
X101095238Y-75454819D01*
X101095238Y-75454819D02*
X100857143Y-75454819D01*
X100857143Y-75454819D02*
X100761905Y-75407200D01*
X100761905Y-75407200D02*
X100714286Y-75359580D01*
X171857142Y-49679580D02*
X171809523Y-49727200D01*
X171809523Y-49727200D02*
X171666666Y-49774819D01*
X171666666Y-49774819D02*
X171571428Y-49774819D01*
X171571428Y-49774819D02*
X171428571Y-49727200D01*
X171428571Y-49727200D02*
X171333333Y-49631961D01*
X171333333Y-49631961D02*
X171285714Y-49536723D01*
X171285714Y-49536723D02*
X171238095Y-49346247D01*
X171238095Y-49346247D02*
X171238095Y-49203390D01*
X171238095Y-49203390D02*
X171285714Y-49012914D01*
X171285714Y-49012914D02*
X171333333Y-48917676D01*
X171333333Y-48917676D02*
X171428571Y-48822438D01*
X171428571Y-48822438D02*
X171571428Y-48774819D01*
X171571428Y-48774819D02*
X171666666Y-48774819D01*
X171666666Y-48774819D02*
X171809523Y-48822438D01*
X171809523Y-48822438D02*
X171857142Y-48870057D01*
X172238095Y-48870057D02*
X172285714Y-48822438D01*
X172285714Y-48822438D02*
X172380952Y-48774819D01*
X172380952Y-48774819D02*
X172619047Y-48774819D01*
X172619047Y-48774819D02*
X172714285Y-48822438D01*
X172714285Y-48822438D02*
X172761904Y-48870057D01*
X172761904Y-48870057D02*
X172809523Y-48965295D01*
X172809523Y-48965295D02*
X172809523Y-49060533D01*
X172809523Y-49060533D02*
X172761904Y-49203390D01*
X172761904Y-49203390D02*
X172190476Y-49774819D01*
X172190476Y-49774819D02*
X172809523Y-49774819D01*
X173666666Y-48774819D02*
X173476190Y-48774819D01*
X173476190Y-48774819D02*
X173380952Y-48822438D01*
X173380952Y-48822438D02*
X173333333Y-48870057D01*
X173333333Y-48870057D02*
X173238095Y-49012914D01*
X173238095Y-49012914D02*
X173190476Y-49203390D01*
X173190476Y-49203390D02*
X173190476Y-49584342D01*
X173190476Y-49584342D02*
X173238095Y-49679580D01*
X173238095Y-49679580D02*
X173285714Y-49727200D01*
X173285714Y-49727200D02*
X173380952Y-49774819D01*
X173380952Y-49774819D02*
X173571428Y-49774819D01*
X173571428Y-49774819D02*
X173666666Y-49727200D01*
X173666666Y-49727200D02*
X173714285Y-49679580D01*
X173714285Y-49679580D02*
X173761904Y-49584342D01*
X173761904Y-49584342D02*
X173761904Y-49346247D01*
X173761904Y-49346247D02*
X173714285Y-49251009D01*
X173714285Y-49251009D02*
X173666666Y-49203390D01*
X173666666Y-49203390D02*
X173571428Y-49155771D01*
X173571428Y-49155771D02*
X173380952Y-49155771D01*
X173380952Y-49155771D02*
X173285714Y-49203390D01*
X173285714Y-49203390D02*
X173238095Y-49251009D01*
X173238095Y-49251009D02*
X173190476Y-49346247D01*
X109833333Y-89679580D02*
X109785714Y-89727200D01*
X109785714Y-89727200D02*
X109642857Y-89774819D01*
X109642857Y-89774819D02*
X109547619Y-89774819D01*
X109547619Y-89774819D02*
X109404762Y-89727200D01*
X109404762Y-89727200D02*
X109309524Y-89631961D01*
X109309524Y-89631961D02*
X109261905Y-89536723D01*
X109261905Y-89536723D02*
X109214286Y-89346247D01*
X109214286Y-89346247D02*
X109214286Y-89203390D01*
X109214286Y-89203390D02*
X109261905Y-89012914D01*
X109261905Y-89012914D02*
X109309524Y-88917676D01*
X109309524Y-88917676D02*
X109404762Y-88822438D01*
X109404762Y-88822438D02*
X109547619Y-88774819D01*
X109547619Y-88774819D02*
X109642857Y-88774819D01*
X109642857Y-88774819D02*
X109785714Y-88822438D01*
X109785714Y-88822438D02*
X109833333Y-88870057D01*
X110690476Y-88774819D02*
X110500000Y-88774819D01*
X110500000Y-88774819D02*
X110404762Y-88822438D01*
X110404762Y-88822438D02*
X110357143Y-88870057D01*
X110357143Y-88870057D02*
X110261905Y-89012914D01*
X110261905Y-89012914D02*
X110214286Y-89203390D01*
X110214286Y-89203390D02*
X110214286Y-89584342D01*
X110214286Y-89584342D02*
X110261905Y-89679580D01*
X110261905Y-89679580D02*
X110309524Y-89727200D01*
X110309524Y-89727200D02*
X110404762Y-89774819D01*
X110404762Y-89774819D02*
X110595238Y-89774819D01*
X110595238Y-89774819D02*
X110690476Y-89727200D01*
X110690476Y-89727200D02*
X110738095Y-89679580D01*
X110738095Y-89679580D02*
X110785714Y-89584342D01*
X110785714Y-89584342D02*
X110785714Y-89346247D01*
X110785714Y-89346247D02*
X110738095Y-89251009D01*
X110738095Y-89251009D02*
X110690476Y-89203390D01*
X110690476Y-89203390D02*
X110595238Y-89155771D01*
X110595238Y-89155771D02*
X110404762Y-89155771D01*
X110404762Y-89155771D02*
X110309524Y-89203390D01*
X110309524Y-89203390D02*
X110261905Y-89251009D01*
X110261905Y-89251009D02*
X110214286Y-89346247D01*
X175357142Y-49804819D02*
X175023809Y-49328628D01*
X174785714Y-49804819D02*
X174785714Y-48804819D01*
X174785714Y-48804819D02*
X175166666Y-48804819D01*
X175166666Y-48804819D02*
X175261904Y-48852438D01*
X175261904Y-48852438D02*
X175309523Y-48900057D01*
X175309523Y-48900057D02*
X175357142Y-48995295D01*
X175357142Y-48995295D02*
X175357142Y-49138152D01*
X175357142Y-49138152D02*
X175309523Y-49233390D01*
X175309523Y-49233390D02*
X175261904Y-49281009D01*
X175261904Y-49281009D02*
X175166666Y-49328628D01*
X175166666Y-49328628D02*
X174785714Y-49328628D01*
X175738095Y-48900057D02*
X175785714Y-48852438D01*
X175785714Y-48852438D02*
X175880952Y-48804819D01*
X175880952Y-48804819D02*
X176119047Y-48804819D01*
X176119047Y-48804819D02*
X176214285Y-48852438D01*
X176214285Y-48852438D02*
X176261904Y-48900057D01*
X176261904Y-48900057D02*
X176309523Y-48995295D01*
X176309523Y-48995295D02*
X176309523Y-49090533D01*
X176309523Y-49090533D02*
X176261904Y-49233390D01*
X176261904Y-49233390D02*
X175690476Y-49804819D01*
X175690476Y-49804819D02*
X176309523Y-49804819D01*
X177261904Y-49804819D02*
X176690476Y-49804819D01*
X176976190Y-49804819D02*
X176976190Y-48804819D01*
X176976190Y-48804819D02*
X176880952Y-48947676D01*
X176880952Y-48947676D02*
X176785714Y-49042914D01*
X176785714Y-49042914D02*
X176690476Y-49090533D01*
X117454819Y-77421904D02*
X118264342Y-77421904D01*
X118264342Y-77421904D02*
X118359580Y-77374285D01*
X118359580Y-77374285D02*
X118407200Y-77326666D01*
X118407200Y-77326666D02*
X118454819Y-77231428D01*
X118454819Y-77231428D02*
X118454819Y-77040952D01*
X118454819Y-77040952D02*
X118407200Y-76945714D01*
X118407200Y-76945714D02*
X118359580Y-76898095D01*
X118359580Y-76898095D02*
X118264342Y-76850476D01*
X118264342Y-76850476D02*
X117454819Y-76850476D01*
X117454819Y-75898095D02*
X117454819Y-76374285D01*
X117454819Y-76374285D02*
X117931009Y-76421904D01*
X117931009Y-76421904D02*
X117883390Y-76374285D01*
X117883390Y-76374285D02*
X117835771Y-76279047D01*
X117835771Y-76279047D02*
X117835771Y-76040952D01*
X117835771Y-76040952D02*
X117883390Y-75945714D01*
X117883390Y-75945714D02*
X117931009Y-75898095D01*
X117931009Y-75898095D02*
X118026247Y-75850476D01*
X118026247Y-75850476D02*
X118264342Y-75850476D01*
X118264342Y-75850476D02*
X118359580Y-75898095D01*
X118359580Y-75898095D02*
X118407200Y-75945714D01*
X118407200Y-75945714D02*
X118454819Y-76040952D01*
X118454819Y-76040952D02*
X118454819Y-76279047D01*
X118454819Y-76279047D02*
X118407200Y-76374285D01*
X118407200Y-76374285D02*
X118359580Y-76421904D01*
X176075595Y-112114819D02*
X176075595Y-112924342D01*
X176075595Y-112924342D02*
X176123214Y-113019580D01*
X176123214Y-113019580D02*
X176170833Y-113067200D01*
X176170833Y-113067200D02*
X176266071Y-113114819D01*
X176266071Y-113114819D02*
X176456547Y-113114819D01*
X176456547Y-113114819D02*
X176551785Y-113067200D01*
X176551785Y-113067200D02*
X176599404Y-113019580D01*
X176599404Y-113019580D02*
X176647023Y-112924342D01*
X176647023Y-112924342D02*
X176647023Y-112114819D01*
X177266071Y-112543390D02*
X177170833Y-112495771D01*
X177170833Y-112495771D02*
X177123214Y-112448152D01*
X177123214Y-112448152D02*
X177075595Y-112352914D01*
X177075595Y-112352914D02*
X177075595Y-112305295D01*
X177075595Y-112305295D02*
X177123214Y-112210057D01*
X177123214Y-112210057D02*
X177170833Y-112162438D01*
X177170833Y-112162438D02*
X177266071Y-112114819D01*
X177266071Y-112114819D02*
X177456547Y-112114819D01*
X177456547Y-112114819D02*
X177551785Y-112162438D01*
X177551785Y-112162438D02*
X177599404Y-112210057D01*
X177599404Y-112210057D02*
X177647023Y-112305295D01*
X177647023Y-112305295D02*
X177647023Y-112352914D01*
X177647023Y-112352914D02*
X177599404Y-112448152D01*
X177599404Y-112448152D02*
X177551785Y-112495771D01*
X177551785Y-112495771D02*
X177456547Y-112543390D01*
X177456547Y-112543390D02*
X177266071Y-112543390D01*
X177266071Y-112543390D02*
X177170833Y-112591009D01*
X177170833Y-112591009D02*
X177123214Y-112638628D01*
X177123214Y-112638628D02*
X177075595Y-112733866D01*
X177075595Y-112733866D02*
X177075595Y-112924342D01*
X177075595Y-112924342D02*
X177123214Y-113019580D01*
X177123214Y-113019580D02*
X177170833Y-113067200D01*
X177170833Y-113067200D02*
X177266071Y-113114819D01*
X177266071Y-113114819D02*
X177456547Y-113114819D01*
X177456547Y-113114819D02*
X177551785Y-113067200D01*
X177551785Y-113067200D02*
X177599404Y-113019580D01*
X177599404Y-113019580D02*
X177647023Y-112924342D01*
X177647023Y-112924342D02*
X177647023Y-112733866D01*
X177647023Y-112733866D02*
X177599404Y-112638628D01*
X177599404Y-112638628D02*
X177551785Y-112591009D01*
X177551785Y-112591009D02*
X177456547Y-112543390D01*
X174857142Y-63954819D02*
X174523809Y-63478628D01*
X174285714Y-63954819D02*
X174285714Y-62954819D01*
X174285714Y-62954819D02*
X174666666Y-62954819D01*
X174666666Y-62954819D02*
X174761904Y-63002438D01*
X174761904Y-63002438D02*
X174809523Y-63050057D01*
X174809523Y-63050057D02*
X174857142Y-63145295D01*
X174857142Y-63145295D02*
X174857142Y-63288152D01*
X174857142Y-63288152D02*
X174809523Y-63383390D01*
X174809523Y-63383390D02*
X174761904Y-63431009D01*
X174761904Y-63431009D02*
X174666666Y-63478628D01*
X174666666Y-63478628D02*
X174285714Y-63478628D01*
X175238095Y-63050057D02*
X175285714Y-63002438D01*
X175285714Y-63002438D02*
X175380952Y-62954819D01*
X175380952Y-62954819D02*
X175619047Y-62954819D01*
X175619047Y-62954819D02*
X175714285Y-63002438D01*
X175714285Y-63002438D02*
X175761904Y-63050057D01*
X175761904Y-63050057D02*
X175809523Y-63145295D01*
X175809523Y-63145295D02*
X175809523Y-63240533D01*
X175809523Y-63240533D02*
X175761904Y-63383390D01*
X175761904Y-63383390D02*
X175190476Y-63954819D01*
X175190476Y-63954819D02*
X175809523Y-63954819D01*
X176190476Y-63050057D02*
X176238095Y-63002438D01*
X176238095Y-63002438D02*
X176333333Y-62954819D01*
X176333333Y-62954819D02*
X176571428Y-62954819D01*
X176571428Y-62954819D02*
X176666666Y-63002438D01*
X176666666Y-63002438D02*
X176714285Y-63050057D01*
X176714285Y-63050057D02*
X176761904Y-63145295D01*
X176761904Y-63145295D02*
X176761904Y-63240533D01*
X176761904Y-63240533D02*
X176714285Y-63383390D01*
X176714285Y-63383390D02*
X176142857Y-63954819D01*
X176142857Y-63954819D02*
X176761904Y-63954819D01*
X158666666Y-115454819D02*
X158666666Y-116169104D01*
X158666666Y-116169104D02*
X158619047Y-116311961D01*
X158619047Y-116311961D02*
X158523809Y-116407200D01*
X158523809Y-116407200D02*
X158380952Y-116454819D01*
X158380952Y-116454819D02*
X158285714Y-116454819D01*
X159142857Y-116454819D02*
X159142857Y-115454819D01*
X159142857Y-115454819D02*
X159523809Y-115454819D01*
X159523809Y-115454819D02*
X159619047Y-115502438D01*
X159619047Y-115502438D02*
X159666666Y-115550057D01*
X159666666Y-115550057D02*
X159714285Y-115645295D01*
X159714285Y-115645295D02*
X159714285Y-115788152D01*
X159714285Y-115788152D02*
X159666666Y-115883390D01*
X159666666Y-115883390D02*
X159619047Y-115931009D01*
X159619047Y-115931009D02*
X159523809Y-115978628D01*
X159523809Y-115978628D02*
X159142857Y-115978628D01*
X160666666Y-116454819D02*
X160095238Y-116454819D01*
X160380952Y-116454819D02*
X160380952Y-115454819D01*
X160380952Y-115454819D02*
X160285714Y-115597676D01*
X160285714Y-115597676D02*
X160190476Y-115692914D01*
X160190476Y-115692914D02*
X160095238Y-115740533D01*
X106166667Y-71807200D02*
X106309524Y-71854819D01*
X106309524Y-71854819D02*
X106547619Y-71854819D01*
X106547619Y-71854819D02*
X106642857Y-71807200D01*
X106642857Y-71807200D02*
X106690476Y-71759580D01*
X106690476Y-71759580D02*
X106738095Y-71664342D01*
X106738095Y-71664342D02*
X106738095Y-71569104D01*
X106738095Y-71569104D02*
X106690476Y-71473866D01*
X106690476Y-71473866D02*
X106642857Y-71426247D01*
X106642857Y-71426247D02*
X106547619Y-71378628D01*
X106547619Y-71378628D02*
X106357143Y-71331009D01*
X106357143Y-71331009D02*
X106261905Y-71283390D01*
X106261905Y-71283390D02*
X106214286Y-71235771D01*
X106214286Y-71235771D02*
X106166667Y-71140533D01*
X106166667Y-71140533D02*
X106166667Y-71045295D01*
X106166667Y-71045295D02*
X106214286Y-70950057D01*
X106214286Y-70950057D02*
X106261905Y-70902438D01*
X106261905Y-70902438D02*
X106357143Y-70854819D01*
X106357143Y-70854819D02*
X106595238Y-70854819D01*
X106595238Y-70854819D02*
X106738095Y-70902438D01*
X107071429Y-70854819D02*
X107309524Y-71854819D01*
X107309524Y-71854819D02*
X107500000Y-71140533D01*
X107500000Y-71140533D02*
X107690476Y-71854819D01*
X107690476Y-71854819D02*
X107928572Y-70854819D01*
X108833333Y-71854819D02*
X108261905Y-71854819D01*
X108547619Y-71854819D02*
X108547619Y-70854819D01*
X108547619Y-70854819D02*
X108452381Y-70997676D01*
X108452381Y-70997676D02*
X108357143Y-71092914D01*
X108357143Y-71092914D02*
X108261905Y-71140533D01*
X170307142Y-53679580D02*
X170259523Y-53727200D01*
X170259523Y-53727200D02*
X170116666Y-53774819D01*
X170116666Y-53774819D02*
X170021428Y-53774819D01*
X170021428Y-53774819D02*
X169878571Y-53727200D01*
X169878571Y-53727200D02*
X169783333Y-53631961D01*
X169783333Y-53631961D02*
X169735714Y-53536723D01*
X169735714Y-53536723D02*
X169688095Y-53346247D01*
X169688095Y-53346247D02*
X169688095Y-53203390D01*
X169688095Y-53203390D02*
X169735714Y-53012914D01*
X169735714Y-53012914D02*
X169783333Y-52917676D01*
X169783333Y-52917676D02*
X169878571Y-52822438D01*
X169878571Y-52822438D02*
X170021428Y-52774819D01*
X170021428Y-52774819D02*
X170116666Y-52774819D01*
X170116666Y-52774819D02*
X170259523Y-52822438D01*
X170259523Y-52822438D02*
X170307142Y-52870057D01*
X170688095Y-52870057D02*
X170735714Y-52822438D01*
X170735714Y-52822438D02*
X170830952Y-52774819D01*
X170830952Y-52774819D02*
X171069047Y-52774819D01*
X171069047Y-52774819D02*
X171164285Y-52822438D01*
X171164285Y-52822438D02*
X171211904Y-52870057D01*
X171211904Y-52870057D02*
X171259523Y-52965295D01*
X171259523Y-52965295D02*
X171259523Y-53060533D01*
X171259523Y-53060533D02*
X171211904Y-53203390D01*
X171211904Y-53203390D02*
X170640476Y-53774819D01*
X170640476Y-53774819D02*
X171259523Y-53774819D01*
X172164285Y-52774819D02*
X171688095Y-52774819D01*
X171688095Y-52774819D02*
X171640476Y-53251009D01*
X171640476Y-53251009D02*
X171688095Y-53203390D01*
X171688095Y-53203390D02*
X171783333Y-53155771D01*
X171783333Y-53155771D02*
X172021428Y-53155771D01*
X172021428Y-53155771D02*
X172116666Y-53203390D01*
X172116666Y-53203390D02*
X172164285Y-53251009D01*
X172164285Y-53251009D02*
X172211904Y-53346247D01*
X172211904Y-53346247D02*
X172211904Y-53584342D01*
X172211904Y-53584342D02*
X172164285Y-53679580D01*
X172164285Y-53679580D02*
X172116666Y-53727200D01*
X172116666Y-53727200D02*
X172021428Y-53774819D01*
X172021428Y-53774819D02*
X171783333Y-53774819D01*
X171783333Y-53774819D02*
X171688095Y-53727200D01*
X171688095Y-53727200D02*
X171640476Y-53679580D01*
X117508612Y-106104819D02*
X117175279Y-105628628D01*
X116937184Y-106104819D02*
X116937184Y-105104819D01*
X116937184Y-105104819D02*
X117318136Y-105104819D01*
X117318136Y-105104819D02*
X117413374Y-105152438D01*
X117413374Y-105152438D02*
X117460993Y-105200057D01*
X117460993Y-105200057D02*
X117508612Y-105295295D01*
X117508612Y-105295295D02*
X117508612Y-105438152D01*
X117508612Y-105438152D02*
X117460993Y-105533390D01*
X117460993Y-105533390D02*
X117413374Y-105581009D01*
X117413374Y-105581009D02*
X117318136Y-105628628D01*
X117318136Y-105628628D02*
X116937184Y-105628628D01*
X118460993Y-106104819D02*
X117889565Y-106104819D01*
X118175279Y-106104819D02*
X118175279Y-105104819D01*
X118175279Y-105104819D02*
X118080041Y-105247676D01*
X118080041Y-105247676D02*
X117984803Y-105342914D01*
X117984803Y-105342914D02*
X117889565Y-105390533D01*
X119080041Y-105104819D02*
X119175279Y-105104819D01*
X119175279Y-105104819D02*
X119270517Y-105152438D01*
X119270517Y-105152438D02*
X119318136Y-105200057D01*
X119318136Y-105200057D02*
X119365755Y-105295295D01*
X119365755Y-105295295D02*
X119413374Y-105485771D01*
X119413374Y-105485771D02*
X119413374Y-105723866D01*
X119413374Y-105723866D02*
X119365755Y-105914342D01*
X119365755Y-105914342D02*
X119318136Y-106009580D01*
X119318136Y-106009580D02*
X119270517Y-106057200D01*
X119270517Y-106057200D02*
X119175279Y-106104819D01*
X119175279Y-106104819D02*
X119080041Y-106104819D01*
X119080041Y-106104819D02*
X118984803Y-106057200D01*
X118984803Y-106057200D02*
X118937184Y-106009580D01*
X118937184Y-106009580D02*
X118889565Y-105914342D01*
X118889565Y-105914342D02*
X118841946Y-105723866D01*
X118841946Y-105723866D02*
X118841946Y-105485771D01*
X118841946Y-105485771D02*
X118889565Y-105295295D01*
X118889565Y-105295295D02*
X118937184Y-105200057D01*
X118937184Y-105200057D02*
X118984803Y-105152438D01*
X118984803Y-105152438D02*
X119080041Y-105104819D01*
X174904819Y-40833333D02*
X175619104Y-40833333D01*
X175619104Y-40833333D02*
X175761961Y-40880952D01*
X175761961Y-40880952D02*
X175857200Y-40976190D01*
X175857200Y-40976190D02*
X175904819Y-41119047D01*
X175904819Y-41119047D02*
X175904819Y-41214285D01*
X175904819Y-40309523D02*
X175904819Y-40119047D01*
X175904819Y-40119047D02*
X175857200Y-40023809D01*
X175857200Y-40023809D02*
X175809580Y-39976190D01*
X175809580Y-39976190D02*
X175666723Y-39880952D01*
X175666723Y-39880952D02*
X175476247Y-39833333D01*
X175476247Y-39833333D02*
X175095295Y-39833333D01*
X175095295Y-39833333D02*
X175000057Y-39880952D01*
X175000057Y-39880952D02*
X174952438Y-39928571D01*
X174952438Y-39928571D02*
X174904819Y-40023809D01*
X174904819Y-40023809D02*
X174904819Y-40214285D01*
X174904819Y-40214285D02*
X174952438Y-40309523D01*
X174952438Y-40309523D02*
X175000057Y-40357142D01*
X175000057Y-40357142D02*
X175095295Y-40404761D01*
X175095295Y-40404761D02*
X175333390Y-40404761D01*
X175333390Y-40404761D02*
X175428628Y-40357142D01*
X175428628Y-40357142D02*
X175476247Y-40309523D01*
X175476247Y-40309523D02*
X175523866Y-40214285D01*
X175523866Y-40214285D02*
X175523866Y-40023809D01*
X175523866Y-40023809D02*
X175476247Y-39928571D01*
X175476247Y-39928571D02*
X175428628Y-39880952D01*
X175428628Y-39880952D02*
X175333390Y-39833333D01*
X82738095Y-28254819D02*
X82738095Y-27254819D01*
X82738095Y-27731009D02*
X83309523Y-27731009D01*
X83309523Y-28254819D02*
X83309523Y-27254819D01*
X83738095Y-27350057D02*
X83785714Y-27302438D01*
X83785714Y-27302438D02*
X83880952Y-27254819D01*
X83880952Y-27254819D02*
X84119047Y-27254819D01*
X84119047Y-27254819D02*
X84214285Y-27302438D01*
X84214285Y-27302438D02*
X84261904Y-27350057D01*
X84261904Y-27350057D02*
X84309523Y-27445295D01*
X84309523Y-27445295D02*
X84309523Y-27540533D01*
X84309523Y-27540533D02*
X84261904Y-27683390D01*
X84261904Y-27683390D02*
X83690476Y-28254819D01*
X83690476Y-28254819D02*
X84309523Y-28254819D01*
X108908333Y-102954819D02*
X108575000Y-102478628D01*
X108336905Y-102954819D02*
X108336905Y-101954819D01*
X108336905Y-101954819D02*
X108717857Y-101954819D01*
X108717857Y-101954819D02*
X108813095Y-102002438D01*
X108813095Y-102002438D02*
X108860714Y-102050057D01*
X108860714Y-102050057D02*
X108908333Y-102145295D01*
X108908333Y-102145295D02*
X108908333Y-102288152D01*
X108908333Y-102288152D02*
X108860714Y-102383390D01*
X108860714Y-102383390D02*
X108813095Y-102431009D01*
X108813095Y-102431009D02*
X108717857Y-102478628D01*
X108717857Y-102478628D02*
X108336905Y-102478628D01*
X109384524Y-102954819D02*
X109575000Y-102954819D01*
X109575000Y-102954819D02*
X109670238Y-102907200D01*
X109670238Y-102907200D02*
X109717857Y-102859580D01*
X109717857Y-102859580D02*
X109813095Y-102716723D01*
X109813095Y-102716723D02*
X109860714Y-102526247D01*
X109860714Y-102526247D02*
X109860714Y-102145295D01*
X109860714Y-102145295D02*
X109813095Y-102050057D01*
X109813095Y-102050057D02*
X109765476Y-102002438D01*
X109765476Y-102002438D02*
X109670238Y-101954819D01*
X109670238Y-101954819D02*
X109479762Y-101954819D01*
X109479762Y-101954819D02*
X109384524Y-102002438D01*
X109384524Y-102002438D02*
X109336905Y-102050057D01*
X109336905Y-102050057D02*
X109289286Y-102145295D01*
X109289286Y-102145295D02*
X109289286Y-102383390D01*
X109289286Y-102383390D02*
X109336905Y-102478628D01*
X109336905Y-102478628D02*
X109384524Y-102526247D01*
X109384524Y-102526247D02*
X109479762Y-102573866D01*
X109479762Y-102573866D02*
X109670238Y-102573866D01*
X109670238Y-102573866D02*
X109765476Y-102526247D01*
X109765476Y-102526247D02*
X109813095Y-102478628D01*
X109813095Y-102478628D02*
X109860714Y-102383390D01*
X91400048Y-56045866D02*
X92161953Y-56045866D01*
X91781000Y-56426819D02*
X91781000Y-55664914D01*
X88479048Y-56172866D02*
X89240953Y-56172866D01*
X140666667Y-105157200D02*
X140809524Y-105204819D01*
X140809524Y-105204819D02*
X141047619Y-105204819D01*
X141047619Y-105204819D02*
X141142857Y-105157200D01*
X141142857Y-105157200D02*
X141190476Y-105109580D01*
X141190476Y-105109580D02*
X141238095Y-105014342D01*
X141238095Y-105014342D02*
X141238095Y-104919104D01*
X141238095Y-104919104D02*
X141190476Y-104823866D01*
X141190476Y-104823866D02*
X141142857Y-104776247D01*
X141142857Y-104776247D02*
X141047619Y-104728628D01*
X141047619Y-104728628D02*
X140857143Y-104681009D01*
X140857143Y-104681009D02*
X140761905Y-104633390D01*
X140761905Y-104633390D02*
X140714286Y-104585771D01*
X140714286Y-104585771D02*
X140666667Y-104490533D01*
X140666667Y-104490533D02*
X140666667Y-104395295D01*
X140666667Y-104395295D02*
X140714286Y-104300057D01*
X140714286Y-104300057D02*
X140761905Y-104252438D01*
X140761905Y-104252438D02*
X140857143Y-104204819D01*
X140857143Y-104204819D02*
X141095238Y-104204819D01*
X141095238Y-104204819D02*
X141238095Y-104252438D01*
X141571429Y-104204819D02*
X141809524Y-105204819D01*
X141809524Y-105204819D02*
X142000000Y-104490533D01*
X142000000Y-104490533D02*
X142190476Y-105204819D01*
X142190476Y-105204819D02*
X142428572Y-104204819D01*
X142761905Y-104300057D02*
X142809524Y-104252438D01*
X142809524Y-104252438D02*
X142904762Y-104204819D01*
X142904762Y-104204819D02*
X143142857Y-104204819D01*
X143142857Y-104204819D02*
X143238095Y-104252438D01*
X143238095Y-104252438D02*
X143285714Y-104300057D01*
X143285714Y-104300057D02*
X143333333Y-104395295D01*
X143333333Y-104395295D02*
X143333333Y-104490533D01*
X143333333Y-104490533D02*
X143285714Y-104633390D01*
X143285714Y-104633390D02*
X142714286Y-105204819D01*
X142714286Y-105204819D02*
X143333333Y-105204819D01*
X96855833Y-44379580D02*
X96808214Y-44427200D01*
X96808214Y-44427200D02*
X96665357Y-44474819D01*
X96665357Y-44474819D02*
X96570119Y-44474819D01*
X96570119Y-44474819D02*
X96427262Y-44427200D01*
X96427262Y-44427200D02*
X96332024Y-44331961D01*
X96332024Y-44331961D02*
X96284405Y-44236723D01*
X96284405Y-44236723D02*
X96236786Y-44046247D01*
X96236786Y-44046247D02*
X96236786Y-43903390D01*
X96236786Y-43903390D02*
X96284405Y-43712914D01*
X96284405Y-43712914D02*
X96332024Y-43617676D01*
X96332024Y-43617676D02*
X96427262Y-43522438D01*
X96427262Y-43522438D02*
X96570119Y-43474819D01*
X96570119Y-43474819D02*
X96665357Y-43474819D01*
X96665357Y-43474819D02*
X96808214Y-43522438D01*
X96808214Y-43522438D02*
X96855833Y-43570057D01*
X97808214Y-44474819D02*
X97236786Y-44474819D01*
X97522500Y-44474819D02*
X97522500Y-43474819D01*
X97522500Y-43474819D02*
X97427262Y-43617676D01*
X97427262Y-43617676D02*
X97332024Y-43712914D01*
X97332024Y-43712914D02*
X97236786Y-43760533D01*
X161444833Y-71915580D02*
X161397214Y-71963200D01*
X161397214Y-71963200D02*
X161254357Y-72010819D01*
X161254357Y-72010819D02*
X161159119Y-72010819D01*
X161159119Y-72010819D02*
X161016262Y-71963200D01*
X161016262Y-71963200D02*
X160921024Y-71867961D01*
X160921024Y-71867961D02*
X160873405Y-71772723D01*
X160873405Y-71772723D02*
X160825786Y-71582247D01*
X160825786Y-71582247D02*
X160825786Y-71439390D01*
X160825786Y-71439390D02*
X160873405Y-71248914D01*
X160873405Y-71248914D02*
X160921024Y-71153676D01*
X160921024Y-71153676D02*
X161016262Y-71058438D01*
X161016262Y-71058438D02*
X161159119Y-71010819D01*
X161159119Y-71010819D02*
X161254357Y-71010819D01*
X161254357Y-71010819D02*
X161397214Y-71058438D01*
X161397214Y-71058438D02*
X161444833Y-71106057D01*
X161778167Y-71010819D02*
X162444833Y-71010819D01*
X162444833Y-71010819D02*
X162016262Y-72010819D01*
X122008612Y-111804819D02*
X121675279Y-111328628D01*
X121437184Y-111804819D02*
X121437184Y-110804819D01*
X121437184Y-110804819D02*
X121818136Y-110804819D01*
X121818136Y-110804819D02*
X121913374Y-110852438D01*
X121913374Y-110852438D02*
X121960993Y-110900057D01*
X121960993Y-110900057D02*
X122008612Y-110995295D01*
X122008612Y-110995295D02*
X122008612Y-111138152D01*
X122008612Y-111138152D02*
X121960993Y-111233390D01*
X121960993Y-111233390D02*
X121913374Y-111281009D01*
X121913374Y-111281009D02*
X121818136Y-111328628D01*
X121818136Y-111328628D02*
X121437184Y-111328628D01*
X122960993Y-111804819D02*
X122389565Y-111804819D01*
X122675279Y-111804819D02*
X122675279Y-110804819D01*
X122675279Y-110804819D02*
X122580041Y-110947676D01*
X122580041Y-110947676D02*
X122484803Y-111042914D01*
X122484803Y-111042914D02*
X122389565Y-111090533D01*
X123865755Y-110804819D02*
X123389565Y-110804819D01*
X123389565Y-110804819D02*
X123341946Y-111281009D01*
X123341946Y-111281009D02*
X123389565Y-111233390D01*
X123389565Y-111233390D02*
X123484803Y-111185771D01*
X123484803Y-111185771D02*
X123722898Y-111185771D01*
X123722898Y-111185771D02*
X123818136Y-111233390D01*
X123818136Y-111233390D02*
X123865755Y-111281009D01*
X123865755Y-111281009D02*
X123913374Y-111376247D01*
X123913374Y-111376247D02*
X123913374Y-111614342D01*
X123913374Y-111614342D02*
X123865755Y-111709580D01*
X123865755Y-111709580D02*
X123818136Y-111757200D01*
X123818136Y-111757200D02*
X123722898Y-111804819D01*
X123722898Y-111804819D02*
X123484803Y-111804819D01*
X123484803Y-111804819D02*
X123389565Y-111757200D01*
X123389565Y-111757200D02*
X123341946Y-111709580D01*
X89317142Y-101179580D02*
X89269523Y-101227200D01*
X89269523Y-101227200D02*
X89126666Y-101274819D01*
X89126666Y-101274819D02*
X89031428Y-101274819D01*
X89031428Y-101274819D02*
X88888571Y-101227200D01*
X88888571Y-101227200D02*
X88793333Y-101131961D01*
X88793333Y-101131961D02*
X88745714Y-101036723D01*
X88745714Y-101036723D02*
X88698095Y-100846247D01*
X88698095Y-100846247D02*
X88698095Y-100703390D01*
X88698095Y-100703390D02*
X88745714Y-100512914D01*
X88745714Y-100512914D02*
X88793333Y-100417676D01*
X88793333Y-100417676D02*
X88888571Y-100322438D01*
X88888571Y-100322438D02*
X89031428Y-100274819D01*
X89031428Y-100274819D02*
X89126666Y-100274819D01*
X89126666Y-100274819D02*
X89269523Y-100322438D01*
X89269523Y-100322438D02*
X89317142Y-100370057D01*
X90269523Y-101274819D02*
X89698095Y-101274819D01*
X89983809Y-101274819D02*
X89983809Y-100274819D01*
X89983809Y-100274819D02*
X89888571Y-100417676D01*
X89888571Y-100417676D02*
X89793333Y-100512914D01*
X89793333Y-100512914D02*
X89698095Y-100560533D01*
X91126666Y-100608152D02*
X91126666Y-101274819D01*
X90888571Y-100227200D02*
X90650476Y-100941485D01*
X90650476Y-100941485D02*
X91269523Y-100941485D01*
X159307142Y-46304819D02*
X158973809Y-45828628D01*
X158735714Y-46304819D02*
X158735714Y-45304819D01*
X158735714Y-45304819D02*
X159116666Y-45304819D01*
X159116666Y-45304819D02*
X159211904Y-45352438D01*
X159211904Y-45352438D02*
X159259523Y-45400057D01*
X159259523Y-45400057D02*
X159307142Y-45495295D01*
X159307142Y-45495295D02*
X159307142Y-45638152D01*
X159307142Y-45638152D02*
X159259523Y-45733390D01*
X159259523Y-45733390D02*
X159211904Y-45781009D01*
X159211904Y-45781009D02*
X159116666Y-45828628D01*
X159116666Y-45828628D02*
X158735714Y-45828628D01*
X160259523Y-46304819D02*
X159688095Y-46304819D01*
X159973809Y-46304819D02*
X159973809Y-45304819D01*
X159973809Y-45304819D02*
X159878571Y-45447676D01*
X159878571Y-45447676D02*
X159783333Y-45542914D01*
X159783333Y-45542914D02*
X159688095Y-45590533D01*
X160735714Y-46304819D02*
X160926190Y-46304819D01*
X160926190Y-46304819D02*
X161021428Y-46257200D01*
X161021428Y-46257200D02*
X161069047Y-46209580D01*
X161069047Y-46209580D02*
X161164285Y-46066723D01*
X161164285Y-46066723D02*
X161211904Y-45876247D01*
X161211904Y-45876247D02*
X161211904Y-45495295D01*
X161211904Y-45495295D02*
X161164285Y-45400057D01*
X161164285Y-45400057D02*
X161116666Y-45352438D01*
X161116666Y-45352438D02*
X161021428Y-45304819D01*
X161021428Y-45304819D02*
X160830952Y-45304819D01*
X160830952Y-45304819D02*
X160735714Y-45352438D01*
X160735714Y-45352438D02*
X160688095Y-45400057D01*
X160688095Y-45400057D02*
X160640476Y-45495295D01*
X160640476Y-45495295D02*
X160640476Y-45733390D01*
X160640476Y-45733390D02*
X160688095Y-45828628D01*
X160688095Y-45828628D02*
X160735714Y-45876247D01*
X160735714Y-45876247D02*
X160830952Y-45923866D01*
X160830952Y-45923866D02*
X161021428Y-45923866D01*
X161021428Y-45923866D02*
X161116666Y-45876247D01*
X161116666Y-45876247D02*
X161164285Y-45828628D01*
X161164285Y-45828628D02*
X161211904Y-45733390D01*
X100333333Y-58454819D02*
X100000000Y-57978628D01*
X99761905Y-58454819D02*
X99761905Y-57454819D01*
X99761905Y-57454819D02*
X100142857Y-57454819D01*
X100142857Y-57454819D02*
X100238095Y-57502438D01*
X100238095Y-57502438D02*
X100285714Y-57550057D01*
X100285714Y-57550057D02*
X100333333Y-57645295D01*
X100333333Y-57645295D02*
X100333333Y-57788152D01*
X100333333Y-57788152D02*
X100285714Y-57883390D01*
X100285714Y-57883390D02*
X100238095Y-57931009D01*
X100238095Y-57931009D02*
X100142857Y-57978628D01*
X100142857Y-57978628D02*
X99761905Y-57978628D01*
X100666667Y-57454819D02*
X101285714Y-57454819D01*
X101285714Y-57454819D02*
X100952381Y-57835771D01*
X100952381Y-57835771D02*
X101095238Y-57835771D01*
X101095238Y-57835771D02*
X101190476Y-57883390D01*
X101190476Y-57883390D02*
X101238095Y-57931009D01*
X101238095Y-57931009D02*
X101285714Y-58026247D01*
X101285714Y-58026247D02*
X101285714Y-58264342D01*
X101285714Y-58264342D02*
X101238095Y-58359580D01*
X101238095Y-58359580D02*
X101190476Y-58407200D01*
X101190476Y-58407200D02*
X101095238Y-58454819D01*
X101095238Y-58454819D02*
X100809524Y-58454819D01*
X100809524Y-58454819D02*
X100714286Y-58407200D01*
X100714286Y-58407200D02*
X100666667Y-58359580D01*
X126008612Y-106104819D02*
X125675279Y-105628628D01*
X125437184Y-106104819D02*
X125437184Y-105104819D01*
X125437184Y-105104819D02*
X125818136Y-105104819D01*
X125818136Y-105104819D02*
X125913374Y-105152438D01*
X125913374Y-105152438D02*
X125960993Y-105200057D01*
X125960993Y-105200057D02*
X126008612Y-105295295D01*
X126008612Y-105295295D02*
X126008612Y-105438152D01*
X126008612Y-105438152D02*
X125960993Y-105533390D01*
X125960993Y-105533390D02*
X125913374Y-105581009D01*
X125913374Y-105581009D02*
X125818136Y-105628628D01*
X125818136Y-105628628D02*
X125437184Y-105628628D01*
X126960993Y-106104819D02*
X126389565Y-106104819D01*
X126675279Y-106104819D02*
X126675279Y-105104819D01*
X126675279Y-105104819D02*
X126580041Y-105247676D01*
X126580041Y-105247676D02*
X126484803Y-105342914D01*
X126484803Y-105342914D02*
X126389565Y-105390533D01*
X127818136Y-105438152D02*
X127818136Y-106104819D01*
X127580041Y-105057200D02*
X127341946Y-105771485D01*
X127341946Y-105771485D02*
X127960993Y-105771485D01*
X114857142Y-60179580D02*
X114809523Y-60227200D01*
X114809523Y-60227200D02*
X114666666Y-60274819D01*
X114666666Y-60274819D02*
X114571428Y-60274819D01*
X114571428Y-60274819D02*
X114428571Y-60227200D01*
X114428571Y-60227200D02*
X114333333Y-60131961D01*
X114333333Y-60131961D02*
X114285714Y-60036723D01*
X114285714Y-60036723D02*
X114238095Y-59846247D01*
X114238095Y-59846247D02*
X114238095Y-59703390D01*
X114238095Y-59703390D02*
X114285714Y-59512914D01*
X114285714Y-59512914D02*
X114333333Y-59417676D01*
X114333333Y-59417676D02*
X114428571Y-59322438D01*
X114428571Y-59322438D02*
X114571428Y-59274819D01*
X114571428Y-59274819D02*
X114666666Y-59274819D01*
X114666666Y-59274819D02*
X114809523Y-59322438D01*
X114809523Y-59322438D02*
X114857142Y-59370057D01*
X115809523Y-60274819D02*
X115238095Y-60274819D01*
X115523809Y-60274819D02*
X115523809Y-59274819D01*
X115523809Y-59274819D02*
X115428571Y-59417676D01*
X115428571Y-59417676D02*
X115333333Y-59512914D01*
X115333333Y-59512914D02*
X115238095Y-59560533D01*
X116761904Y-60274819D02*
X116190476Y-60274819D01*
X116476190Y-60274819D02*
X116476190Y-59274819D01*
X116476190Y-59274819D02*
X116380952Y-59417676D01*
X116380952Y-59417676D02*
X116285714Y-59512914D01*
X116285714Y-59512914D02*
X116190476Y-59560533D01*
X91159048Y-39550866D02*
X91920953Y-39550866D01*
X91540000Y-39931819D02*
X91540000Y-39169914D01*
X88365048Y-39550866D02*
X89126953Y-39550866D01*
X156872833Y-71915580D02*
X156825214Y-71963200D01*
X156825214Y-71963200D02*
X156682357Y-72010819D01*
X156682357Y-72010819D02*
X156587119Y-72010819D01*
X156587119Y-72010819D02*
X156444262Y-71963200D01*
X156444262Y-71963200D02*
X156349024Y-71867961D01*
X156349024Y-71867961D02*
X156301405Y-71772723D01*
X156301405Y-71772723D02*
X156253786Y-71582247D01*
X156253786Y-71582247D02*
X156253786Y-71439390D01*
X156253786Y-71439390D02*
X156301405Y-71248914D01*
X156301405Y-71248914D02*
X156349024Y-71153676D01*
X156349024Y-71153676D02*
X156444262Y-71058438D01*
X156444262Y-71058438D02*
X156587119Y-71010819D01*
X156587119Y-71010819D02*
X156682357Y-71010819D01*
X156682357Y-71010819D02*
X156825214Y-71058438D01*
X156825214Y-71058438D02*
X156872833Y-71106057D01*
X157349024Y-72010819D02*
X157539500Y-72010819D01*
X157539500Y-72010819D02*
X157634738Y-71963200D01*
X157634738Y-71963200D02*
X157682357Y-71915580D01*
X157682357Y-71915580D02*
X157777595Y-71772723D01*
X157777595Y-71772723D02*
X157825214Y-71582247D01*
X157825214Y-71582247D02*
X157825214Y-71201295D01*
X157825214Y-71201295D02*
X157777595Y-71106057D01*
X157777595Y-71106057D02*
X157729976Y-71058438D01*
X157729976Y-71058438D02*
X157634738Y-71010819D01*
X157634738Y-71010819D02*
X157444262Y-71010819D01*
X157444262Y-71010819D02*
X157349024Y-71058438D01*
X157349024Y-71058438D02*
X157301405Y-71106057D01*
X157301405Y-71106057D02*
X157253786Y-71201295D01*
X157253786Y-71201295D02*
X157253786Y-71439390D01*
X157253786Y-71439390D02*
X157301405Y-71534628D01*
X157301405Y-71534628D02*
X157349024Y-71582247D01*
X157349024Y-71582247D02*
X157444262Y-71629866D01*
X157444262Y-71629866D02*
X157634738Y-71629866D01*
X157634738Y-71629866D02*
X157729976Y-71582247D01*
X157729976Y-71582247D02*
X157777595Y-71534628D01*
X157777595Y-71534628D02*
X157825214Y-71439390D01*
X135357142Y-88179580D02*
X135309523Y-88227200D01*
X135309523Y-88227200D02*
X135166666Y-88274819D01*
X135166666Y-88274819D02*
X135071428Y-88274819D01*
X135071428Y-88274819D02*
X134928571Y-88227200D01*
X134928571Y-88227200D02*
X134833333Y-88131961D01*
X134833333Y-88131961D02*
X134785714Y-88036723D01*
X134785714Y-88036723D02*
X134738095Y-87846247D01*
X134738095Y-87846247D02*
X134738095Y-87703390D01*
X134738095Y-87703390D02*
X134785714Y-87512914D01*
X134785714Y-87512914D02*
X134833333Y-87417676D01*
X134833333Y-87417676D02*
X134928571Y-87322438D01*
X134928571Y-87322438D02*
X135071428Y-87274819D01*
X135071428Y-87274819D02*
X135166666Y-87274819D01*
X135166666Y-87274819D02*
X135309523Y-87322438D01*
X135309523Y-87322438D02*
X135357142Y-87370057D01*
X136309523Y-88274819D02*
X135738095Y-88274819D01*
X136023809Y-88274819D02*
X136023809Y-87274819D01*
X136023809Y-87274819D02*
X135928571Y-87417676D01*
X135928571Y-87417676D02*
X135833333Y-87512914D01*
X135833333Y-87512914D02*
X135738095Y-87560533D01*
X136642857Y-87274819D02*
X137309523Y-87274819D01*
X137309523Y-87274819D02*
X136880952Y-88274819D01*
X99833333Y-50454819D02*
X99500000Y-49978628D01*
X99261905Y-50454819D02*
X99261905Y-49454819D01*
X99261905Y-49454819D02*
X99642857Y-49454819D01*
X99642857Y-49454819D02*
X99738095Y-49502438D01*
X99738095Y-49502438D02*
X99785714Y-49550057D01*
X99785714Y-49550057D02*
X99833333Y-49645295D01*
X99833333Y-49645295D02*
X99833333Y-49788152D01*
X99833333Y-49788152D02*
X99785714Y-49883390D01*
X99785714Y-49883390D02*
X99738095Y-49931009D01*
X99738095Y-49931009D02*
X99642857Y-49978628D01*
X99642857Y-49978628D02*
X99261905Y-49978628D01*
X100214286Y-49550057D02*
X100261905Y-49502438D01*
X100261905Y-49502438D02*
X100357143Y-49454819D01*
X100357143Y-49454819D02*
X100595238Y-49454819D01*
X100595238Y-49454819D02*
X100690476Y-49502438D01*
X100690476Y-49502438D02*
X100738095Y-49550057D01*
X100738095Y-49550057D02*
X100785714Y-49645295D01*
X100785714Y-49645295D02*
X100785714Y-49740533D01*
X100785714Y-49740533D02*
X100738095Y-49883390D01*
X100738095Y-49883390D02*
X100166667Y-50454819D01*
X100166667Y-50454819D02*
X100785714Y-50454819D01*
X96834333Y-69525580D02*
X96786714Y-69573200D01*
X96786714Y-69573200D02*
X96643857Y-69620819D01*
X96643857Y-69620819D02*
X96548619Y-69620819D01*
X96548619Y-69620819D02*
X96405762Y-69573200D01*
X96405762Y-69573200D02*
X96310524Y-69477961D01*
X96310524Y-69477961D02*
X96262905Y-69382723D01*
X96262905Y-69382723D02*
X96215286Y-69192247D01*
X96215286Y-69192247D02*
X96215286Y-69049390D01*
X96215286Y-69049390D02*
X96262905Y-68858914D01*
X96262905Y-68858914D02*
X96310524Y-68763676D01*
X96310524Y-68763676D02*
X96405762Y-68668438D01*
X96405762Y-68668438D02*
X96548619Y-68620819D01*
X96548619Y-68620819D02*
X96643857Y-68620819D01*
X96643857Y-68620819D02*
X96786714Y-68668438D01*
X96786714Y-68668438D02*
X96834333Y-68716057D01*
X97691476Y-68954152D02*
X97691476Y-69620819D01*
X97453381Y-68573200D02*
X97215286Y-69287485D01*
X97215286Y-69287485D02*
X97834333Y-69287485D01*
X110394642Y-60179580D02*
X110347023Y-60227200D01*
X110347023Y-60227200D02*
X110204166Y-60274819D01*
X110204166Y-60274819D02*
X110108928Y-60274819D01*
X110108928Y-60274819D02*
X109966071Y-60227200D01*
X109966071Y-60227200D02*
X109870833Y-60131961D01*
X109870833Y-60131961D02*
X109823214Y-60036723D01*
X109823214Y-60036723D02*
X109775595Y-59846247D01*
X109775595Y-59846247D02*
X109775595Y-59703390D01*
X109775595Y-59703390D02*
X109823214Y-59512914D01*
X109823214Y-59512914D02*
X109870833Y-59417676D01*
X109870833Y-59417676D02*
X109966071Y-59322438D01*
X109966071Y-59322438D02*
X110108928Y-59274819D01*
X110108928Y-59274819D02*
X110204166Y-59274819D01*
X110204166Y-59274819D02*
X110347023Y-59322438D01*
X110347023Y-59322438D02*
X110394642Y-59370057D01*
X111347023Y-60274819D02*
X110775595Y-60274819D01*
X111061309Y-60274819D02*
X111061309Y-59274819D01*
X111061309Y-59274819D02*
X110966071Y-59417676D01*
X110966071Y-59417676D02*
X110870833Y-59512914D01*
X110870833Y-59512914D02*
X110775595Y-59560533D01*
X111966071Y-59274819D02*
X112061309Y-59274819D01*
X112061309Y-59274819D02*
X112156547Y-59322438D01*
X112156547Y-59322438D02*
X112204166Y-59370057D01*
X112204166Y-59370057D02*
X112251785Y-59465295D01*
X112251785Y-59465295D02*
X112299404Y-59655771D01*
X112299404Y-59655771D02*
X112299404Y-59893866D01*
X112299404Y-59893866D02*
X112251785Y-60084342D01*
X112251785Y-60084342D02*
X112204166Y-60179580D01*
X112204166Y-60179580D02*
X112156547Y-60227200D01*
X112156547Y-60227200D02*
X112061309Y-60274819D01*
X112061309Y-60274819D02*
X111966071Y-60274819D01*
X111966071Y-60274819D02*
X111870833Y-60227200D01*
X111870833Y-60227200D02*
X111823214Y-60179580D01*
X111823214Y-60179580D02*
X111775595Y-60084342D01*
X111775595Y-60084342D02*
X111727976Y-59893866D01*
X111727976Y-59893866D02*
X111727976Y-59655771D01*
X111727976Y-59655771D02*
X111775595Y-59465295D01*
X111775595Y-59465295D02*
X111823214Y-59370057D01*
X111823214Y-59370057D02*
X111870833Y-59322438D01*
X111870833Y-59322438D02*
X111966071Y-59274819D01*
X122493731Y-107700057D02*
X122398493Y-107652438D01*
X122398493Y-107652438D02*
X122303255Y-107557200D01*
X122303255Y-107557200D02*
X122160398Y-107414342D01*
X122160398Y-107414342D02*
X122065160Y-107366723D01*
X122065160Y-107366723D02*
X121969922Y-107366723D01*
X122017541Y-107604819D02*
X121922303Y-107557200D01*
X121922303Y-107557200D02*
X121827065Y-107461961D01*
X121827065Y-107461961D02*
X121779446Y-107271485D01*
X121779446Y-107271485D02*
X121779446Y-106938152D01*
X121779446Y-106938152D02*
X121827065Y-106747676D01*
X121827065Y-106747676D02*
X121922303Y-106652438D01*
X121922303Y-106652438D02*
X122017541Y-106604819D01*
X122017541Y-106604819D02*
X122208017Y-106604819D01*
X122208017Y-106604819D02*
X122303255Y-106652438D01*
X122303255Y-106652438D02*
X122398493Y-106747676D01*
X122398493Y-106747676D02*
X122446112Y-106938152D01*
X122446112Y-106938152D02*
X122446112Y-107271485D01*
X122446112Y-107271485D02*
X122398493Y-107461961D01*
X122398493Y-107461961D02*
X122303255Y-107557200D01*
X122303255Y-107557200D02*
X122208017Y-107604819D01*
X122208017Y-107604819D02*
X122017541Y-107604819D01*
X122827065Y-106700057D02*
X122874684Y-106652438D01*
X122874684Y-106652438D02*
X122969922Y-106604819D01*
X122969922Y-106604819D02*
X123208017Y-106604819D01*
X123208017Y-106604819D02*
X123303255Y-106652438D01*
X123303255Y-106652438D02*
X123350874Y-106700057D01*
X123350874Y-106700057D02*
X123398493Y-106795295D01*
X123398493Y-106795295D02*
X123398493Y-106890533D01*
X123398493Y-106890533D02*
X123350874Y-107033390D01*
X123350874Y-107033390D02*
X122779446Y-107604819D01*
X122779446Y-107604819D02*
X123398493Y-107604819D01*
X165808333Y-53804819D02*
X165332143Y-53804819D01*
X165332143Y-53804819D02*
X165332143Y-52804819D01*
X166094048Y-52900057D02*
X166141667Y-52852438D01*
X166141667Y-52852438D02*
X166236905Y-52804819D01*
X166236905Y-52804819D02*
X166475000Y-52804819D01*
X166475000Y-52804819D02*
X166570238Y-52852438D01*
X166570238Y-52852438D02*
X166617857Y-52900057D01*
X166617857Y-52900057D02*
X166665476Y-52995295D01*
X166665476Y-52995295D02*
X166665476Y-53090533D01*
X166665476Y-53090533D02*
X166617857Y-53233390D01*
X166617857Y-53233390D02*
X166046429Y-53804819D01*
X166046429Y-53804819D02*
X166665476Y-53804819D01*
X179783333Y-55304819D02*
X179307143Y-55304819D01*
X179307143Y-55304819D02*
X179307143Y-54304819D01*
X180545238Y-54638152D02*
X180545238Y-55304819D01*
X180307143Y-54257200D02*
X180069048Y-54971485D01*
X180069048Y-54971485D02*
X180688095Y-54971485D01*
X179857142Y-59859580D02*
X179809523Y-59907200D01*
X179809523Y-59907200D02*
X179666666Y-59954819D01*
X179666666Y-59954819D02*
X179571428Y-59954819D01*
X179571428Y-59954819D02*
X179428571Y-59907200D01*
X179428571Y-59907200D02*
X179333333Y-59811961D01*
X179333333Y-59811961D02*
X179285714Y-59716723D01*
X179285714Y-59716723D02*
X179238095Y-59526247D01*
X179238095Y-59526247D02*
X179238095Y-59383390D01*
X179238095Y-59383390D02*
X179285714Y-59192914D01*
X179285714Y-59192914D02*
X179333333Y-59097676D01*
X179333333Y-59097676D02*
X179428571Y-59002438D01*
X179428571Y-59002438D02*
X179571428Y-58954819D01*
X179571428Y-58954819D02*
X179666666Y-58954819D01*
X179666666Y-58954819D02*
X179809523Y-59002438D01*
X179809523Y-59002438D02*
X179857142Y-59050057D01*
X180238095Y-59050057D02*
X180285714Y-59002438D01*
X180285714Y-59002438D02*
X180380952Y-58954819D01*
X180380952Y-58954819D02*
X180619047Y-58954819D01*
X180619047Y-58954819D02*
X180714285Y-59002438D01*
X180714285Y-59002438D02*
X180761904Y-59050057D01*
X180761904Y-59050057D02*
X180809523Y-59145295D01*
X180809523Y-59145295D02*
X180809523Y-59240533D01*
X180809523Y-59240533D02*
X180761904Y-59383390D01*
X180761904Y-59383390D02*
X180190476Y-59954819D01*
X180190476Y-59954819D02*
X180809523Y-59954819D01*
X181285714Y-59954819D02*
X181476190Y-59954819D01*
X181476190Y-59954819D02*
X181571428Y-59907200D01*
X181571428Y-59907200D02*
X181619047Y-59859580D01*
X181619047Y-59859580D02*
X181714285Y-59716723D01*
X181714285Y-59716723D02*
X181761904Y-59526247D01*
X181761904Y-59526247D02*
X181761904Y-59145295D01*
X181761904Y-59145295D02*
X181714285Y-59050057D01*
X181714285Y-59050057D02*
X181666666Y-59002438D01*
X181666666Y-59002438D02*
X181571428Y-58954819D01*
X181571428Y-58954819D02*
X181380952Y-58954819D01*
X181380952Y-58954819D02*
X181285714Y-59002438D01*
X181285714Y-59002438D02*
X181238095Y-59050057D01*
X181238095Y-59050057D02*
X181190476Y-59145295D01*
X181190476Y-59145295D02*
X181190476Y-59383390D01*
X181190476Y-59383390D02*
X181238095Y-59478628D01*
X181238095Y-59478628D02*
X181285714Y-59526247D01*
X181285714Y-59526247D02*
X181380952Y-59573866D01*
X181380952Y-59573866D02*
X181571428Y-59573866D01*
X181571428Y-59573866D02*
X181666666Y-59526247D01*
X181666666Y-59526247D02*
X181714285Y-59478628D01*
X181714285Y-59478628D02*
X181761904Y-59383390D01*
X91273048Y-47897866D02*
X92034953Y-47897866D01*
X91654000Y-48278819D02*
X91654000Y-47516914D01*
X88479048Y-48024866D02*
X89240953Y-48024866D01*
X117508612Y-111104819D02*
X117175279Y-110628628D01*
X116937184Y-111104819D02*
X116937184Y-110104819D01*
X116937184Y-110104819D02*
X117318136Y-110104819D01*
X117318136Y-110104819D02*
X117413374Y-110152438D01*
X117413374Y-110152438D02*
X117460993Y-110200057D01*
X117460993Y-110200057D02*
X117508612Y-110295295D01*
X117508612Y-110295295D02*
X117508612Y-110438152D01*
X117508612Y-110438152D02*
X117460993Y-110533390D01*
X117460993Y-110533390D02*
X117413374Y-110581009D01*
X117413374Y-110581009D02*
X117318136Y-110628628D01*
X117318136Y-110628628D02*
X116937184Y-110628628D01*
X118460993Y-111104819D02*
X117889565Y-111104819D01*
X118175279Y-111104819D02*
X118175279Y-110104819D01*
X118175279Y-110104819D02*
X118080041Y-110247676D01*
X118080041Y-110247676D02*
X117984803Y-110342914D01*
X117984803Y-110342914D02*
X117889565Y-110390533D01*
X119413374Y-111104819D02*
X118841946Y-111104819D01*
X119127660Y-111104819D02*
X119127660Y-110104819D01*
X119127660Y-110104819D02*
X119032422Y-110247676D01*
X119032422Y-110247676D02*
X118937184Y-110342914D01*
X118937184Y-110342914D02*
X118841946Y-110390533D01*
X122493731Y-102150057D02*
X122398493Y-102102438D01*
X122398493Y-102102438D02*
X122303255Y-102007200D01*
X122303255Y-102007200D02*
X122160398Y-101864342D01*
X122160398Y-101864342D02*
X122065160Y-101816723D01*
X122065160Y-101816723D02*
X121969922Y-101816723D01*
X122017541Y-102054819D02*
X121922303Y-102007200D01*
X121922303Y-102007200D02*
X121827065Y-101911961D01*
X121827065Y-101911961D02*
X121779446Y-101721485D01*
X121779446Y-101721485D02*
X121779446Y-101388152D01*
X121779446Y-101388152D02*
X121827065Y-101197676D01*
X121827065Y-101197676D02*
X121922303Y-101102438D01*
X121922303Y-101102438D02*
X122017541Y-101054819D01*
X122017541Y-101054819D02*
X122208017Y-101054819D01*
X122208017Y-101054819D02*
X122303255Y-101102438D01*
X122303255Y-101102438D02*
X122398493Y-101197676D01*
X122398493Y-101197676D02*
X122446112Y-101388152D01*
X122446112Y-101388152D02*
X122446112Y-101721485D01*
X122446112Y-101721485D02*
X122398493Y-101911961D01*
X122398493Y-101911961D02*
X122303255Y-102007200D01*
X122303255Y-102007200D02*
X122208017Y-102054819D01*
X122208017Y-102054819D02*
X122017541Y-102054819D01*
X123398493Y-102054819D02*
X122827065Y-102054819D01*
X123112779Y-102054819D02*
X123112779Y-101054819D01*
X123112779Y-101054819D02*
X123017541Y-101197676D01*
X123017541Y-101197676D02*
X122922303Y-101292914D01*
X122922303Y-101292914D02*
X122827065Y-101340533D01*
X155448819Y-57075404D02*
X156258342Y-57075404D01*
X156258342Y-57075404D02*
X156353580Y-57027785D01*
X156353580Y-57027785D02*
X156401200Y-56980166D01*
X156401200Y-56980166D02*
X156448819Y-56884928D01*
X156448819Y-56884928D02*
X156448819Y-56694452D01*
X156448819Y-56694452D02*
X156401200Y-56599214D01*
X156401200Y-56599214D02*
X156353580Y-56551595D01*
X156353580Y-56551595D02*
X156258342Y-56503976D01*
X156258342Y-56503976D02*
X155448819Y-56503976D01*
X155782152Y-55599214D02*
X156448819Y-55599214D01*
X155401200Y-55837309D02*
X156115485Y-56075404D01*
X156115485Y-56075404D02*
X156115485Y-55456357D01*
X182738095Y-128254819D02*
X182738095Y-127254819D01*
X182738095Y-127731009D02*
X183309523Y-127731009D01*
X183309523Y-128254819D02*
X183309523Y-127254819D01*
X183690476Y-127254819D02*
X184309523Y-127254819D01*
X184309523Y-127254819D02*
X183976190Y-127635771D01*
X183976190Y-127635771D02*
X184119047Y-127635771D01*
X184119047Y-127635771D02*
X184214285Y-127683390D01*
X184214285Y-127683390D02*
X184261904Y-127731009D01*
X184261904Y-127731009D02*
X184309523Y-127826247D01*
X184309523Y-127826247D02*
X184309523Y-128064342D01*
X184309523Y-128064342D02*
X184261904Y-128159580D01*
X184261904Y-128159580D02*
X184214285Y-128207200D01*
X184214285Y-128207200D02*
X184119047Y-128254819D01*
X184119047Y-128254819D02*
X183833333Y-128254819D01*
X183833333Y-128254819D02*
X183738095Y-128207200D01*
X183738095Y-128207200D02*
X183690476Y-128159580D01*
X109450595Y-96395819D02*
X109450595Y-97205342D01*
X109450595Y-97205342D02*
X109498214Y-97300580D01*
X109498214Y-97300580D02*
X109545833Y-97348200D01*
X109545833Y-97348200D02*
X109641071Y-97395819D01*
X109641071Y-97395819D02*
X109831547Y-97395819D01*
X109831547Y-97395819D02*
X109926785Y-97348200D01*
X109926785Y-97348200D02*
X109974404Y-97300580D01*
X109974404Y-97300580D02*
X110022023Y-97205342D01*
X110022023Y-97205342D02*
X110022023Y-96395819D01*
X110450595Y-96491057D02*
X110498214Y-96443438D01*
X110498214Y-96443438D02*
X110593452Y-96395819D01*
X110593452Y-96395819D02*
X110831547Y-96395819D01*
X110831547Y-96395819D02*
X110926785Y-96443438D01*
X110926785Y-96443438D02*
X110974404Y-96491057D01*
X110974404Y-96491057D02*
X111022023Y-96586295D01*
X111022023Y-96586295D02*
X111022023Y-96681533D01*
X111022023Y-96681533D02*
X110974404Y-96824390D01*
X110974404Y-96824390D02*
X110402976Y-97395819D01*
X110402976Y-97395819D02*
X111022023Y-97395819D01*
X96833333Y-78359580D02*
X96785714Y-78407200D01*
X96785714Y-78407200D02*
X96642857Y-78454819D01*
X96642857Y-78454819D02*
X96547619Y-78454819D01*
X96547619Y-78454819D02*
X96404762Y-78407200D01*
X96404762Y-78407200D02*
X96309524Y-78311961D01*
X96309524Y-78311961D02*
X96261905Y-78216723D01*
X96261905Y-78216723D02*
X96214286Y-78026247D01*
X96214286Y-78026247D02*
X96214286Y-77883390D01*
X96214286Y-77883390D02*
X96261905Y-77692914D01*
X96261905Y-77692914D02*
X96309524Y-77597676D01*
X96309524Y-77597676D02*
X96404762Y-77502438D01*
X96404762Y-77502438D02*
X96547619Y-77454819D01*
X96547619Y-77454819D02*
X96642857Y-77454819D01*
X96642857Y-77454819D02*
X96785714Y-77502438D01*
X96785714Y-77502438D02*
X96833333Y-77550057D01*
X97738095Y-77454819D02*
X97261905Y-77454819D01*
X97261905Y-77454819D02*
X97214286Y-77931009D01*
X97214286Y-77931009D02*
X97261905Y-77883390D01*
X97261905Y-77883390D02*
X97357143Y-77835771D01*
X97357143Y-77835771D02*
X97595238Y-77835771D01*
X97595238Y-77835771D02*
X97690476Y-77883390D01*
X97690476Y-77883390D02*
X97738095Y-77931009D01*
X97738095Y-77931009D02*
X97785714Y-78026247D01*
X97785714Y-78026247D02*
X97785714Y-78264342D01*
X97785714Y-78264342D02*
X97738095Y-78359580D01*
X97738095Y-78359580D02*
X97690476Y-78407200D01*
X97690476Y-78407200D02*
X97595238Y-78454819D01*
X97595238Y-78454819D02*
X97357143Y-78454819D01*
X97357143Y-78454819D02*
X97261905Y-78407200D01*
X97261905Y-78407200D02*
X97214286Y-78359580D01*
X123915833Y-92504580D02*
X123868214Y-92552200D01*
X123868214Y-92552200D02*
X123725357Y-92599819D01*
X123725357Y-92599819D02*
X123630119Y-92599819D01*
X123630119Y-92599819D02*
X123487262Y-92552200D01*
X123487262Y-92552200D02*
X123392024Y-92456961D01*
X123392024Y-92456961D02*
X123344405Y-92361723D01*
X123344405Y-92361723D02*
X123296786Y-92171247D01*
X123296786Y-92171247D02*
X123296786Y-92028390D01*
X123296786Y-92028390D02*
X123344405Y-91837914D01*
X123344405Y-91837914D02*
X123392024Y-91742676D01*
X123392024Y-91742676D02*
X123487262Y-91647438D01*
X123487262Y-91647438D02*
X123630119Y-91599819D01*
X123630119Y-91599819D02*
X123725357Y-91599819D01*
X123725357Y-91599819D02*
X123868214Y-91647438D01*
X123868214Y-91647438D02*
X123915833Y-91695057D01*
X124487262Y-92028390D02*
X124392024Y-91980771D01*
X124392024Y-91980771D02*
X124344405Y-91933152D01*
X124344405Y-91933152D02*
X124296786Y-91837914D01*
X124296786Y-91837914D02*
X124296786Y-91790295D01*
X124296786Y-91790295D02*
X124344405Y-91695057D01*
X124344405Y-91695057D02*
X124392024Y-91647438D01*
X124392024Y-91647438D02*
X124487262Y-91599819D01*
X124487262Y-91599819D02*
X124677738Y-91599819D01*
X124677738Y-91599819D02*
X124772976Y-91647438D01*
X124772976Y-91647438D02*
X124820595Y-91695057D01*
X124820595Y-91695057D02*
X124868214Y-91790295D01*
X124868214Y-91790295D02*
X124868214Y-91837914D01*
X124868214Y-91837914D02*
X124820595Y-91933152D01*
X124820595Y-91933152D02*
X124772976Y-91980771D01*
X124772976Y-91980771D02*
X124677738Y-92028390D01*
X124677738Y-92028390D02*
X124487262Y-92028390D01*
X124487262Y-92028390D02*
X124392024Y-92076009D01*
X124392024Y-92076009D02*
X124344405Y-92123628D01*
X124344405Y-92123628D02*
X124296786Y-92218866D01*
X124296786Y-92218866D02*
X124296786Y-92409342D01*
X124296786Y-92409342D02*
X124344405Y-92504580D01*
X124344405Y-92504580D02*
X124392024Y-92552200D01*
X124392024Y-92552200D02*
X124487262Y-92599819D01*
X124487262Y-92599819D02*
X124677738Y-92599819D01*
X124677738Y-92599819D02*
X124772976Y-92552200D01*
X124772976Y-92552200D02*
X124820595Y-92504580D01*
X124820595Y-92504580D02*
X124868214Y-92409342D01*
X124868214Y-92409342D02*
X124868214Y-92218866D01*
X124868214Y-92218866D02*
X124820595Y-92123628D01*
X124820595Y-92123628D02*
X124772976Y-92076009D01*
X124772976Y-92076009D02*
X124677738Y-92028390D01*
X111144642Y-85679580D02*
X111097023Y-85727200D01*
X111097023Y-85727200D02*
X110954166Y-85774819D01*
X110954166Y-85774819D02*
X110858928Y-85774819D01*
X110858928Y-85774819D02*
X110716071Y-85727200D01*
X110716071Y-85727200D02*
X110620833Y-85631961D01*
X110620833Y-85631961D02*
X110573214Y-85536723D01*
X110573214Y-85536723D02*
X110525595Y-85346247D01*
X110525595Y-85346247D02*
X110525595Y-85203390D01*
X110525595Y-85203390D02*
X110573214Y-85012914D01*
X110573214Y-85012914D02*
X110620833Y-84917676D01*
X110620833Y-84917676D02*
X110716071Y-84822438D01*
X110716071Y-84822438D02*
X110858928Y-84774819D01*
X110858928Y-84774819D02*
X110954166Y-84774819D01*
X110954166Y-84774819D02*
X111097023Y-84822438D01*
X111097023Y-84822438D02*
X111144642Y-84870057D01*
X112097023Y-85774819D02*
X111525595Y-85774819D01*
X111811309Y-85774819D02*
X111811309Y-84774819D01*
X111811309Y-84774819D02*
X111716071Y-84917676D01*
X111716071Y-84917676D02*
X111620833Y-85012914D01*
X111620833Y-85012914D02*
X111525595Y-85060533D01*
X112477976Y-84870057D02*
X112525595Y-84822438D01*
X112525595Y-84822438D02*
X112620833Y-84774819D01*
X112620833Y-84774819D02*
X112858928Y-84774819D01*
X112858928Y-84774819D02*
X112954166Y-84822438D01*
X112954166Y-84822438D02*
X113001785Y-84870057D01*
X113001785Y-84870057D02*
X113049404Y-84965295D01*
X113049404Y-84965295D02*
X113049404Y-85060533D01*
X113049404Y-85060533D02*
X113001785Y-85203390D01*
X113001785Y-85203390D02*
X112430357Y-85774819D01*
X112430357Y-85774819D02*
X113049404Y-85774819D01*
X182738095Y-28254819D02*
X182738095Y-27254819D01*
X182738095Y-27731009D02*
X183309523Y-27731009D01*
X183309523Y-28254819D02*
X183309523Y-27254819D01*
X184309523Y-28254819D02*
X183738095Y-28254819D01*
X184023809Y-28254819D02*
X184023809Y-27254819D01*
X184023809Y-27254819D02*
X183928571Y-27397676D01*
X183928571Y-27397676D02*
X183833333Y-27492914D01*
X183833333Y-27492914D02*
X183738095Y-27540533D01*
X169468642Y-73983580D02*
X169421023Y-74031200D01*
X169421023Y-74031200D02*
X169278166Y-74078819D01*
X169278166Y-74078819D02*
X169182928Y-74078819D01*
X169182928Y-74078819D02*
X169040071Y-74031200D01*
X169040071Y-74031200D02*
X168944833Y-73935961D01*
X168944833Y-73935961D02*
X168897214Y-73840723D01*
X168897214Y-73840723D02*
X168849595Y-73650247D01*
X168849595Y-73650247D02*
X168849595Y-73507390D01*
X168849595Y-73507390D02*
X168897214Y-73316914D01*
X168897214Y-73316914D02*
X168944833Y-73221676D01*
X168944833Y-73221676D02*
X169040071Y-73126438D01*
X169040071Y-73126438D02*
X169182928Y-73078819D01*
X169182928Y-73078819D02*
X169278166Y-73078819D01*
X169278166Y-73078819D02*
X169421023Y-73126438D01*
X169421023Y-73126438D02*
X169468642Y-73174057D01*
X169849595Y-73174057D02*
X169897214Y-73126438D01*
X169897214Y-73126438D02*
X169992452Y-73078819D01*
X169992452Y-73078819D02*
X170230547Y-73078819D01*
X170230547Y-73078819D02*
X170325785Y-73126438D01*
X170325785Y-73126438D02*
X170373404Y-73174057D01*
X170373404Y-73174057D02*
X170421023Y-73269295D01*
X170421023Y-73269295D02*
X170421023Y-73364533D01*
X170421023Y-73364533D02*
X170373404Y-73507390D01*
X170373404Y-73507390D02*
X169801976Y-74078819D01*
X169801976Y-74078819D02*
X170421023Y-74078819D01*
X171373404Y-74078819D02*
X170801976Y-74078819D01*
X171087690Y-74078819D02*
X171087690Y-73078819D01*
X171087690Y-73078819D02*
X170992452Y-73221676D01*
X170992452Y-73221676D02*
X170897214Y-73316914D01*
X170897214Y-73316914D02*
X170801976Y-73364533D01*
X158857142Y-118304819D02*
X158523809Y-117828628D01*
X158285714Y-118304819D02*
X158285714Y-117304819D01*
X158285714Y-117304819D02*
X158666666Y-117304819D01*
X158666666Y-117304819D02*
X158761904Y-117352438D01*
X158761904Y-117352438D02*
X158809523Y-117400057D01*
X158809523Y-117400057D02*
X158857142Y-117495295D01*
X158857142Y-117495295D02*
X158857142Y-117638152D01*
X158857142Y-117638152D02*
X158809523Y-117733390D01*
X158809523Y-117733390D02*
X158761904Y-117781009D01*
X158761904Y-117781009D02*
X158666666Y-117828628D01*
X158666666Y-117828628D02*
X158285714Y-117828628D01*
X159809523Y-118304819D02*
X159238095Y-118304819D01*
X159523809Y-118304819D02*
X159523809Y-117304819D01*
X159523809Y-117304819D02*
X159428571Y-117447676D01*
X159428571Y-117447676D02*
X159333333Y-117542914D01*
X159333333Y-117542914D02*
X159238095Y-117590533D01*
X160142857Y-117304819D02*
X160809523Y-117304819D01*
X160809523Y-117304819D02*
X160380952Y-118304819D01*
X130857142Y-88179580D02*
X130809523Y-88227200D01*
X130809523Y-88227200D02*
X130666666Y-88274819D01*
X130666666Y-88274819D02*
X130571428Y-88274819D01*
X130571428Y-88274819D02*
X130428571Y-88227200D01*
X130428571Y-88227200D02*
X130333333Y-88131961D01*
X130333333Y-88131961D02*
X130285714Y-88036723D01*
X130285714Y-88036723D02*
X130238095Y-87846247D01*
X130238095Y-87846247D02*
X130238095Y-87703390D01*
X130238095Y-87703390D02*
X130285714Y-87512914D01*
X130285714Y-87512914D02*
X130333333Y-87417676D01*
X130333333Y-87417676D02*
X130428571Y-87322438D01*
X130428571Y-87322438D02*
X130571428Y-87274819D01*
X130571428Y-87274819D02*
X130666666Y-87274819D01*
X130666666Y-87274819D02*
X130809523Y-87322438D01*
X130809523Y-87322438D02*
X130857142Y-87370057D01*
X131809523Y-88274819D02*
X131238095Y-88274819D01*
X131523809Y-88274819D02*
X131523809Y-87274819D01*
X131523809Y-87274819D02*
X131428571Y-87417676D01*
X131428571Y-87417676D02*
X131333333Y-87512914D01*
X131333333Y-87512914D02*
X131238095Y-87560533D01*
X132666666Y-87274819D02*
X132476190Y-87274819D01*
X132476190Y-87274819D02*
X132380952Y-87322438D01*
X132380952Y-87322438D02*
X132333333Y-87370057D01*
X132333333Y-87370057D02*
X132238095Y-87512914D01*
X132238095Y-87512914D02*
X132190476Y-87703390D01*
X132190476Y-87703390D02*
X132190476Y-88084342D01*
X132190476Y-88084342D02*
X132238095Y-88179580D01*
X132238095Y-88179580D02*
X132285714Y-88227200D01*
X132285714Y-88227200D02*
X132380952Y-88274819D01*
X132380952Y-88274819D02*
X132571428Y-88274819D01*
X132571428Y-88274819D02*
X132666666Y-88227200D01*
X132666666Y-88227200D02*
X132714285Y-88179580D01*
X132714285Y-88179580D02*
X132761904Y-88084342D01*
X132761904Y-88084342D02*
X132761904Y-87846247D01*
X132761904Y-87846247D02*
X132714285Y-87751009D01*
X132714285Y-87751009D02*
X132666666Y-87703390D01*
X132666666Y-87703390D02*
X132571428Y-87655771D01*
X132571428Y-87655771D02*
X132380952Y-87655771D01*
X132380952Y-87655771D02*
X132285714Y-87703390D01*
X132285714Y-87703390D02*
X132238095Y-87751009D01*
X132238095Y-87751009D02*
X132190476Y-87846247D01*
X146569642Y-118679580D02*
X146522023Y-118727200D01*
X146522023Y-118727200D02*
X146379166Y-118774819D01*
X146379166Y-118774819D02*
X146283928Y-118774819D01*
X146283928Y-118774819D02*
X146141071Y-118727200D01*
X146141071Y-118727200D02*
X146045833Y-118631961D01*
X146045833Y-118631961D02*
X145998214Y-118536723D01*
X145998214Y-118536723D02*
X145950595Y-118346247D01*
X145950595Y-118346247D02*
X145950595Y-118203390D01*
X145950595Y-118203390D02*
X145998214Y-118012914D01*
X145998214Y-118012914D02*
X146045833Y-117917676D01*
X146045833Y-117917676D02*
X146141071Y-117822438D01*
X146141071Y-117822438D02*
X146283928Y-117774819D01*
X146283928Y-117774819D02*
X146379166Y-117774819D01*
X146379166Y-117774819D02*
X146522023Y-117822438D01*
X146522023Y-117822438D02*
X146569642Y-117870057D01*
X147522023Y-118774819D02*
X146950595Y-118774819D01*
X147236309Y-118774819D02*
X147236309Y-117774819D01*
X147236309Y-117774819D02*
X147141071Y-117917676D01*
X147141071Y-117917676D02*
X147045833Y-118012914D01*
X147045833Y-118012914D02*
X146950595Y-118060533D01*
X147855357Y-117774819D02*
X148474404Y-117774819D01*
X148474404Y-117774819D02*
X148141071Y-118155771D01*
X148141071Y-118155771D02*
X148283928Y-118155771D01*
X148283928Y-118155771D02*
X148379166Y-118203390D01*
X148379166Y-118203390D02*
X148426785Y-118251009D01*
X148426785Y-118251009D02*
X148474404Y-118346247D01*
X148474404Y-118346247D02*
X148474404Y-118584342D01*
X148474404Y-118584342D02*
X148426785Y-118679580D01*
X148426785Y-118679580D02*
X148379166Y-118727200D01*
X148379166Y-118727200D02*
X148283928Y-118774819D01*
X148283928Y-118774819D02*
X147998214Y-118774819D01*
X147998214Y-118774819D02*
X147902976Y-118727200D01*
X147902976Y-118727200D02*
X147855357Y-118679580D01*
X91273048Y-64569866D02*
X92034953Y-64569866D01*
X91654000Y-64950819D02*
X91654000Y-64188914D01*
X88606048Y-64823866D02*
X89367953Y-64823866D01*
X96834333Y-61016580D02*
X96786714Y-61064200D01*
X96786714Y-61064200D02*
X96643857Y-61111819D01*
X96643857Y-61111819D02*
X96548619Y-61111819D01*
X96548619Y-61111819D02*
X96405762Y-61064200D01*
X96405762Y-61064200D02*
X96310524Y-60968961D01*
X96310524Y-60968961D02*
X96262905Y-60873723D01*
X96262905Y-60873723D02*
X96215286Y-60683247D01*
X96215286Y-60683247D02*
X96215286Y-60540390D01*
X96215286Y-60540390D02*
X96262905Y-60349914D01*
X96262905Y-60349914D02*
X96310524Y-60254676D01*
X96310524Y-60254676D02*
X96405762Y-60159438D01*
X96405762Y-60159438D02*
X96548619Y-60111819D01*
X96548619Y-60111819D02*
X96643857Y-60111819D01*
X96643857Y-60111819D02*
X96786714Y-60159438D01*
X96786714Y-60159438D02*
X96834333Y-60207057D01*
X97167667Y-60111819D02*
X97786714Y-60111819D01*
X97786714Y-60111819D02*
X97453381Y-60492771D01*
X97453381Y-60492771D02*
X97596238Y-60492771D01*
X97596238Y-60492771D02*
X97691476Y-60540390D01*
X97691476Y-60540390D02*
X97739095Y-60588009D01*
X97739095Y-60588009D02*
X97786714Y-60683247D01*
X97786714Y-60683247D02*
X97786714Y-60921342D01*
X97786714Y-60921342D02*
X97739095Y-61016580D01*
X97739095Y-61016580D02*
X97691476Y-61064200D01*
X97691476Y-61064200D02*
X97596238Y-61111819D01*
X97596238Y-61111819D02*
X97310524Y-61111819D01*
X97310524Y-61111819D02*
X97215286Y-61064200D01*
X97215286Y-61064200D02*
X97167667Y-61016580D01*
X117857142Y-101859580D02*
X117809523Y-101907200D01*
X117809523Y-101907200D02*
X117666666Y-101954819D01*
X117666666Y-101954819D02*
X117571428Y-101954819D01*
X117571428Y-101954819D02*
X117428571Y-101907200D01*
X117428571Y-101907200D02*
X117333333Y-101811961D01*
X117333333Y-101811961D02*
X117285714Y-101716723D01*
X117285714Y-101716723D02*
X117238095Y-101526247D01*
X117238095Y-101526247D02*
X117238095Y-101383390D01*
X117238095Y-101383390D02*
X117285714Y-101192914D01*
X117285714Y-101192914D02*
X117333333Y-101097676D01*
X117333333Y-101097676D02*
X117428571Y-101002438D01*
X117428571Y-101002438D02*
X117571428Y-100954819D01*
X117571428Y-100954819D02*
X117666666Y-100954819D01*
X117666666Y-100954819D02*
X117809523Y-101002438D01*
X117809523Y-101002438D02*
X117857142Y-101050057D01*
X118809523Y-101954819D02*
X118238095Y-101954819D01*
X118523809Y-101954819D02*
X118523809Y-100954819D01*
X118523809Y-100954819D02*
X118428571Y-101097676D01*
X118428571Y-101097676D02*
X118333333Y-101192914D01*
X118333333Y-101192914D02*
X118238095Y-101240533D01*
X119714285Y-100954819D02*
X119238095Y-100954819D01*
X119238095Y-100954819D02*
X119190476Y-101431009D01*
X119190476Y-101431009D02*
X119238095Y-101383390D01*
X119238095Y-101383390D02*
X119333333Y-101335771D01*
X119333333Y-101335771D02*
X119571428Y-101335771D01*
X119571428Y-101335771D02*
X119666666Y-101383390D01*
X119666666Y-101383390D02*
X119714285Y-101431009D01*
X119714285Y-101431009D02*
X119761904Y-101526247D01*
X119761904Y-101526247D02*
X119761904Y-101764342D01*
X119761904Y-101764342D02*
X119714285Y-101859580D01*
X119714285Y-101859580D02*
X119666666Y-101907200D01*
X119666666Y-101907200D02*
X119571428Y-101954819D01*
X119571428Y-101954819D02*
X119333333Y-101954819D01*
X119333333Y-101954819D02*
X119238095Y-101907200D01*
X119238095Y-101907200D02*
X119190476Y-101859580D01*
X100333333Y-66954819D02*
X100000000Y-66478628D01*
X99761905Y-66954819D02*
X99761905Y-65954819D01*
X99761905Y-65954819D02*
X100142857Y-65954819D01*
X100142857Y-65954819D02*
X100238095Y-66002438D01*
X100238095Y-66002438D02*
X100285714Y-66050057D01*
X100285714Y-66050057D02*
X100333333Y-66145295D01*
X100333333Y-66145295D02*
X100333333Y-66288152D01*
X100333333Y-66288152D02*
X100285714Y-66383390D01*
X100285714Y-66383390D02*
X100238095Y-66431009D01*
X100238095Y-66431009D02*
X100142857Y-66478628D01*
X100142857Y-66478628D02*
X99761905Y-66478628D01*
X101190476Y-66288152D02*
X101190476Y-66954819D01*
X100952381Y-65907200D02*
X100714286Y-66621485D01*
X100714286Y-66621485D02*
X101333333Y-66621485D01*
X166857142Y-60859580D02*
X166809523Y-60907200D01*
X166809523Y-60907200D02*
X166666666Y-60954819D01*
X166666666Y-60954819D02*
X166571428Y-60954819D01*
X166571428Y-60954819D02*
X166428571Y-60907200D01*
X166428571Y-60907200D02*
X166333333Y-60811961D01*
X166333333Y-60811961D02*
X166285714Y-60716723D01*
X166285714Y-60716723D02*
X166238095Y-60526247D01*
X166238095Y-60526247D02*
X166238095Y-60383390D01*
X166238095Y-60383390D02*
X166285714Y-60192914D01*
X166285714Y-60192914D02*
X166333333Y-60097676D01*
X166333333Y-60097676D02*
X166428571Y-60002438D01*
X166428571Y-60002438D02*
X166571428Y-59954819D01*
X166571428Y-59954819D02*
X166666666Y-59954819D01*
X166666666Y-59954819D02*
X166809523Y-60002438D01*
X166809523Y-60002438D02*
X166857142Y-60050057D01*
X167238095Y-60050057D02*
X167285714Y-60002438D01*
X167285714Y-60002438D02*
X167380952Y-59954819D01*
X167380952Y-59954819D02*
X167619047Y-59954819D01*
X167619047Y-59954819D02*
X167714285Y-60002438D01*
X167714285Y-60002438D02*
X167761904Y-60050057D01*
X167761904Y-60050057D02*
X167809523Y-60145295D01*
X167809523Y-60145295D02*
X167809523Y-60240533D01*
X167809523Y-60240533D02*
X167761904Y-60383390D01*
X167761904Y-60383390D02*
X167190476Y-60954819D01*
X167190476Y-60954819D02*
X167809523Y-60954819D01*
X168666666Y-60288152D02*
X168666666Y-60954819D01*
X168428571Y-59907200D02*
X168190476Y-60621485D01*
X168190476Y-60621485D02*
X168809523Y-60621485D01*
X123624333Y-98090819D02*
X123291000Y-97614628D01*
X123052905Y-98090819D02*
X123052905Y-97090819D01*
X123052905Y-97090819D02*
X123433857Y-97090819D01*
X123433857Y-97090819D02*
X123529095Y-97138438D01*
X123529095Y-97138438D02*
X123576714Y-97186057D01*
X123576714Y-97186057D02*
X123624333Y-97281295D01*
X123624333Y-97281295D02*
X123624333Y-97424152D01*
X123624333Y-97424152D02*
X123576714Y-97519390D01*
X123576714Y-97519390D02*
X123529095Y-97567009D01*
X123529095Y-97567009D02*
X123433857Y-97614628D01*
X123433857Y-97614628D02*
X123052905Y-97614628D01*
X123957667Y-97090819D02*
X124624333Y-97090819D01*
X124624333Y-97090819D02*
X124195762Y-98090819D01*
X90029951Y-101133133D02*
X89268047Y-101133133D01*
X89648999Y-100752180D02*
X89648999Y-101514085D01*
X92823951Y-100879133D02*
X92062047Y-100879133D01*
D12*
%TO.C,C27*%
X170238748Y-62235000D02*
X170761252Y-62235000D01*
X170238748Y-60765000D02*
X170761252Y-60765000D01*
%TO.C,C23*%
X165726248Y-48235000D02*
X166248752Y-48235000D01*
X165726248Y-46765000D02*
X166248752Y-46765000D01*
%TO.C,P2*%
X108080000Y-123260000D02*
X108080000Y-124210000D01*
X108080000Y-119285000D02*
X108080000Y-120140000D01*
X98920000Y-124210000D02*
X108080000Y-124210000D01*
X98920000Y-123260000D02*
X98920000Y-124210000D01*
X98920000Y-119285000D02*
X98920000Y-120140000D01*
%TO.C,J7*%
X114009000Y-91718000D02*
X114009000Y-95718000D01*
X114299000Y-90688000D02*
X114299000Y-96708000D01*
X114299000Y-96708000D02*
X119599000Y-96708000D01*
X114879000Y-90688000D02*
X114879000Y-91288000D01*
X114879000Y-91288000D02*
X116479000Y-91288000D01*
X115679000Y-95708000D02*
X115929000Y-95178000D01*
X115679000Y-95708000D02*
X118219000Y-95708000D01*
X115679000Y-96708000D02*
X115679000Y-95708000D01*
X115929000Y-95178000D02*
X117969000Y-95178000D01*
X115929000Y-96708000D02*
X115929000Y-95708000D01*
X116479000Y-91288000D02*
X116479000Y-90688000D01*
X117419000Y-90688000D02*
X117419000Y-91288000D01*
X117419000Y-91288000D02*
X119019000Y-91288000D01*
X117969000Y-95178000D02*
X118219000Y-95708000D01*
X117969000Y-96708000D02*
X117969000Y-95708000D01*
X118219000Y-95708000D02*
X118219000Y-96708000D01*
X119019000Y-91288000D02*
X119019000Y-90688000D01*
X119599000Y-90688000D02*
X114299000Y-90688000D01*
X119599000Y-96708000D02*
X119599000Y-90688000D01*
%TO.C,J5*%
X87330000Y-74815000D02*
X87330000Y-78815000D01*
X87620000Y-73785000D02*
X87620000Y-79805000D01*
X87620000Y-79805000D02*
X92920000Y-79805000D01*
X88200000Y-73785000D02*
X88200000Y-74385000D01*
X88200000Y-74385000D02*
X89800000Y-74385000D01*
X89000000Y-78805000D02*
X89250000Y-78275000D01*
X89000000Y-78805000D02*
X91540000Y-78805000D01*
X89000000Y-79805000D02*
X89000000Y-78805000D01*
X89250000Y-78275000D02*
X91290000Y-78275000D01*
X89250000Y-79805000D02*
X89250000Y-78805000D01*
X89800000Y-74385000D02*
X89800000Y-73785000D01*
X90740000Y-73785000D02*
X90740000Y-74385000D01*
X90740000Y-74385000D02*
X92340000Y-74385000D01*
X91290000Y-78275000D02*
X91540000Y-78805000D01*
X91290000Y-79805000D02*
X91290000Y-78805000D01*
X91540000Y-78805000D02*
X91540000Y-79805000D01*
X92340000Y-74385000D02*
X92340000Y-73785000D01*
X92920000Y-73785000D02*
X87620000Y-73785000D01*
X92920000Y-79805000D02*
X92920000Y-73785000D01*
%TO.C,Y1*%
X169074000Y-64150000D02*
X169074000Y-67850000D01*
X169074000Y-67850000D02*
X174374000Y-67850000D01*
%TO.C,R16*%
X142522936Y-119265000D02*
X142977064Y-119265000D01*
X142522936Y-120735000D02*
X142977064Y-120735000D01*
%TO.C,R13*%
X116272936Y-85265000D02*
X116727064Y-85265000D01*
X116272936Y-86735000D02*
X116727064Y-86735000D01*
%TO.C,C20*%
X178761252Y-68265000D02*
X178238748Y-68265000D01*
X178761252Y-69735000D02*
X178238748Y-69735000D01*
%TO.C,C22*%
X159726248Y-50265000D02*
X160248752Y-50265000D01*
X159726248Y-51735000D02*
X160248752Y-51735000D01*
%TO.C,R6*%
X86732936Y-86395000D02*
X87187064Y-86395000D01*
X86732936Y-87865000D02*
X87187064Y-87865000D01*
%TO.C,C28*%
X175188748Y-54265000D02*
X175711252Y-54265000D01*
X175188748Y-55735000D02*
X175711252Y-55735000D01*
%TO.C,R20*%
X165722936Y-50265000D02*
X166177064Y-50265000D01*
X165722936Y-51735000D02*
X166177064Y-51735000D01*
%TO.C,R8*%
X86732936Y-90967000D02*
X87187064Y-90967000D01*
X86732936Y-92437000D02*
X87187064Y-92437000D01*
%TO.C,C2*%
X96739748Y-53093000D02*
X97262252Y-53093000D01*
X96739748Y-54563000D02*
X97262252Y-54563000D01*
%TO.C,J6*%
X118750000Y-82000000D02*
X118750000Y-86000000D01*
X119040000Y-80970000D02*
X119040000Y-86990000D01*
X119040000Y-86990000D02*
X126880000Y-86990000D01*
X119620000Y-80970000D02*
X119620000Y-81570000D01*
X119620000Y-81570000D02*
X121220000Y-81570000D01*
X120420000Y-85990000D02*
X120670000Y-85460000D01*
X120420000Y-85990000D02*
X125500000Y-85990000D01*
X120420000Y-86990000D02*
X120420000Y-85990000D01*
X120670000Y-85460000D02*
X125250000Y-85460000D01*
X120670000Y-86990000D02*
X120670000Y-85990000D01*
X121220000Y-81570000D02*
X121220000Y-80970000D01*
X122160000Y-80970000D02*
X122160000Y-81570000D01*
X122160000Y-81570000D02*
X123760000Y-81570000D01*
X123760000Y-81570000D02*
X123760000Y-80970000D01*
X124700000Y-80970000D02*
X124700000Y-81570000D01*
X124700000Y-81570000D02*
X126300000Y-81570000D01*
X125250000Y-85460000D02*
X125500000Y-85990000D01*
X125250000Y-86990000D02*
X125250000Y-85990000D01*
X125500000Y-85990000D02*
X125500000Y-86990000D01*
X126300000Y-81570000D02*
X126300000Y-80970000D01*
X126880000Y-80970000D02*
X119040000Y-80970000D01*
X126880000Y-86990000D02*
X126880000Y-80970000D01*
%TO.C,R1*%
X97228064Y-40774000D02*
X96773936Y-40774000D01*
X97228064Y-42244000D02*
X96773936Y-42244000D01*
%TO.C,D1*%
X89290000Y-84500000D02*
X89290000Y-88500000D01*
X89580000Y-83470000D02*
X89580000Y-89490000D01*
X89580000Y-89490000D02*
X94880000Y-89490000D01*
X90160000Y-83470000D02*
X90160000Y-84070000D01*
X90160000Y-84070000D02*
X91760000Y-84070000D01*
X90960000Y-88490000D02*
X91210000Y-87960000D01*
X90960000Y-88490000D02*
X93500000Y-88490000D01*
X90960000Y-89490000D02*
X90960000Y-88490000D01*
X91210000Y-87960000D02*
X93250000Y-87960000D01*
X91210000Y-89490000D02*
X91210000Y-88490000D01*
X91760000Y-84070000D02*
X91760000Y-83470000D01*
X92700000Y-83470000D02*
X92700000Y-84070000D01*
X92700000Y-84070000D02*
X94300000Y-84070000D01*
X93250000Y-87960000D02*
X93500000Y-88490000D01*
X93250000Y-89490000D02*
X93250000Y-88490000D01*
X93500000Y-88490000D02*
X93500000Y-89490000D01*
X94300000Y-84070000D02*
X94300000Y-83470000D01*
X94880000Y-83470000D02*
X89580000Y-83470000D01*
X94880000Y-89490000D02*
X94880000Y-83470000D01*
%TO.C,R12*%
X107022936Y-86265000D02*
X107477064Y-86265000D01*
X107022936Y-87735000D02*
X107477064Y-87735000D01*
%TO.C,U7*%
X98040000Y-89590000D02*
X98040000Y-107490000D01*
X98040000Y-107490000D02*
X99690000Y-107490000D01*
X101690000Y-107490000D02*
X103340000Y-107490000D01*
X103340000Y-89590000D02*
X98040000Y-89590000D01*
X103340000Y-107490000D02*
X103340000Y-89590000D01*
X99690000Y-107490000D02*
G75*
G02*
X101690000Y-107490000I1000000J0D01*
G01*
%TO.C,U3*%
X132859000Y-96078000D02*
X132859000Y-96308000D01*
X132859000Y-96308000D02*
X133834000Y-96308000D01*
X133149000Y-93088000D02*
X133834000Y-93088000D01*
X135104000Y-93088000D02*
X136079000Y-93088000D01*
X135104000Y-96308000D02*
X136079000Y-96308000D01*
X136079000Y-93088000D02*
X136079000Y-93318000D01*
X136079000Y-96078000D02*
X136079000Y-96308000D01*
X132829000Y-93088000D02*
X132549000Y-93088000D01*
X132829000Y-92808000D01*
X132829000Y-93088000D01*
G36*
X132829000Y-93088000D02*
G01*
X132549000Y-93088000D01*
X132829000Y-92808000D01*
X132829000Y-93088000D01*
G37*
%TO.C,L1*%
X128616748Y-93115000D02*
X129139252Y-93115000D01*
X128616748Y-94535000D02*
X129139252Y-94535000D01*
%TO.C,C18*%
X89698748Y-107265000D02*
X90221252Y-107265000D01*
X89698748Y-108735000D02*
X90221252Y-108735000D01*
%TO.C,L3*%
X165713748Y-57290000D02*
X166236252Y-57290000D01*
X165713748Y-58710000D02*
X166236252Y-58710000D01*
%TO.C,R5*%
X97228064Y-74175000D02*
X96773936Y-74175000D01*
X97228064Y-75645000D02*
X96773936Y-75645000D01*
%TO.C,C26*%
X170688748Y-50265000D02*
X171211252Y-50265000D01*
X170688748Y-51735000D02*
X171211252Y-51735000D01*
%TO.C,C6*%
X109738748Y-90265000D02*
X110261252Y-90265000D01*
X109738748Y-91735000D02*
X110261252Y-91735000D01*
%TO.C,R21*%
X175772936Y-50265000D02*
X176227064Y-50265000D01*
X175772936Y-51735000D02*
X176227064Y-51735000D01*
%TO.C,U5*%
X119300000Y-52360000D02*
X119300000Y-58560000D01*
X119300000Y-52360000D02*
X137700000Y-52360000D01*
X119300000Y-77210000D02*
X119300000Y-78210000D01*
X119300000Y-78210000D02*
X120800000Y-78210000D01*
X137700000Y-52360000D02*
X137700000Y-58560000D01*
X137700000Y-78210000D02*
X136200000Y-78210000D01*
X137700000Y-78210000D02*
X137700000Y-77210000D01*
X119300000Y-59235000D02*
X118800000Y-59235000D01*
X119300000Y-58735000D01*
X119300000Y-59235000D01*
G36*
X119300000Y-59235000D02*
G01*
X118800000Y-59235000D01*
X119300000Y-58735000D01*
X119300000Y-59235000D01*
G37*
%TO.C,U8*%
X153657500Y-75380000D02*
X179057500Y-75380000D01*
X153657500Y-80430000D02*
X153657500Y-75380000D01*
X153657500Y-111620000D02*
X153657500Y-106930000D01*
X165667500Y-79150000D02*
X165667500Y-108930000D01*
X165667500Y-108930000D02*
X176057500Y-108930000D01*
X176057500Y-79150000D02*
X165667500Y-79150000D01*
X176057500Y-108930000D02*
X176057500Y-79150000D01*
X179057500Y-80430000D02*
X179057500Y-75380000D01*
X179057500Y-100930000D02*
X179057500Y-85930000D01*
X179057500Y-106930000D02*
X179057500Y-111620000D01*
X179057500Y-111620000D02*
X153657500Y-111620000D01*
X180307500Y-106180000D02*
X179057500Y-106180000D01*
X180307500Y-106180000D02*
X180307500Y-103930000D01*
%TO.C,R22*%
X175222936Y-60765000D02*
X175677064Y-60765000D01*
X175222936Y-62235000D02*
X175677064Y-62235000D01*
%TO.C,JP1*%
X157450000Y-115000000D02*
X161550000Y-115000000D01*
X157450000Y-117000000D02*
X157450000Y-115000000D01*
X157900000Y-117500000D02*
X158500000Y-117500000D01*
X158200000Y-117200000D02*
X157900000Y-117500000D01*
X158200000Y-117200000D02*
X158500000Y-117500000D01*
X161550000Y-115000000D02*
X161550000Y-117000000D01*
X161550000Y-117000000D02*
X157450000Y-117000000D01*
%TO.C,SW1*%
X104000000Y-74900000D02*
X104000000Y-76400000D01*
X105250000Y-78900000D02*
X109750000Y-78900000D01*
X109750000Y-72400000D02*
X105250000Y-72400000D01*
X111000000Y-76400000D02*
X111000000Y-74900000D01*
%TO.C,C25*%
X170688748Y-54265000D02*
X171211252Y-54265000D01*
X170688748Y-55735000D02*
X171211252Y-55735000D01*
%TO.C,R10*%
X118378534Y-103265000D02*
X117924406Y-103265000D01*
X118378534Y-104735000D02*
X117924406Y-104735000D01*
%TO.C,J9*%
X161630000Y-39170000D02*
X161630000Y-41830000D01*
X171850000Y-39170000D02*
X161630000Y-39170000D01*
X171850000Y-39170000D02*
X171850000Y-41830000D01*
X171850000Y-41830000D02*
X161630000Y-41830000D01*
X173120000Y-39170000D02*
X174450000Y-39170000D01*
X174450000Y-39170000D02*
X174450000Y-40500000D01*
%TO.C,R9*%
X108847936Y-98063000D02*
X109302064Y-98063000D01*
X108847936Y-99533000D02*
X109302064Y-99533000D01*
%TO.C,J3*%
X87330000Y-58198000D02*
X87330000Y-62198000D01*
X87620000Y-57168000D02*
X87620000Y-63188000D01*
X87620000Y-63188000D02*
X92920000Y-63188000D01*
X88200000Y-57168000D02*
X88200000Y-57768000D01*
X88200000Y-57768000D02*
X89800000Y-57768000D01*
X89000000Y-62188000D02*
X89250000Y-61658000D01*
X89000000Y-62188000D02*
X91540000Y-62188000D01*
X89000000Y-63188000D02*
X89000000Y-62188000D01*
X89250000Y-61658000D02*
X91290000Y-61658000D01*
X89250000Y-63188000D02*
X89250000Y-62188000D01*
X89800000Y-57768000D02*
X89800000Y-57168000D01*
X90740000Y-57168000D02*
X90740000Y-57768000D01*
X90740000Y-57768000D02*
X92340000Y-57768000D01*
X91290000Y-61658000D02*
X91540000Y-62188000D01*
X91290000Y-63188000D02*
X91290000Y-62188000D01*
X91540000Y-62188000D02*
X91540000Y-63188000D01*
X92340000Y-57768000D02*
X92340000Y-57168000D01*
X92920000Y-57168000D02*
X87620000Y-57168000D01*
X92920000Y-63188000D02*
X92920000Y-57168000D01*
%TO.C,SW2*%
X138500000Y-110000000D02*
X138500000Y-111500000D01*
X139750000Y-114000000D02*
X144250000Y-114000000D01*
X144250000Y-107500000D02*
X139750000Y-107500000D01*
X145500000Y-111500000D02*
X145500000Y-110000000D01*
%TO.C,C1*%
X96761248Y-44965000D02*
X97283752Y-44965000D01*
X96761248Y-46435000D02*
X97283752Y-46435000D01*
%TO.C,C7*%
X161872752Y-69141000D02*
X161350248Y-69141000D01*
X161872752Y-70611000D02*
X161350248Y-70611000D01*
%TO.C,R15*%
X122424406Y-112265000D02*
X122878534Y-112265000D01*
X122424406Y-113735000D02*
X122878534Y-113735000D01*
%TO.C,C14*%
X89698748Y-101765000D02*
X90221252Y-101765000D01*
X89698748Y-103235000D02*
X90221252Y-103235000D01*
%TO.C,R19*%
X159722936Y-46765000D02*
X160177064Y-46765000D01*
X159722936Y-48235000D02*
X160177064Y-48235000D01*
%TO.C,R3*%
X97228064Y-57284000D02*
X96773936Y-57284000D01*
X97228064Y-58754000D02*
X96773936Y-58754000D01*
%TO.C,R14*%
X126878534Y-103265000D02*
X126424406Y-103265000D01*
X126878534Y-104735000D02*
X126424406Y-104735000D01*
%TO.C,C11*%
X115238748Y-60765000D02*
X115761252Y-60765000D01*
X115238748Y-62235000D02*
X115761252Y-62235000D01*
%TO.C,J1*%
X87330000Y-41688000D02*
X87330000Y-45688000D01*
X87620000Y-40658000D02*
X87620000Y-46678000D01*
X87620000Y-46678000D02*
X92920000Y-46678000D01*
X88200000Y-40658000D02*
X88200000Y-41258000D01*
X88200000Y-41258000D02*
X89800000Y-41258000D01*
X89000000Y-45678000D02*
X89250000Y-45148000D01*
X89000000Y-45678000D02*
X91540000Y-45678000D01*
X89000000Y-46678000D02*
X89000000Y-45678000D01*
X89250000Y-45148000D02*
X91290000Y-45148000D01*
X89250000Y-46678000D02*
X89250000Y-45678000D01*
X89800000Y-41258000D02*
X89800000Y-40658000D01*
X90740000Y-40658000D02*
X90740000Y-41258000D01*
X90740000Y-41258000D02*
X92340000Y-41258000D01*
X91290000Y-45148000D02*
X91540000Y-45678000D01*
X91290000Y-46678000D02*
X91290000Y-45678000D01*
X91540000Y-45678000D02*
X91540000Y-46678000D01*
X92340000Y-41258000D02*
X92340000Y-40658000D01*
X92920000Y-40658000D02*
X87620000Y-40658000D01*
X92920000Y-46678000D02*
X92920000Y-40658000D01*
%TO.C,C9*%
X157300752Y-69141000D02*
X156778248Y-69141000D01*
X157300752Y-70611000D02*
X156778248Y-70611000D01*
%TO.C,C17*%
X135738748Y-88765000D02*
X136261252Y-88765000D01*
X135738748Y-90235000D02*
X136261252Y-90235000D01*
%TO.C,R2*%
X97212064Y-49029000D02*
X96757936Y-49029000D01*
X97212064Y-50499000D02*
X96757936Y-50499000D01*
%TO.C,C4*%
X96739748Y-70111000D02*
X97262252Y-70111000D01*
X96739748Y-71581000D02*
X97262252Y-71581000D01*
%TO.C,C10*%
X110776248Y-60765000D02*
X111298752Y-60765000D01*
X110776248Y-62235000D02*
X111298752Y-62235000D01*
%TO.C,Q2*%
X122588970Y-107990000D02*
X121938970Y-107990000D01*
X122588970Y-107990000D02*
X123238970Y-107990000D01*
X122588970Y-111110000D02*
X121938970Y-111110000D01*
X122588970Y-111110000D02*
X123238970Y-111110000D01*
X121426470Y-108040000D02*
X121186470Y-107710000D01*
X121666470Y-107710000D01*
X121426470Y-108040000D01*
G36*
X121426470Y-108040000D02*
G01*
X121186470Y-107710000D01*
X121666470Y-107710000D01*
X121426470Y-108040000D01*
G37*
%TO.C,L2*%
X165713748Y-54290000D02*
X166236252Y-54290000D01*
X165713748Y-55710000D02*
X166236252Y-55710000D01*
%TO.C,L4*%
X179688748Y-55790000D02*
X180211252Y-55790000D01*
X179688748Y-57210000D02*
X180211252Y-57210000D01*
%TO.C,C29*%
X175711252Y-57265000D02*
X175188748Y-57265000D01*
X175711252Y-58735000D02*
X175188748Y-58735000D01*
%TO.C,J2*%
X87330000Y-49923000D02*
X87330000Y-53923000D01*
X87620000Y-48893000D02*
X87620000Y-54913000D01*
X87620000Y-54913000D02*
X92920000Y-54913000D01*
X88200000Y-48893000D02*
X88200000Y-49493000D01*
X88200000Y-49493000D02*
X89800000Y-49493000D01*
X89000000Y-53913000D02*
X89250000Y-53383000D01*
X89000000Y-53913000D02*
X91540000Y-53913000D01*
X89000000Y-54913000D02*
X89000000Y-53913000D01*
X89250000Y-53383000D02*
X91290000Y-53383000D01*
X89250000Y-54913000D02*
X89250000Y-53913000D01*
X89800000Y-49493000D02*
X89800000Y-48893000D01*
X90740000Y-48893000D02*
X90740000Y-49493000D01*
X90740000Y-49493000D02*
X92340000Y-49493000D01*
X91290000Y-53383000D02*
X91540000Y-53913000D01*
X91290000Y-54913000D02*
X91290000Y-53913000D01*
X91540000Y-53913000D02*
X91540000Y-54913000D01*
X92340000Y-49493000D02*
X92340000Y-48893000D01*
X92920000Y-48893000D02*
X87620000Y-48893000D01*
X92920000Y-54913000D02*
X92920000Y-48893000D01*
%TO.C,R11*%
X118378534Y-108265000D02*
X117924406Y-108265000D01*
X118378534Y-109735000D02*
X117924406Y-109735000D01*
%TO.C,Q1*%
X122588970Y-102440000D02*
X121938970Y-102440000D01*
X122588970Y-102440000D02*
X123238970Y-102440000D01*
X122588970Y-105560000D02*
X121938970Y-105560000D01*
X122588970Y-105560000D02*
X123238970Y-105560000D01*
X121426470Y-102490000D02*
X121186470Y-102160000D01*
X121666470Y-102160000D01*
X121426470Y-102490000D01*
G36*
X121426470Y-102490000D02*
G01*
X121186470Y-102160000D01*
X121666470Y-102160000D01*
X121426470Y-102490000D01*
G37*
%TO.C,U4*%
X157214000Y-53703500D02*
X157689000Y-53703500D01*
X157214000Y-54178500D02*
X157214000Y-53703500D01*
X157214000Y-58448500D02*
X157214000Y-58623500D01*
X157689000Y-58923500D02*
X157454000Y-58923500D01*
X162434000Y-53703500D02*
X161959000Y-53703500D01*
X162434000Y-54178500D02*
X162434000Y-53703500D01*
X162434000Y-58448500D02*
X162434000Y-58923500D01*
X162434000Y-58923500D02*
X161959000Y-58923500D01*
X157214000Y-58923500D02*
X156884000Y-59163500D01*
X156884000Y-58683500D01*
X157214000Y-58923500D01*
G36*
X157214000Y-58923500D02*
G01*
X156884000Y-59163500D01*
X156884000Y-58683500D01*
X157214000Y-58923500D01*
G37*
%TO.C,U2*%
X110212500Y-92981000D02*
X109412500Y-92981000D01*
X110212500Y-92981000D02*
X111012500Y-92981000D01*
X110212500Y-96101000D02*
X109412500Y-96101000D01*
X110212500Y-96101000D02*
X111012500Y-96101000D01*
X111752500Y-96381000D02*
X111272500Y-96381000D01*
X111512500Y-96051000D01*
X111752500Y-96381000D01*
G36*
X111752500Y-96381000D02*
G01*
X111272500Y-96381000D01*
X111512500Y-96051000D01*
X111752500Y-96381000D01*
G37*
%TO.C,C5*%
X96739748Y-78620000D02*
X97262252Y-78620000D01*
X96739748Y-80090000D02*
X97262252Y-80090000D01*
%TO.C,C8*%
X123821248Y-93090000D02*
X124343752Y-93090000D01*
X123821248Y-94560000D02*
X124343752Y-94560000D01*
%TO.C,C12*%
X111526248Y-86265000D02*
X112048752Y-86265000D01*
X111526248Y-87735000D02*
X112048752Y-87735000D01*
%TO.C,C21*%
X169850248Y-70265000D02*
X170372752Y-70265000D01*
X169850248Y-71735000D02*
X170372752Y-71735000D01*
%TO.C,R17*%
X159272936Y-118765000D02*
X159727064Y-118765000D01*
X159272936Y-120235000D02*
X159727064Y-120235000D01*
%TO.C,C16*%
X131238748Y-88765000D02*
X131761252Y-88765000D01*
X131238748Y-90235000D02*
X131761252Y-90235000D01*
%TO.C,C13*%
X146951248Y-119265000D02*
X147473752Y-119265000D01*
X146951248Y-120735000D02*
X147473752Y-120735000D01*
%TO.C,J4*%
X87330000Y-66560000D02*
X87330000Y-70560000D01*
X87620000Y-65530000D02*
X87620000Y-71550000D01*
X87620000Y-71550000D02*
X92920000Y-71550000D01*
X88200000Y-65530000D02*
X88200000Y-66130000D01*
X88200000Y-66130000D02*
X89800000Y-66130000D01*
X89000000Y-70550000D02*
X89250000Y-70020000D01*
X89000000Y-70550000D02*
X91540000Y-70550000D01*
X89000000Y-71550000D02*
X89000000Y-70550000D01*
X89250000Y-70020000D02*
X91290000Y-70020000D01*
X89250000Y-71550000D02*
X89250000Y-70550000D01*
X89800000Y-66130000D02*
X89800000Y-65530000D01*
X90740000Y-65530000D02*
X90740000Y-66130000D01*
X90740000Y-66130000D02*
X92340000Y-66130000D01*
X91290000Y-70020000D02*
X91540000Y-70550000D01*
X91290000Y-71550000D02*
X91290000Y-70550000D01*
X91540000Y-70550000D02*
X91540000Y-71550000D01*
X92340000Y-66130000D02*
X92340000Y-65530000D01*
X92920000Y-65530000D02*
X87620000Y-65530000D01*
X92920000Y-71550000D02*
X92920000Y-65530000D01*
%TO.C,C3*%
X96739748Y-61602000D02*
X97262252Y-61602000D01*
X96739748Y-63072000D02*
X97262252Y-63072000D01*
%TO.C,C15*%
X117979248Y-98678000D02*
X118501752Y-98678000D01*
X117979248Y-100148000D02*
X118501752Y-100148000D01*
%TO.C,R4*%
X97212064Y-65793000D02*
X96757936Y-65793000D01*
X97212064Y-67263000D02*
X96757936Y-67263000D01*
%TO.C,C24*%
X171211252Y-57265000D02*
X170688748Y-57265000D01*
X171211252Y-58735000D02*
X170688748Y-58735000D01*
%TO.C,R7*%
X123563936Y-98551000D02*
X124018064Y-98551000D01*
X123563936Y-100021000D02*
X124018064Y-100021000D01*
%TO.C,D2*%
X88523000Y-94026000D02*
X88523000Y-100046000D01*
X88523000Y-100046000D02*
X93823000Y-100046000D01*
X89103000Y-99446000D02*
X89103000Y-100046000D01*
X89903000Y-95026000D02*
X89903000Y-94026000D01*
X90153000Y-94026000D02*
X90153000Y-95026000D01*
X90153000Y-95556000D02*
X89903000Y-95026000D01*
X90703000Y-99446000D02*
X89103000Y-99446000D01*
X90703000Y-100046000D02*
X90703000Y-99446000D01*
X91643000Y-99446000D02*
X91643000Y-100046000D01*
X92193000Y-94026000D02*
X92193000Y-95026000D01*
X92193000Y-95556000D02*
X90153000Y-95556000D01*
X92443000Y-94026000D02*
X92443000Y-95026000D01*
X92443000Y-95026000D02*
X89903000Y-95026000D01*
X92443000Y-95026000D02*
X92193000Y-95556000D01*
X93243000Y-99446000D02*
X91643000Y-99446000D01*
X93243000Y-100046000D02*
X93243000Y-99446000D01*
X93823000Y-94026000D02*
X88523000Y-94026000D01*
X93823000Y-100046000D02*
X93823000Y-94026000D01*
X94113000Y-99016000D02*
X94113000Y-95016000D01*
%TD*%
M02*
