M48
INCH,TZ
T1C0.0118
T2C0.0118
T3C0.0236
T4C0.0315
T5C0.0394
T6C0.0433
T7C0.0469
%
G90
G05
T1
X34843Y-44882
X38189Y-48819
X38598Y-21192
X38598Y-24542
X38598Y-27892
X38598Y-31242
X38606Y-17992
X39567Y-45029
X39567Y-45669
X42480Y-49272
X43337Y-38897
X43839Y-37221
X44124Y-24213
X45543Y-36897
X45881Y-24213
X46063Y-25250
X46123Y-41535
X46260Y-34646
X46579Y-24649
X46654Y-31299
X46960Y-39139
X47175Y-42195
X49213Y-37008
X49409Y-32677
X50197Y-39567
X51363Y-35236
X51969Y-45276
X52559Y-36614
X52559Y-41142
X53135Y-35236
X53212Y-36024
X53382Y-41177
X53664Y-39097
X53740Y-44488
X53937Y-30512
X53976Y-41339
X54173Y-33071
X54173Y-33465
X54173Y-34055
X54173Y-34449
X54173Y-36024
X54331Y-32087
X54488Y-31693
X54528Y-27165
X54724Y-27559
X54724Y-28150
X54724Y-35039
X54921Y-29331
X54921Y-30512
X54921Y-33268
X54921Y-33661
X54921Y-34252
X54921Y-34646
X55315Y-27559
X55315Y-29528
X55492Y-45689
X55709Y-29134
X56890Y-35433
X56890Y-36811
X57087Y-27323
X57087Y-33661
X57480Y-32244
X57677Y-34843
X57677Y-36811
X58465Y-36024
X58465Y-36811
X58858Y-34055
X58858Y-36811
X59055Y-45669
X60039Y-27559
X60236Y-25000
X61333Y-20280
X61417Y-22230
X61417Y-23819
X62199Y-20661
X62234Y-23731
X62234Y-24203
X62234Y-24794
X62234Y-26959
X62235Y-27510
X62651Y-20808
X62795Y-23622
X63021Y-20817
X63376Y-20719
X63583Y-19488
X64035Y-27510
X64247Y-23031
X64338Y-22516
X64370Y-21836
X64370Y-24409
X64370Y-25787
X64990Y-22362
X66368Y-25394
X68336Y-26920
X69911Y-21605
X69911Y-22786
T2
X49449Y-26386
X49449Y-26937
X49724Y-26110
X49724Y-26661
X49724Y-27213
X50000Y-26386
X50000Y-26937
X50276Y-26110
X50276Y-26661
X50276Y-27213
X50551Y-26386
X50551Y-26937
X52714Y-37283
X52941Y-36909
X52941Y-37657
X53167Y-37283
T4
X38142Y-35795
X38142Y-36795
X38142Y-37795
X38142Y-38795
X38142Y-39795
X38142Y-40795
X38142Y-41795
X41142Y-35795
X41142Y-36795
X41142Y-37795
X41142Y-38795
X41142Y-39795
X41142Y-40795
X41142Y-41795
T5
X60495Y-32311
X60495Y-33311
X60495Y-34311
X60495Y-35311
X60495Y-36311
X60495Y-37311
X60495Y-38311
X60495Y-39311
X60495Y-40311
X60495Y-41311
X64157Y-15945
X65157Y-15945
X66157Y-15945
X67157Y-15945
X68157Y-15945
X70495Y-32311
X70495Y-33311
X70495Y-40311
X70495Y-41311
T6
X41043Y-28898
X41043Y-30669
X43602Y-28898
X43602Y-30669
X54626Y-42717
X54626Y-44488
X57185Y-42717
X57185Y-44488
T7
X35039Y-17200
X35039Y-20442
X35039Y-23700
X35039Y-26992
X35039Y-30242
X35395Y-38195
X35811Y-34055
X36039Y-17200
X36039Y-20442
X36039Y-23700
X36039Y-26992
X36039Y-30242
X36395Y-38195
X36811Y-34055
X45543Y-36897
X46543Y-36897
X47409Y-33071
X48409Y-33071
X49409Y-33071
T3
G00X39047Y-46191
M15
G01X39047Y-46585
M16
G05
G00X39047Y-47638
M15
G01X39047Y-48150
M16
G05
G00X42449Y-46191
M15
G01X42449Y-46585
M16
G05
G00X42449Y-47638
M15
G01X42449Y-48150
M16
G05
M30
