%TF.GenerationSoftware,KiCad,Pcbnew,9.0.0*%
%TF.CreationDate,2025-03-06T16:27:16-06:00*%
%TF.ProjectId,445 Design Document Schematic,34343520-4465-4736-9967-6e20446f6375,rev?*%
%TF.SameCoordinates,Original*%
%TF.FileFunction,Soldermask,Top*%
%TF.FilePolarity,Negative*%
%FSLAX46Y46*%
G04 Gerber Fmt 4.6, Leading zero omitted, Abs format (unit mm)*
G04 Created by KiCad (PCBNEW 9.0.0) date 2025-03-06 16:27:16*
%MOMM*%
%LPD*%
G01*
G04 APERTURE LIST*
G04 Aperture macros list*
%AMRoundRect*
0 Rectangle with rounded corners*
0 $1 Rounding radius*
0 $2 $3 $4 $5 $6 $7 $8 $9 X,Y pos of 4 corners*
0 Add a 4 corners polygon primitive as box body*
4,1,4,$2,$3,$4,$5,$6,$7,$8,$9,$2,$3,0*
0 Add four circle primitives for the rounded corners*
1,1,$1+$1,$2,$3*
1,1,$1+$1,$4,$5*
1,1,$1+$1,$6,$7*
1,1,$1+$1,$8,$9*
0 Add four rect primitives between the rounded corners*
20,1,$1+$1,$2,$3,$4,$5,0*
20,1,$1+$1,$4,$5,$6,$7,0*
20,1,$1+$1,$6,$7,$8,$9,0*
20,1,$1+$1,$8,$9,$2,$3,0*%
%AMFreePoly0*
4,1,21,-0.125000,1.200000,0.125000,1.200000,0.125000,1.700000,0.375000,1.700000,0.375000,1.200000,0.825000,1.200000,0.825000,-1.200000,0.375000,-1.200000,0.375000,-1.700000,0.125000,-1.700000,0.125000,-1.200000,-0.125000,-1.200000,-0.125000,-1.700000,-0.375000,-1.700000,-0.375000,-1.200000,-0.825000,-1.200000,-0.825000,1.200000,-0.375000,1.200000,-0.375000,1.700000,-0.125000,1.700000,
-0.125000,1.200000,-0.125000,1.200000,$1*%
G04 Aperture macros list end*
%ADD10R,1.500000X0.900000*%
%ADD11R,0.900000X1.500000*%
%ADD12C,0.600000*%
%ADD13R,3.900000X3.900000*%
%ADD14R,1.000000X1.500000*%
%ADD15RoundRect,0.250000X-0.350000X-0.450000X0.350000X-0.450000X0.350000X0.450000X-0.350000X0.450000X0*%
%ADD16O,3.200000X1.900000*%
%ADD17RoundRect,0.250000X-0.337500X-0.475000X0.337500X-0.475000X0.337500X0.475000X-0.337500X0.475000X0*%
%ADD18R,0.300000X1.100000*%
%ADD19O,1.740000X2.190000*%
%ADD20RoundRect,0.250000X-0.620000X-0.845000X0.620000X-0.845000X0.620000X0.845000X-0.620000X0.845000X0*%
%ADD21RoundRect,0.250000X0.350000X0.450000X-0.350000X0.450000X-0.350000X-0.450000X0.350000X-0.450000X0*%
%ADD22R,2.290000X3.000000*%
%ADD23RoundRect,0.150000X0.825000X0.150000X-0.825000X0.150000X-0.825000X-0.150000X0.825000X-0.150000X0*%
%ADD24RoundRect,0.060000X-0.240000X-0.060000X0.240000X-0.060000X0.240000X0.060000X-0.240000X0.060000X0*%
%ADD25FreePoly0,0.000000*%
%ADD26RoundRect,0.250000X-0.325000X-0.450000X0.325000X-0.450000X0.325000X0.450000X-0.325000X0.450000X0*%
%ADD27RoundRect,0.150000X0.512500X0.150000X-0.512500X0.150000X-0.512500X-0.150000X0.512500X-0.150000X0*%
%ADD28RoundRect,0.250000X0.620000X0.845000X-0.620000X0.845000X-0.620000X-0.845000X0.620000X-0.845000X0*%
%ADD29RoundRect,0.250000X0.337500X0.475000X-0.337500X0.475000X-0.337500X-0.475000X0.337500X-0.475000X0*%
%ADD30R,1.100000X0.300000*%
%ADD31C,3.200000*%
%ADD32R,1.600000X1.300000*%
%ADD33RoundRect,0.150000X-0.587500X-0.150000X0.587500X-0.150000X0.587500X0.150000X-0.587500X0.150000X0*%
%ADD34RoundRect,0.150000X-0.825000X-0.150000X0.825000X-0.150000X0.825000X0.150000X-0.825000X0.150000X0*%
%ADD35O,1.300000X2.600000*%
%ADD36O,1.300000X2.300000*%
%ADD37R,0.520000X1.000000*%
%ADD38R,0.270000X1.000000*%
%ADD39O,0.850000X0.600000*%
%ADD40R,1.000000X2.000000*%
G04 APERTURE END LIST*
%TO.C,JP1*%
G36*
X158500000Y-99250000D02*
G01*
X160100000Y-99250000D01*
X160100000Y-100750000D01*
X158500000Y-100750000D01*
X158500000Y-99250000D01*
G37*
%TD*%
D10*
%TO.C,U5*%
X119750000Y-60000000D03*
X119750000Y-61270000D03*
X119750000Y-62540000D03*
X119750000Y-63810000D03*
X119750000Y-65080000D03*
X119750000Y-66350000D03*
X119750000Y-67620000D03*
X119750000Y-68890000D03*
X119750000Y-70160000D03*
X119750000Y-71430000D03*
X119750000Y-72700000D03*
X119750000Y-73970000D03*
X119750000Y-75240000D03*
X119750000Y-76510000D03*
D11*
X121515000Y-77760000D03*
X122785000Y-77760000D03*
X124055000Y-77760000D03*
X125325000Y-77760000D03*
X126595000Y-77760000D03*
X127865000Y-77760000D03*
X129135000Y-77760000D03*
X130405000Y-77760000D03*
X131675000Y-77760000D03*
X132945000Y-77760000D03*
X134215000Y-77760000D03*
X135485000Y-77760000D03*
D10*
X137250000Y-76510000D03*
X137250000Y-75240000D03*
X137250000Y-73970000D03*
X137250000Y-72700000D03*
X137250000Y-71430000D03*
X137250000Y-70160000D03*
X137250000Y-68890000D03*
X137250000Y-67620000D03*
X137250000Y-66350000D03*
X137250000Y-65080000D03*
X137250000Y-63810000D03*
X137250000Y-62540000D03*
X137250000Y-61270000D03*
X137250000Y-60000000D03*
D12*
X125600000Y-67020000D03*
X125600000Y-68420000D03*
X126300000Y-66320000D03*
X126300000Y-67720000D03*
X126300000Y-69120000D03*
X127000000Y-67020000D03*
D13*
X127000000Y-67720000D03*
D12*
X127000000Y-68420000D03*
X127700000Y-66320000D03*
X127700000Y-67720000D03*
X127700000Y-69120000D03*
X128400000Y-67020000D03*
X128400000Y-68420000D03*
%TD*%
D14*
%TO.C,JP1*%
X160600000Y-100000000D03*
X159300000Y-100000000D03*
X158000000Y-100000000D03*
%TD*%
D15*
%TO.C,R17*%
X160300000Y-103500000D03*
X158300000Y-103500000D03*
%TD*%
%TO.C,R12*%
X106250000Y-87000000D03*
X108250000Y-87000000D03*
%TD*%
D16*
%TO.C,SW1*%
X101250000Y-75000000D03*
X113750000Y-75000000D03*
X101250000Y-80000000D03*
X113750000Y-80000000D03*
%TD*%
D17*
%TO.C,C12*%
X110750000Y-87000000D03*
X112825000Y-87000000D03*
%TD*%
%TO.C,C6*%
X111037500Y-91000000D03*
X108962500Y-91000000D03*
%TD*%
D18*
%TO.C,U8*%
X136000000Y-87000000D03*
X136000000Y-81500000D03*
X135500000Y-87000000D03*
X135500000Y-81500000D03*
X135000000Y-87000000D03*
X135000000Y-81500000D03*
X134500000Y-87000000D03*
X134500000Y-81500000D03*
X134000000Y-87000000D03*
X134000000Y-81500000D03*
X133500000Y-87000000D03*
X133500000Y-81500000D03*
X133000000Y-87000000D03*
X133000000Y-81500000D03*
X132500000Y-87000000D03*
X132500000Y-81500000D03*
X132000000Y-87000000D03*
X132000000Y-81500000D03*
X131500000Y-87000000D03*
X131500000Y-81500000D03*
%TD*%
D17*
%TO.C,C17*%
X134962500Y-89500000D03*
X137037500Y-89500000D03*
%TD*%
%TO.C,C16*%
X130462500Y-89500000D03*
X132537500Y-89500000D03*
%TD*%
%TO.C,C2*%
X98038500Y-53828000D03*
X95963500Y-53828000D03*
%TD*%
D19*
%TO.C,J5*%
X91540000Y-76815000D03*
D20*
X89000000Y-76815000D03*
%TD*%
D21*
%TO.C,R5*%
X96001000Y-74910000D03*
X98001000Y-74910000D03*
%TD*%
%TO.C,R1*%
X96001000Y-41509000D03*
X98001000Y-41509000D03*
%TD*%
D19*
%TO.C,J3*%
X91540000Y-60198000D03*
D20*
X89000000Y-60198000D03*
%TD*%
D17*
%TO.C,C1*%
X98060000Y-45700000D03*
X95985000Y-45700000D03*
%TD*%
D21*
%TO.C,R3*%
X96001000Y-58019000D03*
X98001000Y-58019000D03*
%TD*%
D19*
%TO.C,J1*%
X91540000Y-43688000D03*
D20*
X89000000Y-43688000D03*
%TD*%
D21*
%TO.C,R2*%
X95985000Y-49764000D03*
X97985000Y-49764000D03*
%TD*%
D17*
%TO.C,C4*%
X98038500Y-70846000D03*
X95963500Y-70846000D03*
%TD*%
D19*
%TO.C,J2*%
X91540000Y-51923000D03*
D20*
X89000000Y-51923000D03*
%TD*%
D17*
%TO.C,C5*%
X95963500Y-79355000D03*
X98038500Y-79355000D03*
%TD*%
D19*
%TO.C,J4*%
X91540000Y-68560000D03*
D20*
X89000000Y-68560000D03*
%TD*%
D17*
%TO.C,C3*%
X98038500Y-62337000D03*
X95963500Y-62337000D03*
%TD*%
D21*
%TO.C,R4*%
X95985000Y-66528000D03*
X97985000Y-66528000D03*
%TD*%
D17*
%TO.C,C18*%
X94037500Y-109500000D03*
X91962500Y-109500000D03*
%TD*%
D20*
%TO.C,J7*%
X115679000Y-93718000D03*
D19*
X118219000Y-93718000D03*
%TD*%
D15*
%TO.C,R6*%
X91000000Y-88630000D03*
X89000000Y-88630000D03*
%TD*%
%TO.C,R8*%
X91000000Y-93202000D03*
X89000000Y-93202000D03*
%TD*%
D19*
%TO.C,D1*%
X96540000Y-88000000D03*
D20*
X94000000Y-88000000D03*
%TD*%
D22*
%TO.C,U7*%
X102025000Y-95095000D03*
D23*
X99550000Y-97000000D03*
X99550000Y-95730000D03*
X99550000Y-94460000D03*
X99550000Y-93190000D03*
X104500000Y-93190000D03*
X104500000Y-94460000D03*
X104500000Y-95730000D03*
X104500000Y-97000000D03*
%TD*%
D24*
%TO.C,U3*%
X133069000Y-93698000D03*
X133069000Y-94198000D03*
X133069000Y-94698000D03*
X133069000Y-95198000D03*
X133069000Y-95698000D03*
X135869000Y-95698000D03*
X135869000Y-95198000D03*
X135869000Y-94698000D03*
X135869000Y-94198000D03*
X135869000Y-93698000D03*
D25*
X134469000Y-94698000D03*
%TD*%
D26*
%TO.C,L1*%
X127853000Y-93825000D03*
X129903000Y-93825000D03*
%TD*%
D15*
%TO.C,R9*%
X108075000Y-98798000D03*
X110075000Y-98798000D03*
%TD*%
D17*
%TO.C,C14*%
X94037500Y-104000000D03*
X91962500Y-104000000D03*
%TD*%
D27*
%TO.C,U2*%
X111350000Y-95491000D03*
X111350000Y-94541000D03*
X111350000Y-93591000D03*
X109075000Y-93591000D03*
X109075000Y-94541000D03*
X109075000Y-95491000D03*
%TD*%
D17*
%TO.C,C8*%
X123045000Y-93825000D03*
X125120000Y-93825000D03*
%TD*%
%TO.C,C15*%
X117203000Y-99413000D03*
X119278000Y-99413000D03*
%TD*%
D15*
%TO.C,R7*%
X122791000Y-99286000D03*
X124791000Y-99286000D03*
%TD*%
D19*
%TO.C,D2*%
X92943000Y-98516000D03*
D28*
X95483000Y-98516000D03*
%TD*%
D19*
%TO.C,J6*%
X125500000Y-84000000D03*
X122960000Y-84000000D03*
D20*
X120420000Y-84000000D03*
%TD*%
D29*
%TO.C,C7*%
X148000000Y-94000000D03*
X150075000Y-94000000D03*
%TD*%
%TO.C,C9*%
X143428000Y-94000000D03*
X145503000Y-94000000D03*
%TD*%
D30*
%TO.C,U4*%
X144626000Y-88124000D03*
X150126000Y-88124000D03*
X144626000Y-87624000D03*
X150126000Y-87624000D03*
X144626000Y-87124000D03*
X150126000Y-87124000D03*
X144626000Y-86624000D03*
X150126000Y-86624000D03*
X144626000Y-86124000D03*
X150126000Y-86124000D03*
X144626000Y-85624000D03*
X150126000Y-85624000D03*
X144626000Y-85124000D03*
X150126000Y-85124000D03*
X144626000Y-84624000D03*
X150126000Y-84624000D03*
X144626000Y-84124000D03*
X150126000Y-84124000D03*
X144626000Y-83624000D03*
X150126000Y-83624000D03*
X144626000Y-83124000D03*
X150126000Y-83124000D03*
X144626000Y-82624000D03*
X150126000Y-82624000D03*
X144626000Y-82124000D03*
X150126000Y-82124000D03*
X144626000Y-81624000D03*
X150126000Y-81624000D03*
X144626000Y-81124000D03*
X150126000Y-81124000D03*
X144626000Y-80624000D03*
X150126000Y-80624000D03*
X144626000Y-80124000D03*
X150126000Y-80124000D03*
%TD*%
D23*
%TO.C,U9*%
X157200000Y-66614000D03*
X157200000Y-65344000D03*
X157200000Y-64074000D03*
X157200000Y-62804000D03*
X152250000Y-62804000D03*
X152250000Y-64074000D03*
X152250000Y-65344000D03*
X152250000Y-66614000D03*
D22*
X154725000Y-64709000D03*
%TD*%
D31*
%TO.C,H1*%
X168500000Y-35500000D03*
%TD*%
%TO.C,H2*%
X87000000Y-35500000D03*
%TD*%
%TO.C,H3*%
X169000000Y-119500000D03*
%TD*%
%TO.C,H4*%
X87500000Y-119500000D03*
%TD*%
D17*
%TO.C,C19*%
X155537500Y-57500000D03*
X153462500Y-57500000D03*
%TD*%
D15*
%TO.C,R18*%
X159500000Y-57500000D03*
X157500000Y-57500000D03*
%TD*%
D32*
%TO.C,Y1*%
X157500000Y-89500000D03*
X160800000Y-89500000D03*
X160800000Y-87500000D03*
X157500000Y-87500000D03*
%TD*%
D16*
%TO.C,SW2*%
X140750000Y-101000000D03*
X153250000Y-101000000D03*
X140750000Y-106000000D03*
X153250000Y-106000000D03*
%TD*%
D15*
%TO.C,R22*%
X161876000Y-84624000D03*
X163876000Y-84624000D03*
%TD*%
%TO.C,R21*%
X161876000Y-76124000D03*
X163876000Y-76124000D03*
%TD*%
%TO.C,R20*%
X152376000Y-75124000D03*
X154376000Y-75124000D03*
%TD*%
%TO.C,R19*%
X146376000Y-71624000D03*
X148376000Y-71624000D03*
%TD*%
%TO.C,R16*%
X143750000Y-112500000D03*
X145750000Y-112500000D03*
%TD*%
%TO.C,R15*%
X121651470Y-113000000D03*
X123651470Y-113000000D03*
%TD*%
D21*
%TO.C,R14*%
X127651470Y-104000000D03*
X125651470Y-104000000D03*
%TD*%
D15*
%TO.C,R13*%
X115500000Y-86000000D03*
X117500000Y-86000000D03*
%TD*%
D21*
%TO.C,R11*%
X119151470Y-109000000D03*
X117151470Y-109000000D03*
%TD*%
%TO.C,R10*%
X119151470Y-104000000D03*
X117151470Y-104000000D03*
%TD*%
D33*
%TO.C,Q2*%
X121651470Y-108600000D03*
X121651470Y-110500000D03*
X123526470Y-109550000D03*
%TD*%
%TO.C,Q1*%
X121651470Y-103050000D03*
X121651470Y-104950000D03*
X123526470Y-104000000D03*
%TD*%
D26*
%TO.C,L4*%
X166351000Y-80624000D03*
X168401000Y-80624000D03*
%TD*%
%TO.C,L3*%
X152376000Y-82124000D03*
X154426000Y-82124000D03*
%TD*%
%TO.C,L2*%
X152376000Y-79124000D03*
X154426000Y-79124000D03*
%TD*%
D29*
%TO.C,C29*%
X163913500Y-82124000D03*
X161838500Y-82124000D03*
%TD*%
D17*
%TO.C,C28*%
X161838500Y-79124000D03*
X163913500Y-79124000D03*
%TD*%
%TO.C,C27*%
X157376000Y-84624000D03*
X159451000Y-84624000D03*
%TD*%
%TO.C,C26*%
X157338500Y-76124000D03*
X159413500Y-76124000D03*
%TD*%
%TO.C,C25*%
X157338500Y-79124000D03*
X159413500Y-79124000D03*
%TD*%
D29*
%TO.C,C24*%
X159413500Y-82124000D03*
X157338500Y-82124000D03*
%TD*%
D17*
%TO.C,C23*%
X152376000Y-71624000D03*
X154451000Y-71624000D03*
%TD*%
%TO.C,C22*%
X146376000Y-75124000D03*
X148451000Y-75124000D03*
%TD*%
%TO.C,C21*%
X156500000Y-92000000D03*
X158575000Y-92000000D03*
%TD*%
D29*
%TO.C,C20*%
X165575000Y-89000000D03*
X163500000Y-89000000D03*
%TD*%
D17*
%TO.C,C13*%
X148175000Y-112500000D03*
X150250000Y-112500000D03*
%TD*%
%TO.C,C11*%
X114462500Y-61500000D03*
X116537500Y-61500000D03*
%TD*%
%TO.C,C10*%
X110000000Y-61500000D03*
X112075000Y-61500000D03*
%TD*%
D34*
%TO.C,U6*%
X149725000Y-59859000D03*
X149725000Y-61129000D03*
X149725000Y-62399000D03*
X149725000Y-63669000D03*
X149725000Y-64939000D03*
X149725000Y-66209000D03*
X149725000Y-67479000D03*
X149725000Y-68749000D03*
X144775000Y-68749000D03*
X144775000Y-67479000D03*
X144775000Y-66209000D03*
X144775000Y-64939000D03*
X144775000Y-63669000D03*
X144775000Y-62399000D03*
X144775000Y-61129000D03*
X144775000Y-59859000D03*
%TD*%
D35*
%TO.C,P2*%
X108820000Y-107150000D03*
D36*
X108820000Y-103325000D03*
D35*
X100180000Y-107150000D03*
D36*
X100180000Y-103325000D03*
D37*
X101400000Y-102950000D03*
X102150000Y-102950000D03*
D38*
X103250000Y-102950000D03*
X103750000Y-102950000D03*
X104750000Y-102950000D03*
X105750000Y-102950000D03*
D37*
X106850000Y-102950000D03*
X107600000Y-102950000D03*
X107600000Y-102950000D03*
X106850000Y-102950000D03*
D38*
X106250000Y-102950000D03*
X105250000Y-102950000D03*
X104250000Y-102950000D03*
X102750000Y-102950000D03*
D37*
X102150000Y-102950000D03*
X101400000Y-102950000D03*
D39*
X107500000Y-104050000D03*
D40*
X105900000Y-107150000D03*
X103100000Y-107150000D03*
D12*
X101500000Y-104050000D03*
%TD*%
M02*
